<svg xmlns="http://www.w3.org/2000/svg" xmlns:xlink="http://www.w3.org/1999/xlink" width="1920" zoomAndPan="magnify" viewBox="0 0 1440 809.999993" height="1080" preserveAspectRatio="xMidYMid meet" version="1.0"><defs><clipPath id="de9c028c1c"><path d="M 1275 329 L 1417.945312 329 L 1417.945312 536 L 1275 536 Z M 1275 329 " clip-rule="nonzero"/></clipPath><clipPath id="0e6ab7764b"><path d="M 432 329 L 640 329 L 640 626.175781 L 432 626.175781 Z M 432 329 " clip-rule="nonzero"/></clipPath><clipPath id="6544a57d4d"><path d="M 102 183.824219 L 155 183.824219 L 155 246 L 102 246 Z M 102 183.824219 " clip-rule="nonzero"/></clipPath><clipPath id="786fde3961"><path d="M 162 183.824219 L 214 183.824219 L 214 246 L 162 246 Z M 162 183.824219 " clip-rule="nonzero"/></clipPath><clipPath id="cd7c13ce47"><path d="M 6.625 262 L 250 262 L 250 536 L 6.625 536 Z M 6.625 262 " clip-rule="nonzero"/></clipPath></defs><path fill="#4cb848" d="M 288.628906 306.773438 L 294.238281 264.207031 C 294.367188 263.109375 295.25 262.34375 296.371094 262.34375 L 347.640625 262.34375 C 349.257812 262.34375 350.660156 263.898438 350.464844 265.496094 L 344.855469 308.066406 C 344.726562 309.160156 343.84375 309.929688 342.722656 309.929688 L 291.476562 309.929688 C 289.859375 309.929688 288.457031 308.371094 288.652344 306.773438 M 259.707031 532.320312 L 285.460938 331.59375 C 285.609375 330.5 286.472656 329.734375 287.59375 329.734375 L 338.863281 329.734375 C 340.480469 329.734375 341.878906 331.289062 341.6875 332.886719 L 315.933594 533.59375 C 315.785156 534.6875 314.921875 535.453125 313.800781 535.453125 L 262.53125 535.453125 C 260.914062 535.453125 259.511719 533.898438 259.707031 532.296875 " fill-opacity="1" fill-rule="nonzero"/><path fill="#4cb848" d="M 347.316406 532.320312 L 381.675781 264.25 C 381.828125 263.152344 382.6875 262.386719 383.8125 262.386719 L 435.078125 262.386719 C 436.695312 262.386719 438.097656 263.941406 437.902344 265.542969 L 403.542969 533.613281 C 403.394531 534.707031 402.53125 535.476562 401.410156 535.476562 L 350.140625 535.476562 C 348.523438 535.476562 347.125 533.921875 347.316406 532.320312 Z M 347.316406 532.320312 " fill-opacity="1" fill-rule="nonzero"/><path fill="#4cb848" d="M 752.71875 376.398438 C 722.433594 376.398438 705.222656 394.867188 700.113281 432.898438 C 697.265625 453.996094 699.917969 469.203125 708.003906 478.074219 C 714.089844 484.757812 723.621094 488.128906 736.347656 488.128906 C 766.371094 488.128906 783.472656 469.640625 788.605469 431.628906 C 791.453125 410.464844 788.820312 395.238281 780.734375 386.367188 C 774.71875 379.75 765.292969 376.398438 752.71875 376.398438 Z M 731.277344 535.476562 C 700.027344 535.476562 676.0625 525.925781 660.101562 507.082031 C 644.207031 488.066406 638.253906 462.675781 642.4375 431.609375 C 646.625 400.519531 659.109375 375.390625 679.539062 356.921875 C 700.261719 338.167969 726.597656 328.660156 757.828125 328.660156 C 789.058594 328.660156 813.171875 338.34375 828.660156 357.46875 C 844.058594 376.203125 849.753906 401.59375 845.546875 432.878906 C 841.382812 463.703125 828.917969 488.832031 808.46875 507.566406 C 788.261719 526.078125 762.292969 535.476562 731.300781 535.476562 " fill-opacity="1" fill-rule="nonzero"/><g clip-path="url(#de9c028c1c)"><path fill="#4cb848" d="M 1415.378906 337.621094 C 1416.910156 337.796875 1418.097656 339.285156 1417.902344 340.773438 L 1412.402344 383.761719 C 1412.167969 385.6875 1410.464844 386.894531 1408.5 386.5625 L 1408.285156 386.519531 C 1403.648438 385.796875 1400.519531 385.710938 1396.097656 385.710938 C 1367.800781 385.710938 1350.847656 398.4375 1345.628906 425.058594 L 1345.628906 425.277344 L 1331.695312 533.242188 C 1331.546875 534.335938 1330.679688 535.101562 1329.5625 535.101562 L 1278.789062 535.101562 C 1277.171875 535.101562 1275.769531 533.546875 1275.960938 531.949219 L 1284.074219 468.238281 L 1289.53125 425.277344 L 1301.4375 331.59375 C 1301.585938 330.5 1302.449219 329.734375 1303.570312 329.734375 L 1354.644531 329.734375 C 1356.261719 329.734375 1357.664062 331.289062 1357.46875 332.886719 L 1354.644531 354.882812 L 1352.960938 354.511719 C 1352.875 355.167969 1352.355469 353 1352.292969 353.546875 C 1353.261719 352.648438 1354.210938 351.796875 1355.140625 350.984375 C 1364.199219 342.945312 1375.757812 338.015625 1388.484375 337.074219 C 1391.980469 336.808594 1395.558594 336.679688 1399.183594 336.679688 C 1404.8125 336.679688 1410.203125 336.984375 1415.359375 337.621094 " fill-opacity="1" fill-rule="nonzero"/></g><path fill="#4cb848" d="M 1047.988281 404.15625 L 1031.382812 533.636719 C 1031.230469 534.730469 1030.367188 535.5 1029.246094 535.5 L 977.976562 535.5 C 976.359375 535.5 974.960938 533.941406 975.152344 532.34375 L 990.746094 410.597656 C 992.300781 398.484375 990.660156 389.632812 985.851562 384.242188 C 981.6875 379.597656 974.851562 377.230469 965.535156 377.230469 C 954.945312 377.230469 945.5625 380.429688 937.625 386.738281 C 929.730469 393.003906 925.050781 401.460938 923.710938 411.910156 L 908.117188 533.636719 C 907.96875 534.730469 907.105469 535.5 905.984375 535.5 L 855.082031 535.5 C 853.464844 535.5 852.0625 533.941406 852.257812 532.34375 L 877.988281 331.617188 C 878.140625 330.523438 879 329.753906 880.125 329.753906 L 931.023438 329.753906 C 932.664062 329.753906 934.042969 331.3125 933.851562 332.910156 C 933.503906 335.515625 933.007812 339.351562 932.578125 342.769531 C 932.273438 345.070312 935.121094 346.867188 936.78125 345.441406 C 940.773438 342.046875 945.410156 339.109375 950.652344 336.65625 C 960.679688 332.363281 971.527344 330.195312 982.9375 330.195312 C 1004.507812 330.195312 1021.589844 337.09375 1033.777344 350.722656 C 1045.960938 364.328125 1050.730469 382.3125 1047.925781 404.179688 " fill-opacity="1" fill-rule="nonzero"/><path fill="#4cb848" d="M 1130.757812 411.234375 C 1128.882812 411.234375 1127.394531 409.195312 1128.082031 407.53125 C 1136.539062 386.652344 1151.851562 376.421875 1174.367188 376.421875 C 1186.921875 376.421875 1196.347656 379.773438 1202.386719 386.390625 C 1207.175781 391.648438 1210.042969 399.140625 1210.992188 408.800781 C 1211.121094 410.160156 1210.195312 411.234375 1208.859375 411.234375 Z M 1250.269531 357.492188 C 1234.804688 338.386719 1210.96875 328.683594 1179.4375 328.683594 C 1147.90625 328.683594 1121.871094 338.191406 1101.144531 356.945312 C 1080.71875 375.414062 1068.253906 400.539062 1064.070312 431.628906 C 1059.886719 462.695312 1065.816406 488.066406 1081.734375 507.105469 C 1097.71875 525.945312 1121.65625 535.476562 1152.929688 535.476562 C 1184.207031 535.476562 1209.871094 526.097656 1230.078125 507.566406 C 1240.5625 497.96875 1248.953125 486.6875 1255.207031 473.824219 C 1256.027344 472.136719 1254.539062 469.949219 1252.597656 469.949219 L 1197.964844 469.949219 C 1197.273438 469.949219 1196.652344 470.253906 1196.261719 470.78125 C 1187.398438 482.414062 1174.691406 488.109375 1158 488.109375 C 1145.273438 488.109375 1135.742188 484.714844 1129.660156 478.03125 C 1123.878906 471.699219 1120.878906 462.148438 1120.664062 449.527344 C 1120.664062 448.277344 1121.589844 447.359375 1122.820312 447.359375 L 1262.800781 447.359375 C 1263.835938 447.359375 1264.675781 446.703125 1264.890625 445.71875 C 1265.820312 441.554688 1266.574219 437.28125 1267.179688 432.878906 C 1268.191406 425.296875 1268.644531 418.066406 1268.492188 411.210938 C 1268.0625 389.695312 1261.980469 371.667969 1250.3125 357.46875 " fill-opacity="1" fill-rule="nonzero"/><g clip-path="url(#0e6ab7764b)"><path fill="#4cb848" d="M 585.90625 329.753906 C 584.789062 329.753906 583.921875 330.523438 583.773438 331.617188 L 568.179688 453.363281 C 566.84375 463.789062 562.160156 472.269531 554.265625 478.511719 C 546.328125 484.824219 536.949219 488.019531 526.378906 488.019531 C 517.042969 488.019531 510.203125 485.65625 506.042969 481.011719 C 501.230469 475.621094 499.59375 466.75 501.144531 454.65625 L 516.738281 332.910156 C 516.933594 331.3125 515.550781 329.753906 513.914062 329.753906 L 462.644531 329.753906 C 461.523438 329.753906 460.660156 330.523438 460.511719 331.617188 L 443.902344 461.097656 C 441.101562 482.9375 445.863281 500.925781 458.054688 514.554688 C 470.238281 528.179688 487.339844 535.082031 508.886719 535.082031 C 520.296875 535.082031 531.148438 532.910156 541.175781 528.617188 C 546.4375 526.164062 551.074219 523.226562 555.042969 519.832031 C 556.726562 518.410156 559.550781 520.207031 559.25 522.503906 L 557.761719 534.140625 C 556.230469 546.125 551.289062 556.246094 543.097656 564.242188 C 534.941406 572.171875 525.019531 576.183594 513.570312 576.183594 C 503.777344 576.183594 496.679688 572.851562 491.871094 565.972656 C 489.542969 562.773438 487.925781 559.113281 486.996094 555.039062 C 486.714844 553.746094 485.507812 552.761719 484.234375 552.761719 L 434.199219 552.761719 C 432.945312 552.761719 432.019531 553.703125 432.039062 554.953125 C 432.472656 573.75 439.222656 589.546875 450.480469 601.992188 C 465.019531 618.046875 485.507812 626.199219 511.390625 626.199219 C 537.273438 626.199219 559.746094 618.355469 578.964844 602.84375 C 598.222656 587.332031 609.675781 566.390625 612.976562 540.601562 L 639.59375 332.933594 C 639.808594 331.332031 638.40625 329.777344 636.765625 329.777344 L 585.867188 329.777344 Z M 585.90625 329.753906 " fill-opacity="1" fill-rule="nonzero"/></g><path fill="#4cb848" d="M 104.03125 552.652344 C 105.886719 552.652344 107.332031 554.316406 107.09375 556.199219 L 99.847656 612.417969 C 99.695312 613.601562 98.769531 614.390625 97.582031 614.390625 L 58.523438 614.390625 C 56.777344 614.390625 55.289062 612.746094 55.503906 611.058594 L 62.578125 556.265625 C 62.835938 554.207031 64.5625 552.675781 66.609375 552.675781 L 104.03125 552.675781 Z M 104.03125 552.652344 " fill-opacity="1" fill-rule="nonzero"/><g clip-path="url(#6544a57d4d)"><path fill="#4cb848" d="M 151.539062 183.824219 C 153.394531 183.824219 154.839844 185.488281 154.601562 187.351562 L 147.355469 243.566406 C 147.226562 244.75 146.277344 245.539062 145.089844 245.539062 L 106.03125 245.539062 C 104.285156 245.539062 102.796875 243.894531 103.011719 242.210938 L 110.085938 187.417969 C 110.34375 185.355469 112.070312 183.824219 114.117188 183.824219 Z M 151.539062 183.824219 " fill-opacity="1" fill-rule="nonzero"/></g><path fill="#4cb848" d="M 163.121094 552.652344 C 164.976562 552.652344 166.421875 554.316406 166.183594 556.199219 L 158.917969 612.394531 C 158.742188 613.578125 157.816406 614.367188 156.628906 614.367188 L 117.570312 614.367188 C 115.84375 614.367188 114.355469 612.726562 114.570312 611.039062 L 121.625 556.246094 C 121.882812 554.183594 123.609375 552.652344 125.660156 552.652344 L 163.144531 552.652344 Z M 163.121094 552.652344 " fill-opacity="1" fill-rule="nonzero"/><g clip-path="url(#786fde3961)"><path fill="#4cb848" d="M 210.640625 183.824219 C 212.496094 183.824219 213.941406 185.488281 213.703125 187.371094 L 206.433594 243.566406 C 206.261719 244.75 205.335938 245.539062 204.148438 245.539062 L 165.089844 245.539062 C 163.363281 245.539062 161.875 243.894531 162.089844 242.210938 L 169.144531 187.417969 C 169.402344 185.355469 171.128906 183.824219 173.175781 183.824219 L 210.664062 183.824219 Z M 210.640625 183.824219 " fill-opacity="1" fill-rule="nonzero"/></g><g clip-path="url(#cd7c13ce47)"><path fill="#4cb848" d="M 151.496094 366.914062 C 174.660156 366.914062 187.0625 358.039062 189.4375 339.769531 C 190.816406 329.1875 188.421875 322.175781 182.125 318.320312 C 176.90625 315.40625 168.210938 313.894531 156.394531 313.894531 L 95.722656 313.894531 C 94.601562 313.894531 93.714844 314.660156 93.566406 315.757812 L 87.332031 363.757812 C 87.117188 365.355469 88.539062 366.914062 90.179688 366.914062 L 151.519531 366.914062 Z M 139.269531 484.058594 C 150.03125 484.058594 159.757812 480.707031 168.167969 474.109375 C 176.753906 467.320312 181.820312 458.402344 183.246094 447.601562 C 184.582031 437.171875 181.929688 429.746094 175.136719 424.949219 C 168.210938 419.863281 159.757812 417.300781 150.007812 417.300781 L 82.285156 417.300781 C 81.164062 417.300781 80.277344 418.066406 80.128906 419.164062 L 72.125 480.925781 C 71.933594 482.523438 73.332031 484.078125 74.972656 484.078125 L 139.269531 484.078125 Z M 9.492188 534.773438 C 7.851562 534.773438 6.449219 533.21875 6.644531 531.621094 L 41.328125 264.269531 C 41.476562 263.175781 42.363281 262.410156 43.484375 262.410156 C 43.484375 262.410156 187.386719 262.191406 193.382812 262.5625 C 217.972656 266.351562 234.707031 279.433594 243.226562 299.171875 C 248.488281 311.726562 250.257812 325.066406 248.46875 338.824219 C 245.578125 361.214844 235.074219 377.273438 217.214844 386.695312 C 215.621094 387.527344 215.726562 389.894531 217.433594 390.988281 C 225.671875 396.203125 232.097656 403.519531 236.582031 412.855469 C 241.996094 424.730469 243.722656 438.335938 241.78125 453.363281 C 238.074219 481.910156 224.808594 503.445312 202.3125 517.359375 C 189.714844 525.089844 174.574219 532.1875 157.191406 534.773438 C 134.136719 536.832031 9.46875 534.773438 9.46875 534.773438 " fill-opacity="1" fill-rule="nonzero"/></g></svg>