<svg xmlns="http://www.w3.org/2000/svg" xmlns:xlink="http://www.w3.org/1999/xlink" width="1920" zoomAndPan="magnify" viewBox="0 0 1440 809.999993" height="1080" preserveAspectRatio="xMidYMid meet" version="1.0"><defs><g/><clipPath id="490a53e13e"><path d="M 256.902344 299 L 387 299 L 387 433 L 256.902344 433 Z M 256.902344 299 " clip-rule="nonzero"/></clipPath></defs><path fill="#fec3aa" d="M 937.371094 705.273438 L 879.167969 696.691406 C 879.167969 696.691406 834.0625 686.457031 809.96875 689.207031 C 785.875 691.960938 768.710938 690.089844 754.628906 701.421875 C 740.546875 712.753906 745.167969 724.414062 745.167969 724.414062 C 745.167969 724.414062 734.054688 735.746094 735.484375 740.476562 C 736.914062 745.207031 735.15625 762.59375 739.664062 766.773438 C 744.175781 770.953125 746.046875 771.171875 746.046875 771.171875 C 748.136719 775.132812 752.097656 777.773438 756.5 778.105469 C 763.980469 778.65625 788.625 767.324219 796.105469 767.542969 C 803.585938 767.761719 837.914062 770.625 855.625 768.203125 C 873.339844 765.78125 882.800781 759.511719 882.800781 759.511719 L 955.964844 782.503906 C 955.964844 782.503906 953.433594 726.835938 937.371094 705.273438 Z M 937.371094 705.273438 " fill-opacity="1" fill-rule="nonzero"/><path fill="#fec3aa" d="M 526.339844 343.304688 C 521.71875 337.476562 516.65625 331.972656 511.15625 326.914062 C 503.34375 320.3125 496.523438 302.269531 504.554688 297.648438 C 512.585938 293.027344 541.300781 318.109375 550.984375 330.542969 C 560.664062 342.976562 585.089844 378.511719 592.351562 398.425781 C 599.613281 418.339844 593.671875 428.570312 596.199219 433.300781 L 616.113281 472.140625 C 616.113281 472.140625 598.953125 484.570312 580.136719 492.273438 C 561.324219 499.972656 552.964844 500.304688 552.964844 500.304688 C 552.964844 500.304688 533.601562 462.898438 530.519531 461.027344 C 527.4375 459.15625 514.457031 452.996094 509.726562 445.515625 C 506.753906 440.5625 504.554688 435.28125 503.125 429.671875 C 503.125 429.671875 488.492188 426.371094 482.332031 414.707031 C 476.171875 403.046875 472.648438 393.695312 474.851562 385.992188 C 477.050781 378.292969 481.230469 374 487.0625 372.132812 C 489.152344 366.300781 493.003906 361.238281 498.175781 357.71875 C 506.425781 352.4375 506.976562 353.539062 507.855469 353.867188 C 508.734375 354.199219 511.15625 341.105469 526.339844 343.304688 Z M 526.339844 343.304688 " fill-opacity="1" fill-rule="nonzero"/><path fill="#a3dfbe" d="M 552.632812 501.183594 C 551.421875 501.183594 608.964844 673.367188 635.476562 698.671875 C 661.992188 723.976562 723.273438 695.257812 735.703125 685.027344 C 748.136719 674.796875 801.167969 620.335938 801.167969 620.335938 C 801.167969 620.335938 814.367188 644.652344 818.21875 658.953125 C 822.070312 673.253906 831.421875 686.566406 830.652344 687.777344 C 829.882812 688.988281 895.78125 699.441406 908.984375 700.539062 C 918.554688 701.53125 928.019531 703.179688 937.371094 705.269531 C 937.371094 705.269531 959.042969 755.550781 955.964844 782.503906 C 955.964844 782.503906 1034.957031 803.078125 1081.824219 806.488281 C 1128.691406 809.902344 1163.238281 789.875 1172.261719 765.671875 C 1181.28125 741.46875 1179.082031 698.339844 1177.210938 688.4375 C 1175.339844 678.535156 1154.105469 486.882812 1154.105469 486.882812 C 1154.105469 486.882812 1140.90625 436.164062 1102.726562 424.058594 C 1064.550781 411.957031 1025.933594 388.082031 1020.984375 379.0625 C 1016.035156 370.039062 1020.542969 364.210938 1015.261719 361.570312 C 1009.980469 358.929688 926.808594 352.546875 926.808594 352.546875 C 926.808594 352.546875 919.546875 352.878906 919.988281 358.160156 C 920.425781 363.4375 917.675781 371.800781 911.625 374.109375 C 905.574219 376.421875 863.988281 380.933594 850.015625 380.933594 C 836.042969 380.933594 799.625 390.722656 785.984375 409.976562 C 772.339844 429.230469 743.625 497.003906 733.835938 512.515625 C 724.042969 528.027344 674.753906 585.238281 674.753906 585.238281 L 616.882812 472.46875 C 616.882812 472.46875 565.835938 501.183594 552.632812 501.183594 Z M 552.632812 501.183594 " fill-opacity="1" fill-rule="nonzero"/><path fill="#fec3aa" d="M 903.703125 169.253906 C 903.703125 169.253906 866.1875 174.644531 858.816406 198.960938 C 851.445312 223.273438 859.476562 242.085938 859.476562 251.21875 C 859.476562 260.351562 861.125 298.199219 864.207031 306.558594 C 867.289062 314.921875 884.449219 344.074219 904.695312 349.796875 C 924.9375 355.519531 940.121094 354.527344 940.121094 354.527344 L 1010.640625 359.917969 C 1010.640625 359.917969 1003.929688 326.800781 1007.890625 306.890625 C 1007.890625 306.890625 1006.242188 306.890625 1015.042969 297.757812 C 1023.84375 288.625 1030.226562 277.953125 1029.234375 266.070312 C 1028.246094 254.191406 1019.773438 249.898438 1013.722656 250.890625 C 1007.671875 251.878906 1000.191406 257.601562 1000.191406 257.601562 C 1000.191406 257.601562 979.285156 253.308594 967.074219 216.78125 C 954.863281 180.257812 941.332031 156.273438 921.527344 155.722656 C 908.433594 155.390625 903.703125 169.253906 903.703125 169.253906 Z M 903.703125 169.253906 " fill-opacity="1" fill-rule="nonzero"/><path fill="#734c4c" d="M 858.707031 245.496094 C 858.707031 245.496094 836.8125 230.207031 843.082031 197.96875 C 849.355469 165.734375 872.789062 138.007812 886.429688 128.765625 C 900.074219 119.523438 926.808594 107.972656 970.046875 109.074219 C 1013.28125 110.171875 1027.476562 127.335938 1035.835938 137.128906 C 1044.199219 146.921875 1055.421875 161.882812 1055.421875 161.882812 C 1055.421875 161.882812 1066.640625 146.371094 1081.382812 151.539062 C 1096.128906 156.710938 1116.589844 166.503906 1126.601562 191.367188 C 1136.613281 216.234375 1129.242188 258.480469 1122.640625 272.121094 C 1116.039062 285.765625 1108.230469 321.082031 1111.96875 338.136719 C 1115.710938 355.1875 1126.601562 366.628906 1127.484375 366.078125 C 1128.363281 365.53125 1116.589844 374.441406 1093.816406 366.628906 C 1071.042969 358.820312 1053.441406 323.941406 1049.917969 308.980469 C 1047.828125 300.179688 1047.277344 291.15625 1048.160156 282.132812 C 1048.160156 282.132812 1019.113281 309.308594 1014.492188 313.929688 C 1009.871094 318.550781 1007.5625 331.535156 1007.5625 331.535156 L 1007.890625 306.890625 C 1007.890625 306.890625 1025.933594 289.945312 1028.574219 276.082031 C 1031.214844 262.222656 1027.695312 253.640625 1019.882812 251 C 1012.074219 248.359375 1000.191406 257.601562 1000.191406 257.601562 C 1000.191406 257.601562 980.386719 249.019531 969.714844 222.503906 C 959.042969 195.988281 952.992188 170.574219 941.441406 168.8125 C 929.886719 167.054688 915.476562 172.335938 915.476562 172.335938 C 915.476562 172.335938 903.152344 166.832031 895.34375 168.265625 C 887.53125 169.695312 867.949219 178.605469 862.117188 193.347656 C 856.285156 208.089844 854.414062 225.363281 858.707031 245.496094 Z M 858.707031 245.496094 " fill-opacity="1" fill-rule="nonzero"/><path fill="#000000" d="M 1054.980469 504.816406 C 1055.308594 557.84375 1061.25 610.875 1066.203125 663.683594 C 1067.523438 677.328125 1068.84375 691.078125 1070.050781 704.832031 C 1070.382812 708.570312 1076.214844 708.570312 1075.882812 704.832031 C 1071.371094 652.023438 1065.210938 599.210938 1062.242188 546.183594 C 1061.472656 532.429688 1060.921875 518.675781 1060.8125 504.816406 C 1060.8125 501.074219 1054.980469 501.074219 1054.980469 504.816406 Z M 1054.980469 504.816406 " fill-opacity="1" fill-rule="nonzero"/><path fill="#000000" d="M 554.171875 402.167969 C 548.121094 390.503906 536.789062 383.464844 528.757812 373.5625 C 526.777344 371.140625 524.359375 367.949219 524.578125 364.757812 C 524.796875 361.570312 528.320312 359.808594 531.289062 359.699219 C 534.261719 359.589844 538.550781 361.019531 541.851562 362.339844 C 545.042969 363.550781 548.121094 364.980469 551.09375 366.519531 C 558.023438 370.039062 564.296875 374.882812 569.464844 380.710938 C 571.886719 383.574219 575.957031 379.390625 573.535156 376.53125 C 568.367188 370.589844 562.09375 365.640625 555.164062 362.007812 C 551.644531 360.140625 547.902344 358.488281 544.160156 357.058594 C 540.3125 355.519531 536.351562 353.976562 532.167969 353.867188 C 524.359375 353.539062 517.207031 359.589844 519.078125 367.839844 C 520.949219 376.089844 527.328125 381.042969 532.5 385.992188 C 537.671875 390.945312 545.152344 397.4375 549.113281 405.136719 C 550.761719 408.4375 555.824219 405.46875 554.171875 402.167969 Z M 554.171875 402.167969 " fill-opacity="1" fill-rule="nonzero"/><path fill="#000000" d="M 534.039062 346.9375 C 528.757812 335.933594 518.199219 329.882812 510.714844 320.75 C 506.867188 316.128906 502.683594 308.871094 504.554688 302.597656 C 505.65625 298.96875 509.175781 300.507812 511.707031 301.71875 C 513.90625 302.820312 515.996094 304.027344 518.085938 305.347656 C 536.902344 316.902344 552.523438 334.945312 564.625 353.207031 C 572.875 366.078125 580.136719 379.613281 586.1875 393.695312 C 590.039062 402.386719 593.558594 411.738281 592.789062 421.421875 C 592.351562 424.390625 592.238281 427.472656 592.679688 430.550781 C 593.230469 433.414062 594.878906 435.722656 596.199219 438.253906 C 602.140625 449.363281 607.644531 460.808594 613.582031 471.917969 C 621.175781 486.441406 629.207031 500.632812 637.566406 514.71875 C 639.4375 518.015625 644.5 515.046875 642.519531 511.855469 C 634.707031 498.542969 627.117188 485.121094 619.855469 471.480469 C 613.804688 460.148438 608.304688 448.484375 602.25 437.152344 C 600.820312 434.621094 598.730469 431.871094 598.292969 429.011719 C 597.851562 426.152344 598.621094 422.410156 598.730469 419 C 598.953125 408.546875 594.660156 398.425781 590.371094 388.964844 C 583.546875 373.671875 575.515625 358.269531 565.726562 344.625 C 558.683594 334.722656 550.761719 325.484375 541.960938 317.011719 C 534.148438 309.417969 525.347656 302.046875 515.445312 297.097656 C 510.714844 294.785156 503.785156 292.367188 500.265625 297.976562 C 496.742188 303.589844 498.613281 311.289062 501.253906 316.679688 C 507.636719 330.101562 522.597656 336.484375 528.980469 349.796875 C 530.628906 353.207031 535.582031 350.238281 534.039062 346.9375 Z M 534.039062 346.9375 " fill-opacity="1" fill-rule="nonzero"/><path fill="#000000" d="M 487.722656 369.820312 C 479.25 368.390625 474.078125 377.300781 472.539062 384.453125 C 470.339844 394.023438 473.308594 403.265625 477.820312 411.628906 C 479.800781 415.257812 481.78125 419.550781 484.53125 422.628906 C 485.851562 423.949219 487.171875 425.050781 488.710938 426.152344 C 493.332031 429.671875 499.605469 433.191406 505.546875 431.320312 C 511.484375 429.453125 514.785156 422.628906 512.367188 416.140625 C 511.15625 412.617188 505.433594 414.160156 506.753906 417.679688 C 507.414062 419.328125 508.074219 421.421875 507.304688 423.179688 C 506.535156 424.941406 503.125 426.261719 500.8125 425.929688 C 496.632812 425.160156 491.683594 421.96875 488.824219 418.667969 C 485.960938 415.367188 484.972656 412.617188 483.320312 409.648438 C 481.011719 405.6875 479.25 401.394531 478.152344 396.886719 C 477.160156 392.265625 477.378906 387.535156 478.921875 383.132812 C 479.910156 380.382812 482.550781 374.882812 486.183594 375.542969 C 489.8125 376.203125 491.460938 370.480469 487.722656 369.820312 Z M 487.722656 369.820312 " fill-opacity="1" fill-rule="nonzero"/><path fill="#000000" d="M 506.867188 351.777344 C 498.285156 352.21875 491.460938 357.5 488.050781 365.199219 C 484.640625 372.902344 485.632812 383.242188 489.371094 391.605469 C 493.222656 399.636719 498.175781 407.117188 504.113281 413.828125 C 508.074219 418.449219 513.136719 424.390625 519.738281 423.289062 C 524.359375 422.519531 528.429688 420.539062 530.410156 415.917969 C 532.390625 411.296875 531.730469 406.898438 528.871094 404.367188 C 526.007812 401.835938 521.9375 405.90625 524.6875 408.4375 C 527.4375 410.96875 524.136719 416.359375 520.835938 417.238281 C 517.539062 418.121094 517.316406 418.007812 515.226562 416.578125 C 508.734375 412.066406 503.894531 404.585938 499.714844 398.097656 C 495.535156 391.605469 489.921875 381.261719 491.902344 372.019531 C 493.441406 364.539062 498.835938 357.9375 506.867188 357.609375 C 510.605469 357.386719 510.605469 351.558594 506.867188 351.777344 Z M 506.867188 351.777344 " fill-opacity="1" fill-rule="nonzero"/><path fill="#000000" d="M 540.972656 399.746094 C 541.082031 402.605469 540.199219 406.347656 536.789062 406.566406 C 530.519531 407.117188 525.347656 400.074219 522.269531 395.566406 C 515.445312 385.882812 508.40625 374 509.394531 361.789062 C 509.835938 356.617188 512.035156 349.578125 517.207031 347.265625 C 520.617188 345.726562 524.46875 346.054688 527.660156 347.925781 C 530.738281 350.128906 533.601562 345.066406 530.628906 342.867188 C 527.660156 340.664062 522.597656 340.335938 518.527344 340.886719 C 514.457031 341.433594 508.957031 345.726562 506.535156 350.789062 C 502.023438 360.027344 502.90625 371.359375 506.976562 380.492188 C 509.726562 386.652344 513.136719 392.59375 516.988281 398.207031 C 521.496094 404.695312 527.550781 412.179688 536.128906 412.398438 C 544.710938 412.617188 547.023438 406.238281 546.800781 399.746094 C 546.691406 396.003906 540.859375 396.003906 540.972656 399.746094 Z M 540.972656 399.746094 " fill-opacity="1" fill-rule="nonzero"/><path fill="#000000" d="M 501.472656 429.890625 C 506.425781 444.085938 513.6875 459.265625 529.75 462.898438 L 527.988281 461.578125 C 536.902344 476.871094 545.8125 492.054688 552.742188 508.335938 C 554.171875 511.855469 559.234375 508.886719 557.804688 505.476562 C 551.203125 489.960938 542.839844 475.660156 534.480469 461.136719 C 533.488281 459.265625 532.941406 457.835938 530.847656 457.175781 C 527 455.964844 523.367188 453.984375 520.289062 451.457031 C 513.136719 445.402344 510.054688 436.933594 507.085938 428.351562 C 505.875 424.832031 500.265625 426.371094 501.472656 429.890625 Z M 501.472656 429.890625 " fill-opacity="1" fill-rule="nonzero"/><path fill="#000000" d="M 777.292969 697.789062 C 769.921875 700.652344 762.988281 704.613281 756.609375 709.34375 C 750.777344 713.964844 745.605469 719.242188 740.984375 725.074219 C 735.484375 732.117188 729.652344 742.566406 737.136719 750.488281 C 739.664062 753.238281 743.734375 749.058594 741.207031 746.308594 C 735.703125 740.589844 743.1875 731.785156 746.597656 727.386719 C 755.066406 716.714844 766.179688 708.460938 778.832031 703.402344 C 782.351562 701.972656 780.8125 696.359375 777.292969 697.789062 Z M 777.292969 697.789062 " fill-opacity="1" fill-rule="nonzero"/><path fill="#000000" d="M 786.203125 714.183594 C 778.613281 717.261719 771.460938 721.113281 764.859375 725.84375 C 758.367188 730.027344 752.207031 734.648438 746.375 739.597656 C 739.996094 745.320312 733.722656 753.570312 735.59375 762.8125 C 736.804688 768.644531 741.644531 772.054688 747.257812 773.375 C 750.886719 774.144531 752.429688 768.53125 748.796875 767.761719 C 745.167969 766.992188 740.875 763.800781 741.097656 758.632812 C 741.316406 755.441406 743.1875 751.921875 745.386719 749.058594 C 750.335938 742.789062 757.378906 738.167969 763.871094 733.65625 C 770.359375 729.144531 779.164062 723.203125 787.742188 719.902344 C 791.15625 718.472656 789.722656 712.863281 786.203125 714.183594 Z M 786.203125 714.183594 " fill-opacity="1" fill-rule="nonzero"/><path fill="#000000" d="M 797.867188 735.527344 C 787.632812 737.835938 778.171875 742.679688 769.589844 748.730469 C 765.300781 751.699219 761.121094 755 757.160156 758.410156 L 751.21875 763.582031 C 749.566406 765.121094 746.597656 766.992188 745.496094 769.082031 C 744.394531 771.171875 745.277344 775.023438 746.816406 776.894531 C 750.449219 781.84375 757.707031 781.074219 763.097656 780.085938 C 771.242188 778.542969 779.164062 775.464844 787.082031 772.824219 C 790.933594 771.394531 795.003906 770.625 799.1875 770.625 C 811.839844 770.511719 824.488281 771.722656 837.253906 771.394531 C 845.945312 771.394531 854.636719 770.511719 863.21875 769.082031 C 870.476562 767.761719 878.070312 765.5625 884.011719 761.050781 C 886.980469 758.851562 884.121094 753.789062 881.039062 755.992188 C 870.808594 763.800781 855.84375 764.792969 843.414062 765.34375 C 830.980469 765.894531 817.890625 765.453125 805.015625 764.902344 C 801.167969 764.683594 797.207031 764.792969 793.355469 765.234375 C 789.175781 765.78125 785.214844 767.324219 781.253906 768.644531 C 773.550781 771.394531 764.640625 775.132812 756.277344 775.023438 C 754.628906 775.023438 752.539062 774.804688 751.328125 773.375 C 750.996094 772.824219 750.777344 772.164062 750.886719 771.503906 C 750.777344 770.625 750.996094 771.171875 750.777344 771.285156 L 750.996094 771.832031 L 752.757812 770.183594 L 756.277344 766.992188 C 760.570312 763.140625 764.96875 759.292969 769.589844 755.878906 C 778.613281 749.167969 788.402344 743.667969 799.40625 741.136719 C 803.148438 740.367188 801.605469 734.757812 797.867188 735.527344 Z M 797.867188 735.527344 " fill-opacity="1" fill-rule="nonzero"/><path fill="#000000" d="M 747.257812 720.5625 C 745.054688 715.722656 746.597656 710.113281 749.789062 706.152344 C 752.976562 702.191406 755.066406 702.191406 757.929688 700.871094 C 764.640625 697.679688 771.570312 695.039062 778.722656 693.167969 C 782.792969 692.179688 786.972656 691.738281 791.15625 691.738281 C 797.753906 691.410156 804.355469 691.410156 810.847656 691.628906 C 826.140625 691.960938 841.542969 693.058594 856.726562 695.039062 C 862.996094 695.808594 869.269531 697.019531 875.429688 698.449219 C 878.398438 699.21875 881.261719 700.429688 884.339844 700.871094 C 907.996094 703.953125 931.867188 706.703125 955.742188 709.011719 C 989.1875 712.3125 1022.855469 713.742188 1056.410156 713.304688 C 1084.683594 712.863281 1113.070312 711.871094 1141.34375 710.441406 L 1142.886719 710.441406 C 1146.625 710.222656 1146.625 704.390625 1142.886719 704.613281 C 1117.691406 705.820312 1092.386719 706.703125 1067.191406 707.253906 C 1049.148438 707.691406 1031.105469 708.023438 1013.0625 707.363281 C 995.019531 706.703125 979.398438 705.382812 962.5625 703.730469 C 936.710938 701.421875 910.855469 698.449219 885 695.148438 L 883.242188 694.929688 C 883.789062 695.039062 881.921875 694.269531 881.480469 694.050781 L 877.628906 693.058594 C 871.25 691.519531 864.757812 690.308594 858.265625 689.429688 C 842.644531 687.339844 827.019531 686.128906 811.289062 685.796875 C 800.394531 685.578125 788.183594 684.699219 777.511719 687.449219 C 770.472656 689.320312 763.648438 691.847656 757.046875 694.820312 C 749.675781 698.121094 743.515625 702.191406 741.097656 710.441406 C 739.886719 714.734375 740.324219 719.355469 742.195312 723.425781 C 743.734375 726.835938 748.796875 723.863281 747.257812 720.5625 Z M 747.257812 720.5625 " fill-opacity="1" fill-rule="nonzero"/><path fill="#6293f1" d="M 659.683594 537.050781 C 659.683594 537.050781 652.308594 522.089844 647.910156 519.007812 C 643.730469 516.035156 627.777344 513.945312 627.777344 513.945312 C 600.601562 513.285156 276.375 512.957031 276.375 512.957031 C 276.375 512.957031 258.222656 513.507812 262.84375 532.761719 C 267.464844 552.011719 331.714844 749.390625 333.585938 755.550781 C 335.457031 761.710938 345.359375 768.863281 362.519531 768.203125 C 379.683594 767.542969 741.207031 763.691406 741.207031 763.691406 C 717.332031 687.007812 690.15625 611.535156 659.683594 537.050781 Z M 659.683594 537.050781 " fill-opacity="1" fill-rule="nonzero"/><path fill="#000000" d="M 744.066406 762.921875 C 728.992188 714.625 712.710938 666.765625 694.996094 619.457031 C 686.085938 595.582031 676.84375 571.816406 667.273438 548.164062 C 663.53125 538.8125 660.890625 528.027344 653.519531 520.878906 C 641.527344 509.324219 624.253906 510.976562 608.851562 510.867188 L 552.964844 510.535156 L 476.832031 510.535156 L 396.40625 510.316406 L 283.527344 510.316406 C 273.957031 510.316406 262.734375 511.085938 259.761719 522.527344 C 258.003906 529.570312 260.753906 536.941406 262.734375 543.652344 L 270.324219 568.1875 C 277.804688 592.171875 285.507812 616.265625 293.207031 640.25 C 300.910156 664.234375 309.160156 689.757812 317.191406 714.511719 L 330.503906 755.21875 C 335.785156 771.613281 356.03125 771.285156 370.441406 770.953125 L 412.910156 770.402344 L 479.472656 769.523438 L 557.585938 768.644531 L 635.039062 767.761719 L 698.628906 767.101562 L 736.144531 766.664062 L 741.207031 766.664062 C 744.945312 766.664062 744.945312 760.832031 741.207031 760.832031 L 721.511719 761.050781 L 670.242188 761.601562 L 599.613281 762.480469 L 521.496094 763.363281 L 448.003906 764.242188 L 391.234375 765.011719 L 363.070312 765.453125 C 354.050781 765.671875 339.417969 764.242188 336.117188 753.898438 C 334.6875 749.28125 333.144531 744.769531 331.714844 740.148438 C 325.222656 720.015625 318.621094 699.992188 312.132812 679.855469 C 303.992188 654.441406 295.738281 628.917969 287.707031 603.503906 C 281.328125 583.699219 275.054688 564.003906 269.113281 544.203125 C 267.464844 538.703125 264.714844 532.210938 265.042969 526.378906 C 265.375 520.546875 271.316406 516.035156 276.597656 515.925781 C 285.289062 515.816406 293.980469 516.035156 302.671875 516.035156 L 360.980469 516.035156 L 437.003906 516.257812 L 515.886719 516.257812 L 583 516.585938 C 596.640625 516.585938 610.171875 516.585938 623.816406 516.808594 C 633.277344 516.917969 642.738281 518.347656 649.78125 525.5 C 652.75 528.46875 655.0625 531.988281 656.382812 535.949219 C 658.582031 542.660156 661.441406 549.042969 664.082031 555.535156 C 682.675781 601.851562 700.058594 648.5 716.011719 695.699219 C 723.824219 718.582031 731.195312 741.46875 738.457031 764.460938 C 739.554688 767.984375 745.167969 766.441406 744.066406 762.921875 Z M 744.066406 762.921875 " fill-opacity="1" fill-rule="nonzero"/><path fill="#000000" d="M 816.128906 441.882812 C 823.390625 477.96875 819.429688 515.488281 804.578125 549.152344 C 798.085938 563.785156 790.496094 577.757812 791.816406 594.261719 C 792.253906 602.074219 793.90625 609.664062 796.546875 617.035156 C 798.855469 623.527344 802.15625 629.578125 805.238281 635.628906 C 813.707031 652.683594 821.519531 670.066406 826.359375 688.546875 C 827.351562 692.179688 832.960938 690.640625 831.972656 687.007812 C 827.679688 670.613281 821.078125 654.882812 813.597656 639.589844 C 806.996094 625.945312 799.515625 612.964844 797.867188 597.5625 C 796.875 589.640625 797.644531 581.71875 800.175781 574.128906 C 802.816406 566.207031 806.777344 558.726562 810.078125 551.132812 C 825.261719 516.257812 829.332031 477.640625 821.738281 440.34375 C 820.96875 436.710938 815.359375 438.253906 816.128906 441.882812 Z M 816.128906 441.882812 " fill-opacity="1" fill-rule="nonzero"/><path fill="#000000" d="M 682.457031 581.167969 C 712.820312 550.035156 738.015625 512.957031 757.378906 474.121094 C 766.070312 456.738281 771.792969 437.703125 782.464844 421.421875 C 793.136719 405.136719 806.996094 393.914062 824.378906 387.644531 C 838.242188 382.582031 852.65625 383.683594 867.175781 383.351562 C 876.96875 383.023438 886.652344 382.144531 896.332031 380.710938 C 903.59375 379.613281 912.617188 378.292969 918.335938 373.339844 C 921.308594 370.921875 922.1875 367.621094 922.515625 363.878906 C 922.628906 362.007812 921.855469 358.046875 923.949219 357.277344 C 926.039062 356.507812 930.4375 357.277344 932.96875 357.277344 C 944.851562 357.5 956.84375 358.046875 968.835938 358.820312 C 980.9375 359.257812 993.039062 360.46875 1005.03125 362.230469 C 1007.011719 362.449219 1008.882812 362.890625 1010.753906 363.328125 C 1011.851562 363.550781 1013.613281 364.429688 1014.054688 364.429688 C 1014.492188 364.429688 1013.941406 364.871094 1014.054688 364.320312 C 1014.164062 363.769531 1013.503906 362.78125 1013.503906 362.78125 C 1013.503906 362.78125 1013.613281 365.089844 1013.613281 365.199219 C 1013.832031 368.5 1014.492188 371.691406 1015.375 374.882812 C 1016.472656 378.621094 1018.453125 382.03125 1021.09375 384.894531 C 1023.734375 387.644531 1027.804688 383.464844 1025.164062 380.824219 C 1020.324219 375.871094 1020.214844 369.269531 1019.332031 362.890625 C 1018.894531 359.699219 1015.8125 358.597656 1012.953125 357.828125 C 1002.722656 355.078125 991.5 354.636719 980.9375 353.757812 C 967.734375 352.765625 954.53125 352.105469 941.332031 351.667969 L 927.796875 351.445312 C 924.496094 351.445312 920.535156 351.117188 918.335938 354.199219 C 916.136719 357.277344 917.125 361.460938 916.464844 364.980469 C 915.804688 368.5 912.617188 370.480469 908.984375 371.800781 C 900.183594 374.882812 890.390625 375.871094 881.148438 376.640625 C 865.527344 378.070312 849.355469 376.203125 833.730469 379.0625 C 818.109375 381.921875 800.835938 391.496094 789.0625 403.816406 C 777.292969 416.140625 768.378906 434.84375 761.007812 452.335938 C 743.738281 493.484375 718.433594 532.429688 688.835938 565.765625 C 685.425781 569.617188 681.90625 573.359375 678.386719 577.097656 C 674.863281 580.839844 679.816406 583.917969 682.457031 581.167969 Z M 682.457031 581.167969 " fill-opacity="1" fill-rule="nonzero"/><path fill="#000000" d="M 721.953125 693.5 C 725.691406 700.871094 736.035156 688.328125 739.117188 685.6875 C 745.9375 679.746094 752.867188 673.914062 759.6875 667.753906 C 775.089844 654.003906 790.054688 639.148438 801.167969 621.65625 C 803.148438 618.464844 798.085938 615.496094 796.105469 618.6875 C 786.3125 634.199219 773.222656 647.511719 759.6875 659.941406 C 753.417969 665.664062 747.035156 671.164062 740.65625 676.667969 L 732.734375 683.597656 L 728.992188 686.898438 L 727.34375 688.4375 L 726.574219 689.207031 C 725.691406 689.757812 725.804688 690.199219 727.011719 690.527344 C 725.363281 687.226562 720.300781 690.199219 721.953125 693.5 Z M 721.953125 693.5 " fill-opacity="1" fill-rule="nonzero"/><path fill="#000000" d="M 1024.726562 385.113281 C 1038.808594 397.4375 1054.539062 406.457031 1071.703125 413.609375 C 1088.867188 420.761719 1108.339844 426.371094 1122.972656 439.242188 C 1135.84375 450.683594 1146.074219 466.636719 1149.265625 483.691406 C 1149.816406 486.773438 1150.144531 489.851562 1150.585938 492.933594 C 1153.335938 511.304688 1155.976562 529.679688 1158.507812 548.054688 C 1162.136719 574.789062 1165.660156 601.414062 1168.738281 628.148438 C 1171.820312 654.882812 1174.460938 678.867188 1176 704.28125 C 1177.210938 723.863281 1178.3125 744 1170.609375 762.480469 C 1158.839844 790.976562 1129.132812 800.988281 1100.527344 803.1875 C 1074.671875 805.167969 1048.929688 800.21875 1023.625 795.046875 C 995.019531 788.996094 966.632812 781.734375 938.46875 774.035156 C 920.757812 769.082031 903.042969 764.023438 885.550781 758.742188 L 882.910156 757.859375 C 879.28125 756.761719 877.738281 762.371094 881.371094 763.472656 C 894.242188 767.542969 907.335938 771.285156 920.316406 775.023438 C 948.042969 782.835938 975.984375 790.316406 1004.042969 796.699219 C 1029.894531 802.527344 1056.519531 808.582031 1083.144531 809.460938 C 1109.769531 810.339844 1145.085938 805.28125 1164.777344 782.835938 C 1179.742188 765.78125 1183.152344 743.007812 1182.601562 721.003906 C 1182.050781 699 1179.632812 673.804688 1177.101562 650.371094 C 1174.128906 622.425781 1170.609375 594.480469 1166.871094 566.644531 C 1163.898438 544.753906 1160.816406 522.859375 1157.628906 501.074219 C 1156.859375 495.574219 1156.085938 490.183594 1155.207031 484.679688 C 1153.667969 475.328125 1150.367188 466.308594 1145.636719 458.054688 C 1136.394531 441.664062 1122.089844 428.570312 1104.929688 420.871094 C 1087.65625 413.277344 1069.390625 407.558594 1052.890625 398.207031 C 1044.308594 393.253906 1036.277344 387.535156 1028.796875 381.042969 C 1026.046875 378.511719 1021.863281 382.691406 1024.726562 385.113281 Z M 1024.726562 385.113281 " fill-opacity="1" fill-rule="nonzero"/><path fill="#000000" d="M 795.664062 576.769531 C 798.304688 552.5625 783.894531 623.964844 775.203125 646.632812 L 800.726562 616.59375 C 800.726562 616.59375 793.464844 597.011719 795.664062 576.769531 Z M 795.664062 576.769531 " fill-opacity="1" fill-rule="nonzero"/><path fill="#000000" d="M 1061.582031 576.988281 C 1061.582031 576.988281 1067.300781 671.933594 1051.898438 690.527344 C 1042.65625 701.421875 1029.234375 707.910156 1014.933594 708.242188 C 1014.933594 708.242188 1012.183594 711.433594 1040.789062 709.890625 C 1069.394531 708.351562 1076.324219 719.902344 1070.824219 682.058594 C 1065.320312 644.210938 1061.582031 576.988281 1061.582031 576.988281 Z M 1061.582031 576.988281 " fill-opacity="1" fill-rule="nonzero"/><path fill="#000000" d="M 930.21875 379.503906 C 949.800781 381.921875 969.605469 381.261719 989.078125 377.851562 C 992.820312 377.191406 991.277344 371.582031 987.539062 372.242188 C 968.613281 375.542969 949.25 375.980469 930.21875 373.671875 C 926.476562 373.230469 926.476562 379.0625 930.21875 379.503906 Z M 930.21875 379.503906 " fill-opacity="1" fill-rule="nonzero"/><path fill="#000000" d="M 901.613281 446.175781 C 946.0625 445.183594 990.507812 441.445312 1034.515625 434.953125 C 1038.148438 434.402344 1036.605469 428.679688 1032.976562 429.230469 C 989.519531 435.722656 945.621094 439.464844 901.613281 440.34375 C 897.871094 440.453125 897.871094 446.285156 901.613281 446.175781 Z M 901.613281 446.175781 " fill-opacity="1" fill-rule="nonzero"/><path fill="#000000" d="M 934.289062 707.25 C 943.53125 730.136719 949.910156 754.011719 953.324219 778.433594 C 953.761719 782.175781 959.375 780.636719 958.933594 776.894531 C 955.523438 752.46875 949.140625 728.59375 939.898438 705.710938 C 938.578125 702.300781 932.859375 703.730469 934.289062 707.25 Z M 934.289062 707.25 " fill-opacity="1" fill-rule="nonzero"/><path fill="#000000" d="M 556.484375 505.804688 C 559.894531 501.84375 566.386719 501.292969 571.117188 499.753906 C 576.617188 497.882812 582.117188 495.792969 587.398438 493.375 C 598.179688 488.421875 608.304688 482.152344 617.65625 474.78125 C 620.625 472.46875 616.554688 468.398438 613.582031 470.707031 C 604.011719 478.191406 593.671875 484.351562 582.558594 489.191406 C 577.167969 491.503906 571.667969 493.484375 566.054688 495.132812 C 561.105469 496.5625 555.824219 497.554688 552.414062 501.734375 C 549.003906 505.914062 554.0625 508.664062 556.484375 505.804688 Z M 556.484375 505.804688 " fill-opacity="1" fill-rule="nonzero"/><path fill="#000000" d="M 528.871094 418.007812 C 538.109375 418.121094 547.242188 419.878906 555.824219 423.289062 C 557.363281 423.730469 559.015625 422.851562 559.34375 421.199219 C 559.675781 419.550781 558.90625 418.007812 557.253906 417.679688 C 548.121094 414.160156 538.550781 412.289062 528.757812 412.179688 C 525.128906 412.179688 525.128906 418.007812 528.871094 418.007812 Z M 528.871094 418.007812 " fill-opacity="1" fill-rule="nonzero"/><path fill="#000000" d="M 851.886719 218.652344 C 853.976562 230.425781 855.40625 242.308594 856.175781 254.300781 C 856.835938 265.960938 856.175781 277.734375 857.164062 289.285156 C 858.375 304.46875 864.976562 320.089844 875.871094 330.761719 C 886.761719 341.433594 896.664062 351.335938 909.863281 355.296875 C 926.367188 360.25 941.992188 354.085938 955.742188 344.734375 C 964.542969 338.90625 972.574219 331.972656 979.726562 324.164062 C 982.476562 321.300781 984.898438 318.109375 986.878906 314.699219 C 988.640625 311.511719 983.578125 308.539062 981.816406 311.839844 C 976.867188 320.75 967.957031 328.234375 960.035156 334.394531 C 947.160156 344.40625 931.320312 354.417969 914.265625 350.457031 C 901.394531 347.375 890.722656 337.144531 881.480469 328.121094 C 878.398438 325.152344 875.757812 322.621094 873.667969 319.101562 C 868.386719 309.96875 863.988281 300.726562 862.996094 289.945312 C 862.007812 279.164062 862.777344 266.183594 862.007812 254.300781 C 861.238281 241.867188 859.695312 229.433594 857.496094 217.113281 C 856.835938 213.480469 851.226562 215.023438 851.886719 218.652344 Z M 851.886719 218.652344 " fill-opacity="1" fill-rule="nonzero"/><path fill="#000000" d="M 1002.609375 261.449219 C 1006.242188 256.058594 1013.832031 248.359375 1020.765625 253.53125 C 1027.695312 258.699219 1027.476562 266.621094 1026.707031 273.113281 C 1025.605469 280.375 1022.195312 287.085938 1017.023438 292.257812 C 1011.851562 297.539062 1005.03125 303.589844 997.441406 304.578125 C 993.699219 305.019531 993.699219 310.851562 997.441406 310.410156 C 1007.230469 309.199219 1016.035156 302.160156 1022.414062 295.007812 C 1028.796875 287.964844 1032.535156 278.945312 1032.757812 269.480469 C 1032.757812 261.121094 1029.347656 250.007812 1020.652344 246.929688 C 1011.960938 243.847656 1002.609375 251 997.660156 258.480469 C 995.570312 261.671875 1000.628906 264.53125 1002.609375 261.449219 Z M 1002.609375 261.449219 " fill-opacity="1" fill-rule="nonzero"/><path fill="#000000" d="M 1020.433594 261.671875 C 1015.042969 259.800781 1010.3125 264.640625 1007.230469 268.382812 C 1004.042969 272.34375 1001.621094 276.742188 999.96875 281.472656 C 999.53125 283.015625 1000.519531 284.554688 1001.949219 284.996094 C 1001.949219 284.996094 1001.949219 284.996094 1002.0625 284.996094 C 1003.492188 285.433594 1005.03125 284.664062 1005.472656 283.234375 C 1005.472656 283.125 1005.472656 283.125 1005.582031 283.015625 C 1005.800781 282.464844 1005.910156 282.023438 1006.132812 281.585938 L 1006.460938 280.703125 C 1006.351562 281.035156 1006.460938 280.703125 1006.570312 280.59375 L 1007.890625 277.84375 L 1009.433594 275.203125 L 1010.421875 273.882812 L 1010.753906 273.441406 C 1010.753906 273.441406 1011.300781 272.671875 1010.972656 273.003906 C 1012.183594 271.460938 1013.613281 269.921875 1015.042969 268.601562 L 1015.703125 267.941406 C 1015.484375 268.164062 1015.8125 267.941406 1015.921875 267.941406 L 1016.695312 267.390625 L 1016.914062 267.390625 L 1017.683594 267.171875 L 1018.5625 267.171875 C 1018.125 267.171875 1018.785156 267.28125 1018.894531 267.390625 C 1020.433594 267.832031 1022.085938 266.953125 1022.414062 265.410156 C 1022.855469 263.871094 1021.972656 262.222656 1020.433594 261.78125 Z M 1020.433594 261.671875 " fill-opacity="1" fill-rule="nonzero"/><path fill="#000000" d="M 1007.121094 276.523438 C 1007.671875 276.742188 1006.792969 276.304688 1007.121094 276.523438 L 1007.453125 276.742188 C 1007.34375 276.523438 1007.121094 276.523438 1007.453125 276.742188 L 1007.453125 276.964844 C 1007.671875 277.074219 1007.5625 277.074219 1007.34375 276.742188 L 1007.890625 277.625 C 1007.890625 277.734375 1008 277.953125 1008 278.0625 C 1008 278.175781 1008.113281 278.722656 1008.222656 279.054688 L 1008.222656 280.484375 C 1008.222656 280.59375 1008.113281 281.253906 1008.222656 280.703125 C 1008.332031 280.152344 1008.113281 280.925781 1008.113281 281.035156 C 1008.003906 281.695312 1007.78125 282.246094 1007.5625 282.90625 L 1007.34375 283.34375 L 1006.902344 284.113281 L 1006.570312 284.554688 L 1005.910156 285.324219 L 1005.582031 285.546875 L 1005.363281 285.765625 L 1005.140625 285.765625 L 1004.703125 286.09375 C 1003.269531 286.867188 1002.832031 288.625 1003.601562 289.945312 C 1003.601562 289.945312 1003.601562 289.945312 1003.601562 290.054688 C 1004.480469 291.375 1006.132812 291.816406 1007.5625 291.15625 C 1010.972656 289.175781 1013.28125 285.765625 1013.832031 281.804688 C 1014.492188 277.625 1013.171875 272.121094 1008.550781 270.800781 C 1007.011719 270.363281 1005.472656 271.132812 1004.921875 272.671875 C 1004.921875 272.671875 1004.921875 272.78125 1004.921875 272.78125 C 1004.480469 274.324219 1005.363281 275.972656 1006.902344 276.523438 C 1007.011719 276.523438 1007.011719 276.523438 1007.121094 276.523438 Z M 1007.121094 276.523438 " fill-opacity="1" fill-rule="nonzero"/><path fill="#000000" d="M 874.4375 229.984375 L 875.980469 229.105469 L 876.417969 228.886719 C 876.75 228.664062 875.871094 229.105469 876.308594 228.886719 L 877.078125 228.664062 L 878.730469 228.226562 C 879.167969 228.113281 878.730469 228.335938 878.621094 228.226562 L 881.921875 228.226562 L 882.800781 228.445312 L 883.570312 228.773438 C 884.011719 228.886719 883.570312 228.773438 883.460938 228.664062 L 883.902344 228.886719 L 885.550781 229.765625 C 886.871094 230.644531 888.632812 230.207031 889.511719 228.773438 C 890.171875 227.34375 889.730469 225.585938 888.410156 224.703125 C 883.242188 221.402344 876.640625 221.402344 871.578125 224.8125 C 870.148438 225.695312 869.707031 227.453125 870.476562 228.886719 C 871.25 230.207031 873.007812 230.753906 874.4375 229.984375 C 874.4375 229.875 874.4375 229.875 874.4375 229.875 Z M 874.4375 229.984375 " fill-opacity="1" fill-rule="nonzero"/><path fill="#000000" d="M 881.261719 251.550781 C 881.921875 252.210938 882.359375 253.089844 882.582031 253.96875 C 883.242188 255.839844 883.460938 257.929688 883.351562 259.910156 C 883.351562 260.789062 883.128906 261.671875 882.691406 262.441406 C 882.359375 263.210938 881.589844 263.871094 880.710938 263.980469 C 879.390625 263.980469 878.289062 263.320312 877.628906 262.222656 C 876.75 260.902344 876.308594 259.25 876.417969 257.710938 C 876.417969 256.167969 876.75 254.519531 877.300781 253.089844 C 877.410156 252.539062 877.628906 251.988281 878.070312 251.660156 C 878.507812 251.21875 879.167969 250.890625 879.828125 250.890625 C 880.378906 250.890625 880.820312 251.21875 881.261719 251.550781 Z M 881.261719 251.550781 " fill-opacity="1" fill-rule="nonzero"/><path fill="#000000" d="M 879.71875 253.089844 L 880.050781 253.640625 L 880.378906 254.191406 L 880.269531 254.191406 C 880.378906 254.300781 880.378906 254.410156 880.378906 254.519531 C 880.601562 254.851562 880.710938 255.289062 880.820312 255.730469 C 880.929688 256.171875 881.039062 256.71875 881.039062 257.160156 C 881.148438 258.148438 881.261719 259.140625 881.148438 260.128906 L 881.148438 260.460938 C 881.039062 260.679688 881.039062 260.902344 880.929688 261.121094 L 880.929688 261.449219 C 881.039062 261.121094 880.820312 261.449219 880.820312 261.5625 L 880.820312 261.78125 C 880.710938 262 881.039062 261.671875 880.820312 261.78125 L 880.601562 262 C 880.601562 262 880.929688 261.78125 880.710938 261.890625 L 880.378906 262.109375 C 880.488281 262 880.710938 262 880.488281 262 C 880.269531 262 880.269531 261.890625 880.488281 262 L 880.050781 262 L 879.71875 261.671875 C 879.609375 261.5625 879.71875 261.671875 879.71875 261.78125 C 879.71875 261.890625 879.609375 261.5625 879.609375 261.449219 C 879.390625 261.230469 879.28125 261.011719 879.167969 260.789062 C 879.167969 260.789062 879.058594 260.570312 879.167969 260.679688 C 879.28125 260.789062 879.058594 260.570312 879.058594 260.570312 C 879.058594 260.570312 878.949219 260.128906 878.949219 259.910156 C 878.949219 259.691406 878.839844 259.46875 878.730469 259.25 L 878.730469 257.488281 C 878.730469 257.378906 878.839844 256.828125 878.730469 257.050781 C 878.621094 257.269531 878.839844 256.5 878.949219 256.28125 C 879.058594 255.730469 879.167969 255.070312 879.390625 254.519531 C 879.390625 254.300781 879.5 253.96875 879.609375 253.75 C 879.71875 253.53125 879.609375 253.75 879.609375 253.859375 C 879.609375 253.96875 879.71875 253.53125 879.5 253.75 C 879.28125 253.96875 879.71875 253.640625 879.71875 253.53125 C 879.71875 253.417969 879.5 253.859375 879.71875 253.640625 C 879.71875 253.53125 879.71875 253.53125 879.828125 253.53125 C 879.390625 253.75 879.828125 253.640625 879.941406 253.53125 C 880.050781 253.417969 879.5 253.640625 879.609375 253.417969 L 880.269531 253.859375 C 881.261719 254.519531 882.582031 254.191406 883.128906 253.199219 C 883.128906 253.199219 883.242188 253.089844 883.242188 253.089844 C 883.789062 252.097656 883.460938 250.777344 882.46875 250.117188 C 881.148438 249.019531 879.28125 248.910156 877.738281 249.679688 C 876.417969 250.449219 875.429688 251.660156 875.210938 253.199219 C 874.109375 255.949219 874 258.921875 874.878906 261.671875 C 875.757812 264.421875 878.289062 267.28125 881.589844 266.511719 C 884.890625 265.742188 885.660156 262 885.660156 259.140625 C 885.660156 257.488281 885.441406 255.839844 885 254.300781 C 884.671875 252.871094 883.902344 251.550781 882.910156 250.449219 C 882.03125 249.570312 880.710938 249.570312 879.828125 250.449219 C 879.167969 251.21875 879.167969 252.320312 879.71875 253.089844 Z M 879.71875 253.089844 " fill-opacity="1" fill-rule="nonzero"/><path fill="#000000" d="M 939.351562 246.707031 C 940.011719 247.367188 940.449219 248.136719 940.671875 249.019531 C 941.332031 250.890625 941.550781 252.980469 941.441406 254.960938 C 941.441406 255.839844 941.21875 256.71875 940.78125 257.488281 C 940.449219 258.261719 939.679688 258.921875 938.800781 259.03125 C 937.589844 259.140625 936.378906 258.480469 935.71875 257.378906 C 934.839844 256.058594 934.507812 254.410156 934.507812 252.871094 C 934.507812 251.21875 934.839844 249.679688 935.390625 248.136719 C 935.5 247.589844 935.71875 247.039062 936.160156 246.707031 C 936.601562 246.269531 937.261719 246.046875 937.921875 246.046875 C 938.46875 246.046875 938.910156 246.378906 939.351562 246.707031 Z M 939.351562 246.707031 " fill-opacity="1" fill-rule="nonzero"/><path fill="#000000" d="M 937.808594 248.25 L 938.140625 248.6875 L 938.46875 249.238281 C 938.578125 249.457031 938.359375 249.238281 938.359375 249.128906 C 938.46875 249.238281 938.46875 249.347656 938.46875 249.457031 C 938.691406 249.898438 938.800781 250.339844 938.910156 250.777344 C 939.019531 251.21875 939.128906 251.660156 939.128906 252.097656 C 939.238281 253.089844 939.351562 254.078125 939.238281 255.070312 L 939.238281 255.398438 C 939.128906 255.621094 939.128906 255.839844 939.019531 256.058594 L 939.019531 256.390625 C 939.019531 256.058594 938.910156 256.390625 938.910156 256.390625 C 938.910156 256.5 938.910156 256.5 938.800781 256.609375 C 938.691406 256.941406 939.019531 256.5 938.800781 256.609375 L 938.578125 256.828125 C 938.578125 256.828125 938.800781 256.71875 938.691406 256.828125 L 938.46875 256.828125 L 938.140625 256.609375 C 938.03125 256.609375 937.808594 256.390625 938.03125 256.5 L 937.699219 256.28125 C 937.699219 256.167969 937.589844 256.167969 937.589844 256.058594 L 937.148438 255.398438 C 937.148438 255.398438 937.039062 255.070312 937.148438 255.289062 L 937.148438 255.070312 C 937.148438 254.851562 937.039062 254.738281 937.039062 254.519531 C 936.929688 254.300781 936.929688 253.96875 936.820312 253.75 L 936.820312 251.988281 C 936.820312 251.878906 936.929688 251.328125 936.820312 251.660156 C 936.929688 251.328125 936.929688 251.109375 936.929688 250.777344 C 937.148438 250.230469 937.257812 249.679688 937.480469 249.128906 C 937.480469 248.910156 937.589844 248.578125 937.808594 248.25 C 937.699219 248.136719 937.699219 248.359375 937.589844 248.359375 C 937.480469 248.359375 937.808594 248.136719 937.589844 248.25 L 937.808594 248.25 C 938.03125 248.027344 937.589844 248.46875 937.808594 248.25 C 937.808594 248.027344 937.917969 248.25 937.917969 248.136719 C 937.917969 248.027344 937.917969 248.25 938.03125 248.25 C 938.140625 248.25 937.589844 248.25 937.699219 248.136719 L 938.359375 248.578125 C 939.351562 249.128906 940.671875 248.796875 941.332031 247.808594 C 941.878906 246.707031 941.550781 245.386719 940.558594 244.726562 C 939.128906 243.738281 937.371094 243.628906 935.828125 244.398438 C 934.507812 245.058594 933.628906 246.378906 933.300781 247.808594 C 932.308594 250.558594 932.199219 253.53125 932.96875 256.28125 C 933.847656 259.03125 936.378906 262 939.679688 261.121094 C 942.980469 260.242188 943.75 256.71875 943.75 253.75 C 943.75 252.097656 943.53125 250.449219 942.980469 248.910156 C 942.761719 247.476562 941.992188 246.15625 941 245.167969 C 940.230469 244.179688 938.910156 243.957031 937.917969 244.726562 C 936.929688 245.496094 936.710938 246.816406 937.480469 247.808594 C 937.589844 248.027344 937.699219 248.136719 937.917969 248.25 Z M 937.808594 248.25 " fill-opacity="1" fill-rule="nonzero"/><path fill="#000000" d="M 942.320312 220.523438 C 936.378906 217.882812 929.558594 217.992188 923.835938 220.964844 C 922.515625 221.734375 921.96875 223.492188 922.847656 224.925781 C 923.726562 226.246094 925.488281 226.683594 926.808594 225.914062 L 927.6875 225.472656 C 927.136719 225.804688 928.019531 225.363281 928.128906 225.363281 L 930 224.8125 L 931.207031 224.8125 L 932.96875 224.59375 L 934.839844 224.59375 C 934.949219 224.59375 936.050781 224.703125 935.28125 224.59375 L 936.050781 224.59375 L 937.808594 225.035156 L 938.800781 225.363281 L 939.351562 225.585938 C 940.78125 226.355469 942.539062 225.804688 943.3125 224.484375 C 943.972656 223.273438 943.75 221.183594 942.320312 220.523438 Z M 942.320312 220.523438 " fill-opacity="1" fill-rule="nonzero"/><path fill="#000000" d="M 896.003906 262.109375 C 895.011719 264.421875 893.582031 266.511719 891.933594 268.382812 C 890.0625 270.472656 888.632812 272.894531 887.53125 275.421875 C 885.222656 281.144531 887.75 286.425781 890.613281 291.265625 C 893.472656 296.105469 897.652344 291.597656 895.671875 288.40625 C 894.351562 286.425781 893.363281 284.226562 892.59375 282.023438 C 892.152344 280.042969 892.59375 277.84375 893.582031 276.082031 C 896.003906 271.683594 899.851562 268.382812 901.722656 263.652344 C 902.164062 262.109375 901.171875 260.460938 899.632812 260.019531 C 898.09375 259.691406 896.441406 260.570312 896.003906 262.109375 Z M 896.003906 262.109375 " fill-opacity="1" fill-rule="nonzero"/><path fill="#000000" d="M 906.234375 312.941406 C 916.246094 313.492188 925.929688 309.96875 933.410156 303.367188 C 934.507812 302.160156 934.507812 300.398438 933.410156 299.1875 C 932.199219 298.199219 930.546875 298.199219 929.339844 299.1875 C 922.957031 304.796875 914.707031 307.660156 906.234375 307.109375 C 904.585938 307.109375 903.375 308.320312 903.265625 309.96875 C 903.375 311.621094 904.585938 312.832031 906.234375 312.941406 Z M 906.234375 312.941406 " fill-opacity="1" fill-rule="nonzero"/><path fill="#000000" d="M 857.9375 218.761719 C 857.054688 193.570312 876.417969 172.226562 901.503906 170.574219 C 905.246094 170.355469 905.355469 164.523438 901.503906 164.742188 C 873.230469 166.503906 851.335938 190.378906 852.105469 218.761719 C 852.214844 222.503906 858.046875 222.503906 857.9375 218.761719 Z M 857.9375 218.761719 " fill-opacity="1" fill-rule="nonzero"/><path fill="#000000" d="M 909.753906 166.171875 C 913.386719 153.410156 930.328125 157.371094 937.808594 163.644531 C 947.601562 171.675781 952.113281 184.546875 956.402344 195.988281 C 960.695312 207.429688 965.316406 220.632812 971.253906 232.40625 C 976.207031 242.199219 982.699219 252.097656 993.148438 256.71875 C 996.558594 258.261719 999.53125 253.199219 996.121094 251.660156 C 986.4375 247.476562 980.828125 238.457031 976.207031 229.433594 C 971.585938 220.414062 966.964844 207.542969 962.785156 196.320312 C 956.183594 178.9375 947.710938 155.28125 926.367188 152.089844 C 917.125 150.769531 906.785156 155.171875 904.035156 164.632812 C 903.042969 168.265625 908.65625 169.804688 909.753906 166.171875 Z M 909.753906 166.171875 " fill-opacity="1" fill-rule="nonzero"/><path fill="#000000" d="M 919.4375 173.214844 C 928.457031 167.605469 940.230469 169.363281 947.382812 177.175781 C 949.910156 180.035156 953.984375 175.855469 951.5625 173.105469 C 942.980469 163.421875 927.46875 161.222656 916.464844 168.152344 C 913.386719 170.132812 916.246094 175.195312 919.4375 173.214844 Z M 919.4375 173.214844 " fill-opacity="1" fill-rule="nonzero"/><path fill="#000000" d="M 902.824219 154.292969 C 912.726562 136.359375 931.980469 127.335938 950.351562 120.515625 C 953.871094 119.195312 952.332031 113.585938 948.8125 114.902344 C 929.007812 122.277344 908.433594 132.066406 897.761719 151.429688 C 896.003906 154.621094 901.0625 157.59375 902.824219 154.292969 Z M 902.824219 154.292969 " fill-opacity="1" fill-rule="nonzero"/><path fill="#000000" d="M 1010.3125 328.78125 C 1010.3125 323.941406 1010.972656 318.992188 1014.382812 315.25 C 1017.792969 311.511719 1022.304688 309.417969 1026.265625 306.667969 C 1042.769531 295.667969 1054.101562 279.605469 1062.570312 261.78125 C 1073.574219 238.675781 1072.253906 211.0625 1065.320312 186.96875 C 1061.359375 173.875 1055.859375 161.332031 1048.820312 149.671875 C 1043.097656 140.097656 1036.605469 130.195312 1027.476562 123.484375 C 1010.863281 111.164062 987.648438 105.992188 967.292969 105.882812 C 963.335938 105.882812 959.484375 106.210938 955.632812 106.210938 C 951.453125 106.101562 947.273438 106.324219 943.089844 106.652344 C 910.085938 109.625 877.1875 123.707031 859.476562 152.859375 C 852.984375 163.53125 848.144531 175.746094 844.515625 187.628906 C 841.875 196.429688 839.894531 205.78125 840.222656 214.914062 C 840.664062 225.695312 844.402344 235.816406 852.546875 242.96875 C 853.867188 244.179688 855.296875 245.277344 856.835938 246.378906 C 859.804688 248.578125 862.777344 243.519531 859.695312 241.316406 C 853.09375 236.585938 848.585938 229.65625 846.824219 221.734375 C 842.972656 202.808594 851.664062 181.90625 859.476562 165.183594 C 867.398438 148.128906 880.601562 134.269531 897.210938 125.464844 C 910.085938 118.863281 924.167969 114.574219 938.578125 113.035156 C 945.179688 112.152344 951.78125 112.265625 958.382812 112.042969 C 967.734375 111.824219 976.644531 111.824219 986 113.472656 C 995.351562 115.125 1007.011719 118.535156 1016.472656 123.484375 C 1025.933594 128.4375 1032.207031 135.257812 1038.148438 143.949219 C 1045.628906 154.730469 1051.789062 166.394531 1056.410156 178.714844 C 1064.773438 201.269531 1068.621094 228.886719 1060.480469 251.988281 C 1056.191406 263.761719 1049.917969 274.761719 1041.996094 284.554688 C 1037.265625 290.496094 1031.65625 295.777344 1025.386719 300.179688 C 1017.574219 305.679688 1007.890625 309.96875 1005.363281 320.089844 C 1004.703125 322.953125 1004.480469 325.8125 1004.480469 328.785156 C 1004.589844 332.523438 1010.421875 332.523438 1010.3125 328.78125 Z M 1010.3125 328.78125 " fill-opacity="1" fill-rule="nonzero"/><path fill="#000000" d="M 1055.089844 165.292969 C 1058.609375 158.582031 1065.433594 154.730469 1072.804688 153.851562 C 1080.175781 152.972656 1089.085938 155.941406 1095.90625 160.234375 C 1110.648438 169.585938 1121.871094 184.328125 1125.832031 201.378906 C 1134.414062 238.125 1115.050781 273.664062 1109.988281 309.308594 C 1107.570312 326.582031 1107.460938 345.507812 1119.671875 359.257812 C 1122.203125 362.007812 1126.273438 357.9375 1123.742188 355.078125 C 1111.308594 341.105469 1113.730469 319.871094 1117.03125 302.820312 C 1120.769531 282.90625 1127.8125 263.871094 1131.441406 243.957031 C 1134.523438 226.792969 1135.183594 208.421875 1129.132812 191.808594 C 1122.75 175.085938 1110.539062 161.332031 1094.808594 152.859375 C 1079.953125 145.160156 1058.71875 145.929688 1050.027344 162.324219 C 1048.378906 165.625 1053.328125 168.59375 1055.089844 165.292969 Z M 1055.089844 165.292969 " fill-opacity="1" fill-rule="nonzero"/><path fill="#000000" d="M 1054.101562 164.632812 C 1061.582031 163.644531 1068.292969 172.335938 1071.921875 177.835938 C 1075.554688 183.335938 1078.414062 189.828125 1078.855469 196.320312 C 1079.183594 201.820312 1078.304688 207.320312 1076.324219 212.492188 C 1074.785156 216.5625 1072.253906 222.171875 1067.742188 223.605469 C 1063.230469 225.035156 1065.652344 230.316406 1069.28125 229.214844 C 1075.222656 227.34375 1078.746094 221.734375 1080.945312 216.34375 C 1083.144531 210.953125 1085.34375 202.480469 1084.683594 195.550781 C 1084.023438 188.617188 1080.285156 179.375 1075.554688 172.773438 C 1070.824219 166.171875 1063.011719 157.59375 1054.101562 158.800781 C 1050.46875 159.242188 1050.359375 165.074219 1054.101562 164.632812 Z M 1054.101562 164.632812 " fill-opacity="1" fill-rule="nonzero"/><path fill="#000000" d="M 1044.199219 287.085938 C 1044.527344 307.4375 1051.238281 327.242188 1063.339844 343.636719 C 1075.332031 359.589844 1093.265625 374.332031 1114.171875 374.769531 C 1117.910156 374.882812 1117.910156 369.050781 1114.171875 368.941406 C 1094.808594 368.5 1077.753906 353.867188 1067.082031 338.796875 C 1056.300781 323.722656 1050.359375 305.679688 1050.027344 287.085938 C 1049.917969 283.34375 1044.089844 283.34375 1044.199219 287.085938 Z M 1044.199219 287.085938 " fill-opacity="1" fill-rule="nonzero"/><path fill="#000000" d="M 1081.824219 323.832031 C 1085.785156 334.722656 1090.957031 345.507812 1099.097656 353.976562 C 1107.238281 362.449219 1116.921875 367.289062 1128.03125 367.621094 C 1131.773438 367.730469 1131.773438 361.898438 1128.03125 361.789062 C 1106.46875 361.128906 1094.035156 340.335938 1087.4375 322.292969 C 1086.117188 318.882812 1080.503906 320.3125 1081.824219 323.832031 Z M 1081.824219 323.832031 " fill-opacity="1" fill-rule="nonzero"/><path fill="#000000" d="M 974.667969 325.371094 C 974.667969 325.371094 950.683594 352.65625 920.535156 364.980469 L 917.347656 354.199219 C 917.347656 354.199219 944.082031 349.027344 947.492188 346.9375 C 956.292969 341.324219 974.667969 325.371094 974.667969 325.371094 Z M 974.667969 325.371094 " fill-opacity="1" fill-rule="nonzero"/><path fill="#000000" d="M 1009.871094 305.898438 L 1009.871094 305.570312 L 1008.441406 308.097656 L 1008.773438 307.878906 L 1006.570312 308.210938 L 1007.011719 308.210938 L 1005.25 306.890625 C 1004.921875 306.339844 1004.8125 309.089844 1004.703125 309.640625 C 1004.703125 310.628906 1004.589844 311.621094 1004.480469 312.609375 C 1004.261719 314.8125 1004.042969 317.121094 1003.929688 319.320312 C 1003.601562 323.613281 1003.382812 327.792969 1003.382812 332.082031 C 1003.269531 340.773438 1004.042969 349.578125 1005.472656 358.160156 C 1006.132812 361.898438 1011.742188 360.359375 1011.082031 356.617188 C 1009.320312 345.726562 1008.773438 334.613281 1009.433594 323.613281 C 1009.761719 318.109375 1010.421875 312.609375 1010.863281 307.109375 C 1010.972656 305.128906 1010.3125 302.929688 1008.113281 302.488281 C 1006.242188 302.160156 1004.480469 303.367188 1004.152344 305.128906 C 1004.152344 305.347656 1004.042969 305.570312 1004.042969 305.789062 C 1003.820312 309.53125 1009.652344 309.53125 1009.871094 305.789062 Z M 1009.871094 305.898438 " fill-opacity="1" fill-rule="nonzero"/><path fill="#000000" d="M 1008.113281 349.355469 C 995.789062 349.355469 985.777344 336.484375 985.777344 320.863281 C 985.777344 309.417969 990.949219 299.1875 999.089844 294.675781 C 1000.519531 293.90625 1002.28125 294.457031 1003.050781 295.777344 C 1003.820312 297.097656 1003.382812 298.859375 1002.0625 299.738281 C 1002.0625 299.738281 1002.0625 299.738281 1001.949219 299.738281 C 995.679688 303.257812 991.609375 311.511719 991.609375 320.863281 C 991.609375 333.292969 998.980469 343.527344 1008.113281 343.527344 C 1017.242188 343.527344 1024.613281 333.292969 1024.613281 320.863281 C 1024.613281 311.511719 1020.542969 303.257812 1014.273438 299.738281 C 1012.84375 298.96875 1012.292969 297.207031 1013.0625 295.777344 C 1013.941406 294.457031 1015.59375 294.015625 1017.023438 294.675781 C 1025.164062 299.1875 1030.445312 309.417969 1030.445312 320.863281 C 1030.445312 336.484375 1020.433594 349.355469 1008.113281 349.355469 Z M 1008.113281 349.355469 " fill-opacity="1" fill-rule="nonzero"/><path fill="#000000" d="M 870.148438 349.355469 C 858.15625 349.355469 848.363281 336.816406 848.363281 321.523438 C 848.363281 312.28125 851.996094 303.589844 858.046875 298.417969 L 860.136719 300.507812 L 862.007812 302.707031 C 857.054688 306.890625 854.195312 313.929688 854.195312 321.523438 C 854.195312 333.625 861.347656 343.527344 870.148438 343.527344 C 875.320312 343.527344 880.269531 340.003906 883.242188 334.0625 L 888.410156 336.816406 C 884.449219 344.625 877.628906 349.355469 870.148438 349.355469 Z M 870.148438 349.355469 " fill-opacity="1" fill-rule="nonzero"/><path fill="#000000" d="M 867.175781 648.832031 C 901.285156 646.742188 935.609375 649.492188 968.945312 656.972656 C 972.574219 657.851562 974.117188 652.242188 970.484375 651.363281 C 936.601562 643.769531 901.832031 640.910156 867.175781 643 C 863.4375 643.21875 863.328125 649.050781 867.175781 648.832031 Z M 867.175781 648.832031 " fill-opacity="1" fill-rule="nonzero"/><path fill="#ffe397" d="M 778.941406 325.484375 C 778.941406 327.3125 778.851562 329.140625 778.671875 330.960938 C 778.492188 332.78125 778.226562 334.589844 777.867188 336.386719 C 777.511719 338.179688 777.066406 339.953125 776.535156 341.707031 C 776.003906 343.457031 775.386719 345.179688 774.6875 346.871094 C 773.988281 348.5625 773.207031 350.214844 772.34375 351.828125 C 771.480469 353.441406 770.539062 355.011719 769.523438 356.535156 C 768.507812 358.054688 767.417969 359.523438 766.257812 360.9375 C 765.09375 362.355469 763.867188 363.707031 762.574219 365.003906 C 761.277344 366.296875 759.921875 367.523438 758.507812 368.6875 C 757.09375 369.847656 755.625 370.9375 754.101562 371.953125 C 752.582031 372.96875 751.011719 373.910156 749.398438 374.773438 C 747.785156 375.636719 746.132812 376.417969 744.441406 377.117188 C 742.75 377.820312 741.027344 378.433594 739.277344 378.964844 C 737.523438 379.496094 735.75 379.941406 733.957031 380.296875 C 732.160156 380.65625 730.351562 380.925781 728.53125 381.105469 C 726.710938 381.28125 724.882812 381.371094 723.054688 381.371094 C 721.222656 381.371094 719.394531 381.28125 717.574219 381.105469 C 715.753906 380.925781 713.945312 380.65625 712.148438 380.296875 C 710.355469 379.941406 708.582031 379.496094 706.828125 378.964844 C 705.078125 378.433594 703.355469 377.820312 701.664062 377.117188 C 699.972656 376.417969 698.320312 375.636719 696.707031 374.773438 C 695.09375 373.910156 693.523438 372.96875 692.003906 371.953125 C 690.480469 370.9375 689.011719 369.847656 687.597656 368.6875 C 686.183594 367.523438 684.828125 366.296875 683.53125 365.003906 C 682.238281 363.707031 681.011719 362.355469 679.847656 360.9375 C 678.6875 359.523438 677.597656 358.054688 676.582031 356.535156 C 675.566406 355.011719 674.625 353.441406 673.761719 351.828125 C 672.898438 350.214844 672.117188 348.5625 671.417969 346.871094 C 670.71875 345.179688 670.101562 343.457031 669.570312 341.707031 C 669.039062 339.953125 668.59375 338.179688 668.238281 336.386719 C 667.878906 334.589844 667.613281 332.78125 667.433594 330.960938 C 667.253906 329.140625 667.164062 327.3125 667.164062 325.484375 C 667.164062 323.652344 667.253906 321.824219 667.433594 320.003906 C 667.613281 318.183594 667.878906 316.375 668.238281 314.578125 C 668.59375 312.785156 669.039062 311.011719 669.570312 309.257812 C 670.101562 307.507812 670.71875 305.785156 671.417969 304.09375 C 672.117188 302.402344 672.898438 300.75 673.761719 299.136719 C 674.625 297.523438 675.566406 295.953125 676.582031 294.429688 C 677.597656 292.910156 678.6875 291.441406 679.847656 290.027344 C 681.011719 288.609375 682.238281 287.257812 683.53125 285.960938 C 684.828125 284.667969 686.183594 283.441406 687.597656 282.277344 C 689.011719 281.117188 690.480469 280.027344 692.003906 279.011719 C 693.523438 277.996094 695.09375 277.054688 696.707031 276.191406 C 698.320312 275.328125 699.972656 274.546875 701.664062 273.847656 C 703.355469 273.144531 705.078125 272.53125 706.828125 272 C 708.582031 271.46875 710.355469 271.023438 712.148438 270.667969 C 713.945312 270.308594 715.753906 270.039062 717.574219 269.863281 C 719.394531 269.683594 721.222656 269.59375 723.054688 269.59375 C 724.882812 269.59375 726.710938 269.683594 728.53125 269.863281 C 730.351562 270.039062 732.160156 270.308594 733.957031 270.667969 C 735.75 271.023438 737.523438 271.46875 739.277344 272 C 741.027344 272.53125 742.75 273.144531 744.441406 273.847656 C 746.132812 274.546875 747.785156 275.328125 749.398438 276.191406 C 751.011719 277.054688 752.582031 277.996094 754.101562 279.011719 C 755.625 280.027344 757.09375 281.117188 758.507812 282.277344 C 759.921875 283.441406 761.277344 284.667969 762.574219 285.960938 C 763.867188 287.257812 765.09375 288.609375 766.257812 290.027344 C 767.417969 291.441406 768.507812 292.910156 769.523438 294.429688 C 770.539062 295.953125 771.480469 297.523438 772.34375 299.136719 C 773.207031 300.75 773.988281 302.402344 774.6875 304.09375 C 775.386719 305.785156 776.003906 307.507812 776.535156 309.257812 C 777.066406 311.011719 777.511719 312.785156 777.867188 314.578125 C 778.226562 316.375 778.492188 318.183594 778.671875 320.003906 C 778.851562 321.824219 778.941406 323.652344 778.941406 325.484375 Z M 778.941406 325.484375 " fill-opacity="1" fill-rule="nonzero"/><path fill="#000000" d="M 723.054688 384.34375 C 690.597656 384.34375 664.191406 357.9375 664.191406 325.484375 C 664.191406 293.027344 690.597656 266.621094 723.054688 266.621094 C 755.507812 266.621094 781.914062 293.027344 781.914062 325.484375 C 781.914062 357.9375 755.507812 384.34375 723.054688 384.34375 Z M 723.054688 272.5625 C 693.789062 272.5625 670.023438 296.328125 670.023438 325.59375 C 670.023438 354.859375 693.789062 378.621094 723.054688 378.621094 C 752.316406 378.621094 776.082031 354.859375 776.082031 325.59375 C 776.082031 325.59375 776.082031 325.484375 776.082031 325.484375 C 775.972656 296.21875 752.316406 272.5625 723.054688 272.5625 Z M 723.054688 272.5625 " fill-opacity="1" fill-rule="nonzero"/><path fill="#000000" d="M 738.457031 305.238281 C 732.734375 299.738281 724.921875 295.996094 717.332031 300.289062 C 709.742188 304.578125 707.761719 311.730469 710.949219 318.222656 C 714.140625 324.710938 722.0625 325.152344 728.332031 327.574219 C 731.085938 328.671875 733.175781 331.203125 733.613281 334.175781 C 734.164062 337.144531 732.84375 339.34375 730.644531 341.433594 C 728.445312 343.527344 725.253906 344.1875 721.734375 343.195312 C 717.882812 342.09375 714.472656 339.785156 711.941406 336.703125 C 709.742188 333.734375 704.679688 336.59375 706.988281 339.566406 C 711.171875 345.285156 717.992188 349.46875 725.253906 349.578125 C 732.515625 349.6875 738.457031 343.855469 739.445312 337.476562 C 740.324219 330.542969 736.144531 324.050781 729.542969 321.851562 C 724.59375 320.203125 714.472656 319.542969 715.570312 311.949219 C 716.230469 308.320312 718.871094 305.457031 722.390625 304.46875 C 727.125 303.257812 731.195312 306.230469 734.382812 309.308594 C 737.574219 312.390625 741.207031 307.769531 738.457031 305.238281 Z M 738.457031 305.238281 " fill-opacity="1" fill-rule="nonzero"/><path fill="#000000" d="M 721.402344 293.355469 L 721.402344 298.859375 C 721.402344 299.628906 721.734375 300.398438 722.171875 300.949219 C 722.722656 301.5 723.492188 301.71875 724.261719 301.71875 C 725.03125 301.71875 725.804688 301.5 726.351562 300.949219 C 726.902344 300.398438 727.234375 299.628906 727.234375 298.859375 L 727.234375 293.355469 C 727.234375 292.585938 726.902344 291.816406 726.351562 291.265625 C 725.144531 290.277344 723.382812 290.277344 722.171875 291.265625 C 721.734375 291.816406 721.402344 292.585938 721.402344 293.355469 Z M 721.402344 293.355469 " fill-opacity="1" fill-rule="nonzero"/><path fill="#000000" d="M 721.402344 348.148438 L 721.402344 357.71875 C 721.074219 359.367188 722.171875 360.910156 723.710938 361.238281 C 725.363281 361.570312 726.902344 360.46875 727.234375 358.929688 C 727.34375 358.597656 727.34375 358.160156 727.234375 357.828125 L 727.234375 348.257812 C 726.902344 346.605469 725.363281 345.617188 723.710938 345.945312 C 722.613281 346.054688 721.621094 346.9375 721.402344 348.148438 Z M 721.402344 348.148438 " fill-opacity="1" fill-rule="nonzero"/><path fill="#ffe397" d="M 814.917969 129.976562 C 814.917969 131.074219 814.863281 132.171875 814.757812 133.265625 C 814.648438 134.359375 814.488281 135.445312 814.273438 136.523438 C 814.058594 137.601562 813.792969 138.667969 813.472656 139.71875 C 813.15625 140.769531 812.785156 141.804688 812.363281 142.820312 C 811.945312 143.832031 811.472656 144.824219 810.957031 145.796875 C 810.4375 146.765625 809.875 147.707031 809.261719 148.621094 C 808.652344 149.535156 808 150.414062 807.300781 151.265625 C 806.605469 152.113281 805.867188 152.925781 805.089844 153.703125 C 804.3125 154.480469 803.5 155.21875 802.648438 155.917969 C 801.800781 156.613281 800.917969 157.265625 800.003906 157.878906 C 799.089844 158.488281 798.148438 159.054688 797.179688 159.570312 C 796.210938 160.089844 795.21875 160.558594 794.203125 160.980469 C 793.1875 161.398438 792.15625 161.769531 791.101562 162.089844 C 790.050781 162.40625 788.988281 162.675781 787.910156 162.886719 C 786.832031 163.101562 785.746094 163.265625 784.652344 163.371094 C 783.558594 163.480469 782.460938 163.53125 781.363281 163.53125 C 780.265625 163.53125 779.167969 163.480469 778.074219 163.371094 C 776.980469 163.265625 775.894531 163.101562 774.816406 162.886719 C 773.738281 162.675781 772.671875 162.40625 771.621094 162.089844 C 770.570312 161.769531 769.535156 161.398438 768.523438 160.980469 C 767.507812 160.558594 766.515625 160.089844 765.542969 159.570312 C 764.574219 159.054688 763.632812 158.488281 762.71875 157.878906 C 761.804688 157.265625 760.925781 156.613281 760.074219 155.917969 C 759.226562 155.21875 758.414062 154.480469 757.636719 153.703125 C 756.859375 152.925781 756.121094 152.113281 755.421875 151.265625 C 754.726562 150.414062 754.074219 149.535156 753.460938 148.621094 C 752.851562 147.707031 752.289062 146.765625 751.769531 145.796875 C 751.25 144.824219 750.78125 143.832031 750.359375 142.820312 C 749.941406 141.804688 749.570312 140.769531 749.25 139.71875 C 748.933594 138.667969 748.667969 137.601562 748.453125 136.523438 C 748.238281 135.445312 748.078125 134.359375 747.96875 133.265625 C 747.859375 132.171875 747.808594 131.074219 747.808594 129.976562 C 747.808594 128.878906 747.859375 127.78125 747.96875 126.6875 C 748.078125 125.59375 748.238281 124.507812 748.453125 123.429688 C 748.667969 122.351562 748.933594 121.289062 749.25 120.234375 C 749.570312 119.183594 749.941406 118.152344 750.359375 117.136719 C 750.78125 116.121094 751.25 115.128906 751.769531 114.160156 C 752.289062 113.191406 752.851562 112.246094 753.460938 111.335938 C 754.074219 110.421875 754.726562 109.539062 755.421875 108.6875 C 756.121094 107.839844 756.859375 107.027344 757.636719 106.25 C 758.414062 105.472656 759.226562 104.734375 760.074219 104.039062 C 760.925781 103.339844 761.804688 102.6875 762.71875 102.074219 C 763.632812 101.464844 764.574219 100.902344 765.542969 100.382812 C 766.515625 99.863281 767.507812 99.394531 768.523438 98.976562 C 769.535156 98.554688 770.570312 98.183594 771.621094 97.867188 C 772.671875 97.546875 773.738281 97.28125 774.816406 97.066406 C 775.894531 96.851562 776.980469 96.691406 778.074219 96.582031 C 779.167969 96.476562 780.265625 96.421875 781.363281 96.421875 C 782.460938 96.421875 783.558594 96.476562 784.652344 96.582031 C 785.746094 96.691406 786.832031 96.851562 787.910156 97.066406 C 788.988281 97.28125 790.050781 97.546875 791.101562 97.867188 C 792.15625 98.183594 793.1875 98.554688 794.203125 98.976562 C 795.21875 99.394531 796.210938 99.863281 797.179688 100.382812 C 798.148438 100.902344 799.089844 101.464844 800.003906 102.074219 C 800.917969 102.6875 801.800781 103.339844 802.648438 104.039062 C 803.5 104.734375 804.3125 105.472656 805.089844 106.25 C 805.867188 107.027344 806.605469 107.839844 807.300781 108.6875 C 808 109.539062 808.652344 110.421875 809.261719 111.335938 C 809.875 112.246094 810.4375 113.191406 810.957031 114.160156 C 811.472656 115.128906 811.945312 116.121094 812.363281 117.136719 C 812.785156 118.152344 813.15625 119.183594 813.472656 120.234375 C 813.792969 121.289062 814.058594 122.351562 814.273438 123.429688 C 814.488281 124.507812 814.648438 125.59375 814.757812 126.6875 C 814.863281 127.78125 814.917969 128.878906 814.917969 129.976562 Z M 814.917969 129.976562 " fill-opacity="1" fill-rule="nonzero"/><path fill="#000000" d="M 781.363281 166.394531 C 761.230469 166.394531 744.835938 150 744.835938 129.867188 C 744.835938 109.734375 761.230469 93.339844 781.363281 93.339844 C 801.496094 93.339844 817.890625 109.734375 817.890625 129.867188 C 817.890625 129.867188 817.890625 129.976562 817.890625 129.976562 C 817.777344 150.109375 801.496094 166.394531 781.363281 166.394531 Z M 781.363281 99.28125 C 764.417969 99.28125 750.667969 113.035156 750.667969 129.976562 C 750.667969 146.921875 764.417969 160.671875 781.363281 160.671875 C 798.304688 160.671875 812.058594 146.921875 812.058594 129.976562 C 812.058594 113.035156 798.304688 99.28125 781.363281 99.28125 Z M 781.363281 99.28125 " fill-opacity="1" fill-rule="nonzero"/><path fill="#000000" d="M 791.484375 116.882812 C 787.632812 113.253906 782.351562 110.945312 777.292969 113.804688 C 772.230469 116.664062 770.910156 121.726562 773.113281 126.125 C 774.210938 128.214844 776.082031 129.757812 778.28125 130.527344 C 780.261719 131.296875 782.351562 131.515625 784.222656 132.289062 C 785.433594 132.949219 786.421875 134.046875 786.644531 135.476562 C 786.753906 135.917969 786.644531 135.039062 786.644531 135.589844 L 786.644531 136.25 C 786.644531 136.6875 786.753906 135.808594 786.644531 136.359375 C 786.535156 136.910156 786.535156 136.6875 786.535156 136.910156 C 786.421875 137.128906 786.3125 137.347656 786.09375 137.570312 L 785.101562 138.667969 L 784.113281 139.4375 L 783.894531 139.4375 C 783.785156 139.546875 782.902344 139.660156 783.453125 139.660156 C 782.574219 139.769531 781.691406 139.660156 780.921875 139.328125 C 778.832031 138.777344 777.070312 137.570312 775.75 135.917969 C 774.871094 134.597656 773.109375 134.15625 771.792969 134.929688 C 770.359375 135.699219 769.921875 137.457031 770.691406 138.777344 C 770.691406 138.777344 770.691406 138.777344 770.691406 138.886719 C 773.550781 142.847656 777.953125 145.269531 782.792969 145.488281 C 787.082031 145.488281 791.703125 141.640625 792.363281 137.347656 C 793.023438 132.617188 790.164062 127.996094 785.652344 126.457031 C 783.671875 126.015625 781.804688 125.464844 779.933594 124.804688 C 779.382812 124.585938 778.832031 124.257812 778.503906 123.707031 C 778.28125 123.484375 778.0625 123.15625 778.0625 122.824219 L 778.0625 122.054688 C 778.28125 120.296875 779.601562 118.753906 781.363281 118.316406 C 783.671875 117.765625 785.761719 119.304688 787.304688 120.957031 C 788.84375 122.605469 794.234375 119.414062 791.484375 116.882812 Z M 791.484375 116.882812 " fill-opacity="1" fill-rule="nonzero"/><path fill="#000000" d="M 779.164062 110.613281 L 779.164062 113.914062 C 779.164062 114.355469 779.273438 114.683594 779.492188 115.015625 C 779.601562 115.34375 779.824219 115.785156 780.042969 116.003906 C 780.261719 116.335938 780.703125 116.445312 781.03125 116.554688 C 781.363281 116.773438 781.691406 116.882812 782.132812 116.882812 C 782.902344 116.773438 783.671875 116.554688 784.222656 116.003906 C 784.664062 115.453125 784.992188 114.683594 784.992188 113.914062 L 784.992188 110.613281 C 785.101562 110.285156 784.992188 109.84375 784.773438 109.511719 C 784.664062 109.183594 784.445312 108.851562 784.222656 108.632812 C 783.894531 108.304688 783.5625 108.082031 783.234375 107.972656 C 782.902344 107.753906 782.464844 107.753906 782.132812 107.753906 C 781.363281 107.753906 780.59375 108.082031 780.042969 108.632812 C 779.492188 109.183594 779.164062 109.84375 779.164062 110.613281 Z M 779.164062 110.613281 " fill-opacity="1" fill-rule="nonzero"/><path fill="#000000" d="M 779.164062 143.507812 L 779.164062 149.230469 C 779.164062 150.878906 780.484375 152.199219 782.132812 152.199219 C 782.902344 152.199219 783.671875 151.871094 784.222656 151.320312 C 784.773438 150.769531 784.992188 150 784.992188 149.230469 L 784.992188 143.507812 C 784.882812 141.859375 783.5625 140.648438 781.914062 140.648438 C 781.253906 140.648438 780.59375 140.980469 780.042969 141.417969 C 779.492188 141.96875 779.164062 142.738281 779.164062 143.507812 Z M 779.164062 143.507812 " fill-opacity="1" fill-rule="nonzero"/><path fill="#000000" d="M 673.433594 249.238281 L 345.359375 249.238281 C 337.984375 249.238281 332.046875 243.296875 332.046875 235.925781 L 332.046875 13.027344 C 332.15625 5.65625 337.984375 -0.175781 345.359375 -0.285156 L 673.433594 -0.285156 C 680.804688 -0.175781 686.636719 5.65625 686.746094 13.027344 L 686.746094 235.925781 C 686.746094 243.296875 680.804688 249.238281 673.433594 249.238281 Z M 345.359375 5.542969 C 341.285156 5.65625 337.984375 8.953125 337.875 13.027344 L 337.875 235.925781 C 337.875 240.105469 341.175781 243.40625 345.359375 243.40625 L 673.433594 243.40625 C 677.613281 243.40625 680.914062 240.105469 680.914062 235.925781 L 680.914062 13.027344 C 680.804688 8.953125 677.503906 5.65625 673.433594 5.542969 Z M 345.359375 5.542969 " fill-opacity="1" fill-rule="nonzero"/><path fill="#6293f1" d="M 384.085938 77.9375 L 405.097656 77.9375 L 405.097656 122.605469 L 384.085938 122.605469 Z M 384.085938 77.9375 " fill-opacity="1" fill-rule="nonzero"/><path fill="#000000" d="M 407.957031 125.464844 L 381.113281 125.464844 L 381.113281 74.96875 L 407.957031 74.96875 Z M 386.945312 119.636719 L 402.128906 119.636719 L 402.128906 80.796875 L 386.945312 80.796875 Z M 386.945312 119.636719 " fill-opacity="1" fill-rule="nonzero"/><path fill="#6293f1" d="M 427.210938 56.375 L 448.226562 56.375 L 448.226562 122.605469 L 427.210938 122.605469 Z M 427.210938 56.375 " fill-opacity="1" fill-rule="nonzero"/><path fill="#000000" d="M 451.195312 125.464844 L 424.351562 125.464844 L 424.351562 53.511719 L 451.195312 53.511719 Z M 430.183594 119.636719 L 445.363281 119.636719 L 445.363281 59.34375 L 430.183594 59.34375 Z M 430.183594 119.636719 " fill-opacity="1" fill-rule="nonzero"/><path fill="#6293f1" d="M 470.449219 41.519531 L 491.460938 41.519531 L 491.460938 122.605469 L 470.449219 122.605469 Z M 470.449219 41.519531 " fill-opacity="1" fill-rule="nonzero"/><path fill="#000000" d="M 494.324219 125.464844 L 467.480469 125.464844 L 467.480469 38.660156 L 494.324219 38.660156 Z M 473.308594 119.636719 L 488.492188 119.636719 L 488.492188 44.492188 L 473.308594 44.492188 Z M 473.308594 119.636719 " fill-opacity="1" fill-rule="nonzero"/><path fill="#6293f1" d="M 513.578125 77.496094 L 534.589844 77.496094 L 534.589844 122.605469 L 513.578125 122.605469 Z M 513.578125 77.496094 " fill-opacity="1" fill-rule="nonzero"/><path fill="#000000" d="M 537.5625 125.464844 L 510.605469 125.464844 L 510.605469 74.527344 L 537.5625 74.527344 Z M 516.4375 119.636719 L 531.730469 119.636719 L 531.730469 80.359375 L 516.4375 80.359375 Z M 516.4375 119.636719 " fill-opacity="1" fill-rule="nonzero"/><path fill="#000000" d="M 574.855469 70.347656 L 647.03125 70.347656 L 647.03125 76.175781 L 574.855469 76.175781 Z M 574.855469 70.347656 " fill-opacity="1" fill-rule="nonzero"/><path fill="#000000" d="M 574.855469 89.820312 L 647.03125 89.820312 L 647.03125 95.652344 L 574.855469 95.652344 Z M 574.855469 89.820312 " fill-opacity="1" fill-rule="nonzero"/><path fill="#000000" d="M 574.855469 109.292969 L 647.03125 109.292969 L 647.03125 115.125 L 574.855469 115.125 Z M 574.855469 109.292969 " fill-opacity="1" fill-rule="nonzero"/><path fill="#a3dfbe" d="M 610.285156 166.171875 L 567.484375 169.914062 L 506.753906 191.039062 L 444.042969 180.917969 L 393.546875 203.800781 L 381.113281 208.75 L 645.710938 208.75 L 645.710938 152.3125 Z M 610.285156 166.171875 " fill-opacity="1" fill-rule="nonzero"/><path fill="#000000" d="M 645.710938 211.722656 L 381.113281 211.722656 C 379.683594 211.722656 378.472656 210.730469 378.253906 209.300781 C 377.921875 207.980469 378.691406 206.550781 380.011719 206.109375 L 392.445312 201.160156 L 442.835938 178.277344 C 443.382812 178.054688 444.042969 177.945312 444.59375 178.054688 L 506.535156 188.066406 L 566.496094 167.164062 L 567.15625 167.164062 L 609.511719 163.421875 L 644.609375 149.671875 C 645.488281 149.339844 646.589844 149.449219 647.359375 150 C 648.128906 150.550781 648.570312 151.429688 648.570312 152.421875 L 648.570312 208.863281 C 648.460938 210.402344 647.25 211.613281 645.710938 211.722656 Z M 396.078125 205.890625 L 642.738281 205.890625 L 642.738281 156.601562 L 611.273438 168.925781 L 610.503906 169.144531 L 568.035156 172.773438 L 507.746094 193.789062 C 507.304688 194.007812 506.753906 194.007812 506.316406 193.898438 L 444.484375 183.996094 Z M 396.078125 205.890625 " fill-opacity="1" fill-rule="nonzero"/><path fill="#000000" d="M 381.664062 208.53125 C 380.125 208.53125 378.804688 207.210938 378.804688 205.671875 L 378.804688 153.960938 C 378.472656 152.3125 379.574219 150.769531 381.113281 150.441406 C 382.765625 150.109375 384.304688 151.210938 384.632812 152.75 C 384.746094 153.082031 384.746094 153.519531 384.632812 153.851562 L 384.632812 205.5625 C 384.523438 207.320312 383.3125 208.53125 381.664062 208.53125 Z M 381.664062 208.53125 " fill-opacity="1" fill-rule="nonzero"/><path fill="#a3dfbe" d="M 323.023438 302.820312 C 318.621094 302.820312 314.113281 303.257812 309.820312 304.136719 L 323.355469 366.191406 L 261.191406 352.65625 C 260.3125 357.058594 259.761719 361.460938 259.761719 365.96875 C 259.652344 400.957031 287.925781 429.230469 322.914062 429.339844 C 357.898438 429.453125 386.175781 401.175781 386.285156 366.191406 C 386.394531 331.203125 358.121094 302.929688 323.023438 302.820312 C 323.132812 302.820312 323.023438 302.820312 323.023438 302.820312 Z M 323.023438 302.820312 " fill-opacity="1" fill-rule="nonzero"/><g clip-path="url(#490a53e13e)"><path fill="#000000" d="M 323.023438 432.203125 C 286.496094 432.09375 256.902344 402.496094 256.902344 365.96875 C 256.902344 361.238281 257.34375 356.617188 258.441406 351.996094 C 258.550781 351.226562 258.992188 350.566406 259.652344 350.128906 C 260.3125 349.796875 261.082031 349.578125 261.851562 349.796875 L 319.503906 362.339844 L 307.070312 304.796875 C 306.851562 304.027344 306.960938 303.257812 307.402344 302.597656 C 307.839844 301.9375 308.5 301.5 309.269531 301.386719 C 313.78125 300.398438 318.402344 299.847656 323.023438 299.847656 C 359.550781 301.386719 388.042969 332.195312 386.503906 368.71875 C 385.074219 403.15625 357.460938 430.773438 323.023438 432.203125 Z M 263.503906 356.289062 C 262.953125 359.480469 262.734375 362.667969 262.734375 365.96875 C 262.734375 398.535156 289.136719 424.832031 321.59375 424.832031 C 354.050781 424.832031 380.453125 398.425781 380.453125 365.96875 C 380.453125 333.402344 354.050781 307.109375 321.59375 307.109375 C 318.402344 307.109375 315.324219 307.4375 312.132812 307.878906 L 324.675781 365.53125 C 325.003906 367.070312 324.125 368.5 322.582031 368.832031 C 322.144531 368.941406 321.703125 368.941406 321.261719 368.832031 Z M 263.503906 356.289062 " fill-opacity="1" fill-rule="nonzero"/></g><path fill="#6293f1" d="M 309.820312 304.027344 C 285.507812 309.199219 266.363281 328.234375 261.082031 352.546875 L 323.355469 366.191406 Z M 309.820312 304.027344 " fill-opacity="1" fill-rule="nonzero"/><path fill="#000000" d="M 323.355469 369.050781 L 322.695312 369.050781 L 260.421875 355.40625 C 258.882812 355.078125 257.890625 353.539062 258.222656 351.996094 C 263.722656 326.472656 283.746094 306.558594 309.269531 301.167969 C 310.8125 300.839844 312.351562 301.828125 312.683594 303.367188 L 326.214844 365.53125 C 326.433594 366.519531 326.105469 367.511719 325.445312 368.171875 C 324.894531 368.71875 324.125 369.050781 323.355469 369.050781 Z M 264.605469 350.347656 L 319.503906 362.339844 L 307.621094 307.550781 C 286.605469 313.050781 270.214844 329.441406 264.605469 350.347656 Z M 264.605469 350.347656 " fill-opacity="1" fill-rule="nonzero"/><path fill="#000000" d="M 261.191406 352.65625 L 260.09375 361.679688 C 260.09375 361.679688 311.800781 365.417969 318.511719 366.300781 Z M 261.191406 352.65625 " fill-opacity="1" fill-rule="nonzero"/><path fill="#000000" d="M 318.511719 366.300781 L 319.171875 366.519531 C 319.171875 366.519531 318.953125 366.410156 318.511719 366.300781 Z M 318.511719 366.300781 " fill-opacity="1" fill-rule="nonzero"/><path fill="#ffffff" d="M 506.144531 610.015625 C 507.101562 610.671875 508.027344 611.371094 508.921875 612.109375 C 509.816406 612.84375 510.675781 613.617188 511.5 614.425781 C 512.324219 615.234375 513.113281 616.070312 513.859375 616.941406 C 514.609375 617.8125 515.3125 618.710938 515.976562 619.636719 C 516.640625 620.5625 517.261719 621.511719 517.832031 622.480469 C 518.40625 623.453125 518.933594 624.441406 519.410156 625.449219 C 519.886719 626.457031 520.3125 627.476562 520.6875 628.511719 C 521.066406 629.546875 521.390625 630.589844 521.660156 631.640625 C 521.933594 632.691406 522.152344 633.746094 522.316406 634.800781 C 522.480469 635.859375 522.589844 636.917969 522.644531 637.96875 C 522.703125 639.023438 522.703125 640.070312 522.648438 641.113281 C 522.597656 642.152344 522.488281 643.179688 522.328125 644.199219 C 522.164062 645.214844 521.949219 646.214844 521.679688 647.195312 C 521.410156 648.179688 521.089844 649.140625 520.71875 650.082031 C 520.34375 651.023438 519.917969 651.9375 519.445312 652.824219 C 518.96875 653.710938 518.449219 654.570312 517.878906 655.398438 C 517.304688 656.226562 516.691406 657.019531 516.027344 657.777344 C 515.367188 658.535156 514.664062 659.257812 513.917969 659.941406 C 513.171875 660.625 512.386719 661.265625 511.5625 661.867188 C 510.738281 662.46875 509.878906 663.023438 508.988281 663.535156 C 508.09375 664.046875 507.171875 664.515625 506.21875 664.933594 C 505.265625 665.351562 504.285156 665.722656 503.277344 666.046875 C 502.273438 666.367188 501.246094 666.640625 500.199219 666.859375 C 499.152344 667.082031 498.089844 667.253906 497.011719 667.371094 C 495.933594 667.492188 494.84375 667.558594 493.742188 667.574219 C 492.640625 667.589844 491.535156 667.554688 490.425781 667.464844 C 489.3125 667.378906 488.203125 667.238281 487.089844 667.046875 C 485.980469 666.855469 484.875 666.617188 483.773438 666.324219 C 482.671875 666.03125 481.582031 665.691406 480.5 665.300781 C 479.421875 664.910156 478.359375 664.472656 477.308594 663.988281 C 476.261719 663.503906 475.234375 662.972656 474.230469 662.398438 C 473.222656 661.824219 472.242188 661.207031 471.285156 660.546875 C 470.332031 659.890625 469.40625 659.191406 468.511719 658.457031 C 467.617188 657.71875 466.757812 656.945312 465.933594 656.140625 C 465.105469 655.332031 464.320312 654.492188 463.570312 653.621094 C 462.824219 652.75 462.117188 651.851562 461.453125 650.925781 C 460.789062 650 460.171875 649.054688 459.597656 648.082031 C 459.023438 647.113281 458.5 646.121094 458.023438 645.113281 C 457.546875 644.105469 457.121094 643.085938 456.742188 642.050781 C 456.367188 641.019531 456.042969 639.976562 455.773438 638.925781 C 455.5 637.871094 455.28125 636.820312 455.117188 635.761719 C 454.953125 634.703125 454.84375 633.648438 454.785156 632.59375 C 454.730469 631.539062 454.730469 630.492188 454.78125 629.453125 C 454.835938 628.410156 454.941406 627.382812 455.105469 626.367188 C 455.265625 625.347656 455.480469 624.347656 455.75 623.367188 C 456.019531 622.382812 456.339844 621.421875 456.714844 620.480469 C 457.089844 619.542969 457.511719 618.628906 457.988281 617.738281 C 458.460938 616.851562 458.984375 615.992188 459.554688 615.164062 C 460.125 614.339844 460.742188 613.542969 461.402344 612.785156 C 462.066406 612.027344 462.769531 611.304688 463.515625 610.621094 C 464.261719 609.941406 465.046875 609.296875 465.871094 608.695312 C 466.695312 608.097656 467.550781 607.539062 468.445312 607.027344 C 469.339844 606.515625 470.261719 606.050781 471.214844 605.628906 C 472.167969 605.210938 473.148438 604.839844 474.152344 604.519531 C 475.160156 604.195312 476.183594 603.925781 477.230469 603.703125 C 478.277344 603.480469 479.34375 603.308594 480.421875 603.191406 C 481.5 603.070312 482.589844 603.003906 483.691406 602.988281 C 484.789062 602.972656 485.894531 603.007812 487.007812 603.097656 C 488.117188 603.183594 489.230469 603.324219 490.339844 603.515625 C 491.453125 603.707031 492.558594 603.949219 493.660156 604.238281 C 494.761719 604.53125 495.851562 604.875 496.929688 605.261719 C 498.011719 605.652344 499.074219 606.089844 500.121094 606.574219 C 501.171875 607.0625 502.195312 607.589844 503.203125 608.164062 C 504.210938 608.738281 505.191406 609.355469 506.144531 610.015625 Z M 506.144531 610.015625 " fill-opacity="1" fill-rule="nonzero"/><path fill="#000000" d="M 493.113281 671.164062 C 473.089844 671.164062 454.714844 655.433594 451.964844 636.289062 C 450.753906 626.9375 453.175781 618.136719 459.007812 611.425781 C 465.386719 604.382812 474.519531 600.421875 484.089844 600.640625 C 504.113281 600.640625 522.488281 616.265625 525.128906 635.519531 C 526.558594 644.429688 523.917969 653.453125 518.085938 660.273438 C 512.035156 667.316406 503.125 671.164062 493.113281 671.164062 Z M 484.089844 606.472656 C 475.730469 606.472656 468.359375 609.554688 463.40625 615.273438 C 458.675781 620.886719 456.585938 628.257812 457.796875 635.519531 C 460.105469 651.910156 475.949219 665.335938 493.113281 665.335938 C 501.472656 665.335938 508.734375 662.144531 513.6875 656.421875 C 518.527344 650.921875 520.617188 643.550781 519.40625 636.289062 C 517.097656 619.785156 501.253906 606.472656 484.089844 606.472656 Z M 484.089844 606.472656 " fill-opacity="1" fill-rule="nonzero"/><g fill="#000000" fill-opacity="1"><g transform="translate(1057.658737, 701.007633)"><g><path d="M 2.203125 0.09375 C 1.890625 0.09375 1.625 -0.0078125 1.40625 -0.21875 C 1.195312 -0.4375 1.09375 -0.695312 1.09375 -1 C 1.09375 -1.300781 1.195312 -1.554688 1.40625 -1.765625 C 1.625 -1.984375 1.890625 -2.09375 2.203125 -2.09375 C 2.503906 -2.09375 2.757812 -1.984375 2.96875 -1.765625 C 3.1875 -1.554688 3.296875 -1.300781 3.296875 -1 C 3.296875 -0.695312 3.1875 -0.4375 2.96875 -0.21875 C 2.757812 -0.0078125 2.503906 0.09375 2.203125 0.09375 Z M 2.203125 0.09375 "/></g></g></g></svg>