<svg xmlns="http://www.w3.org/2000/svg" xmlns:xlink="http://www.w3.org/1999/xlink" width="500" zoomAndPan="magnify" viewBox="0 0 375 374.999991" height="500" preserveAspectRatio="xMidYMid meet" version="1.0"><defs><g/><clipPath id="7909567fbd"><path d="M 178 14.660156 L 250 14.660156 L 250 86 L 178 86 Z M 178 14.660156 " clip-rule="nonzero"/></clipPath><clipPath id="b3aaf66e59"><path d="M 239 193 L 374.960938 193 L 374.960938 360.410156 L 239 360.410156 Z M 239 193 " clip-rule="nonzero"/></clipPath><clipPath id="9d85086d01"><path d="M 236 238 L 371 238 L 371 360.410156 L 236 360.410156 Z M 236 238 " clip-rule="nonzero"/></clipPath></defs><path fill="#ffe397" d="M 341.808594 132.664062 L 341.808594 122.984375 L 334.265625 120.28125 L 331.328125 113.257812 L 334.789062 106.046875 L 327.914062 99.214844 L 320.703125 102.632812 L 313.683594 99.691406 L 310.980469 92.195312 L 301.304688 92.195312 L 298.648438 99.691406 L 291.582031 102.632812 L 284.375 99.214844 L 277.546875 106.046875 L 280.960938 113.257812 L 278.066406 120.28125 L 270.527344 122.984375 L 270.527344 132.664062 L 278.066406 135.320312 C 279.207031 138.167969 279.820312 139.589844 280.960938 142.390625 L 277.546875 149.601562 L 284.375 156.433594 L 291.582031 153.019531 L 298.648438 155.910156 L 301.304688 163.457031 L 310.980469 163.457031 L 313.683594 155.910156 L 320.703125 153.019531 L 327.914062 156.433594 L 334.789062 149.601562 L 331.328125 142.390625 C 332.511719 139.589844 333.082031 138.167969 334.265625 135.320312 Z M 306.144531 144.289062 C 297.039062 144.289062 289.640625 136.886719 289.640625 127.777344 C 289.640625 118.667969 297.039062 111.265625 306.144531 111.265625 C 315.25 111.265625 322.648438 118.667969 322.648438 127.777344 C 322.648438 127.777344 322.648438 127.824219 322.648438 127.824219 C 322.648438 136.933594 315.296875 144.289062 306.191406 144.289062 C 306.191406 144.289062 306.144531 144.289062 306.144531 144.289062 Z M 306.144531 144.289062 " fill-opacity="1" fill-rule="nonzero"/><path fill="#000000" d="M 311.929688 164.785156 L 300.359375 164.785156 L 297.558594 156.957031 L 291.632812 154.488281 L 284.136719 158.046875 L 275.933594 149.886719 L 279.488281 142.34375 L 277.070312 136.414062 L 269.199219 133.613281 L 269.199219 122.035156 L 277.070312 119.238281 L 279.488281 113.304688 L 275.933594 105.761719 L 284.089844 97.554688 L 291.632812 101.160156 L 297.558594 98.695312 L 300.359375 90.816406 L 311.929688 90.816406 L 314.726562 98.695312 L 320.703125 101.160156 L 328.195312 97.554688 L 336.402344 105.761719 L 332.796875 113.304688 L 335.261719 119.238281 L 343.136719 122.035156 L 343.136719 133.613281 L 335.261719 136.414062 L 332.796875 142.34375 L 336.402344 149.886719 L 328.195312 158.046875 L 320.703125 154.488281 L 314.726562 156.957031 Z M 302.253906 162.128906 L 310.03125 162.128906 L 312.59375 154.914062 L 320.75 151.546875 L 327.628906 154.820312 L 333.128906 149.316406 L 329.855469 142.4375 L 333.273438 134.277344 L 340.433594 131.714844 L 340.433594 123.933594 L 333.273438 121.371094 L 329.855469 113.210938 L 333.128906 106.332031 L 327.628906 100.828125 L 320.75 104.101562 L 312.59375 100.734375 L 310.03125 93.523438 L 302.253906 93.523438 L 299.695312 100.734375 L 291.582031 104.101562 L 284.660156 100.828125 L 279.15625 106.332031 L 282.429688 113.210938 L 279.0625 121.371094 L 271.902344 123.933594 L 271.902344 131.714844 L 279.0625 134.277344 L 282.429688 142.4375 L 279.15625 149.316406 L 284.660156 154.820312 L 291.582031 151.546875 L 299.695312 154.914062 Z M 306.144531 145.664062 C 296.277344 145.664062 288.3125 137.691406 288.3125 127.824219 C 288.3125 117.957031 296.277344 109.984375 306.144531 109.984375 C 316.007812 109.984375 323.976562 117.957031 323.976562 127.824219 C 323.976562 137.691406 316.007812 145.664062 306.144531 145.664062 Z M 306.144531 112.691406 C 297.796875 112.691406 291.015625 119.472656 291.015625 127.824219 C 291.015625 136.175781 297.796875 142.960938 306.144531 142.960938 C 314.492188 142.960938 321.273438 136.175781 321.273438 127.824219 C 321.273438 119.472656 314.492188 112.691406 306.144531 112.691406 Z M 306.144531 112.691406 " fill-opacity="1" fill-rule="nonzero"/><path fill="#000000" d="M 306.378906 110.886719 C 305.667969 110.886719 304.957031 110.933594 304.246094 111.027344 C 313.542969 112.121094 320.183594 120.566406 319.042969 129.863281 C 318.140625 137.644531 311.976562 143.765625 304.246094 144.667969 C 304.957031 144.761719 305.667969 144.808594 306.378906 144.808594 C 315.722656 144.335938 322.933594 136.316406 322.457031 126.96875 C 321.984375 118.289062 315.058594 111.363281 306.378906 110.886719 Z M 306.378906 110.886719 " fill-opacity="1" fill-rule="nonzero"/><path fill="#ffffff" d="M 181.648438 16.472656 L 1.289062 16.472656 L 1.289062 325.054688 L 247.382812 325.054688 L 247.382812 84.269531 Z M 181.648438 16.472656 " fill-opacity="1" fill-rule="nonzero"/><path fill="#000000" d="M 248.757812 326.382812 L -0.0390625 326.382812 L -0.0390625 15.144531 L 181.648438 15.144531 L 181.648438 17.800781 L 2.664062 17.800781 L 2.664062 323.675781 L 246.054688 323.675781 L 246.054688 84.269531 L 248.757812 84.269531 Z M 248.757812 326.382812 " fill-opacity="1" fill-rule="nonzero"/><path fill="#ffffff" d="M 248.09375 83.9375 L 180.320312 83.9375 L 180.320312 16.09375 Z M 248.09375 83.9375 " fill-opacity="1" fill-rule="nonzero"/><g clip-path="url(#7909567fbd)"><path fill="#000000" d="M 248.09375 85.265625 L 180.320312 85.265625 C 179.609375 85.21875 179.042969 84.648438 178.992188 83.9375 L 178.992188 16.09375 C 178.992188 15.570312 179.324219 15.09375 179.800781 14.859375 C 180.320312 14.667969 180.890625 14.761719 181.269531 15.144531 L 249.042969 82.988281 C 249.421875 83.367188 249.5625 83.9375 249.375 84.414062 C 249.183594 84.933594 248.664062 85.265625 248.09375 85.265625 Z M 181.695312 82.5625 L 244.867188 82.5625 L 181.695312 19.367188 Z M 181.695312 82.5625 " fill-opacity="1" fill-rule="nonzero"/></g><path fill="#a3dfbe" d="M 85.941406 217.257812 L 107.996094 217.257812 L 107.996094 263.28125 L 85.941406 263.28125 Z M 85.941406 217.257812 " fill-opacity="1" fill-rule="nonzero"/><path fill="#000000" d="M 109.371094 264.65625 L 84.617188 264.65625 L 84.617188 215.929688 L 109.371094 215.929688 Z M 87.320312 261.953125 L 106.667969 261.953125 L 106.667969 218.632812 L 87.320312 218.632812 Z M 87.320312 261.953125 " fill-opacity="1" fill-rule="nonzero"/><path fill="#a3dfbe" d="M 50.515625 243.875 L 72.570312 243.875 L 72.570312 263.28125 L 50.515625 263.28125 Z M 50.515625 243.875 " fill-opacity="1" fill-rule="nonzero"/><path fill="#000000" d="M 73.898438 264.65625 L 49.1875 264.65625 L 49.1875 242.546875 L 73.898438 242.546875 Z M 51.84375 261.953125 L 71.242188 261.953125 L 71.242188 245.203125 L 51.84375 245.203125 Z M 51.84375 261.953125 " fill-opacity="1" fill-rule="nonzero"/><path fill="#a3dfbe" d="M 121.417969 209.382812 L 143.472656 209.382812 L 143.472656 263.328125 L 121.417969 263.328125 Z M 121.417969 209.382812 " fill-opacity="1" fill-rule="nonzero"/><path fill="#000000" d="M 144.800781 264.65625 L 120.089844 264.65625 L 120.089844 208.007812 L 144.800781 208.007812 Z M 122.746094 261.953125 L 142.144531 261.953125 L 142.144531 210.710938 L 122.746094 210.710938 Z M 122.746094 261.953125 " fill-opacity="1" fill-rule="nonzero"/><path fill="#a3dfbe" d="M 156.894531 221.765625 L 178.945312 221.765625 L 178.945312 263.328125 L 156.894531 263.328125 Z M 156.894531 221.765625 " fill-opacity="1" fill-rule="nonzero"/><path fill="#000000" d="M 180.273438 264.65625 L 155.519531 264.65625 L 155.519531 220.390625 L 180.273438 220.390625 Z M 158.222656 261.953125 L 177.570312 261.953125 L 177.570312 223.09375 L 158.222656 223.09375 Z M 158.222656 261.953125 " fill-opacity="1" fill-rule="nonzero"/><path fill="#a3dfbe" d="M 192.320312 193.773438 L 214.375 193.773438 L 214.375 263.28125 L 192.320312 263.28125 Z M 192.320312 193.773438 " fill-opacity="1" fill-rule="nonzero"/><path fill="#000000" d="M 215.75 264.65625 L 190.992188 264.65625 L 190.992188 192.445312 L 215.75 192.445312 Z M 193.648438 261.953125 L 213.046875 261.953125 L 213.046875 195.101562 L 193.648438 195.101562 Z M 193.648438 261.953125 " fill-opacity="1" fill-rule="nonzero"/><path fill="#000000" d="M 59.101562 223.425781 L 57.535156 221.292969 L 96.992188 192.253906 L 130.570312 181.058594 L 164.90625 189.359375 C 173.917969 180.726562 211.671875 144.335938 213.09375 143.386719 L 214.5625 145.617188 L 213.851562 144.523438 L 214.609375 145.617188 C 213.140625 146.707031 184.921875 173.847656 166.285156 191.828125 L 165.714844 192.351562 L 130.667969 183.855469 L 98.035156 194.722656 Z M 59.101562 223.425781 " fill-opacity="1" fill-rule="nonzero"/><path fill="#000000" d="M 212.808594 157.097656 L 212.714844 157.097656 C 212.003906 157.097656 211.433594 156.480469 211.480469 155.769531 C 211.480469 155.722656 211.480469 155.722656 211.480469 155.675781 L 212.191406 145.425781 L 201.949219 144.667969 C 201.238281 144.667969 200.667969 144.050781 200.714844 143.339844 C 200.714844 143.292969 200.714844 143.292969 200.714844 143.246094 C 200.761719 142.53125 201.378906 141.964844 202.136719 142.011719 L 213.710938 142.816406 C 214.46875 142.863281 215.039062 143.480469 214.992188 144.242188 L 214.136719 155.863281 C 214.089844 156.578125 213.519531 157.097656 212.808594 157.097656 Z M 212.808594 157.097656 " fill-opacity="1" fill-rule="nonzero"/><path fill="#000000" d="M 36.621094 114.304688 L 118.429688 114.304688 L 118.429688 117.007812 L 36.621094 117.007812 Z M 36.621094 114.304688 " fill-opacity="1" fill-rule="nonzero"/><path fill="#000000" d="M 36.621094 127.824219 L 118.429688 127.824219 L 118.429688 130.527344 L 36.621094 130.527344 Z M 36.621094 127.824219 " fill-opacity="1" fill-rule="nonzero"/><path fill="#000000" d="M 36.621094 141.347656 L 88.21875 141.347656 L 88.21875 144.050781 L 36.621094 144.050781 Z M 36.621094 141.347656 " fill-opacity="1" fill-rule="nonzero"/><path fill="#000000" d="M 214.375 264.65625 L 37.238281 264.65625 L 37.238281 166.253906 L 39.941406 166.253906 L 39.941406 261.953125 L 214.375 261.953125 Z M 214.375 264.65625 " fill-opacity="1" fill-rule="nonzero"/><path fill="#ffe397" d="M 95.996094 72.929688 C 95.996094 73.902344 95.949219 74.867188 95.855469 75.832031 C 95.761719 76.796875 95.617188 77.753906 95.429688 78.707031 C 95.238281 79.65625 95.003906 80.597656 94.722656 81.523438 C 94.441406 82.453125 94.117188 83.363281 93.746094 84.261719 C 93.375 85.15625 92.960938 86.03125 92.503906 86.886719 C 92.046875 87.742188 91.546875 88.574219 91.011719 89.378906 C 90.472656 90.183594 89.894531 90.964844 89.28125 91.710938 C 88.664062 92.460938 88.015625 93.179688 87.328125 93.867188 C 86.644531 94.550781 85.925781 95.203125 85.179688 95.816406 C 84.429688 96.429688 83.652344 97.007812 82.84375 97.546875 C 82.039062 98.085938 81.207031 98.582031 80.355469 99.039062 C 79.5 99.496094 78.625 99.910156 77.730469 100.28125 C 76.832031 100.652344 75.921875 100.980469 74.996094 101.261719 C 74.066406 101.542969 73.128906 101.777344 72.175781 101.96875 C 71.226562 102.15625 70.269531 102.300781 69.304688 102.394531 C 68.339844 102.488281 67.371094 102.535156 66.402344 102.535156 C 65.433594 102.535156 64.46875 102.488281 63.503906 102.394531 C 62.539062 102.300781 61.582031 102.15625 60.628906 101.96875 C 59.679688 101.777344 58.742188 101.542969 57.8125 101.261719 C 56.886719 100.980469 55.972656 100.652344 55.078125 100.28125 C 54.183594 99.910156 53.308594 99.496094 52.453125 99.039062 C 51.597656 98.582031 50.769531 98.085938 49.960938 97.546875 C 49.15625 97.007812 48.378906 96.429688 47.628906 95.816406 C 46.878906 95.203125 46.164062 94.550781 45.476562 93.867188 C 44.792969 93.179688 44.140625 92.460938 43.527344 91.710938 C 42.914062 90.964844 42.335938 90.183594 41.796875 89.378906 C 41.257812 88.574219 40.761719 87.742188 40.304688 86.886719 C 39.847656 86.03125 39.433594 85.15625 39.0625 84.261719 C 38.691406 83.363281 38.367188 82.453125 38.082031 81.523438 C 37.800781 80.597656 37.566406 79.65625 37.378906 78.707031 C 37.1875 77.753906 37.046875 76.796875 36.953125 75.832031 C 36.855469 74.867188 36.808594 73.902344 36.808594 72.929688 C 36.808594 71.960938 36.855469 70.992188 36.953125 70.027344 C 37.046875 69.0625 37.1875 68.105469 37.378906 67.15625 C 37.566406 66.203125 37.800781 65.265625 38.082031 64.335938 C 38.367188 63.410156 38.691406 62.496094 39.0625 61.601562 C 39.433594 60.707031 39.847656 59.832031 40.304688 58.976562 C 40.761719 58.121094 41.257812 57.289062 41.796875 56.484375 C 42.335938 55.675781 42.914062 54.898438 43.527344 54.148438 C 44.140625 53.398438 44.792969 52.683594 45.476562 51.996094 C 46.164062 51.3125 46.878906 50.660156 47.628906 50.046875 C 48.378906 49.429688 49.15625 48.855469 49.960938 48.316406 C 50.769531 47.777344 51.597656 47.277344 52.453125 46.820312 C 53.308594 46.363281 54.183594 45.949219 55.078125 45.578125 C 55.972656 45.207031 56.886719 44.882812 57.8125 44.601562 C 58.742188 44.320312 59.679688 44.082031 60.628906 43.894531 C 61.582031 43.707031 62.539062 43.5625 63.503906 43.46875 C 64.46875 43.371094 65.433594 43.324219 66.402344 43.324219 C 67.371094 43.324219 68.339844 43.371094 69.304688 43.46875 C 70.269531 43.5625 71.226562 43.707031 72.175781 43.894531 C 73.128906 44.082031 74.066406 44.320312 74.996094 44.601562 C 75.921875 44.882812 76.832031 45.207031 77.730469 45.578125 C 78.625 45.949219 79.5 46.363281 80.355469 46.820312 C 81.207031 47.277344 82.039062 47.777344 82.84375 48.316406 C 83.652344 48.855469 84.429688 49.429688 85.179688 50.046875 C 85.925781 50.660156 86.644531 51.3125 87.328125 51.996094 C 88.015625 52.683594 88.664062 53.398438 89.28125 54.148438 C 89.894531 54.898438 90.472656 55.675781 91.011719 56.484375 C 91.546875 57.289062 92.046875 58.121094 92.503906 58.976562 C 92.960938 59.832031 93.375 60.707031 93.746094 61.601562 C 94.117188 62.496094 94.441406 63.410156 94.722656 64.335938 C 95.003906 65.265625 95.238281 66.203125 95.429688 67.15625 C 95.617188 68.105469 95.761719 69.0625 95.855469 70.027344 C 95.949219 70.992188 95.996094 71.960938 95.996094 72.929688 Z M 95.996094 72.929688 " fill-opacity="1" fill-rule="nonzero"/><path fill="#000000" d="M 66.402344 103.914062 C 49.28125 103.960938 35.433594 90.105469 35.386719 72.976562 C 35.339844 55.851562 49.1875 41.996094 66.308594 41.949219 C 83.429688 41.902344 97.277344 55.757812 97.324219 72.882812 C 97.324219 72.882812 97.324219 72.929688 97.324219 72.929688 C 97.324219 90.011719 83.476562 103.863281 66.402344 103.914062 Z M 66.402344 44.703125 C 50.800781 44.703125 38.136719 57.367188 38.136719 72.976562 C 38.136719 88.585938 50.800781 101.253906 66.402344 101.253906 C 82.007812 101.253906 94.667969 88.585938 94.667969 72.976562 C 94.667969 72.976562 94.667969 72.929688 94.667969 72.929688 C 94.621094 57.320312 82.007812 44.75 66.402344 44.703125 Z M 66.402344 44.703125 " fill-opacity="1" fill-rule="nonzero"/><path fill="#000000" d="M 74.417969 62.304688 C 71.476562 59.457031 67.351562 57.511719 63.414062 59.789062 C 60.378906 61.542969 58.484375 65.671875 60.144531 68.992188 C 61.804688 72.3125 65.976562 72.597656 69.203125 73.832031 C 70.765625 74.449219 71.90625 75.824219 72.191406 77.484375 C 72.523438 79.144531 71.761719 80.378906 70.578125 81.519531 C 69.390625 82.65625 67.542969 83.035156 65.644531 82.515625 C 63.558594 81.945312 61.660156 80.664062 60.332031 78.957031 C 59.335938 77.582031 57.011719 78.910156 58.007812 80.332031 C 60.238281 83.273438 63.796875 85.457031 67.589844 85.503906 C 71.382812 85.550781 74.417969 82.5625 74.894531 79.242188 C 75.367188 75.921875 73.089844 72.3125 69.769531 71.175781 C 66.449219 70.035156 61.613281 69.894531 62.230469 65.71875 C 62.609375 63.773438 64.078125 62.207031 65.976562 61.640625 C 68.539062 60.976562 70.765625 62.539062 72.523438 64.199219 C 74.277344 65.863281 75.652344 63.535156 74.417969 62.304688 Z M 74.417969 62.304688 " fill-opacity="1" fill-rule="nonzero"/><path fill="#000000" d="M 65.691406 55.945312 L 65.691406 58.839844 C 65.644531 59.550781 66.214844 60.121094 66.925781 60.167969 C 66.972656 60.167969 66.972656 60.167969 67.019531 60.167969 C 67.351562 60.167969 67.730469 60.027344 67.96875 59.789062 C 68.207031 59.550781 68.347656 59.171875 68.394531 58.839844 L 68.394531 55.945312 C 68.394531 55.566406 68.253906 55.234375 67.96875 54.996094 C 67.496094 54.476562 66.6875 54.425781 66.167969 54.902344 C 66.117188 54.949219 66.117188 54.949219 66.070312 54.996094 C 65.835938 55.234375 65.691406 55.613281 65.691406 55.945312 Z M 65.691406 55.945312 " fill-opacity="1" fill-rule="nonzero"/><path fill="#000000" d="M 65.691406 84.933594 L 65.691406 90.011719 C 65.550781 90.769531 66.023438 91.480469 66.78125 91.625 C 67.542969 91.765625 68.253906 91.292969 68.394531 90.53125 C 68.441406 90.34375 68.441406 90.199219 68.394531 90.011719 L 68.394531 84.933594 C 68.253906 84.175781 67.542969 83.699219 66.78125 83.84375 C 66.214844 83.9375 65.785156 84.363281 65.691406 84.933594 Z M 65.691406 84.933594 " fill-opacity="1" fill-rule="nonzero"/><path fill="#000000" d="M 362.203125 359.023438 L 251.082031 359.023438 C 245.722656 359.070312 241.359375 354.707031 241.3125 349.34375 C 241.3125 349.296875 241.3125 349.203125 241.3125 349.15625 L 242.640625 204.351562 C 242.734375 198.851562 247.144531 194.484375 252.648438 194.4375 L 363.765625 194.4375 C 369.171875 194.4375 373.582031 198.851562 373.582031 204.257812 C 373.582031 204.304688 373.582031 204.304688 373.582031 204.351562 L 372.207031 349.15625 C 372.113281 354.609375 367.65625 359.023438 362.203125 359.023438 Z M 362.203125 359.023438 " fill-opacity="1" fill-rule="nonzero"/><g clip-path="url(#b3aaf66e59)"><path fill="#000000" d="M 362.203125 360.398438 L 251.082031 360.398438 C 248.09375 360.398438 245.25 359.214844 243.160156 357.078125 C 241.074219 354.941406 239.9375 352.097656 239.9375 349.109375 L 241.3125 204.351562 C 241.40625 198.136719 246.433594 193.15625 252.648438 193.109375 L 363.765625 193.109375 C 369.933594 193.15625 374.960938 198.183594 374.910156 204.351562 C 374.910156 204.351562 374.910156 204.402344 374.910156 204.402344 L 373.582031 349.15625 C 373.488281 355.371094 368.414062 360.351562 362.203125 360.398438 Z M 252.648438 195.8125 C 247.902344 195.859375 244.0625 199.65625 243.96875 204.402344 L 242.640625 349.15625 C 242.59375 351.386719 243.492188 353.566406 245.058594 355.179688 C 246.671875 356.792969 248.804688 357.695312 251.082031 357.695312 L 362.203125 357.695312 C 366.945312 357.695312 370.832031 353.851562 370.878906 349.109375 L 372.207031 204.351562 C 372.257812 202.074219 371.402344 199.941406 369.789062 198.328125 C 368.175781 196.714844 366.042969 195.8125 363.765625 195.8125 Z M 252.648438 195.8125 " fill-opacity="1" fill-rule="nonzero"/></g><path fill="#def0fc" d="M 237.375 349.15625 C 237.328125 354.5625 241.644531 358.976562 247.050781 359.023438 C 247.097656 359.023438 247.144531 359.023438 247.191406 359.023438 L 358.3125 359.023438 C 363.765625 358.976562 368.226562 354.609375 368.320312 349.15625 L 369.269531 239.414062 L 238.324219 239.414062 Z M 237.375 349.15625 " fill-opacity="1" fill-rule="nonzero"/><g clip-path="url(#9d85086d01)"><path fill="#000000" d="M 358.3125 360.398438 L 247.191406 360.398438 C 241.027344 360.351562 236 355.324219 236.046875 349.15625 C 236.046875 349.15625 236.046875 349.109375 236.046875 349.109375 L 236.996094 238.085938 L 370.597656 238.085938 L 369.648438 349.15625 C 369.550781 355.371094 364.527344 360.351562 358.3125 360.398438 Z M 239.652344 240.789062 L 238.75 349.15625 C 238.703125 351.433594 239.558594 353.566406 241.167969 355.179688 C 242.734375 356.792969 244.917969 357.695312 247.191406 357.695312 L 358.3125 357.695312 C 363.054688 357.648438 366.898438 353.851562 366.945312 349.109375 L 367.894531 240.789062 Z M 239.652344 240.789062 " fill-opacity="1" fill-rule="nonzero"/></g><path fill="#6293f1" d="M 359.878906 194.4375 L 248.757812 194.4375 C 243.257812 194.4375 238.796875 198.851562 238.75 204.351562 L 238.324219 239.414062 L 369.269531 239.414062 L 369.648438 204.351562 C 369.742188 198.945312 365.425781 194.53125 360.019531 194.4375 C 359.972656 194.4375 359.925781 194.4375 359.878906 194.4375 Z M 359.878906 194.4375 " fill-opacity="1" fill-rule="nonzero"/><path fill="#000000" d="M 370.597656 240.789062 L 236.949219 240.789062 L 237.375 204.351562 C 237.46875 198.136719 242.546875 193.15625 248.757812 193.109375 L 359.878906 193.109375 C 365.996094 193.109375 370.976562 198.089844 370.976562 204.210938 C 370.976562 204.257812 370.976562 204.351562 370.976562 204.402344 Z M 239.699219 238.085938 L 367.941406 238.085938 L 368.320312 204.351562 C 368.320312 202.074219 367.464844 199.941406 365.851562 198.328125 C 364.289062 196.714844 362.105469 195.8125 359.878906 195.8125 L 248.757812 195.8125 C 244.015625 195.8125 240.125 199.65625 240.078125 204.402344 Z M 239.699219 238.085938 " fill-opacity="1" fill-rule="nonzero"/><path fill="#ffffff" d="M 353.664062 229.785156 L 254.117188 229.785156 C 252.882812 229.785156 251.886719 228.789062 251.886719 227.554688 L 252.125 208.765625 C 252.125 207.53125 253.121094 206.535156 254.355469 206.535156 C 254.355469 206.535156 254.402344 206.535156 254.402344 206.535156 L 353.949219 206.535156 C 355.183594 206.535156 356.179688 207.53125 356.179688 208.765625 L 355.941406 227.554688 C 355.894531 228.789062 354.898438 229.785156 353.664062 229.785156 Z M 353.664062 229.785156 " fill-opacity="1" fill-rule="nonzero"/><path fill="#000000" d="M 353.664062 231.160156 L 254.117188 231.160156 C 253.167969 231.160156 252.21875 230.78125 251.554688 230.070312 C 250.890625 229.402344 250.511719 228.457031 250.558594 227.507812 L 250.75 208.765625 C 250.796875 206.773438 252.410156 205.160156 254.402344 205.160156 L 353.949219 205.160156 C 354.898438 205.160156 355.847656 205.539062 356.511719 206.25 C 357.175781 206.914062 357.554688 207.863281 357.507812 208.8125 L 357.316406 227.554688 C 357.269531 229.546875 355.65625 231.160156 353.664062 231.160156 Z M 254.402344 207.863281 C 253.878906 207.863281 253.5 208.242188 253.453125 208.765625 L 253.214844 227.554688 C 253.261719 228.027344 253.644531 228.40625 254.117188 228.457031 L 353.664062 228.457031 C 354.1875 228.457031 354.613281 228.027344 354.613281 227.507812 L 354.851562 208.765625 C 354.851562 208.527344 354.753906 208.292969 354.566406 208.101562 C 354.375 207.960938 354.1875 207.863281 353.949219 207.863281 Z M 254.402344 207.863281 " fill-opacity="1" fill-rule="nonzero"/><path fill="#ffe397" d="M 270.574219 269.398438 L 253.3125 269.398438 C 252.503906 269.304688 251.886719 268.59375 251.933594 267.785156 L 252.078125 254.691406 C 252.03125 253.839844 252.648438 253.125 253.5 253.03125 L 270.761719 253.03125 C 271.523438 253.03125 272.140625 253.789062 272.140625 254.691406 L 271.996094 267.785156 C 272.042969 268.640625 271.425781 269.351562 270.574219 269.398438 Z M 270.574219 269.398438 " fill-opacity="1" fill-rule="nonzero"/><path fill="#000000" d="M 270.574219 270.777344 L 253.3125 270.777344 C 252.597656 270.777344 251.933594 270.492188 251.460938 269.96875 C 250.890625 269.398438 250.558594 268.59375 250.609375 267.738281 L 250.703125 254.691406 C 250.65625 253.125 251.933594 251.796875 253.5 251.703125 L 270.765625 251.703125 C 271.476562 251.703125 272.140625 251.988281 272.613281 252.511719 C 273.183594 253.078125 273.46875 253.886719 273.46875 254.691406 L 273.324219 267.785156 C 273.371094 269.351562 272.140625 270.679688 270.574219 270.777344 Z M 270.667969 254.359375 L 253.5 254.359375 C 253.453125 254.453125 253.40625 254.550781 253.40625 254.644531 L 253.261719 267.738281 C 253.261719 267.929688 253.359375 268.023438 253.40625 268.023438 L 270.527344 268.023438 C 270.621094 267.929688 270.667969 267.835938 270.667969 267.691406 L 270.761719 254.644531 C 270.761719 254.550781 270.714844 254.453125 270.667969 254.359375 Z M 270.667969 254.359375 " fill-opacity="1" fill-rule="nonzero"/><path fill="#6293f1" d="M 298.222656 269.398438 L 280.960938 269.398438 C 280.105469 269.351562 279.488281 268.640625 279.539062 267.785156 L 279.679688 254.691406 C 279.632812 253.839844 280.25 253.125 281.101562 253.03125 L 298.367188 253.03125 C 299.125 253.03125 299.742188 253.789062 299.742188 254.691406 L 299.597656 267.785156 C 299.644531 268.59375 299.03125 269.304688 298.222656 269.398438 Z M 298.222656 269.398438 " fill-opacity="1" fill-rule="nonzero"/><path fill="#000000" d="M 298.222656 270.777344 L 280.960938 270.777344 C 280.25 270.777344 279.585938 270.492188 279.109375 269.96875 C 278.542969 269.351562 278.210938 268.59375 278.210938 267.738281 L 278.351562 254.691406 C 278.304688 253.125 279.539062 251.796875 281.101562 251.703125 L 298.367188 251.703125 C 299.078125 251.703125 299.742188 251.988281 300.214844 252.460938 C 300.785156 253.078125 301.117188 253.839844 301.117188 254.691406 L 300.972656 267.785156 C 300.925781 269.398438 299.695312 270.777344 298.222656 270.777344 Z M 298.320312 254.359375 L 281.101562 254.359375 C 281.054688 254.453125 281.054688 254.550781 281.054688 254.644531 L 280.914062 267.738281 C 280.914062 267.835938 280.960938 267.929688 281.007812 268.023438 L 298.175781 268.023438 C 298.269531 267.929688 298.269531 267.835938 298.269531 267.691406 L 298.414062 254.644531 C 298.414062 254.550781 298.367188 254.453125 298.320312 254.359375 Z M 298.320312 254.359375 " fill-opacity="1" fill-rule="nonzero"/><path fill="#6293f1" d="M 325.824219 269.398438 L 308.5625 269.398438 C 307.757812 269.304688 307.140625 268.59375 307.1875 267.785156 L 307.328125 254.691406 C 307.28125 253.839844 307.898438 253.125 308.753906 253.03125 L 325.96875 253.03125 C 326.820312 253.125 327.4375 253.839844 327.390625 254.691406 L 327.25 267.785156 C 327.296875 268.640625 326.679688 269.351562 325.824219 269.398438 Z M 325.824219 269.398438 " fill-opacity="1" fill-rule="nonzero"/><path fill="#000000" d="M 325.824219 270.777344 L 308.5625 270.777344 C 307.851562 270.777344 307.1875 270.492188 306.710938 269.96875 C 306.144531 269.398438 305.8125 268.59375 305.859375 267.738281 L 305.953125 254.691406 C 306 253.03125 307.234375 251.703125 308.703125 251.703125 L 325.96875 251.703125 C 326.679688 251.703125 327.34375 251.988281 327.816406 252.460938 C 328.386719 253.078125 328.71875 253.839844 328.71875 254.691406 L 328.578125 267.785156 C 328.625 269.351562 327.390625 270.679688 325.824219 270.777344 Z M 325.921875 254.359375 L 308.703125 254.359375 C 308.753906 254.359375 308.65625 254.453125 308.65625 254.644531 L 308.515625 267.738281 C 308.515625 267.835938 308.5625 267.929688 308.609375 268.023438 L 325.777344 268.023438 C 325.875 267.929688 325.875 267.835938 325.875 267.691406 L 326.015625 254.644531 C 326.015625 254.550781 325.96875 254.453125 325.921875 254.359375 Z M 325.921875 254.359375 " fill-opacity="1" fill-rule="nonzero"/><path fill="#6293f1" d="M 353.429688 269.398438 L 336.210938 269.398438 C 335.359375 269.351562 334.742188 268.640625 334.789062 267.785156 L 334.929688 254.691406 C 334.882812 253.839844 335.5 253.125 336.355469 253.03125 L 353.617188 253.03125 C 354.375 253.03125 354.992188 253.789062 354.992188 254.691406 L 354.851562 267.785156 C 354.898438 268.640625 354.28125 269.351562 353.429688 269.398438 Z M 353.429688 269.398438 " fill-opacity="1" fill-rule="nonzero"/><path fill="#000000" d="M 353.429688 270.777344 L 336.210938 270.777344 C 335.5 270.777344 334.835938 270.492188 334.316406 269.96875 C 333.746094 269.351562 333.460938 268.546875 333.460938 267.738281 L 333.605469 254.691406 C 333.554688 253.125 334.789062 251.796875 336.355469 251.703125 L 353.617188 251.703125 C 354.328125 251.703125 354.945312 251.988281 355.46875 252.460938 C 356.035156 253.078125 356.367188 253.886719 356.320312 254.691406 L 356.226562 267.785156 C 356.179688 269.398438 354.945312 270.777344 353.429688 270.777344 Z M 353.523438 254.359375 L 336.355469 254.359375 C 336.308594 254.453125 336.257812 254.550781 336.257812 254.644531 L 336.164062 267.738281 C 336.164062 267.929688 336.210938 268.023438 336.257812 268.023438 L 353.429688 268.023438 C 353.476562 267.929688 353.523438 267.785156 353.523438 267.691406 L 353.664062 254.644531 C 353.664062 254.550781 353.617188 254.453125 353.523438 254.359375 Z M 353.523438 254.359375 " fill-opacity="1" fill-rule="nonzero"/><path fill="#ffffff" d="M 270.289062 295.164062 L 253.074219 295.164062 C 252.21875 295.117188 251.601562 294.402344 251.652344 293.550781 C 251.652344 293.550781 251.652344 293.503906 251.652344 293.503906 L 251.792969 280.453125 C 251.746094 279.601562 252.363281 278.890625 253.214844 278.792969 L 270.480469 278.792969 C 271.238281 278.792969 271.855469 279.554688 271.855469 280.453125 L 271.710938 293.503906 C 271.808594 294.355469 271.191406 295.066406 270.335938 295.164062 C 270.335938 295.164062 270.289062 295.164062 270.289062 295.164062 Z M 270.289062 295.164062 " fill-opacity="1" fill-rule="nonzero"/><path fill="#000000" d="M 270.289062 296.492188 L 253.074219 296.492188 C 252.363281 296.492188 251.699219 296.253906 251.175781 295.730469 C 250.609375 295.117188 250.324219 294.308594 250.324219 293.503906 L 250.464844 280.40625 C 250.417969 278.839844 251.652344 277.511719 253.214844 277.464844 L 270.480469 277.464844 C 271.191406 277.464844 271.808594 277.75 272.328125 278.226562 C 272.898438 278.792969 273.230469 279.601562 273.183594 280.453125 L 273.085938 293.550781 C 273.085938 295.117188 271.855469 296.394531 270.289062 296.492188 Z M 270.382812 280.121094 L 253.214844 280.121094 C 253.167969 280.21875 253.121094 280.359375 253.121094 280.453125 L 253.027344 293.550781 C 253.027344 293.738281 253.074219 293.835938 253.121094 293.835938 L 270.289062 293.835938 C 270.335938 293.738281 270.382812 293.597656 270.382812 293.503906 L 270.527344 280.40625 C 270.527344 280.21875 270.433594 280.121094 270.382812 280.121094 Z M 270.382812 280.121094 " fill-opacity="1" fill-rule="nonzero"/><path fill="#ffffff" d="M 297.9375 295.164062 L 280.675781 295.164062 C 279.917969 295.164062 279.300781 294.449219 279.300781 293.503906 L 279.394531 280.453125 C 279.441406 279.554688 280.058594 278.792969 280.816406 278.792969 L 298.082031 278.792969 C 298.886719 278.839844 299.503906 279.554688 299.457031 280.359375 C 299.457031 280.40625 299.457031 280.453125 299.457031 280.453125 L 299.363281 293.503906 C 299.410156 294.355469 298.792969 295.066406 297.9375 295.164062 Z M 297.9375 295.164062 " fill-opacity="1" fill-rule="nonzero"/><path fill="#000000" d="M 297.9375 296.492188 L 280.675781 296.492188 C 279.964844 296.539062 279.300781 296.253906 278.824219 295.730469 C 278.257812 295.117188 277.925781 294.355469 277.925781 293.503906 L 278.066406 280.40625 C 278.019531 278.839844 279.253906 277.5625 280.816406 277.464844 L 298.082031 277.464844 C 298.792969 277.464844 299.457031 277.75 299.929688 278.226562 C 300.5 278.839844 300.832031 279.601562 300.832031 280.453125 L 300.691406 293.550781 C 300.738281 295.117188 299.503906 296.445312 297.9375 296.492188 Z M 298.035156 280.121094 L 280.816406 280.121094 C 280.867188 280.121094 280.769531 280.265625 280.769531 280.453125 L 280.628906 293.550781 C 280.628906 293.644531 280.675781 293.738281 280.722656 293.835938 L 297.890625 293.835938 C 297.988281 293.738281 297.988281 293.644531 297.988281 293.503906 L 298.128906 280.40625 C 298.128906 280.3125 298.082031 280.21875 298.035156 280.121094 Z M 298.035156 280.121094 " fill-opacity="1" fill-rule="nonzero"/><path fill="#ffffff" d="M 325.542969 295.164062 L 308.277344 295.164062 C 307.519531 295.164062 306.902344 294.449219 306.902344 293.503906 L 307.042969 280.453125 C 306.996094 279.601562 307.613281 278.890625 308.46875 278.792969 L 325.730469 278.792969 C 326.488281 278.792969 327.105469 279.554688 327.105469 280.453125 L 326.964844 293.503906 C 327.058594 294.355469 326.441406 295.066406 325.589844 295.164062 C 325.589844 295.164062 325.542969 295.164062 325.542969 295.164062 Z M 325.542969 295.164062 " fill-opacity="1" fill-rule="nonzero"/><path fill="#000000" d="M 325.542969 296.492188 L 308.277344 296.492188 C 307.566406 296.492188 306.902344 296.207031 306.429688 295.730469 C 305.859375 295.117188 305.574219 294.308594 305.574219 293.503906 L 305.71875 280.40625 C 305.667969 278.839844 306.902344 277.511719 308.46875 277.464844 L 325.730469 277.464844 C 326.441406 277.464844 327.058594 277.75 327.582031 278.226562 C 328.148438 278.839844 328.433594 279.648438 328.433594 280.453125 L 328.292969 293.550781 C 328.339844 295.117188 327.105469 296.445312 325.542969 296.492188 Z M 325.636719 280.121094 L 308.46875 280.121094 C 308.421875 280.21875 308.371094 280.359375 308.371094 280.453125 L 308.277344 293.550781 C 308.230469 293.738281 308.324219 293.835938 308.371094 293.835938 L 325.492188 293.835938 C 325.589844 293.738281 325.636719 293.644531 325.636719 293.503906 L 325.730469 280.40625 C 325.730469 280.21875 325.683594 280.121094 325.636719 280.121094 Z M 325.636719 280.121094 " fill-opacity="1" fill-rule="nonzero"/><path fill="#ffffff" d="M 353.191406 295.164062 L 335.925781 295.164062 C 335.121094 295.117188 334.503906 294.402344 334.550781 293.597656 C 334.550781 293.550781 334.550781 293.503906 334.550781 293.503906 L 334.648438 280.453125 C 334.597656 279.601562 335.214844 278.890625 336.070312 278.792969 L 353.332031 278.792969 C 354.089844 278.792969 354.707031 279.554688 354.707031 280.453125 L 354.613281 293.503906 C 354.566406 294.449219 353.949219 295.164062 353.191406 295.164062 Z M 353.191406 295.164062 " fill-opacity="1" fill-rule="nonzero"/><path fill="#000000" d="M 353.191406 296.492188 L 335.925781 296.492188 C 335.214844 296.539062 334.550781 296.253906 334.078125 295.730469 C 333.507812 295.117188 333.175781 294.355469 333.175781 293.503906 L 333.320312 280.40625 C 333.273438 278.839844 334.503906 277.511719 336.070312 277.464844 L 353.332031 277.464844 C 354.042969 277.464844 354.707031 277.75 355.183594 278.226562 C 355.75 278.839844 356.082031 279.601562 356.082031 280.453125 L 355.941406 293.550781 C 355.988281 295.117188 354.753906 296.394531 353.191406 296.492188 Z M 353.285156 280.121094 L 336.070312 280.121094 C 336.117188 280.121094 336.023438 280.265625 336.023438 280.453125 L 335.878906 293.550781 C 335.878906 293.644531 335.925781 293.738281 335.976562 293.835938 L 353.144531 293.835938 C 353.238281 293.738281 353.238281 293.644531 353.238281 293.503906 L 353.378906 280.40625 C 353.378906 280.3125 353.332031 280.21875 353.285156 280.121094 Z M 353.285156 280.121094 " fill-opacity="1" fill-rule="nonzero"/><path fill="#ffffff" d="M 270.050781 320.925781 L 252.789062 320.925781 C 251.984375 320.878906 251.367188 320.167969 251.414062 319.359375 C 251.414062 319.3125 251.414062 319.265625 251.414062 319.265625 L 251.507812 306.21875 C 251.554688 305.269531 252.171875 304.558594 252.929688 304.558594 L 270.195312 304.558594 C 270.953125 304.558594 271.570312 305.269531 271.570312 306.21875 L 271.476562 319.265625 C 271.425781 320.167969 270.8125 320.925781 270.050781 320.925781 Z M 270.050781 320.925781 " fill-opacity="1" fill-rule="nonzero"/><path fill="#000000" d="M 270.050781 322.253906 L 252.789062 322.253906 C 252.078125 322.253906 251.414062 321.96875 250.9375 321.496094 C 250.371094 320.878906 250.039062 320.117188 250.039062 319.265625 L 250.179688 306.171875 C 250.132812 304.605469 251.367188 303.277344 252.929688 303.179688 L 270.195312 303.179688 C 270.90625 303.179688 271.570312 303.464844 272.042969 303.988281 C 272.613281 304.605469 272.945312 305.363281 272.945312 306.21875 L 272.804688 319.265625 C 272.851562 320.832031 271.617188 322.160156 270.050781 322.253906 Z M 270.148438 305.886719 L 252.929688 305.886719 C 252.980469 305.886719 252.882812 306.027344 252.882812 306.21875 L 252.742188 319.265625 C 252.742188 319.359375 252.789062 319.503906 252.835938 319.597656 L 270.003906 319.597656 C 270.050781 319.597656 270.101562 319.453125 270.101562 319.3125 L 270.242188 306.21875 C 270.242188 306.074219 270.242188 305.980469 270.148438 305.886719 Z M 270.148438 305.886719 " fill-opacity="1" fill-rule="nonzero"/><path fill="#ffffff" d="M 297.65625 320.925781 L 280.390625 320.925781 C 279.632812 320.925781 279.015625 320.167969 279.015625 319.265625 L 279.15625 306.21875 C 279.0625 305.363281 279.679688 304.652344 280.535156 304.558594 C 280.535156 304.558594 280.582031 304.558594 280.582031 304.558594 L 297.796875 304.558594 C 298.648438 304.605469 299.265625 305.316406 299.21875 306.171875 C 299.21875 306.171875 299.21875 306.21875 299.21875 306.21875 L 299.078125 319.265625 C 299.125 320.117188 298.507812 320.832031 297.65625 320.925781 Z M 297.65625 320.925781 " fill-opacity="1" fill-rule="nonzero"/><path fill="#000000" d="M 297.65625 322.253906 L 280.390625 322.253906 C 279.679688 322.253906 279.0625 321.96875 278.542969 321.496094 C 277.972656 320.925781 277.640625 320.117188 277.6875 319.265625 L 277.78125 306.171875 C 277.832031 304.558594 279.0625 303.179688 280.582031 303.179688 L 297.796875 303.179688 C 298.507812 303.179688 299.171875 303.464844 299.695312 303.988281 C 300.261719 304.605469 300.546875 305.410156 300.546875 306.21875 L 300.40625 319.265625 C 300.453125 320.832031 299.21875 322.160156 297.65625 322.253906 Z M 297.75 305.886719 L 280.582031 305.886719 C 280.535156 305.980469 280.484375 306.121094 280.484375 306.21875 L 280.34375 319.265625 C 280.34375 319.40625 280.390625 319.503906 280.484375 319.597656 L 297.605469 319.597656 C 297.65625 319.597656 297.75 319.453125 297.75 319.3125 L 297.84375 306.21875 C 297.84375 305.980469 297.796875 305.886719 297.75 305.886719 Z M 297.75 305.886719 " fill-opacity="1" fill-rule="nonzero"/><path fill="#ffffff" d="M 325.257812 320.925781 L 308.039062 320.925781 C 307.1875 320.832031 306.570312 320.117188 306.617188 319.265625 L 306.761719 306.21875 C 306.710938 305.363281 307.328125 304.652344 308.183594 304.558594 L 325.445312 304.558594 C 326.203125 304.558594 326.820312 305.269531 326.820312 306.21875 L 326.679688 319.265625 C 326.726562 320.117188 326.109375 320.832031 325.257812 320.925781 Z M 325.257812 320.925781 " fill-opacity="1" fill-rule="nonzero"/><path fill="#000000" d="M 325.257812 322.253906 L 308.039062 322.253906 C 307.328125 322.253906 306.664062 321.96875 306.144531 321.445312 C 305.574219 320.832031 305.289062 320.070312 305.289062 319.265625 L 305.433594 306.171875 C 305.386719 304.605469 306.617188 303.277344 308.183594 303.179688 L 325.445312 303.179688 C 326.15625 303.179688 326.820312 303.464844 327.296875 303.988281 C 327.863281 304.558594 328.195312 305.363281 328.148438 306.21875 L 328.054688 319.265625 C 328.101562 320.832031 326.820312 322.160156 325.257812 322.253906 Z M 325.398438 305.886719 L 308.183594 305.886719 C 308.136719 305.980469 308.136719 306.121094 308.136719 306.21875 L 307.992188 319.265625 C 307.992188 319.40625 307.992188 319.503906 308.089844 319.597656 L 325.257812 319.597656 C 325.304688 319.597656 325.351562 319.453125 325.351562 319.3125 L 325.492188 306.21875 C 325.492188 306.074219 325.492188 305.980469 325.398438 305.886719 Z M 325.398438 305.886719 " fill-opacity="1" fill-rule="nonzero"/><path fill="#ffffff" d="M 352.90625 320.925781 L 335.644531 320.925781 C 334.882812 320.925781 334.265625 320.167969 334.265625 319.265625 L 334.410156 306.21875 C 334.410156 305.269531 335.027344 304.558594 335.785156 304.558594 L 353.046875 304.558594 C 353.902344 304.605469 354.519531 305.316406 354.472656 306.171875 C 354.472656 306.171875 354.472656 306.21875 354.472656 306.21875 L 354.328125 319.265625 C 354.375 320.117188 353.757812 320.832031 352.90625 320.925781 Z M 352.90625 320.925781 " fill-opacity="1" fill-rule="nonzero"/><path fill="#000000" d="M 352.90625 322.253906 L 335.644531 322.253906 C 334.929688 322.253906 334.265625 321.96875 333.792969 321.496094 C 333.222656 320.878906 332.890625 320.117188 332.890625 319.265625 L 333.035156 306.171875 C 333.035156 304.558594 334.316406 303.179688 335.785156 303.179688 L 353.046875 303.179688 C 353.757812 303.179688 354.421875 303.464844 354.945312 303.988281 C 355.515625 304.605469 355.800781 305.410156 355.800781 306.21875 L 355.65625 319.265625 C 355.703125 320.832031 354.472656 322.160156 352.90625 322.253906 Z M 353 305.886719 L 335.785156 305.886719 C 335.832031 305.886719 335.738281 306.027344 335.738281 306.21875 L 335.59375 319.265625 C 335.59375 319.359375 335.644531 319.503906 335.691406 319.597656 L 352.859375 319.597656 C 352.90625 319.597656 352.953125 319.453125 352.953125 319.3125 L 353.097656 306.21875 C 353.097656 306.074219 353.097656 305.980469 353 305.886719 Z M 353 305.886719 " fill-opacity="1" fill-rule="nonzero"/><path fill="#ffffff" d="M 269.769531 346.6875 L 252.503906 346.6875 C 251.746094 346.6875 251.128906 345.929688 251.128906 345.027344 L 251.269531 331.933594 C 251.269531 331.03125 251.886719 330.273438 252.648438 330.273438 L 269.910156 330.273438 C 270.761719 330.367188 271.378906 331.078125 271.332031 331.933594 L 271.191406 345.027344 C 271.238281 345.882812 270.621094 346.59375 269.769531 346.6875 Z M 269.769531 346.6875 " fill-opacity="1" fill-rule="nonzero"/><path fill="#000000" d="M 269.769531 348.015625 L 252.503906 348.015625 C 251.792969 348.015625 251.128906 347.730469 250.65625 347.210938 C 250.085938 346.640625 249.753906 345.832031 249.753906 345.027344 L 249.894531 331.933594 C 249.945312 330.273438 251.175781 328.945312 252.648438 328.945312 L 269.910156 328.945312 C 270.621094 328.945312 271.285156 329.226562 271.757812 329.75 C 272.328125 330.367188 272.660156 331.125 272.660156 331.980469 L 272.519531 345.027344 C 272.566406 346.59375 271.332031 347.921875 269.769531 348.015625 Z M 269.863281 331.648438 L 252.648438 331.648438 C 252.695312 331.648438 252.597656 331.742188 252.597656 331.980469 L 252.457031 345.027344 C 252.457031 345.121094 252.503906 345.265625 252.550781 345.359375 L 269.71875 345.359375 C 269.816406 345.265625 269.816406 345.167969 269.816406 345.027344 L 269.957031 331.980469 C 269.957031 331.835938 269.957031 331.742188 269.863281 331.648438 Z M 269.863281 331.648438 " fill-opacity="1" fill-rule="nonzero"/><path fill="#ffffff" d="M 297.371094 346.6875 L 280.152344 346.6875 C 279.300781 346.59375 278.683594 345.882812 278.730469 345.027344 L 278.875 331.933594 C 278.824219 331.078125 279.441406 330.367188 280.296875 330.273438 L 297.558594 330.273438 C 298.320312 330.273438 298.933594 331.03125 298.933594 331.933594 L 298.792969 345.027344 C 298.839844 345.882812 298.222656 346.59375 297.371094 346.6875 Z M 297.371094 346.6875 " fill-opacity="1" fill-rule="nonzero"/><path fill="#000000" d="M 297.371094 348.015625 L 280.105469 348.015625 C 279.394531 348.015625 278.730469 347.730469 278.257812 347.210938 C 277.6875 346.59375 277.402344 345.785156 277.402344 344.980469 L 277.546875 331.933594 C 277.5 330.367188 278.730469 329.039062 280.296875 328.945312 L 297.558594 328.945312 C 298.269531 328.945312 298.933594 329.226562 299.410156 329.75 C 299.976562 330.320312 300.308594 331.125 300.261719 331.980469 L 300.167969 345.027344 C 300.214844 346.59375 298.933594 347.921875 297.371094 348.015625 Z M 297.464844 331.648438 L 280.296875 331.648438 C 280.203125 331.742188 280.203125 331.835938 280.203125 331.980469 L 280.105469 345.027344 C 280.105469 345.167969 280.105469 345.265625 280.203125 345.359375 L 297.371094 345.359375 C 297.371094 345.3125 297.464844 345.21875 297.464844 345.074219 L 297.605469 331.980469 C 297.605469 331.742188 297.511719 331.648438 297.464844 331.648438 Z M 297.464844 331.648438 " fill-opacity="1" fill-rule="nonzero"/><path fill="#ffffff" d="M 325.019531 346.6875 L 307.757812 346.6875 C 306.996094 346.6875 306.378906 345.929688 306.378906 345.027344 L 306.476562 331.933594 C 306.523438 331.03125 307.140625 330.273438 307.898438 330.273438 L 325.160156 330.273438 C 326.015625 330.367188 326.632812 331.078125 326.535156 331.933594 L 326.441406 345.027344 C 326.394531 345.929688 325.777344 346.6875 325.019531 346.6875 Z M 325.019531 346.6875 " fill-opacity="1" fill-rule="nonzero"/><path fill="#000000" d="M 325.019531 348.015625 L 307.757812 348.015625 C 307.042969 348.015625 306.378906 347.730469 305.90625 347.210938 C 305.335938 346.640625 305.003906 345.832031 305.003906 345.027344 L 305.148438 331.933594 C 305.101562 330.367188 306.332031 329.039062 307.898438 328.945312 L 325.160156 328.945312 C 325.875 328.945312 326.535156 329.226562 327.011719 329.75 C 327.582031 330.367188 327.914062 331.125 327.914062 331.980469 L 327.769531 345.027344 C 327.816406 346.59375 326.585938 347.921875 325.019531 348.015625 Z M 325.113281 331.648438 L 307.898438 331.648438 C 307.945312 331.648438 307.851562 331.742188 307.851562 331.980469 L 307.707031 345.027344 C 307.707031 345.121094 307.757812 345.265625 307.804688 345.359375 L 324.972656 345.359375 C 325.066406 345.265625 325.066406 345.167969 325.066406 345.027344 L 325.210938 331.980469 C 325.210938 331.835938 325.210938 331.742188 325.113281 331.648438 Z M 325.113281 331.648438 " fill-opacity="1" fill-rule="nonzero"/><path fill="#ffffff" d="M 352.621094 346.6875 L 335.359375 346.6875 C 334.597656 346.6875 333.984375 344.789062 333.984375 342.417969 L 334.125 308.875 C 334.125 306.550781 334.742188 304.652344 335.546875 304.652344 L 352.8125 304.652344 C 353.570312 304.652344 354.1875 306.550781 354.1875 308.875 L 354.042969 342.417969 C 354.042969 344.789062 353.378906 346.6875 352.621094 346.6875 Z M 352.621094 346.6875 " fill-opacity="1" fill-rule="nonzero"/><path fill="#000000" d="M 352.621094 348.015625 L 335.359375 348.015625 C 334.835938 348.015625 334.316406 347.777344 333.984375 347.398438 C 332.703125 346.164062 332.65625 343.273438 332.65625 342.417969 L 332.75 308.875 C 332.796875 306.171875 333.507812 303.324219 335.546875 303.324219 L 352.8125 303.324219 C 353.332031 303.324219 353.855469 303.558594 354.1875 303.941406 C 355.417969 305.171875 355.515625 308.066406 355.515625 308.921875 L 355.371094 342.417969 C 355.371094 345.121094 354.660156 348.015625 352.621094 348.015625 Z M 335.785156 345.3125 L 352.242188 345.3125 C 352.574219 344.363281 352.765625 343.414062 352.714844 342.417969 L 352.8125 308.875 C 352.859375 307.878906 352.714844 306.929688 352.382812 305.980469 L 335.925781 305.980469 C 335.59375 306.929688 335.40625 307.925781 335.453125 308.921875 L 335.359375 342.417969 C 335.3125 343.414062 335.453125 344.410156 335.785156 345.3125 Z M 335.785156 345.3125 " fill-opacity="1" fill-rule="nonzero"/><g fill="#000000" fill-opacity="1"><g transform="translate(370.593731, 240.079539)"><g><path d="M 2.203125 0.09375 C 1.890625 0.09375 1.625 -0.0078125 1.40625 -0.21875 C 1.195312 -0.4375 1.09375 -0.695312 1.09375 -1 C 1.09375 -1.300781 1.195312 -1.554688 1.40625 -1.765625 C 1.625 -1.984375 1.890625 -2.09375 2.203125 -2.09375 C 2.503906 -2.09375 2.757812 -1.984375 2.96875 -1.765625 C 3.1875 -1.554688 3.296875 -1.300781 3.296875 -1 C 3.296875 -0.695312 3.1875 -0.4375 2.96875 -0.21875 C 2.757812 -0.0078125 2.503906 0.09375 2.203125 0.09375 Z M 2.203125 0.09375 "/></g></g></g></svg>