<svg xmlns="http://www.w3.org/2000/svg" xmlns:xlink="http://www.w3.org/1999/xlink" width="500" zoomAndPan="magnify" viewBox="0 0 375 374.999991" height="500" preserveAspectRatio="xMidYMid meet" version="1.0"><defs><g/><clipPath id="cd7631ba14"><path d="M 131 359 L 136 359 L 136 364.976562 L 131 364.976562 Z M 131 359 " clip-rule="nonzero"/></clipPath><clipPath id="3e0ad8a640"><path d="M 0 283 L 150 283 L 150 364.976562 L 0 364.976562 Z M 0 283 " clip-rule="nonzero"/></clipPath><clipPath id="e8e158f756"><path d="M 352 146 L 374.96875 146 L 374.96875 170 L 352 170 Z M 352 146 " clip-rule="nonzero"/></clipPath></defs><path fill="#f6a40e" d="M 334.546875 82.285156 L 269.324219 94.875 C 269.324219 94.875 263.171875 94.648438 260.4375 96.8125 C 257.703125 98.976562 258.730469 105.242188 258.730469 105.242188 L 279.632812 203.960938 C 279.632812 203.960938 281.34375 212.277344 287.265625 213.128906 L 295.585938 211.820312 L 365.136719 199.117188 C 365.136719 199.117188 369.636719 198.261719 369.410156 192.910156 C 369.179688 187.554688 350.496094 96.753906 350.496094 96.753906 Z M 334.546875 82.285156 " fill-opacity="1" fill-rule="nonzero"/><path fill="#ffffff" d="M 226.660156 228.226562 C 226.660156 228.226562 248.644531 293.390625 252.917969 306.890625 C 257.191406 320.390625 260.949219 327.398438 263.683594 328.707031 C 266.417969 330.019531 284.589844 331.613281 294.558594 320.449219 C 304.527344 309.285156 314.835938 285.53125 317.171875 280.0625 C 319.507812 274.59375 338.933594 224.464844 338.933594 224.464844 L 348.046875 202.25 L 302.589844 209.828125 L 280.148438 243.890625 L 264.082031 194.390625 C 264.082031 194.390625 250.980469 158.273438 242.550781 167.957031 C 242.550781 167.957031 241.695312 189.546875 237.480469 197.351562 C 235.429688 201.109375 233.4375 205.554688 231.445312 207.546875 C 229.449219 209.542969 227.285156 209.257812 227.285156 209.257812 C 227.285156 209.257812 224.152344 223.382812 226.660156 228.226562 Z M 226.660156 228.226562 " fill-opacity="1" fill-rule="nonzero"/><path fill="#2f6da3" d="M 120.707031 298.972656 C 121.503906 298.746094 139.5625 259.269531 139.5625 259.269531 C 139.5625 259.269531 142.410156 255.738281 146.738281 255.738281 C 151.070312 255.738281 281 258.699219 281.800781 258.414062 C 282.597656 258.132812 289.601562 260.066406 287.722656 267.585938 C 287.722656 267.585938 255.480469 346.539062 249.613281 354.34375 C 249.613281 354.34375 249.84375 357.019531 246.367188 357.019531 L 108.574219 355.9375 C 108.574219 355.9375 109.199219 322.898438 109.714844 320.847656 C 110.226562 318.796875 120.707031 298.972656 120.707031 298.972656 Z M 120.707031 298.972656 " fill-opacity="1" fill-rule="nonzero"/><path fill="#ffffff" d="M 141.269531 127.230469 L 102.992188 136.058594 C 102.992188 136.058594 76.503906 142.667969 72.914062 150.414062 C 69.328125 158.160156 70.351562 163.230469 70.351562 163.230469 L 86.300781 218.085938 L 127.03125 217.914062 C 127.03125 217.914062 133.351562 217.175781 138.25 223.839844 C 143.152344 230.503906 146.339844 231.300781 150.5 232.15625 C 154.65625 233.011719 218.113281 233.578125 218.113281 233.578125 C 218.113281 233.578125 222.160156 234.035156 222.160156 237.054688 C 222.160156 237.339844 226.316406 224.523438 226.316406 224.523438 L 227.511719 203.84375 C 227.511719 203.84375 233.09375 175.476562 233.378906 170.691406 C 233.664062 165.90625 236 156.054688 230.816406 151.269531 C 225.632812 146.484375 222.328125 144.089844 212.816406 142.953125 C 203.304688 141.8125 177.671875 128.710938 177.671875 128.710938 C 177.671875 128.710938 150.898438 124.097656 141.269531 127.230469 Z M 141.269531 127.230469 " fill-opacity="1" fill-rule="nonzero"/><path fill="#ffffff" d="M 174.480469 16.207031 C 174.480469 16.207031 168.15625 10.285156 148.617188 13.988281 C 148.617188 13.988281 133.75 19 125.378906 25.039062 C 117.003906 31.074219 112.046875 44.460938 111.707031 51.980469 C 111.363281 59.5 114.328125 74.480469 117.003906 79.210938 C 119.683594 83.9375 131.871094 103.363281 131.871094 103.363281 C 131.871094 103.363281 136.429688 108.375 140.699219 108.375 C 144.972656 108.375 148.503906 108.601562 148.503906 108.601562 C 148.503906 108.601562 155.113281 117.773438 163.316406 122.332031 C 171.519531 126.886719 178.867188 128.367188 184.449219 127.171875 C 190.03125 125.976562 201.480469 119.082031 205.523438 111.734375 C 209.570312 104.386719 209.511719 96.867188 209.226562 94.929688 C 208.941406 92.996094 209.511719 76.417969 210.652344 72.714844 C 211.792969 69.011719 214.355469 55.34375 211.390625 45.203125 C 208.429688 35.0625 200.058594 21.335938 184.449219 17.804688 Z M 174.480469 16.207031 " fill-opacity="1" fill-rule="nonzero"/><path fill="#49515d" d="M 138.195312 61.777344 C 138.195312 61.777344 156.253906 65.824219 174.480469 64.96875 C 192.707031 64.113281 212.816406 57.449219 212.816406 57.449219 C 212.816406 57.449219 212.304688 66.847656 211.507812 70.664062 C 210.707031 74.480469 209.910156 82.628906 209.910156 82.628906 C 209.910156 82.628906 197.949219 88.609375 189.917969 89.917969 C 186.15625 90.488281 175.789062 90.714844 166.5625 89.746094 C 159.933594 89 153.382812 87.820312 146.910156 86.214844 C 146.910156 86.214844 147.136719 78.695312 146.339844 75.792969 C 145.542969 72.886719 138.878906 64.058594 138.195312 61.777344 Z M 138.195312 61.777344 " fill-opacity="1" fill-rule="nonzero"/><path fill="#49515d" d="M 127.714844 73.96875 C 127.714844 73.96875 129.992188 69.527344 134.550781 69.183594 C 139.105469 68.84375 142.75 76.53125 143.550781 79.609375 C 144.347656 82.683594 143.265625 93.335938 139.789062 96.242188 C 136.316406 99.148438 128.511719 95.613281 126.515625 86.84375 C 126.515625 86.84375 125.320312 79.097656 127.714844 73.96875 Z M 127.714844 73.96875 " fill-opacity="1" fill-rule="nonzero"/><path fill="#49515d" d="M 140.699219 108.375 C 140.699219 108.375 141.667969 125.804688 141.15625 130.363281 C 140.644531 134.917969 140.074219 138.90625 140.074219 138.90625 C 140.074219 138.90625 151.582031 144.773438 162.972656 145.117188 C 174.367188 145.457031 178.523438 144.261719 178.523438 144.261719 C 178.523438 144.261719 177.328125 138.050781 177.839844 134.863281 C 178.195312 132.445312 178.328125 130.015625 178.238281 127.570312 C 178.238281 127.570312 162.6875 125.007812 155.851562 118.800781 C 149.019531 112.589844 148.503906 108.601562 148.503906 108.601562 Z M 140.699219 108.375 " fill-opacity="1" fill-rule="nonzero"/><path fill="#49515d" d="M 8.886719 286.953125 C 8.886719 286.953125 9.96875 280.402344 19.371094 276.929688 C 28.769531 273.453125 44.375 280.800781 46.996094 283.082031 C 49.617188 285.359375 54.742188 288.890625 56.28125 295.15625 C 56.496094 296.195312 56.507812 297.238281 56.320312 298.28125 C 56.132812 299.324219 55.761719 300.296875 55.199219 301.195312 C 55.199219 301.195312 45.800781 290.65625 34.976562 287.523438 C 24.15625 284.390625 16.519531 283.082031 8.886719 286.953125 Z M 8.886719 286.953125 " fill-opacity="1" fill-rule="nonzero"/><path fill="#49515d" d="M 69.953125 156.339844 C 69.214844 156.417969 68.503906 156.601562 67.820312 156.898438 C 67.140625 157.191406 66.515625 157.578125 65.953125 158.0625 C 65.386719 158.546875 64.90625 159.101562 64.511719 159.730469 C 64.117188 160.359375 63.820312 161.03125 63.628906 161.75 C 62.320312 166.820312 64.597656 186.472656 67.277344 192.054688 C 69.953125 197.636719 77.871094 211.820312 81.859375 213.871094 C 85.84375 215.921875 85.960938 214.210938 85.960938 214.210938 C 85.960938 214.210938 73.425781 179.75 73.3125 176.105469 C 73.199219 172.457031 69.953125 156.339844 69.953125 156.339844 Z M 69.953125 156.339844 " fill-opacity="1" fill-rule="nonzero"/><path fill="#49515d" d="M 234.976562 157.421875 C 234.976562 157.421875 241.867188 160.496094 242.210938 169.324219 C 242.550781 178.15625 238.621094 196.441406 234.578125 202.707031 C 230.53125 208.972656 227.683594 209.257812 227.285156 209.257812 C 226.886719 209.257812 231.273438 184.363281 231.273438 184.363281 C 231.273438 184.363281 235.316406 162.320312 234.976562 157.421875 Z M 234.976562 157.421875 " fill-opacity="1" fill-rule="nonzero"/><path fill="#ffffff" d="M 164.855469 86.273438 C 174.539062 79.78125 184.449219 73.683594 194.589844 67.988281 C 194.726562 67.863281 194.8125 67.710938 194.847656 67.527344 C 194.878906 67.347656 194.851562 67.171875 194.761719 67.007812 C 194.675781 66.847656 194.542969 66.726562 194.375 66.65625 C 194.203125 66.582031 194.027344 66.570312 193.847656 66.621094 C 183.671875 72.316406 173.738281 78.414062 164.054688 84.90625 C 163.203125 85.476562 164 86.84375 164.855469 86.273438 Z M 164.855469 86.273438 " fill-opacity="1" fill-rule="nonzero"/><path fill="#ffffff" d="M 183.824219 85.304688 C 189.460938 81.488281 195.273438 77.84375 201.140625 74.367188 C 201.277344 74.246094 201.363281 74.09375 201.398438 73.910156 C 201.429688 73.726562 201.402344 73.550781 201.3125 73.390625 C 201.226562 73.226562 201.09375 73.109375 200.925781 73.035156 C 200.753906 72.960938 200.578125 72.949219 200.398438 73 C 194.472656 76.476562 188.664062 80.121094 183.023438 83.996094 C 182.171875 84.507812 182.96875 85.875 183.824219 85.304688 Z M 183.824219 85.304688 " fill-opacity="1" fill-rule="nonzero"/><path fill="#ffffff" d="M 157.5625 80.292969 C 162.003906 77.445312 166.5625 74.710938 171.175781 72.089844 C 172.03125 71.632812 171.289062 70.265625 170.378906 70.777344 C 165.765625 73.34375 161.207031 76.078125 156.765625 78.980469 C 155.910156 79.496094 156.707031 80.863281 157.5625 80.292969 Z M 157.5625 80.292969 " fill-opacity="1" fill-rule="nonzero"/><path fill="#ffffff" d="M 62.71875 162.71875 C 62.71875 162.71875 53.320312 164.769531 48.875 173.597656 C 44.433594 182.425781 29.964844 219.910156 29.964844 219.910156 C 29.964844 219.910156 13.84375 263.882812 13.386719 263.882812 C 12.933594 263.882812 8.320312 275.335938 11.792969 280.859375 C 11.792969 280.859375 18.457031 275.617188 31.273438 276.417969 C 44.089844 277.214844 54.289062 289.972656 55.027344 290.144531 C 55.769531 290.316406 60.78125 282.796875 63.628906 275.335938 C 66.476562 267.871094 82.257812 216.492188 82.257812 216.492188 L 81.859375 213.871094 C 81.859375 213.871094 71.832031 206.066406 68.359375 193.820312 C 64.882812 181.574219 62.546875 164.65625 62.71875 162.71875 Z M 62.71875 162.71875 " fill-opacity="1" fill-rule="nonzero"/><path fill="#ffffff" d="M 14.753906 285.359375 C 14.46875 285.472656 3.875 286.953125 2.050781 296.523438 C 0.230469 306.09375 3.363281 319.421875 8.148438 324.949219 C 12.933594 330.472656 17.945312 334.917969 29.054688 337.539062 C 40.160156 340.15625 61.863281 344.203125 67.730469 345.910156 C 73.597656 347.621094 101.738281 359.125 101.738281 358.726562 C 101.738281 358.328125 113.644531 363.226562 126.402344 363.628906 C 139.164062 364.027344 143.71875 364.027344 145.828125 363 C 147.160156 362.328125 148.222656 361.359375 149.019531 360.09375 C 151.074219 359.230469 153.066406 358.242188 155 357.132812 C 157.621094 355.59375 158.816406 351.835938 158.816406 351.835938 C 159.761719 351.617188 160.625 351.222656 161.40625 350.648438 C 162.1875 350.074219 162.824219 349.367188 163.316406 348.53125 C 165.195312 345.625 165.421875 343.804688 165.421875 343.804688 C 165.421875 343.804688 168.785156 341.925781 168.898438 339.53125 C 169.011719 337.140625 162.917969 336.226562 162.917969 336.226562 C 162.917969 336.226562 139.902344 334.121094 136.316406 332.640625 C 132.726562 331.15625 111.535156 323.523438 109.714844 320.847656 C 109.714844 320.847656 110.226562 316.234375 111.707031 314.753906 C 113.1875 313.273438 123.097656 310.421875 125.320312 308.316406 C 127.542969 306.207031 130.21875 302.050781 128.796875 300.339844 C 127.371094 298.632812 124.238281 298.347656 118.316406 300.625 C 112.390625 302.902344 104.128906 305.921875 102.308594 305.636719 C 100.484375 305.355469 94.332031 306.550781 92.113281 309.113281 C 89.890625 311.675781 86.8125 318.226562 81.628906 318.113281 C 76.445312 318 61.292969 306.378906 61.292969 306.378906 L 47.566406 294.53125 C 47.566406 294.53125 30.761719 281.03125 14.753906 285.359375 Z M 14.753906 285.359375 " fill-opacity="1" fill-rule="nonzero"/><path fill="#2f6da3" d="M 86.414062 315.378906 L 58.730469 241.667969 C 58.730469 241.667969 57.363281 235.574219 61.351562 234.207031 C 65.339844 232.839844 75.421875 232.328125 75.421875 232.328125 L 77.300781 219.851562 C 78.273438 219.386719 79.28125 219.003906 80.320312 218.710938 C 81.972656 218.257812 129.59375 217.972656 129.59375 217.972656 C 129.59375 217.972656 134.949219 219.339844 138.25 223.839844 C 141.554688 228.339844 148.164062 232.496094 150.5 232.15625 C 152.835938 231.8125 216.632812 233.011719 216.632812 233.011719 C 216.632812 233.011719 220.847656 233.011719 221.589844 235.347656 L 222.273438 237.679688 L 96.042969 238.195312 C 96.042969 238.195312 91.144531 238.195312 92.054688 244.289062 L 79.410156 245.429688 C 79.410156 245.429688 76.332031 246.625 77.300781 250.839844 C 78.269531 255.054688 92.113281 309.113281 92.113281 309.113281 Z M 86.414062 315.378906 " fill-opacity="1" fill-rule="nonzero"/><path fill="#ffffff" d="M 92.113281 309.113281 L 77.527344 253.117188 C 77.527344 253.117188 76.390625 249.132812 77.242188 247.136719 C 78.097656 245.144531 81.34375 245.144531 81.34375 245.144531 L 92.054688 244.289062 C 92.054688 244.289062 92.167969 240.300781 94.332031 238.820312 C 96.496094 237.339844 101.28125 237.851562 101.28125 237.851562 L 256.5625 237.851562 C 257.019531 237.851562 266.363281 238.308594 267.160156 242.464844 C 267.160156 242.464844 278.097656 240.984375 278.609375 249.585938 L 278.609375 257.5625 C 278.609375 257.5625 143.890625 255.054688 144.402344 254.941406 C 144.917969 254.828125 141.613281 254.941406 139.449219 259.898438 C 137.285156 264.851562 120.707031 300.398438 120.707031 300.398438 C 120.707031 300.398438 97.636719 306.378906 92.113281 309.113281 Z M 92.113281 309.113281 " fill-opacity="1" fill-rule="nonzero"/><path fill="#000000" d="M 99.289062 306.09375 C 99.289062 306.09375 115.863281 251.863281 116.207031 254.03125 C 116.546875 256.195312 102.308594 305.636719 102.308594 305.636719 Z M 99.289062 306.09375 " fill-opacity="1" fill-rule="nonzero"/><path fill="#000000" d="M 77.527344 254.316406 C 77.527344 254.316406 89.207031 303.816406 88.296875 309.96875 C 88.066406 311.621094 86.414062 315.378906 86.414062 315.378906 L 92.113281 309.113281 Z M 77.527344 254.316406 " fill-opacity="1" fill-rule="nonzero"/><path fill="#000000" d="M 129.992188 303.585938 C 129.992188 303.585938 131.359375 307.972656 126.574219 312.019531 C 121.789062 316.0625 116.148438 316.972656 115.351562 318.171875 C 114.554688 319.367188 113.757812 323.410156 113.757812 323.410156 L 109.714844 320.847656 C 109.714844 320.847656 109.996094 316.746094 111.707031 314.753906 C 113.414062 312.757812 118.597656 312.816406 122.359375 310.820312 C 126.117188 308.828125 130.164062 306.378906 129.992188 303.585938 Z M 129.992188 303.585938 " fill-opacity="1" fill-rule="nonzero"/><path fill="#000000" d="M 165.421875 346.367188 C 165.421875 346.367188 165.535156 349.101562 161.265625 352.234375 C 161.265625 352.234375 162.121094 356.164062 159.667969 356.675781 L 156.878906 356.5625 C 156.878906 356.5625 159.5 354.683594 158.816406 351.835938 C 158.816406 351.835938 165.082031 349.558594 165.421875 346.367188 Z M 165.421875 346.367188 " fill-opacity="1" fill-rule="nonzero"/><path fill="#000000" d="M 58.558594 242.523438 C 58.558594 242.523438 64.65625 264.167969 62.71875 275.503906 L 67.445312 265.195312 Z M 58.558594 242.523438 " fill-opacity="1" fill-rule="nonzero"/><path fill="#000000" d="M 280.148438 286.785156 C 280.148438 286.785156 268.527344 312.644531 268.355469 319.367188 C 268.355469 319.367188 267.160156 327.625 269.039062 329.960938 C 269.039062 329.960938 262.945312 330.988281 261.578125 328.652344 Z M 280.148438 286.785156 " fill-opacity="1" fill-rule="nonzero"/><path fill="#000000" d="M 135.234375 220.820312 C 135.234375 220.820312 140.757812 220.707031 143.492188 223.726562 C 148.335938 228.964844 151.695312 231.929688 152.09375 232.097656 C 149.65625 231.777344 147.304688 231.152344 145.03125 230.21875 C 142.066406 228.796875 135.234375 220.820312 135.234375 220.820312 Z M 135.234375 220.820312 " fill-opacity="1" fill-rule="nonzero"/><path fill="#ffffff" d="M 357.675781 123.070312 C 356.746094 122.96875 355.859375 123.113281 355.011719 123.5 C 354.164062 123.890625 353.476562 124.46875 352.945312 125.234375 C 350.894531 127.914062 343.773438 136.171875 342.578125 139.988281 C 341.382812 143.804688 341.324219 146.3125 343.089844 146.652344 C 344.855469 146.996094 349.300781 144.261719 349.300781 144.261719 C 349.300781 144.261719 345.597656 148.820312 345.3125 151.269531 C 345.027344 153.71875 345.484375 155.199219 347.535156 155.3125 C 349.585938 155.425781 351.523438 153.660156 351.523438 153.660156 C 351.523438 153.660156 347.707031 159.640625 349.242188 161.40625 C 350.78125 163.171875 354.027344 162.035156 354.027344 162.035156 C 354.027344 162.035156 351.066406 166.933594 354.542969 168.300781 C 358.015625 169.667969 363.371094 163.914062 363.371094 163.914062 C 363.371094 163.914062 365.136719 172.800781 365.308594 172.972656 C 365.476562 173.140625 370.492188 165.679688 371.914062 160.722656 C 372.730469 157.960938 373.316406 155.152344 373.679688 152.292969 C 373.679688 152.292969 374.25 148.363281 372.371094 147.738281 C 371.097656 147.367188 369.828125 147.367188 368.554688 147.738281 C 368.554688 147.738281 370.207031 142.667969 368.78125 140.671875 C 367.359375 138.679688 364.054688 139.648438 364.054688 139.648438 C 364.054688 139.648438 365.421875 136.628906 363.882812 134.292969 C 362.34375 131.957031 358.984375 132.753906 358.984375 132.753906 C 358.984375 132.753906 361.320312 128.597656 360.351562 126.089844 C 359.382812 123.585938 357.675781 123.070312 357.675781 123.070312 Z M 357.675781 123.070312 " fill-opacity="1" fill-rule="nonzero"/><path fill="#ffffff" d="M 125.890625 82.285156 C 125.890625 82.285156 125.378906 75.621094 129.367188 71.746094 C 133.351562 67.875 136.941406 74.195312 137.625 75.335938 C 138.308594 76.476562 140.699219 81.945312 139.960938 88.4375 C 139.21875 94.929688 134.777344 96.8125 131.015625 94.191406 C 127.257812 91.570312 126.0625 83.539062 125.890625 82.285156 Z M 125.890625 82.285156 " fill-opacity="1" fill-rule="nonzero"/><path fill="#000000" d="M 355.109375 168.300781 C 355.566406 168.9375 356.148438 169.421875 356.859375 169.746094 C 357.574219 170.070312 358.320312 170.195312 359.097656 170.121094 C 360.871094 169.792969 362.464844 169.070312 363.882812 167.957031 L 363.597656 164.484375 C 363.597656 164.484375 358.585938 168.984375 355.109375 168.300781 Z M 355.109375 168.300781 " fill-opacity="1" fill-rule="nonzero"/><path fill="#000000" d="M 364.054688 167.105469 C 364.054688 167.105469 369.523438 160.839844 370.492188 158.105469 C 371.460938 155.371094 362.972656 164.9375 362.972656 164.9375 Z M 364.054688 167.105469 " fill-opacity="1" fill-rule="nonzero"/><path fill="#000000" d="M 279.347656 256.25 L 147.535156 254.714844 L 278.835938 257.617188 Z M 279.347656 256.25 " fill-opacity="1" fill-rule="nonzero"/><path fill="#000000" d="M 284.132812 239.046875 C 283.148438 241.585938 282.507812 244.203125 282.207031 246.90625 C 281.90625 249.613281 281.960938 252.308594 282.367188 255 C 282.765625 257.5625 283.394531 258.132812 283.394531 258.132812 L 278.835938 257.617188 L 279.519531 246.851562 Z M 284.132812 239.046875 " fill-opacity="1" fill-rule="nonzero"/><path fill="#000000" d="M 128.054688 88.894531 C 127.046875 86.050781 126.648438 83.128906 126.859375 80.121094 C 127.085938 77.5 127.714844 74.710938 129.367188 72.546875 C 131.015625 70.378906 133.867188 69.070312 136.484375 70.496094 C 137.425781 70.964844 138.222656 71.609375 138.878906 72.429688 C 142.011719 75.960938 142.75 81.429688 142.636719 85.988281 C 142.582031 89.578125 141.953125 95.101562 137.796875 96.355469 C 133.636719 97.609375 129.421875 92.765625 128.054688 88.894531 C 127.714844 87.980469 126.234375 88.378906 126.574219 89.347656 C 128.054688 93.507812 131.472656 98.234375 136.429688 98.121094 C 141.382812 98.007812 143.433594 93.222656 144.003906 88.949219 C 144.378906 85.894531 144.265625 82.855469 143.664062 79.835938 C 143.28125 77.074219 142.292969 74.550781 140.699219 72.261719 C 140.074219 71.355469 139.3125 70.574219 138.421875 69.925781 C 135.917969 68.046875 132.898438 67.761719 130.21875 69.582031 C 127.542969 71.40625 126.117188 74.824219 125.550781 78.070312 C 124.9375 81.917969 125.28125 85.675781 126.574219 89.347656 C 126.859375 90.261719 128.398438 89.863281 128.054688 88.894531 Z M 128.054688 88.894531 " fill-opacity="1" fill-rule="nonzero"/><path fill="#000000" d="M 134.492188 72.144531 C 136.15625 73.96875 137.410156 76.039062 138.25 78.355469 C 139.046875 80.875 139.40625 83.460938 139.335938 86.101562 C 139.335938 88.722656 138.933594 93.507812 135.632812 94.019531 C 134.605469 94.132812 135.0625 95.671875 136.03125 95.5 C 139.902344 94.929688 140.757812 90.03125 140.871094 86.84375 C 141.027344 83.855469 140.664062 80.929688 139.789062 78.070312 C 138.859375 75.433594 137.453125 73.078125 135.574219 71.007812 C 134.949219 70.265625 133.808594 71.347656 134.492188 72.144531 Z M 134.492188 72.144531 " fill-opacity="1" fill-rule="nonzero"/><path fill="#000000" d="M 145.203125 99.546875 C 145.8125 102.957031 146.914062 106.207031 148.503906 109.285156 C 149.871094 112.011719 151.5625 114.515625 153.574219 116.804688 C 158.074219 121.535156 164.113281 124.4375 170.207031 126.546875 C 172.714844 127.425781 175.292969 127.953125 177.941406 128.125 C 180.59375 128.300781 183.214844 128.117188 185.816406 127.570312 C 191.910156 126.375 197.207031 122.5 201.367188 118.058594 C 205.523438 113.617188 207.917969 110.027344 209.339844 105.183594 C 210.308594 101.9375 210.082031 98.464844 210.023438 95.160156 C 210.023438 90.488281 210.140625 85.816406 210.59375 81.203125 C 210.9375 77.824219 211.390625 74.460938 211.960938 71.121094 C 212.589844 68.183594 213.042969 65.222656 213.328125 62.234375 C 214.242188 51.46875 211.960938 39.90625 205.523438 31.074219 C 202.417969 26.75 198.507812 23.351562 193.789062 20.878906 C 189.847656 18.835938 185.710938 17.335938 181.371094 16.378906 C 171.917969 14.273438 161.664062 14.386719 152.550781 17.804688 C 143.433594 21.222656 134.09375 30.164062 131.984375 40.875 C 129.878906 51.582031 134.832031 59.558594 140.359375 67.363281 C 141.328125 68.726562 142.351562 70.09375 143.207031 71.519531 C 144.304688 73.347656 144.96875 75.324219 145.203125 77.445312 C 145.941406 82.796875 145.316406 88.210938 145.03125 93.507812 C 144.886719 95.527344 144.945312 97.539062 145.203125 99.546875 C 145.371094 100.570312 146.851562 100.113281 146.683594 99.148438 C 146.464844 97.15625 146.445312 95.160156 146.625 93.164062 C 146.738281 90.546875 146.96875 87.980469 147.023438 85.417969 C 147.195312 80.804688 147.308594 75.507812 144.972656 71.40625 C 143.265625 68.386719 140.984375 65.710938 139.164062 62.804688 C 136.65625 58.988281 134.550781 54.828125 133.636719 50.328125 C 131.359375 39.621094 137.339844 28.742188 146.167969 22.816406 C 154.085938 17.519531 164 15.980469 173.339844 16.722656 C 182.683594 17.460938 191.511719 20.082031 198.40625 25.722656 C 206.722656 32.558594 210.9375 43.09375 211.792969 53.578125 C 212.007812 56.234375 212.027344 58.890625 211.847656 61.550781 C 211.574219 64.4375 211.15625 67.304688 210.59375 70.152344 C 209.53125 75.917969 208.867188 81.726562 208.601562 87.582031 C 208.429688 91.34375 208.542969 95.101562 208.488281 98.917969 C 208.535156 100.410156 208.441406 101.890625 208.203125 103.363281 C 207.746094 105.453125 206.988281 107.429688 205.925781 109.285156 C 203.199219 114.1875 199.574219 118.289062 195.042969 121.589844 C 192.554688 123.511719 189.800781 124.914062 186.785156 125.804688 C 184.128906 126.464844 181.429688 126.75 178.695312 126.660156 C 176.117188 126.554688 173.613281 126.082031 171.175781 125.234375 C 168.085938 124.222656 165.105469 122.949219 162.234375 121.417969 C 159.433594 119.953125 156.949219 118.070312 154.769531 115.78125 C 152.78125 113.589844 151.148438 111.160156 149.871094 108.488281 C 148.320312 105.542969 147.257812 102.425781 146.683594 99.148438 C 146.511719 98.179688 145.03125 98.578125 145.203125 99.546875 Z M 145.203125 99.546875 " fill-opacity="1" fill-rule="nonzero"/><path fill="#000000" d="M 138.59375 63.144531 C 148.089844 65.160156 157.691406 66.148438 167.402344 66.109375 C 177.109375 66.070312 186.703125 65.007812 196.183594 62.917969 C 201.648438 61.71875 207.019531 60.199219 212.304688 58.359375 C 213.273438 58.019531 212.875 56.539062 211.90625 56.878906 C 202.835938 60.050781 193.535156 62.246094 184.003906 63.464844 C 174.472656 64.6875 164.917969 64.902344 155.339844 64.113281 C 149.84375 63.609375 144.394531 62.792969 138.992188 61.664062 C 138.023438 61.4375 137.625 62.917969 138.59375 63.144531 Z M 138.59375 63.144531 " fill-opacity="1" fill-rule="nonzero"/><path fill="#000000" d="M 146 86.957031 C 162.632812 90.546875 180.574219 93.050781 197.265625 88.4375 C 201.816406 87.195312 206.105469 85.355469 210.140625 82.914062 C 210.992188 82.398438 210.253906 81.03125 209.398438 81.546875 C 194.757812 90.375 176.757812 90.316406 160.410156 88.039062 C 155.683594 87.355469 151.011719 86.445312 146.398438 85.476562 C 145.429688 85.246094 144.972656 86.785156 146 86.957031 Z M 146 86.957031 " fill-opacity="1" fill-rule="nonzero"/><path fill="#000000" d="M 175.164062 15.183594 C 163.65625 10.226562 150.269531 12.164062 138.878906 16.4375 C 134.242188 18.101562 129.875 20.304688 125.777344 23.042969 C 120.59375 26.632812 116.832031 31.816406 114.441406 37.570312 C 112.832031 41.5625 111.828125 45.703125 111.421875 49.988281 C 110.847656 55.640625 111.074219 61.261719 112.105469 66.847656 C 113.3125 73.285156 115.707031 79.25 119.28125 84.734375 C 121.277344 87.925781 123.097656 91.171875 125.09375 94.363281 C 127.085938 97.550781 128.054688 99.203125 129.59375 101.597656 C 131.132812 103.988281 132.214844 105.46875 134.433594 106.722656 C 137.851562 108.660156 142.066406 109.171875 146 109.058594 L 146.796875 109.058594 C 147.765625 108.945312 147.765625 107.40625 146.796875 107.464844 C 143.898438 107.746094 141.046875 107.480469 138.25 106.664062 C 136.085938 106.039062 133.921875 104.957031 132.5 103.191406 C 131.074219 101.425781 129.648438 98.863281 128.339844 96.699219 C 125.890625 92.824219 123.5 88.894531 121.164062 84.964844 C 120.25 83.425781 119.226562 81.945312 118.429688 80.40625 C 116.832031 77.488281 115.578125 74.433594 114.667969 71.234375 C 113.136719 65.660156 112.492188 59.980469 112.730469 54.203125 C 112.804688 50.066406 113.394531 46 114.496094 42.011719 C 115.316406 39.089844 116.507812 36.328125 118.074219 33.726562 C 119.640625 31.125 121.523438 28.78125 123.726562 26.691406 C 127.144531 23.613281 131.359375 21.390625 135.515625 19.570312 C 146.054688 14.898438 158.644531 12.050781 170.039062 15.070312 C 171.507812 15.476562 172.953125 15.972656 174.367188 16.550781 C 175.277344 16.949219 176.074219 15.640625 175.164062 15.238281 Z M 175.164062 15.183594 " fill-opacity="1" fill-rule="nonzero"/><path fill="#000000" d="M 139.960938 108.886719 C 140.921875 118.867188 140.828125 128.835938 139.675781 138.792969 C 139.5625 139.820312 141.101562 139.820312 141.214844 138.792969 C 142.367188 128.835938 142.460938 118.867188 141.5 108.886719 C 141.441406 107.863281 139.847656 107.863281 139.960938 108.886719 Z M 139.960938 108.886719 " fill-opacity="1" fill-rule="nonzero"/><path fill="#000000" d="M 177.671875 128.027344 C 177.136719 130.910156 176.945312 133.816406 177.101562 136.742188 C 177.125 139.53125 177.640625 142.226562 178.636719 144.832031 C 179.039062 145.742188 180.40625 144.945312 180.003906 144.035156 C 178.980469 141.699219 178.695312 138.964844 178.636719 136.457031 C 178.519531 133.761719 178.691406 131.085938 179.152344 128.425781 C 179.378906 127.457031 177.839844 127 177.671875 128.027344 Z M 177.671875 128.027344 " fill-opacity="1" fill-rule="nonzero"/><path fill="#000000" d="M 141.15625 128.027344 C 146.757812 131.378906 152.796875 133.46875 159.269531 134.292969 C 165.257812 135.007812 171.242188 134.953125 177.214844 134.121094 C 178.183594 133.953125 178.238281 132.414062 177.214844 132.527344 C 171.492188 133.335938 165.757812 133.433594 160.011719 132.8125 C 153.5625 132.058594 147.542969 130.027344 141.953125 126.71875 C 141.773438 126.605469 141.578125 126.578125 141.375 126.625 C 141.167969 126.675781 141.011719 126.792969 140.902344 126.972656 C 140.789062 127.152344 140.761719 127.347656 140.808594 127.554688 C 140.859375 127.757812 140.976562 127.917969 141.15625 128.027344 Z M 141.15625 128.027344 " fill-opacity="1" fill-rule="nonzero"/><path fill="#000000" d="M 140.1875 139.535156 C 146.453125 143.292969 153.347656 145.058594 160.523438 145.855469 C 166.789062 146.539062 173.453125 146.996094 179.605469 145.285156 C 180.574219 145.003906 180.121094 143.519531 179.152344 143.75 C 173.285156 145.402344 166.902344 145.003906 160.921875 144.320312 C 153.859375 143.578125 147.082031 141.871094 140.984375 138.167969 C 140.132812 137.652344 139.335938 139.019531 140.1875 139.535156 Z M 140.1875 139.535156 " fill-opacity="1" fill-rule="nonzero"/><path fill="#000000" d="M 140.816406 126.601562 C 139.445312 127.160156 138.039062 127.617188 136.601562 127.96875 L 130.105469 129.507812 C 125.605469 130.535156 121.105469 131.445312 116.546875 132.242188 C 107.042969 133.945312 97.777344 136.507812 88.75 139.933594 C 86.320312 140.84375 83.929688 141.871094 81.574219 143.007812 C 79.351562 143.972656 77.261719 145.167969 75.308594 146.597656 C 74.328125 147.386719 73.449219 148.277344 72.667969 149.261719 C 71.886719 150.246094 71.222656 151.304688 70.675781 152.4375 C 70.128906 153.570312 69.714844 154.75 69.429688 155.976562 C 69.144531 157.199219 68.996094 158.441406 68.984375 159.699219 C 68.984375 162.207031 69.667969 164.597656 70.351562 166.988281 C 71.035156 169.382812 71.777344 172.402344 72.574219 175.078125 C 74.054688 180.320312 75.648438 185.558594 77.644531 190.628906 C 81.003906 199.117188 83.28125 208.058594 85.046875 217.003906 C 85.113281 217.167969 85.152344 217.339844 85.160156 217.515625 C 85.332031 218.484375 86.871094 218.085938 86.699219 217.117188 C 85.234375 209.527344 83.277344 202.066406 80.832031 194.730469 C 79.125 189.71875 77.128906 184.820312 75.59375 179.75 C 74.054688 174.679688 72.515625 169.324219 71.148438 164.085938 C 69.78125 158.84375 70.808594 153.71875 74.28125 149.730469 C 75.96875 147.9375 77.925781 146.515625 80.148438 145.457031 C 82.40625 144.265625 84.722656 143.203125 87.097656 142.269531 C 96.214844 138.621094 105.59375 135.886719 115.238281 134.066406 C 119.453125 133.269531 123.613281 132.527344 127.769531 131.617188 C 131.871094 130.832031 135.914062 129.824219 139.902344 128.597656 L 141.554688 127.96875 C 142.46875 127.570312 141.667969 126.203125 140.816406 126.601562 Z M 140.816406 126.601562 " fill-opacity="1" fill-rule="nonzero"/><path fill="#000000" d="M 177.386719 130.019531 C 187.335938 135.671875 197.871094 139.832031 209 142.496094 C 212.074219 143.238281 215.210938 143.75 218.226562 144.488281 C 221.246094 145.230469 223.355469 145.800781 225.578125 147.167969 C 226.585938 147.789062 227.523438 148.507812 228.382812 149.328125 C 229.238281 150.148438 230.003906 151.050781 230.671875 152.03125 C 231.339844 153.015625 231.894531 154.054688 232.34375 155.15625 C 232.789062 156.253906 233.117188 157.390625 233.324219 158.558594 C 233.722656 160.839844 233.496094 163.117188 233.265625 165.394531 C 233.039062 167.671875 232.695312 169.953125 232.355469 172.289062 C 231.558594 177.300781 230.644531 182.3125 229.675781 187.324219 C 227.96875 196.496094 225.917969 205.726562 225.519531 215.066406 C 225.40625 217.574219 225.460938 220.078125 225.234375 222.585938 C 225.0625 224.984375 224.722656 227.359375 224.210938 229.707031 C 223.726562 232.070312 222.984375 234.347656 221.988281 236.542969 L 221.816406 236.828125 C 221.359375 237.679688 222.671875 238.480469 223.183594 237.625 C 223.984375 236.101562 224.59375 234.507812 225.007812 232.839844 C 226.300781 228.21875 226.964844 223.511719 227 218.710938 C 227.058594 214.378906 227.402344 210.070312 228.027344 205.78125 C 228.765625 200.710938 229.675781 195.699219 230.644531 190.6875 C 231.613281 185.675781 232.582031 180.375 233.4375 175.191406 C 234.292969 170.007812 235.089844 165.90625 235.089844 161.238281 C 235.074219 158.882812 234.617188 156.617188 233.722656 154.4375 C 232.824219 152.261719 231.550781 150.332031 229.90625 148.648438 C 228.238281 146.925781 226.300781 145.59375 224.09375 144.660156 C 221.417969 143.464844 218.457031 142.894531 215.609375 142.324219 C 209.738281 141.152344 203.964844 139.617188 198.289062 137.710938 C 192.609375 135.703125 187.082031 133.328125 181.714844 130.589844 L 178.125 128.652344 C 177.945312 128.605469 177.773438 128.617188 177.601562 128.6875 C 177.429688 128.761719 177.300781 128.878906 177.210938 129.042969 C 177.121094 129.207031 177.09375 129.378906 177.128906 129.5625 C 177.160156 129.746094 177.246094 129.898438 177.386719 130.019531 Z M 177.386719 130.019531 " fill-opacity="1" fill-rule="nonzero"/><path fill="#000000" d="M 11.964844 280.519531 C 11.109375 278.808594 11.054688 276.699219 11.109375 274.820312 C 11.238281 272.339844 11.710938 269.929688 12.535156 267.585938 C 13.957031 263.601562 15.496094 259.726562 17.089844 255.851562 C 20.679688 247.136719 24.554688 238.59375 27.914062 229.820312 C 29.507812 225.777344 30.988281 221.730469 32.242188 217.574219 C 33.46875 213.175781 34.949219 208.863281 36.6875 204.644531 C 38.453125 200.710938 40.21875 196.839844 41.640625 192.792969 C 43.066406 188.75 44.320312 184.476562 46.085938 180.492188 C 47.851562 176.503906 50.242188 172.117188 53.320312 168.757812 C 56.394531 165.394531 59.300781 163.515625 63.289062 163.457031 C 63.460938 163.410156 63.601562 163.316406 63.710938 163.171875 C 63.820312 163.03125 63.875 162.867188 63.875 162.6875 C 63.875 162.507812 63.820312 162.347656 63.710938 162.207031 C 63.601562 162.0625 63.460938 161.96875 63.289062 161.921875 C 55.425781 162.035156 50.074219 169.382812 46.710938 175.648438 C 44.691406 179.515625 43 183.519531 41.640625 187.667969 C 40.207031 192.179688 38.539062 196.605469 36.628906 200.941406 C 34.746094 204.949219 33.152344 209.070312 31.84375 213.300781 C 30.535156 217.574219 29.28125 221.84375 27.6875 226.0625 C 24.324219 235.230469 20.335938 244.175781 16.519531 253.175781 C 14.640625 257.730469 12.761719 262.289062 11.109375 266.902344 C 10.167969 269.460938 9.652344 272.097656 9.570312 274.820312 C 9.515625 276.984375 9.628906 279.378906 10.597656 281.316406 C 11.054688 282.226562 12.421875 281.429688 11.964844 280.519531 Z M 11.964844 280.519531 " fill-opacity="1" fill-rule="nonzero"/><path fill="#000000" d="M 234.179688 157.761719 C 237.710938 159.015625 240.046875 162.375 240.898438 165.90625 C 242.039062 170.351562 241.355469 175.078125 240.671875 179.523438 C 239.984375 184.058594 239.035156 188.539062 237.824219 192.964844 C 237.253906 195.1875 236.226562 197.179688 235.316406 199.230469 C 234.59375 201.027344 233.703125 202.738281 232.640625 204.359375 C 231.773438 205.742188 230.671875 206.898438 229.335938 207.832031 C 228.652344 208.289062 227.796875 208.742188 227 208.460938 C 226.203125 208.175781 225.632812 209.597656 226.601562 209.941406 C 228.765625 210.792969 231.101562 208.628906 232.410156 207.148438 C 233.6875 205.714844 234.75 204.140625 235.601562 202.421875 C 236.6875 200.308594 237.65625 198.144531 238.507812 195.925781 C 239.476562 193.59375 239.988281 190.972656 240.558594 188.464844 C 241.128906 185.957031 241.640625 183.28125 242.039062 180.71875 C 242.777344 175.933594 243.578125 170.976562 242.550781 166.191406 C 241.527344 161.40625 238.90625 157.761719 234.578125 156.222656 C 233.664062 155.9375 233.265625 157.421875 234.179688 157.761719 Z M 234.179688 157.761719 " fill-opacity="1" fill-rule="nonzero"/><path fill="#000000" d="M 243.234375 168.242188 C 243.804688 166.933594 245.285156 166.476562 246.597656 166.707031 C 247.90625 166.933594 249.5 168.300781 250.46875 169.554688 C 252.046875 171.566406 253.449219 173.691406 254.683594 175.933594 C 257.460938 180.933594 259.890625 186.101562 261.976562 191.425781 C 266.703125 202.992188 270.40625 214.953125 274.109375 226.859375 C 275.875 232.613281 277.640625 238.363281 279.519531 244.003906 C 279.804688 244.972656 281.34375 244.574219 281 243.605469 C 277.183594 232.097656 273.882812 220.421875 270.007812 208.914062 C 266.132812 197.410156 261.863281 185.105469 255.539062 174.339844 C 254 171.71875 252.292969 168.699219 249.957031 166.707031 C 249.359375 166.144531 248.671875 165.722656 247.902344 165.445312 C 247.128906 165.167969 246.332031 165.058594 245.511719 165.109375 C 244.738281 165.132812 244.023438 165.355469 243.367188 165.773438 C 242.714844 166.191406 242.214844 166.75 241.867188 167.445312 C 241.46875 168.355469 242.835938 169.15625 243.234375 168.242188 Z M 243.234375 168.242188 " fill-opacity="1" fill-rule="nonzero"/><path fill="#000000" d="M 225.0625 226.117188 C 225.867188 230.320312 227.308594 234.289062 229.394531 238.023438 C 229.847656 238.933594 231.214844 238.136719 230.703125 237.28125 C 228.714844 233.648438 227.347656 229.792969 226.601562 225.71875 C 226.429688 224.75 224.894531 225.148438 225.0625 226.117188 Z M 225.0625 226.117188 " fill-opacity="1" fill-rule="nonzero"/><path fill="#000000" d="M 83.054688 319.421875 C 85.445312 318.796875 86.929688 316.519531 88.464844 314.695312 C 90.003906 312.871094 91.941406 310.421875 94.332031 309.054688 C 96.726562 307.6875 99.230469 307.121094 101.796875 306.492188 C 104.359375 305.867188 107.605469 305.125 110.511719 304.269531 C 113.414062 303.417969 116.148438 302.503906 118.882812 301.480469 C 121.617188 300.453125 124.695312 298.632812 127.371094 299.941406 C 130.050781 301.253906 128.398438 304.613281 126.6875 306.152344 C 124.980469 307.6875 122.015625 309.398438 119.511719 310.480469 L 115.296875 312.074219 C 113.984375 312.472656 112.332031 312.703125 111.25 313.613281 C 110.167969 314.523438 109.828125 316.003906 109.371094 317.316406 L 107.664062 322.15625 C 107.320312 323.125 108.859375 323.523438 109.144531 322.554688 L 110.796875 318.054688 C 111.308594 316.632812 111.535156 314.921875 113.132812 314.355469 C 115.921875 313.386719 118.714844 312.589844 121.390625 311.335938 C 124.066406 310.082031 126.460938 308.769531 128.339844 306.722656 C 130.21875 304.671875 131.1875 302.503906 129.933594 300.285156 C 128.683594 298.0625 125.777344 297.664062 123.5 298.234375 C 121.96875 298.660156 120.46875 299.171875 119 299.769531 C 117.460938 300.398438 115.863281 300.910156 114.328125 301.480469 C 111.25 302.449219 108.175781 303.359375 105.097656 304.101562 C 102.023438 304.839844 99.460938 305.296875 96.726562 306.265625 C 93.828125 307.304688 91.378906 308.996094 89.378906 311.335938 C 88.238281 312.589844 87.15625 313.898438 86.015625 315.207031 C 84.878906 316.519531 84.078125 317.542969 82.65625 317.941406 C 82.453125 318 82.296875 318.117188 82.191406 318.300781 C 82.085938 318.484375 82.0625 318.675781 82.117188 318.882812 C 82.171875 319.085938 82.292969 319.242188 82.472656 319.347656 C 82.65625 319.453125 82.851562 319.476562 83.054688 319.421875 Z M 83.054688 319.421875 " fill-opacity="1" fill-rule="nonzero"/><path fill="#000000" d="M 113.300781 303.417969 C 113.929688 303.246094 114.613281 303.816406 115.125 304.214844 C 115.765625 304.78125 116.316406 305.425781 116.777344 306.152344 C 117.6875 307.628906 118.007812 309.222656 117.746094 310.9375 C 117.707031 311.144531 117.738281 311.34375 117.847656 311.527344 C 117.957031 311.710938 118.113281 311.835938 118.316406 311.90625 C 118.417969 311.9375 118.523438 311.953125 118.628906 311.941406 C 118.734375 311.929688 118.835938 311.898438 118.929688 311.84375 C 119.023438 311.789062 119.101562 311.714844 119.160156 311.628906 C 119.222656 311.539062 119.265625 311.441406 119.28125 311.335938 C 119.453125 310.253906 119.425781 309.179688 119.199219 308.109375 C 118.976562 307.039062 118.566406 306.042969 117.972656 305.125 C 117.394531 304.191406 116.65625 303.414062 115.75 302.789062 C 114.898438 302.164062 113.984375 301.652344 112.847656 301.9375 C 111.707031 302.222656 112.332031 303.703125 113.300781 303.417969 Z M 113.300781 303.417969 " fill-opacity="1" fill-rule="nonzero"/><path fill="#000000" d="M 108.515625 321.417969 C 110.167969 323.070312 112.617188 324.09375 114.726562 325.121094 C 116.832031 326.144531 119 327.113281 121.164062 328.023438 L 127.597656 330.589844 C 129.878906 331.5 132.15625 332.523438 134.550781 333.265625 C 136.886719 333.910156 139.261719 334.386719 141.667969 334.691406 C 143.949219 335.03125 146.226562 335.375 148.5625 335.601562 C 153.289062 336.113281 158.074219 336.339844 162.746094 337.253906 L 165.421875 337.707031 C 166.390625 337.878906 167.417969 338.277344 167.816406 339.246094 C 168.953125 341.808594 166.21875 342.664062 164.285156 343.0625 C 160.980469 343.691406 157.503906 343.632812 154.144531 343.632812 C 150.785156 343.632812 147.367188 343.804688 143.949219 343.859375 C 137.625 343.976562 131.1875 343.121094 124.921875 341.980469 C 123.953125 341.753906 123.5 343.292969 124.523438 343.460938 C 130.246094 344.566406 136.015625 345.210938 141.839844 345.398438 C 145.429688 345.457031 149.019531 345.226562 152.550781 345.171875 C 156.164062 345.265625 159.773438 345.132812 163.371094 344.773438 C 165.421875 344.488281 168.554688 344.03125 169.355469 341.753906 C 170.152344 339.476562 168.554688 336.796875 166.050781 336.226562 L 163.144531 335.773438 C 160.921875 335.332031 158.679688 335.011719 156.421875 334.804688 C 151.351562 334.289062 146.285156 333.835938 141.214844 333.039062 C 138.414062 332.675781 135.679688 332.03125 133.011719 331.101562 L 125.09375 327.910156 C 122.472656 326.886719 119.910156 325.859375 117.402344 324.664062 C 116.09375 324.039062 114.839844 323.46875 113.585938 322.785156 C 112.332031 322.101562 110.679688 321.359375 109.597656 320.335938 C 108.515625 319.308594 107.777344 320.734375 108.515625 321.417969 Z M 108.515625 321.417969 " fill-opacity="1" fill-rule="nonzero"/><path fill="#000000" d="M 137.796875 334.121094 C 138.339844 335.730469 138.566406 337.378906 138.480469 339.074219 C 138.421875 340.671875 138.195312 342.4375 137.226562 343.746094 C 136.257812 345.058594 138.023438 345.34375 138.59375 344.542969 C 139.164062 343.746094 139.960938 341.070312 140.015625 339.246094 C 140.148438 337.355469 139.902344 335.511719 139.277344 333.722656 C 138.933594 332.753906 137.453125 333.152344 137.796875 334.121094 Z M 137.796875 334.121094 " fill-opacity="1" fill-rule="nonzero"/><path fill="#000000" d="M 56.453125 301.195312 C 58.445312 297.265625 56.453125 292.480469 54.230469 289.0625 C 52.007812 285.644531 49.273438 283.535156 46.027344 281.65625 C 37.3125 276.757812 26.832031 273.167969 17.089844 276.984375 C 12.761719 278.695312 8.148438 281.941406 8.203125 287.070312 C 8.253906 287.242188 8.347656 287.382812 8.488281 287.492188 C 8.632812 287.601562 8.792969 287.65625 8.972656 287.65625 C 9.152344 287.65625 9.3125 287.601562 9.457031 287.492188 C 9.601562 287.382812 9.695312 287.242188 9.742188 287.070312 C 9.6875 282.910156 13.503906 280.175781 16.976562 278.695312 C 19.246094 277.792969 21.601562 277.234375 24.035156 277.023438 C 26.46875 276.808594 28.882812 276.949219 31.273438 277.441406 C 35.71875 278.296875 39.875 280.175781 43.863281 282.285156 C 46.914062 283.757812 49.554688 285.769531 51.78125 288.320312 C 53.023438 289.882812 54.011719 291.59375 54.742188 293.449219 C 55.597656 295.726562 56.28125 298.121094 55.140625 300.398438 C 54.6875 301.308594 56.054688 302.105469 56.453125 301.195312 Z M 56.453125 301.195312 " fill-opacity="1" fill-rule="nonzero"/><path fill="#000000" d="M 54.972656 292.421875 C 57.078125 290.886719 58.390625 288.664062 59.527344 286.386719 C 60.667969 284.105469 61.523438 282.054688 62.433594 279.890625 C 64.445312 275.257812 66.136719 270.511719 67.503906 265.648438 C 67.539062 265.445312 67.5 265.257812 67.386719 265.085938 C 67.273438 264.910156 67.117188 264.796875 66.917969 264.746094 C 66.71875 264.695312 66.527344 264.71875 66.34375 264.8125 C 66.160156 264.910156 66.035156 265.058594 65.964844 265.25 C 64.6875 269.8125 63.132812 274.273438 61.292969 278.636719 C 60.382812 280.746094 59.472656 282.851562 58.503906 284.902344 C 57.535156 286.953125 56.226562 289.574219 54.175781 291.113281 C 53.375 291.683594 54.117188 293.050781 54.972656 292.421875 Z M 54.972656 292.421875 " fill-opacity="1" fill-rule="nonzero"/><path fill="#000000" d="M 164.113281 344.714844 C 164.570312 344.828125 164.398438 345.570312 164.339844 346.027344 C 164.140625 346.890625 163.703125 347.613281 163.03125 348.191406 C 161.9375 349.117188 160.703125 349.78125 159.328125 350.183594 C 157.558594 350.714844 155.753906 351.074219 153.917969 351.265625 C 148.429688 351.960938 142.921875 352.167969 137.398438 351.894531 C 134.066406 351.808594 130.761719 351.464844 127.484375 350.867188 C 126.515625 350.695312 126.0625 352.175781 127.03125 352.40625 C 133.691406 353.519531 140.394531 353.859375 147.136719 353.429688 C 149.984375 353.257812 152.835938 353.03125 155.683594 352.574219 C 158.003906 352.304688 160.207031 351.640625 162.289062 350.582031 C 163.128906 350.175781 163.851562 349.621094 164.464844 348.917969 C 165.078125 348.214844 165.53125 347.421875 165.820312 346.539062 C 166.164062 345.226562 166.050781 343.691406 164.511719 343.175781 C 162.972656 342.664062 163.144531 344.429688 164.113281 344.714844 Z M 164.113281 344.714844 " fill-opacity="1" fill-rule="nonzero"/><path fill="#000000" d="M 142.46875 345.058594 C 142.953125 346.285156 143.140625 347.558594 143.035156 348.875 C 143.035156 350.242188 142.65625 351.496094 141.898438 352.632812 C 141.816406 352.816406 141.808594 353.007812 141.875 353.195312 C 141.9375 353.386719 142.054688 353.535156 142.230469 353.636719 C 142.402344 353.738281 142.589844 353.769531 142.785156 353.730469 C 142.984375 353.691406 143.140625 353.589844 143.265625 353.429688 C 144.125 352.03125 144.582031 350.515625 144.632812 348.875 C 144.714844 347.273438 144.449219 345.738281 143.835938 344.257812 C 143.785156 344.164062 143.722656 344.082031 143.636719 344.011719 C 143.554688 343.945312 143.460938 343.898438 143.359375 343.871094 C 143.253906 343.84375 143.148438 343.839844 143.042969 343.855469 C 142.9375 343.875 142.839844 343.914062 142.75 343.976562 C 142.566406 344.085938 142.441406 344.246094 142.386719 344.457031 C 142.332031 344.667969 142.359375 344.867188 142.46875 345.058594 Z M 142.46875 345.058594 " fill-opacity="1" fill-rule="nonzero"/><path fill="#000000" d="M 158.019531 352.0625 C 158.703125 353.257812 156.9375 355.308594 156.136719 356.050781 C 155.015625 356.949219 153.761719 357.59375 152.378906 357.988281 C 150.679688 358.4375 148.949219 358.722656 147.195312 358.84375 C 142.363281 359.355469 137.523438 359.527344 132.667969 359.355469 C 130.414062 359.335938 128.171875 359.144531 125.949219 358.785156 C 124.980469 358.613281 124.582031 360.09375 125.550781 360.324219 C 130.390625 361.175781 135.515625 361.0625 140.417969 360.894531 C 142.980469 360.777344 145.601562 360.609375 148.164062 360.324219 C 150.117188 360.164062 152.015625 359.746094 153.859375 359.070312 C 155.625 358.453125 157.105469 357.429688 158.304688 355.992188 C 159.214844 354.742188 160.238281 352.804688 159.328125 351.324219 C 159.226562 351.140625 159.074219 351.023438 158.875 350.964844 C 158.671875 350.910156 158.484375 350.933594 158.300781 351.035156 C 158.121094 351.136719 158 351.289062 157.945312 351.492188 C 157.890625 351.691406 157.914062 351.882812 158.019531 352.0625 Z M 158.019531 352.0625 " fill-opacity="1" fill-rule="nonzero"/><path fill="#000000" d="M 141.554688 353.660156 C 141.789062 355.554688 141.410156 357.320312 140.417969 358.957031 C 140.304688 359.136719 140.277344 359.332031 140.328125 359.535156 C 140.375 359.742188 140.492188 359.898438 140.671875 360.011719 C 140.851562 360.121094 141.046875 360.148438 141.253906 360.101562 C 141.457031 360.050781 141.617188 359.933594 141.726562 359.753906 C 142.320312 358.773438 142.730469 357.71875 142.957031 356.59375 C 143.183594 355.46875 143.207031 354.335938 143.035156 353.203125 C 142.980469 352.992188 142.859375 352.835938 142.664062 352.730469 C 142.472656 352.628906 142.273438 352.617188 142.066406 352.691406 C 141.867188 352.757812 141.71875 352.886719 141.621094 353.070312 C 141.519531 353.257812 141.5 353.453125 141.554688 353.660156 Z M 141.554688 353.660156 " fill-opacity="1" fill-rule="nonzero"/><path fill="#000000" d="M 76.675781 316.347656 C 74.359375 317.921875 72.285156 319.765625 70.453125 321.882812 C 68.617188 323.996094 67.085938 326.308594 65.851562 328.824219 C 63.574219 333.324219 61.410156 339.875 64.371094 344.542969 C 64.492188 344.703125 64.652344 344.804688 64.847656 344.84375 C 65.046875 344.882812 65.230469 344.851562 65.40625 344.75 C 65.578125 344.648438 65.699219 344.5 65.761719 344.3125 C 65.824219 344.121094 65.816406 343.933594 65.738281 343.746094 C 62.945312 339.417969 65.28125 333.152344 67.503906 329.050781 C 69.871094 324.433594 73.195312 320.652344 77.472656 317.714844 C 78.269531 317.144531 77.527344 315.777344 76.675781 316.347656 Z M 76.675781 316.347656 " fill-opacity="1" fill-rule="nonzero"/><g clip-path="url(#cd7631ba14)"><path fill="#000000" d="M 133.867188 360.4375 L 133.867188 361.234375 C 133.863281 361.28125 133.84375 361.316406 133.808594 361.347656 C 133.808594 361.460938 133.808594 361.519531 133.75 361.578125 L 133.75 361.691406 C 133.714844 361.691406 133.695312 361.710938 133.695312 361.746094 L 133.695312 361.632812 L 133.464844 362.03125 C 133.464844 362.089844 133.410156 362.089844 133.410156 362.144531 C 133.410156 362.203125 133.296875 362.261719 133.410156 362.089844 L 133.296875 362.261719 C 133.207031 362.425781 133.074219 362.539062 132.898438 362.601562 C 132.898438 362.660156 132.785156 362.714844 132.953125 362.601562 L 132.839844 362.601562 L 132.667969 362.773438 L 132.15625 363.058594 C 131.96875 363.167969 131.847656 363.328125 131.792969 363.539062 C 131.738281 363.75 131.761719 363.949219 131.871094 364.140625 C 131.992188 364.316406 132.15625 364.429688 132.359375 364.484375 C 132.566406 364.539062 132.761719 364.519531 132.953125 364.425781 C 133.71875 364.03125 134.34375 363.480469 134.832031 362.773438 C 135.296875 362.058594 135.464844 361.28125 135.347656 360.4375 C 135.332031 360.222656 135.253906 360.035156 135.117188 359.867188 C 134.957031 359.71875 134.769531 359.640625 134.550781 359.640625 C 134.207031 359.695312 133.75 360.039062 133.808594 360.4375 Z M 133.867188 360.4375 " fill-opacity="1" fill-rule="nonzero"/></g><path fill="#000000" d="M 158.417969 336.511719 C 159.269531 337.195312 159.269531 338.734375 159.101562 339.644531 C 158.929688 340.558594 158.585938 342.492188 157.621094 343.460938 C 156.652344 344.429688 158.019531 345.285156 158.703125 344.601562 C 159.386719 343.917969 160.410156 341.523438 160.695312 339.816406 C 160.980469 338.109375 160.753906 336.398438 159.554688 335.429688 C 159.398438 335.269531 159.210938 335.191406 158.984375 335.191406 C 158.761719 335.191406 158.574219 335.269531 158.417969 335.429688 C 158.289062 335.585938 158.222656 335.769531 158.222656 335.972656 C 158.222656 336.175781 158.289062 336.355469 158.417969 336.511719 Z M 158.417969 336.511719 " fill-opacity="1" fill-rule="nonzero"/><path fill="#000000" d="M 155.96875 344.828125 C 156.421875 347 156.175781 349.089844 155.226562 351.09375 C 155.132812 351.285156 155.113281 351.484375 155.167969 351.6875 C 155.222656 351.894531 155.335938 352.058594 155.511719 352.175781 C 155.703125 352.257812 155.898438 352.273438 156.101562 352.21875 C 156.304688 352.167969 156.46875 352.058594 156.59375 351.894531 C 157.144531 350.71875 157.496094 349.492188 157.640625 348.203125 C 157.785156 346.917969 157.722656 345.640625 157.449219 344.375 C 157.355469 344.214844 157.222656 344.105469 157.050781 344.039062 C 156.878906 343.972656 156.703125 343.964844 156.527344 344.019531 C 156.351562 344.074219 156.210938 344.175781 156.109375 344.328125 C 156.003906 344.476562 155.957031 344.644531 155.96875 344.828125 Z M 155.96875 344.828125 " fill-opacity="1" fill-rule="nonzero"/><g clip-path="url(#3e0ad8a640)"><path fill="#000000" d="M 83.167969 317.828125 C 82.925781 317.984375 82.660156 318.0625 82.371094 318.054688 C 81.898438 318.042969 81.441406 317.949219 81.003906 317.773438 C 79.085938 316.949219 77.242188 315.980469 75.476562 314.867188 C 71.476562 312.617188 67.660156 310.09375 64.027344 307.289062 C 59.871094 303.871094 55.824219 300.339844 51.667969 296.867188 C 49.046875 294.703125 46.484375 292.480469 43.523438 290.714844 C 40.9375 289.175781 38.242188 287.863281 35.433594 286.785156 C 31.390625 285.335938 27.234375 284.425781 22.957031 284.050781 C 19.371094 283.765625 15.78125 283.765625 12.363281 284.960938 C 6.667969 287.011719 2.109375 291.910156 1.085938 297.949219 C 0.457031 301.480469 0.742188 305.238281 1.199219 308.773438 C 2.167969 316.632812 5.699219 324.890625 11.738281 330.304688 C 15.324219 333.4375 19.65625 335.542969 24.15625 337.023438 C 30.363281 339.074219 36.972656 339.988281 43.40625 341.242188 C 49.84375 342.492188 57.421875 343.859375 64.257812 345.796875 C 75.308594 348.988281 85.730469 353.886719 96.496094 357.875 C 103.277344 360.378906 110.226562 362.714844 117.402344 363.96875 C 120.21875 364.347656 123.050781 364.554688 125.890625 364.59375 C 129.992188 364.710938 134.148438 364.765625 138.25 364.652344 C 142.351562 364.539062 145.769531 364.367188 148.617188 361.917969 C 149.003906 361.671875 149.316406 361.351562 149.554688 360.960938 C 149.792969 360.574219 149.9375 360.152344 149.984375 359.695312 C 150.042969 358.671875 148.449219 358.671875 148.449219 359.695312 L 148.277344 360.09375 C 147.800781 360.699219 147.214844 361.152344 146.511719 361.460938 C 144.960938 362.289062 143.308594 362.761719 141.554688 362.886719 C 137.667969 363.160156 133.773438 363.238281 129.878906 363.113281 C 126.917969 363.058594 123.898438 363 120.933594 362.828125 C 118.796875 362.6875 116.6875 362.34375 114.613281 361.804688 C 111.136719 361.054688 107.722656 360.105469 104.359375 358.957031 C 91.941406 354.910156 80.207031 349.214844 67.789062 345.226562 C 62.109375 343.527344 56.359375 342.140625 50.527344 341.070312 L 34.179688 337.878906 C 28.425781 336.742188 22.617188 335.375 17.488281 332.46875 C 14.089844 330.582031 11.261719 328.058594 9.003906 324.890625 C 6.933594 321.953125 5.316406 318.78125 4.160156 315.378906 C 2.804688 310.84375 2.199219 306.210938 2.335938 301.480469 C 2.453125 296.695312 4.160156 292.367188 7.863281 289.234375 C 14.1875 283.992188 23.527344 285.019531 30.933594 287.011719 C 36.753906 288.535156 42.035156 291.15625 46.769531 294.871094 C 51.382812 298.519531 55.769531 302.390625 60.269531 306.152344 C 63.382812 308.847656 66.667969 311.316406 70.125 313.554688 C 72.402344 314.980469 74.738281 316.289062 77.074219 317.542969 C 78.441406 318.285156 79.863281 319.140625 81.402344 319.480469 C 82.296875 319.742188 83.152344 319.644531 83.964844 319.195312 C 84.820312 318.683594 84.023438 317.371094 83.167969 317.828125 Z M 83.167969 317.828125 " fill-opacity="1" fill-rule="nonzero"/></g><path fill="#000000" d="M 122.585938 299.371094 C 124.296875 295.839844 125.664062 292.136719 127.199219 288.492188 C 129.367188 283.195312 131.585938 277.898438 133.867188 272.65625 C 135.003906 270.152344 136.144531 267.699219 137.339844 265.25 C 138.546875 262.542969 140.007812 259.980469 141.726562 257.5625 C 142.636719 256.367188 143.71875 256.082031 145.144531 256.023438 C 146.566406 255.964844 148.847656 256.082031 150.667969 256.136719 L 157.789062 256.25 L 174.480469 256.59375 L 197.265625 257.050781 L 222.558594 257.5625 L 246.710938 258.015625 L 266.363281 258.414062 L 277.8125 258.644531 C 280.546875 258.699219 283.394531 258.929688 285.617188 260.808594 C 287.835938 262.6875 287.550781 265.992188 286.582031 268.726562 C 285.617188 271.460938 285.046875 272.828125 284.25 274.820312 C 281.570312 281.542969 278.78125 288.152344 275.988281 294.816406 C 272.457031 303.019531 268.925781 311.277344 265.28125 319.421875 C 261.632812 327.570312 258.671875 334.40625 255.140625 341.808594 C 253.886719 344.488281 252.578125 347.222656 251.210938 349.898438 C 250.386719 351.5625 249.476562 353.175781 248.476562 354.742188 L 248.246094 355.082031 C 248.132812 355.308594 248.191406 355.195312 248.132812 355.253906 C 248.078125 355.308594 247.734375 355.59375 247.960938 355.480469 C 248.191406 355.367188 248.191406 355.425781 248.019531 355.425781 L 247.394531 355.425781 C 245.742188 355.59375 244.089844 355.652344 242.4375 355.710938 C 236.058594 355.878906 229.675781 355.9375 223.296875 355.9375 L 198.121094 355.9375 L 174.082031 355.824219 L 156.59375 355.824219 C 155.570312 355.765625 155.570312 357.359375 156.59375 357.359375 L 165.308594 357.359375 L 186.5 357.476562 C 195.101562 357.476562 203.703125 357.53125 212.304688 357.476562 C 219.992188 357.476562 227.683594 357.476562 235.316406 357.359375 L 243.40625 357.132812 C 244.929688 357.125 246.449219 357.027344 247.960938 356.847656 C 248.929688 356.675781 249.386719 356.050781 249.898438 355.253906 C 250.9375 353.59375 251.886719 351.886719 252.746094 350.125 C 255.878906 343.859375 258.84375 337.480469 261.691406 331.101562 C 265.449219 322.859375 269.113281 314.601562 272.683594 306.320312 C 275.988281 298.574219 279.292969 290.886719 282.484375 283.082031 C 284.476562 278.238281 286.582031 273.398438 288.234375 268.5 C 289.316406 265.308594 289.433594 261.71875 286.640625 259.441406 C 285.609375 258.652344 284.480469 258.042969 283.253906 257.613281 C 282.027344 257.1875 280.761719 256.960938 279.464844 256.933594 L 273.597656 256.820312 L 257.589844 256.535156 L 234.976562 256.082031 L 209.570312 255.566406 L 184.847656 255.054688 L 164.570312 254.65625 L 152.492188 254.429688 L 150.613281 254.429688 C 148.390625 254.371094 146.113281 254.144531 143.949219 254.429688 C 143.234375 254.527344 142.570312 254.765625 141.957031 255.144531 C 141.34375 255.519531 140.828125 256.003906 140.417969 256.59375 C 137.054688 261.207031 134.71875 266.734375 132.441406 271.972656 C 130.164062 277.214844 127.941406 282.683594 125.71875 287.980469 C 124.238281 291.511719 122.871094 295.101562 121.21875 298.574219 C 120.820312 299.488281 122.1875 300.285156 122.585938 299.371094 Z M 122.585938 299.371094 " fill-opacity="1" fill-rule="nonzero"/><path fill="#000000" d="M 279.917969 247.59375 C 282.324219 242.363281 285.003906 237.273438 287.949219 232.328125 C 290.683594 227.828125 293.761719 223.613281 296.894531 219.453125 C 299 216.660156 301.222656 213.925781 303.386719 211.195312 C 304.015625 210.394531 302.933594 209.3125 302.304688 210.054688 C 295.355469 218.769531 288.578125 227.542969 283.28125 237.339844 C 281.628906 240.414062 280.089844 243.605469 278.550781 246.796875 C 278.152344 247.707031 279.519531 248.449219 279.917969 247.59375 Z M 279.917969 247.59375 " fill-opacity="1" fill-rule="nonzero"/><path fill="#000000" d="M 262.601562 329.960938 C 271.773438 331.898438 280.714844 329.5625 288.804688 325.175781 C 289.601562 324.722656 290.515625 324.265625 291.3125 323.753906 C 292.398438 323.074219 293.421875 322.316406 294.386719 321.472656 C 295.683594 320.3125 296.859375 319.039062 297.917969 317.65625 C 299.515625 315.652344 300.996094 313.5625 302.363281 311.390625 C 304.300781 308.257812 306.066406 305.070312 307.773438 301.820312 C 310.109375 297.320312 312.332031 292.707031 314.4375 288.09375 C 317.230469 281.941406 319.964844 275.734375 322.585938 269.46875 C 325.945312 261.378906 329.25 253.175781 332.4375 244.972656 C 336.503906 234.566406 340.453125 224.144531 344.289062 213.699219 C 345.3125 210.738281 346.394531 207.832031 347.476562 204.925781 C 347.820312 204.015625 346.28125 203.558594 345.941406 204.527344 C 338.820312 224.179688 331.414062 243.832031 323.496094 263.199219 C 318.710938 274.878906 313.753906 286.5 308.058594 297.777344 C 305.039062 303.816406 301.851562 309.855469 297.863281 315.265625 C 296.757812 316.765625 295.542969 318.171875 294.21875 319.480469 L 292.621094 320.960938 L 292.28125 321.246094 C 292.050781 321.359375 292.335938 321.132812 292.222656 321.246094 L 291.996094 321.417969 L 291.3125 321.929688 C 290.457031 322.5 289.601562 322.957031 288.691406 323.46875 L 287.496094 324.09375 C 282.449219 327.011719 277.019531 328.664062 271.203125 329.050781 C 268.460938 329.234375 265.746094 329.042969 263.058594 328.480469 C 262.03125 328.253906 261.632812 329.734375 262.601562 329.960938 Z M 262.601562 329.960938 " fill-opacity="1" fill-rule="nonzero"/><path fill="#000000" d="M 266.761719 317.03125 C 268.582031 321.074219 270.863281 325.519531 275.304688 327.054688 C 276.273438 327.398438 276.671875 325.917969 275.703125 325.574219 C 271.714844 324.152344 269.722656 319.824219 268.070312 316.234375 C 267.960938 316.0625 267.808594 315.949219 267.613281 315.894531 C 267.417969 315.839844 267.226562 315.859375 267.046875 315.949219 C 266.859375 316.058594 266.738281 316.222656 266.679688 316.429688 C 266.625 316.640625 266.652344 316.84375 266.761719 317.03125 Z M 266.761719 317.03125 " fill-opacity="1" fill-rule="nonzero"/><path fill="#000000" d="M 353.914062 140.101562 C 355.976562 138.203125 357.742188 136.054688 359.210938 133.667969 C 360.351562 131.785156 361.605469 129.621094 361.433594 127.285156 C 361.40625 126.742188 361.304688 126.210938 361.125 125.695312 C 360.941406 125.175781 360.695312 124.699219 360.375 124.253906 C 360.058594 123.808594 359.683594 123.417969 359.253906 123.082031 C 358.820312 122.746094 358.351562 122.476562 357.84375 122.273438 C 355.339844 121.304688 353.6875 123.300781 352.089844 125.007812 C 349.1875 128.085938 346.90625 131.785156 344.402344 135.203125 C 342.796875 137.171875 341.714844 139.394531 341.15625 141.871094 C 340.8125 143.636719 340.871094 146.085938 342.578125 147.167969 C 344.289062 148.25 346.625 146.769531 348.105469 145.628906 C 349.335938 144.625 350.511719 143.5625 351.636719 142.4375 L 353.574219 140.386719 C 353.71875 140.269531 353.851562 140.136719 353.972656 139.988281 C 354.085938 139.820312 354.371094 139.875 353.859375 139.988281 L 353.117188 139.820312 L 352.890625 139.078125 C 352.945312 138.792969 352.890625 139.019531 352.773438 139.136719 C 352.640625 139.359375 352.488281 139.566406 352.320312 139.761719 C 351.863281 140.332031 351.40625 140.957031 350.894531 141.527344 C 350.382812 142.097656 348.957031 143.75 347.992188 144.886719 C 347.023438 146.027344 344.742188 149.386719 344.515625 152.007812 C 344.289062 154.628906 346.167969 156.28125 348.675781 155.9375 C 351.179688 155.597656 353.230469 153.71875 354.882812 152.179688 C 355.929688 151.191406 356.917969 150.144531 357.84375 149.046875 C 359.042969 147.566406 360.238281 146.085938 361.375 144.546875 C 362.515625 143.007812 363.824219 141.355469 364.566406 139.476562 C 365.308594 137.597656 365.476562 135.261719 364.167969 133.496094 C 363.984375 133.261719 363.777344 133.050781 363.550781 132.859375 C 363.320312 132.667969 363.074219 132.5 362.8125 132.359375 C 362.550781 132.21875 362.277344 132.109375 361.992188 132.023438 C 361.707031 131.9375 361.414062 131.886719 361.117188 131.859375 C 360.820312 131.835938 360.523438 131.84375 360.230469 131.878906 C 359.933594 131.917969 359.644531 131.984375 359.363281 132.082031 C 359.082031 132.175781 358.8125 132.300781 358.558594 132.453125 C 358.300781 132.605469 358.066406 132.78125 357.84375 132.984375 C 357.046875 133.609375 358.128906 134.691406 358.925781 134.066406 C 359.101562 133.925781 359.289062 133.804688 359.492188 133.710938 C 359.695312 133.613281 359.90625 133.542969 360.125 133.496094 C 360.347656 133.453125 360.566406 133.429688 360.792969 133.4375 C 361.015625 133.445312 361.234375 133.476562 361.453125 133.535156 C 361.667969 133.59375 361.875 133.675781 362.074219 133.78125 C 362.269531 133.890625 362.453125 134.019531 362.617188 134.167969 C 362.785156 134.320312 362.933594 134.484375 363.058594 134.671875 C 363.1875 134.855469 363.289062 135.050781 363.371094 135.261719 C 364.109375 136.96875 363.3125 138.851562 362.402344 140.386719 C 360.609375 143.113281 358.65625 145.714844 356.535156 148.191406 C 355.792969 148.988281 355.109375 149.84375 354.3125 150.585938 C 353.515625 151.324219 350.894531 153.832031 348.84375 154.34375 C 347.707031 154.628906 346.339844 154.289062 346.109375 152.976562 C 345.882812 151.667969 346.507812 150.1875 347.023438 149.105469 C 347.535156 148.019531 349.074219 146.085938 350.269531 144.71875 L 352.832031 141.640625 C 353.289062 141.015625 354.199219 140.21875 354.371094 139.476562 C 354.480469 139.1875 354.425781 138.933594 354.214844 138.707031 C 354.003906 138.484375 353.753906 138.417969 353.457031 138.507812 C 353.003906 138.621094 352.660156 139.136719 352.375 139.417969 C 350.636719 141.332031 348.753906 143.097656 346.738281 144.71875 C 345.769531 145.402344 343.890625 146.824219 342.976562 145.34375 C 342.066406 143.863281 342.808594 141.128906 343.605469 139.476562 C 344.402344 137.824219 346.054688 135.601562 347.363281 133.78125 L 350.554688 129.28125 C 351.671875 127.828125 352.867188 126.441406 354.140625 125.121094 C 354.996094 124.152344 355.90625 123.242188 357.332031 123.699219 C 357.96875 123.972656 358.503906 124.375 358.945312 124.90625 C 359.390625 125.4375 359.6875 126.042969 359.839844 126.71875 C 360.238281 128.824219 359.097656 130.875 358.015625 132.640625 C 356.601562 135.007812 354.875 137.113281 352.832031 138.964844 C 352.089844 139.648438 353.175781 140.785156 353.914062 140.101562 Z M 353.914062 140.101562 " fill-opacity="1" fill-rule="nonzero"/><path fill="#000000" d="M 351.179688 144.089844 C 351.476562 143.890625 351.804688 143.777344 352.160156 143.757812 C 352.519531 143.738281 352.855469 143.808594 353.175781 143.976562 C 353.820312 144.296875 354.425781 144.675781 354.996094 145.117188 C 355.480469 145.550781 355.800781 146.082031 355.964844 146.710938 C 356.1875 147.359375 356.261719 148.023438 356.191406 148.703125 C 356.191406 148.914062 356.261719 149.097656 356.40625 149.25 C 356.546875 149.402344 356.722656 149.488281 356.933594 149.503906 C 357.148438 149.488281 357.332031 149.40625 357.484375 149.253906 C 357.632812 149.101562 357.71875 148.917969 357.730469 148.703125 C 357.84375 147.777344 357.726562 146.878906 357.382812 146.007812 C 357.039062 145.140625 356.511719 144.40625 355.792969 143.804688 C 355.070312 143.207031 354.273438 142.734375 353.402344 142.382812 C 352.894531 142.203125 352.375 142.148438 351.84375 142.21875 C 351.3125 142.289062 350.824219 142.476562 350.382812 142.78125 C 350.207031 142.902344 350.09375 143.0625 350.039062 143.269531 C 349.984375 143.472656 350.003906 143.671875 350.097656 143.863281 C 350.21875 144.039062 350.382812 144.152344 350.59375 144.195312 C 350.804688 144.238281 351 144.203125 351.179688 144.089844 Z M 351.179688 144.089844 " fill-opacity="1" fill-rule="nonzero"/><path fill="#000000" d="M 351.066406 153.605469 C 349.871094 155.253906 348.617188 156.851562 348.21875 158.84375 C 347.820312 160.839844 348.273438 162.546875 349.871094 163.289062 C 351.464844 164.027344 353.800781 162.773438 355.28125 161.578125 C 356.761719 160.382812 359.097656 157.933594 361.035156 156.109375 C 363.496094 153.859375 365.8125 151.464844 367.984375 148.933594 L 368.441406 148.363281 L 368.554688 148.25 C 368.90625 147.875 369.230469 147.476562 369.523438 147.054688 C 369.972656 146.363281 370.289062 145.617188 370.464844 144.8125 C 370.640625 144.007812 370.667969 143.195312 370.546875 142.382812 C 370.480469 141.945312 370.351562 141.523438 370.164062 141.125 C 369.972656 140.722656 369.734375 140.355469 369.441406 140.023438 C 369.148438 139.6875 368.816406 139.402344 368.441406 139.164062 C 368.070312 138.929688 367.667969 138.746094 367.242188 138.621094 C 366.105469 138.28125 364.507812 138.28125 363.484375 139.019531 C 362.457031 139.761719 363.484375 141.015625 364.28125 140.386719 C 365.03125 139.941406 365.828125 139.828125 366.675781 140.046875 C 366.988281 140.128906 367.285156 140.257812 367.5625 140.429688 C 367.835938 140.605469 368.078125 140.816406 368.289062 141.066406 C 368.5 141.316406 368.664062 141.59375 368.789062 141.898438 C 368.910156 142.199219 368.984375 142.511719 369.007812 142.835938 C 369.351562 144.773438 368.15625 146.371094 367.015625 147.738281 C 365.621094 149.394531 364.140625 150.972656 362.574219 152.464844 L 357.957031 156.90625 C 356.421875 158.332031 354.941406 159.984375 353.230469 161.179688 C 352.433594 161.75 351.179688 162.433594 350.269531 161.691406 C 349.355469 160.953125 349.585938 160.039062 349.699219 159.242188 C 350.097656 157.363281 351.351562 155.882812 352.433594 154.402344 C 353.515625 152.921875 351.691406 152.804688 351.066406 153.605469 Z M 351.066406 153.605469 " fill-opacity="1" fill-rule="nonzero"/><path fill="#000000" d="M 361.207031 156.222656 C 362.457031 156.679688 363.824219 157.304688 364.453125 158.558594 C 364.507812 158.671875 364.453125 158.558594 364.453125 158.617188 L 364.566406 158.789062 L 364.738281 159.300781 L 364.910156 160.324219 C 364.910156 160.496094 364.964844 160.839844 364.964844 161.121094 L 364.964844 161.578125 C 364.910156 161.804688 364.964844 161.40625 364.910156 161.636719 L 364.910156 161.863281 C 364.679688 162.832031 366.160156 163.230469 366.390625 162.261719 C 366.550781 161.507812 366.570312 160.746094 366.445312 159.984375 C 366.332031 159.214844 366.125 158.476562 365.820312 157.761719 C 365.023438 156.109375 363.199219 155.3125 361.605469 154.6875 C 361.5 154.648438 361.390625 154.632812 361.277344 154.640625 C 361.167969 154.648438 361.0625 154.679688 360.964844 154.734375 C 360.863281 154.785156 360.78125 154.855469 360.710938 154.941406 C 360.640625 155.03125 360.59375 155.128906 360.566406 155.238281 C 360.539062 155.34375 360.53125 155.453125 360.550781 155.566406 C 360.566406 155.675781 360.609375 155.777344 360.667969 155.871094 C 360.730469 155.964844 360.804688 156.042969 360.898438 156.105469 C 360.992188 156.164062 361.09375 156.207031 361.207031 156.222656 Z M 361.207031 156.222656 " fill-opacity="1" fill-rule="nonzero"/><path fill="#000000" d="M 372.257812 153.886719 C 371.34375 160.15625 369.351562 166.875 365.363281 171.832031 C 364.738281 172.628906 365.820312 173.710938 366.445312 172.914062 C 370.605469 167.730469 372.828125 160.839844 373.738281 154.34375 C 373.910156 153.320312 372.371094 152.921875 372.257812 153.886719 Z M 372.257812 153.886719 " fill-opacity="1" fill-rule="nonzero"/><path fill="#000000" d="M 362.515625 164.539062 C 363.425781 169.097656 364.507812 173.65625 365.59375 178.269531 C 366.675781 182.882812 367.8125 187.496094 368.441406 192.226562 C 368.554688 193.25 368.78125 194.445312 368.269531 195.414062 C 367.757812 196.382812 365.933594 197.523438 364.625 198.035156 C 361.71875 199.117188 358.640625 199.628906 355.625 200.257812 L 336.085938 203.789062 L 312.445312 207.890625 L 295.867188 210.738281 L 294.21875 211.023438 L 293.648438 211.023438 C 291.480469 211.980469 289.242188 212.210938 286.925781 211.707031 C 281.742188 210.453125 280.660156 204.699219 279.519531 200.257812 C 278.210938 194.902344 277.015625 189.546875 275.816406 184.136719 L 271.203125 162.433594 C 269.609375 154.742188 268.015625 147.109375 266.476562 139.417969 C 265.050781 132.640625 263.683594 125.863281 262.316406 119.027344 C 261.40625 114.582031 260.550781 110.082031 259.640625 105.640625 C 259.46875 104.671875 259.296875 103.703125 259.070312 102.734375 C 258.84375 101.765625 259.015625 102.792969 259.015625 102.566406 C 258.960938 101.742188 259.015625 100.925781 259.183594 100.117188 C 259.496094 98.765625 260.199219 97.664062 261.292969 96.8125 C 262.886719 95.730469 264.765625 95.558594 266.589844 95.558594 C 268.414062 95.558594 270.632812 95.160156 272.628906 94.929688 C 279.464844 93.964844 286.300781 92.765625 293.078125 91.515625 L 316.320312 87.070312 C 321.671875 85.988281 327.027344 84.90625 332.382812 83.710938 L 334.035156 83.367188 L 334.433594 83.253906 L 334.660156 83.140625 L 334.207031 83.253906 C 334.148438 83.253906 334.089844 83.140625 334.261719 83.253906 C 334.433594 83.367188 335.914062 84.449219 336.710938 85.078125 L 340.585938 88.4375 C 343.148438 90.714844 345.710938 92.996094 348.21875 95.386719 L 349.242188 96.355469 L 349.527344 96.640625 C 349.414062 96.414062 349.527344 96.582031 349.527344 96.699219 C 349.59375 96.84375 349.628906 96.996094 349.640625 97.152344 C 349.765625 97.582031 349.859375 98.019531 349.925781 98.464844 C 351.351562 105.015625 352.492188 111.621094 353.6875 118.230469 L 354.542969 123.070312 C 354.710938 124.039062 356.25 123.640625 356.078125 122.671875 C 355.109375 117.261719 354.085938 111.90625 353.117188 106.496094 C 352.546875 103.476562 351.976562 100.457031 351.351562 97.496094 C 351.261719 96.847656 351.054688 96.238281 350.722656 95.671875 C 350.230469 95.0625 349.679688 94.515625 349.074219 94.019531 C 346.507812 91.628906 343.832031 89.234375 341.15625 86.898438 C 339.902344 85.761719 338.589844 84.621094 337.28125 83.597656 C 336.558594 82.90625 335.761719 82.316406 334.890625 81.828125 C 334.710938 81.738281 334.519531 81.679688 334.320312 81.660156 L 333.976562 81.773438 L 333.75 81.773438 L 332.097656 82.113281 L 325.605469 83.710938 C 318.484375 85.191406 311.363281 86.558594 304.242188 87.925781 C 297.121094 89.292969 288.578125 90.886719 280.773438 92.199219 C 275.761719 93.050781 270.75 93.90625 265.679688 94.078125 C 261.976562 94.246094 258.613281 96.015625 257.703125 99.773438 C 257.417969 100.921875 257.359375 102.078125 257.53125 103.25 C 258.046875 106.039062 258.671875 108.832031 259.242188 111.621094 C 260.378906 117.546875 261.578125 123.46875 262.773438 129.394531 C 264.3125 136.96875 265.847656 144.488281 267.445312 152.066406 C 269.039062 159.640625 270.632812 167.617188 272.285156 175.363281 C 273.710938 181.855469 275.132812 188.351562 276.617188 194.84375 C 277.46875 198.605469 278.265625 202.421875 279.464844 206.066406 C 280.660156 209.710938 283.222656 212.789062 287.097656 213.472656 C 289.511719 213.855469 291.847656 213.570312 294.101562 212.617188 C 294.671875 212.445312 294.101562 212.617188 294.273438 212.617188 L 294.671875 212.503906 L 296.496094 212.21875 L 303.445312 211.023438 L 325.660156 207.207031 L 348.902344 203.046875 L 357.046875 201.566406 C 360.464844 200.882812 363.996094 200.3125 367.074219 198.605469 C 368.269531 197.921875 369.410156 197.007812 369.863281 195.640625 C 370.320312 194.273438 370.09375 193.136719 369.921875 191.882812 C 369.292969 187.097656 368.15625 182.371094 367.074219 177.699219 C 365.992188 173.027344 364.910156 168.640625 363.996094 164.140625 C 363.824219 163.117188 362.289062 163.570312 362.515625 164.539062 Z M 362.515625 164.539062 " fill-opacity="1" fill-rule="nonzero"/><path fill="#000000" d="M 86.8125 314.011719 C 80.433594 298.0625 74.242188 282.019531 68.242188 265.878906 C 65.453125 258.472656 62.890625 250.953125 60.042969 243.546875 C 60.097656 243.832031 59.984375 243.546875 59.984375 243.433594 L 59.757812 242.921875 C 59.589844 242.398438 59.457031 241.867188 59.359375 241.328125 C 59.070312 239.964844 59.125 238.617188 59.527344 237.28125 C 60.839844 233.464844 65.453125 233.238281 68.8125 233.296875 C 70.976562 233.351562 73.144531 233.464844 75.25 233.410156 C 77.359375 233.351562 76.960938 231.929688 77.015625 230.675781 C 77.074219 229.421875 77.074219 226.515625 77.1875 224.464844 C 77.242188 223.328125 77.128906 220.761719 78.210938 220.023438 C 78.210938 219.964844 78.609375 219.910156 78.839844 219.851562 L 80.035156 219.679688 L 84.078125 219.394531 C 93.023438 218.828125 102.023438 218.65625 110.964844 218.597656 C 115.179688 218.597656 119.398438 218.597656 123.667969 218.710938 C 126.746094 218.828125 130.050781 218.65625 132.785156 220.078125 C 137.453125 222.585938 140.246094 227.3125 144.347656 230.5625 C 145.523438 231.546875 146.871094 232.15625 148.390625 232.382812 L 150.953125 232.613281 C 158.304688 233.125 165.707031 233.179688 173.054688 233.351562 C 182.171875 233.523438 191.285156 233.636719 200.457031 233.695312 L 210.480469 233.695312 C 212.816406 233.75 215.210938 233.578125 217.488281 233.863281 C 218.34375 233.980469 219.425781 234.148438 220.050781 234.832031 C 220.675781 235.515625 220.621094 236.371094 220.621094 237.167969 C 220.621094 237.964844 222.214844 238.136719 222.160156 237.167969 C 222.160156 235.175781 221.589844 233.464844 219.59375 232.726562 C 217.601562 231.984375 216.121094 232.15625 214.410156 232.15625 L 207.234375 232.15625 L 181.257812 231.871094 C 172.65625 231.699219 164.054688 231.585938 155.511719 231.246094 C 153.175781 231.128906 150.839844 231.128906 148.503906 230.789062 C 148.390625 230.789062 148.675781 230.847656 148.449219 230.789062 L 148.277344 230.789062 L 147.367188 230.503906 C 146.378906 230.109375 145.507812 229.539062 144.746094 228.796875 C 142.75 227.085938 141.042969 225.035156 139.164062 223.210938 C 137.285156 221.390625 135.289062 219.453125 132.839844 218.371094 C 131.308594 217.722656 129.714844 217.363281 128.054688 217.289062 C 124.523438 217.0625 120.992188 217.003906 117.460938 217.003906 C 107.964844 216.929688 98.453125 217.097656 88.921875 217.515625 C 85.789062 217.628906 82.65625 217.746094 79.523438 218.144531 C 78.726562 218.199219 77.8125 218.257812 77.1875 218.769531 C 76.558594 219.28125 75.820312 221.960938 75.707031 223.441406 C 75.59375 224.921875 75.59375 227.769531 75.535156 229.933594 C 75.476562 230.332031 75.476562 230.730469 75.421875 231.074219 C 75.363281 231.414062 75.25 231.699219 75.25 231.929688 C 75.25 232.15625 75.308594 231.984375 75.25 231.929688 C 75.195312 231.871094 75.535156 231.757812 75.59375 231.8125 C 75.648438 231.871094 75.421875 231.8125 75.363281 231.8125 C 74.925781 231.757812 74.492188 231.757812 74.054688 231.8125 C 70.011719 231.699219 65.394531 230.960938 61.578125 232.839844 C 57.761719 234.71875 57.25 237.851562 57.820312 241.328125 C 57.953125 242.25 58.199219 243.144531 58.558594 244.003906 C 59.757812 247.136719 60.839844 250.269531 61.976562 253.402344 C 68.015625 269.882812 74.226562 286.269531 80.605469 302.5625 L 85.277344 314.410156 C 85.675781 315.320312 87.15625 314.921875 86.8125 313.957031 Z M 86.8125 314.011719 " fill-opacity="1" fill-rule="nonzero"/><path fill="#000000" d="M 92.453125 309.511719 C 89.433594 296.238281 86.015625 283.023438 82.597656 269.808594 C 81.34375 264.964844 80.09375 260.125 78.78125 255.28125 C 78.210938 252.949219 77.1875 250.382812 77.871094 247.992188 C 77.9375 247.699219 78.046875 247.429688 78.203125 247.175781 C 78.363281 246.921875 78.558594 246.703125 78.792969 246.515625 C 79.023438 246.328125 79.28125 246.1875 79.5625 246.085938 C 79.84375 245.988281 80.136719 245.941406 80.433594 245.941406 L 84.421875 245.941406 L 91.542969 245.714844 C 92.511719 245.714844 92.511719 244.117188 91.542969 244.175781 L 85.105469 244.347656 L 81.175781 244.460938 C 79.976562 244.460938 78.78125 244.574219 77.8125 245.371094 C 75.308594 247.363281 76.105469 251.179688 76.789062 253.859375 C 79.695312 264.910156 82.597656 275.960938 85.390625 287.011719 C 87.328125 294.644531 89.207031 302.277344 90.914062 309.96875 C 91.144531 310.9375 92.679688 310.539062 92.453125 309.570312 Z M 92.453125 309.511719 " fill-opacity="1" fill-rule="nonzero"/><path fill="#000000" d="M 96.15625 307.289062 C 94.902344 296.125 94.332031 284.847656 93.707031 273.683594 C 93.363281 266.847656 93.023438 260.066406 92.796875 253.230469 C 92.679688 250.441406 92.566406 247.648438 92.511719 244.859375 C 92.511719 244.175781 92.453125 243.546875 92.511719 242.921875 C 92.566406 242.296875 92.511719 242.980469 92.566406 242.636719 C 92.707031 241.875 92.992188 241.175781 93.421875 240.53125 C 94.847656 238.59375 97.179688 238.707031 99.289062 238.707031 L 255.425781 238.707031 C 257.132812 238.707031 258.785156 238.535156 260.4375 238.820312 C 263.113281 239.332031 265.449219 240.644531 266.53125 243.148438 C 266.929688 244.117188 268.242188 243.320312 267.898438 242.410156 C 265.90625 237.796875 260.550781 236.769531 256.050781 237.113281 L 97.75 237.113281 C 95.472656 237.113281 93.308594 237.910156 91.996094 239.902344 C 90.6875 241.898438 90.972656 242.695312 90.972656 244.347656 C 91.085938 250.554688 91.3125 256.707031 91.597656 262.859375 C 92.226562 275.789062 92.964844 288.71875 94.046875 301.652344 C 94.21875 303.53125 94.390625 305.410156 94.617188 307.289062 C 94.730469 308.257812 96.269531 308.257812 96.15625 307.289062 Z M 96.15625 307.289062 " fill-opacity="1" fill-rule="nonzero"/><path fill="#000000" d="M 103.675781 305.410156 C 107.664062 290.257812 111.082031 274.933594 115.808594 259.953125 C 116.949219 256.195312 118.199219 252.492188 119.625 248.847656 C 119.910156 248.105469 120.136719 247.308594 120.480469 246.566406 C 120.820312 245.828125 120.421875 246.738281 120.535156 246.511719 C 120.757812 246.101562 121.042969 245.738281 121.390625 245.429688 C 123.5 243.546875 126.574219 243.546875 129.195312 243.546875 L 271.832031 243.546875 C 272.894531 243.535156 273.917969 243.722656 274.90625 244.117188 C 276.058594 244.507812 276.972656 245.210938 277.640625 246.226562 C 278.4375 247.535156 278.265625 249.132812 278.265625 250.554688 C 278.265625 253.003906 278.265625 255.398438 278.210938 257.789062 C 278.210938 258.757812 279.804688 258.757812 279.804688 257.789062 L 279.804688 250.042969 C 279.804688 248.5625 279.863281 247.195312 279.234375 245.828125 C 278.671875 244.746094 277.851562 243.910156 276.785156 243.320312 C 275.078125 242.238281 273.140625 242.011719 271.203125 242.011719 L 130.617188 242.011719 C 129.136719 242.011719 127.65625 241.953125 126.175781 242.066406 C 124.695312 242.179688 121.789062 242.921875 120.195312 244.460938 C 118.597656 245.996094 118.769531 246.625 118.316406 247.933594 C 112.617188 262.859375 108.914062 278.410156 105.042969 293.847656 C 104.074219 297.550781 103.164062 301.308594 102.136719 305.011719 C 102.101562 305.214844 102.140625 305.40625 102.253906 305.578125 C 102.367188 305.75 102.523438 305.863281 102.722656 305.914062 C 102.921875 305.96875 103.113281 305.945312 103.296875 305.847656 C 103.480469 305.75 103.605469 305.605469 103.675781 305.410156 Z M 103.675781 305.410156 " fill-opacity="1" fill-rule="nonzero"/><path fill="#000000" d="M 350.324219 96.414062 L 341.382812 99.773438 C 340.1875 100.230469 338.933594 100.683594 337.679688 101.027344 C 337.449219 101.15625 337.203125 101.230469 336.9375 101.253906 C 336.539062 101.3125 336.539062 101.253906 336.425781 100.914062 C 336.140625 100.082031 335.96875 99.226562 335.914062 98.347656 C 335.742188 96.867188 335.628906 95.332031 335.570312 93.847656 L 334.773438 82.914062 C 334.71875 81.886719 333.121094 81.886719 333.238281 82.914062 L 333.976562 93.28125 C 334.089844 95.046875 334.148438 96.8125 334.375 98.519531 C 334.605469 100.230469 334.546875 101.652344 335.515625 102.449219 C 336.484375 103.25 338.875 102.335938 340.1875 101.882812 L 345.824219 99.773438 L 350.722656 97.894531 C 351.636719 97.550781 351.238281 96.015625 350.324219 96.414062 Z M 350.324219 96.414062 " fill-opacity="1" fill-rule="nonzero"/><path fill="#000000" d="M 275.53125 120.851562 C 292.109375 117.433594 308.742188 114.128906 325.433594 111.109375 C 330.105469 110.199219 334.832031 109.398438 339.503906 108.546875 C 340.527344 108.375 340.074219 106.894531 339.105469 107.066406 C 322.355469 109.96875 305.667969 113.160156 289.035156 116.519531 L 275.132812 119.367188 C 274.164062 119.597656 274.566406 121.078125 275.53125 120.851562 Z M 275.53125 120.851562 " fill-opacity="1" fill-rule="nonzero"/><path fill="#000000" d="M 277.8125 132.46875 C 294.367188 128.976562 310.984375 125.710938 327.65625 122.671875 L 341.78125 120.167969 C 342.75 119.996094 342.351562 118.457031 341.382812 118.628906 C 324.636719 121.589844 307.945312 124.761719 291.3125 128.140625 L 277.414062 130.988281 C 276.386719 131.160156 276.84375 132.699219 277.8125 132.46875 Z M 277.8125 132.46875 " fill-opacity="1" fill-rule="nonzero"/><path fill="#000000" d="M 280.089844 144.089844 C 296.648438 140.636719 313.261719 137.371094 329.933594 134.292969 L 344.058594 131.785156 C 345.027344 131.558594 344.628906 130.078125 343.605469 130.25 C 326.894531 133.210938 310.203125 136.363281 293.535156 139.703125 L 279.632812 142.609375 C 278.664062 142.78125 279.121094 144.320312 280.089844 144.089844 Z M 280.089844 144.089844 " fill-opacity="1" fill-rule="nonzero"/><path fill="#000000" d="M 282.367188 155.710938 C 294.558594 153.148438 306.804688 150.984375 319.109375 148.933594 L 331.414062 146.769531 C 332.382812 146.597656 331.984375 145.117188 331.015625 145.285156 C 318.652344 147.453125 306.292969 149.386719 293.988281 151.78125 C 289.945312 152.519531 285.957031 153.375 281.914062 154.171875 C 280.945312 154.402344 281.34375 155.882812 282.367188 155.710938 Z M 282.367188 155.710938 " fill-opacity="1" fill-rule="nonzero"/><path fill="#000000" d="M 284.589844 167.332031 C 298.414062 164.40625 312.273438 161.730469 326.171875 159.300781 L 339.105469 156.964844 C 340.128906 156.792969 339.671875 155.3125 338.707031 155.484375 C 324.75 157.933594 310.792969 160.4375 296.953125 163.171875 L 284.191406 165.792969 C 283.222656 166.023438 283.621094 167.503906 284.589844 167.332031 Z M 284.589844 167.332031 " fill-opacity="1" fill-rule="nonzero"/><path fill="#000000" d="M 286.867188 178.894531 C 303.464844 175.402344 320.078125 172.136719 336.710938 169.097656 L 350.839844 166.589844 C 351.808594 166.421875 351.40625 164.882812 350.441406 165.109375 C 333.691406 168.015625 317.003906 171.207031 300.367188 174.566406 L 286.46875 177.414062 C 285.5 177.640625 285.898438 179.125 286.867188 178.894531 Z M 286.867188 178.894531 " fill-opacity="1" fill-rule="nonzero"/><path fill="#000000" d="M 289.148438 190.515625 C 300.085938 188.238281 310.90625 185.21875 321.84375 182.941406 L 333.578125 180.71875 C 334.546875 180.546875 334.148438 179.066406 333.179688 179.238281 C 326.972656 180.320312 320.761719 181.515625 314.667969 182.996094 C 309.824219 184.078125 305.039062 185.332031 300.199219 186.472656 L 288.75 189.035156 C 287.722656 189.207031 288.179688 190.742188 289.148438 190.515625 Z M 289.148438 190.515625 " fill-opacity="1" fill-rule="nonzero"/><path fill="#000000" d="M 70.464844 165.507812 C 70.464844 165.507812 74.054688 183.054688 75.992188 189.320312 C 76.902344 192.339844 80.035156 201.109375 81.175781 205.78125 C 82.3125 210.453125 81.402344 213.472656 81.402344 213.472656 L 85.332031 213.242188 C 85.332031 213.242188 71.09375 171.945312 70.464844 165.507812 Z M 70.464844 165.507812 " fill-opacity="1" fill-rule="nonzero"/><path fill="#000000" d="M 34.179688 277.441406 C 34.179688 277.441406 41.757812 276.871094 48.308594 281.542969 C 54.859375 286.214844 56.964844 289.859375 56.964844 289.859375 L 53.832031 291.96875 C 53.832031 291.96875 51.894531 283.535156 34.179688 277.441406 Z M 34.179688 277.441406 " fill-opacity="1" fill-rule="nonzero"/><path fill="#000000" d="M 227 211.476562 C 227 211.476562 223.527344 228.625 235.828125 238.023438 L 230.019531 237.679688 L 225.691406 226.800781 Z M 227 211.476562 " fill-opacity="1" fill-rule="nonzero"/><path fill="#000000" d="M 146.796875 107.976562 C 146.796875 107.976562 154.316406 125.519531 161.550781 128.597656 C 174.421875 134.121094 177.898438 131.386719 177.898438 131.386719 L 179.039062 127.171875 C 179.039062 127.171875 173.738281 127.230469 165.253906 123.925781 C 156.765625 120.621094 150.839844 112.132812 149.757812 109.800781 L 148.617188 107.464844 Z M 146.796875 107.976562 " fill-opacity="1" fill-rule="nonzero"/><path fill="#000000" d="M 304.070312 209.484375 L 299.171875 215.578125 C 307.777344 214.902344 316.324219 213.761719 324.804688 212.160156 C 337.054688 209.710938 345.484375 208.230469 345.484375 208.230469 L 348.445312 202.191406 Z M 304.070312 209.484375 " fill-opacity="1" fill-rule="nonzero"/><path fill="#000000" d="M 142.808594 24.808594 C 144.917969 25.492188 146.738281 27.089844 148.277344 28.625 C 150.46875 30.828125 152.421875 33.21875 154.144531 35.804688 C 158.164062 41.648438 161.410156 47.898438 163.886719 54.542969 C 165.191406 57.851562 166.179688 61.25 166.847656 64.742188 C 167.019531 65.710938 168.5 65.3125 168.328125 64.285156 C 167.1875 57.507812 164.398438 50.957031 161.320312 44.859375 C 158.246094 38.765625 154.542969 32.785156 149.816406 27.941406 C 147.933594 26.007812 145.769531 24.125 143.207031 23.328125 C 142.238281 22.988281 141.839844 24.523438 142.808594 24.808594 Z M 142.808594 24.808594 " fill-opacity="1" fill-rule="nonzero"/><path fill="#000000" d="M 176.757812 17.289062 C 179.570312 18.882812 182.019531 20.917969 184.105469 23.386719 C 186.3125 26.058594 188.230469 28.925781 189.859375 31.988281 C 193.050781 37.804688 195.253906 43.976562 196.46875 50.5 C 197.066406 53.890625 197.347656 57.308594 197.324219 60.753906 C 197.371094 60.925781 197.464844 61.066406 197.609375 61.175781 C 197.75 61.285156 197.910156 61.339844 198.089844 61.339844 C 198.269531 61.339844 198.433594 61.285156 198.574219 61.175781 C 198.71875 61.066406 198.8125 60.925781 198.859375 60.753906 C 199.03125 47.425781 194.246094 33.808594 186.042969 23.328125 C 183.675781 20.304688 180.828125 17.839844 177.5 15.921875 C 177.320312 15.875 177.144531 15.886719 176.972656 15.957031 C 176.800781 16.03125 176.671875 16.148438 176.585938 16.3125 C 176.496094 16.476562 176.46875 16.648438 176.5 16.832031 C 176.53125 17.015625 176.621094 17.167969 176.757812 17.289062 Z M 176.757812 17.289062 " fill-opacity="1" fill-rule="nonzero"/><path fill="#000000" d="M 70.125 156.054688 C 68.871094 154.914062 66.875 155.710938 65.738281 156.621094 C 63.6875 158.105469 62.890625 160.496094 62.605469 162.945312 C 62.035156 167.789062 62.605469 172.855469 63.402344 177.640625 C 65.054688 187.667969 68.414062 197.578125 74.054688 206.066406 C 75.761719 208.574219 77.527344 211.195312 79.863281 213.1875 C 82.199219 215.179688 83.339844 215.464844 85.332031 214.554688 C 86.1875 214.097656 85.445312 212.789062 84.535156 213.1875 C 83.625 213.585938 81.289062 212.445312 80.261719 211.421875 C 78.519531 209.628906 76.980469 207.671875 75.648438 205.554688 C 73.128906 201.882812 71.058594 197.96875 69.441406 193.820312 C 66.25 185.675781 64.199219 176.84375 64.027344 168.074219 C 63.972656 165.566406 63.859375 162.832031 64.769531 160.4375 C 65.183594 159.214844 65.945312 158.265625 67.046875 157.589844 C 67.390625 157.363281 68.585938 156.738281 69.042969 157.191406 C 69.496094 157.648438 70.863281 156.738281 70.125 156.054688 Z M 70.125 156.054688 " fill-opacity="1" fill-rule="nonzero"/><path fill="#000000" d="M 81.859375 214.894531 L 81.859375 215.125 C 81.859375 215.292969 81.914062 214.953125 81.859375 215.066406 C 81.800781 215.179688 81.800781 215.410156 81.800781 215.523438 L 81.460938 216.605469 C 81.289062 217.230469 81.0625 217.800781 80.832031 218.429688 C 80.792969 218.636719 80.828125 218.835938 80.9375 219.019531 C 81.042969 219.203125 81.199219 219.328125 81.402344 219.394531 C 81.609375 219.421875 81.804688 219.382812 81.984375 219.277344 C 82.164062 219.171875 82.292969 219.019531 82.371094 218.828125 C 82.542969 218.199219 82.769531 217.628906 82.996094 217.003906 C 83.265625 216.304688 83.417969 215.585938 83.453125 214.839844 C 83.394531 214.441406 83.054688 214.042969 82.65625 214.097656 C 82.445312 214.097656 82.265625 214.167969 82.109375 214.3125 C 81.957031 214.453125 81.875 214.628906 81.859375 214.839844 Z M 81.859375 214.894531 " fill-opacity="1" fill-rule="nonzero"/><path fill="#000000" d="M 346.566406 134.40625 C 347.28125 134.480469 347.984375 134.613281 348.671875 134.804688 L 349.015625 134.976562 L 349.355469 135.203125 L 350.097656 136.003906 C 350.652344 136.679688 351.011719 137.445312 351.171875 138.304688 C 351.335938 139.167969 351.28125 140.011719 351.007812 140.84375 C 350.667969 141.8125 352.207031 142.210938 352.492188 141.242188 C 352.832031 140.171875 352.894531 139.085938 352.683594 137.984375 C 352.472656 136.882812 352.007812 135.898438 351.292969 135.035156 C 350.746094 134.285156 350.042969 133.734375 349.1875 133.382812 C 348.335938 133.089844 347.464844 132.917969 346.566406 132.867188 C 346.167969 132.8125 345.824219 133.269531 345.824219 133.609375 C 345.808594 133.824219 345.875 134.011719 346.019531 134.171875 C 346.167969 134.328125 346.351562 134.40625 346.566406 134.40625 Z M 346.566406 134.40625 " fill-opacity="1" fill-rule="nonzero"/><path fill="#000000" d="M 356.761719 150.414062 L 357.789062 150.414062 L 358.1875 150.585938 L 358.242188 150.585938 L 358.472656 150.699219 L 358.871094 150.925781 L 359.097656 151.097656 L 359.15625 151.097656 C 359.316406 151.199219 359.449219 151.332031 359.554688 151.496094 L 359.953125 151.894531 L 360.007812 151.894531 L 360.125 152.066406 C 360.175781 152.210938 360.253906 152.34375 360.351562 152.464844 L 360.351562 152.578125 L 360.464844 152.804688 C 360.523438 152.921875 360.523438 153.089844 360.578125 153.203125 C 360.636719 153.320312 360.636719 153.488281 360.578125 153.375 C 360.523438 153.261719 360.636719 153.546875 360.636719 153.546875 C 360.648438 153.683594 360.628906 153.816406 360.578125 153.945312 C 360.636719 153.773438 360.578125 153.945312 360.578125 154.003906 C 360.578125 154.058594 360.464844 154.289062 360.578125 154.117188 C 360.472656 154.304688 360.445312 154.503906 360.5 154.714844 C 360.554688 154.925781 360.675781 155.085938 360.863281 155.199219 C 361.042969 155.304688 361.234375 155.328125 361.4375 155.273438 C 361.636719 155.21875 361.789062 155.097656 361.890625 154.914062 C 362.574219 153.320312 361.832031 151.554688 360.75 150.414062 C 359.667969 149.273438 358.015625 148.421875 356.363281 148.875 C 356.160156 148.941406 356.003906 149.070312 355.898438 149.253906 C 355.789062 149.4375 355.753906 149.632812 355.792969 149.84375 C 355.863281 150.042969 355.988281 150.195312 356.175781 150.292969 C 356.363281 150.390625 356.558594 150.414062 356.761719 150.355469 Z M 356.761719 150.414062 " fill-opacity="1" fill-rule="nonzero"/><g clip-path="url(#e8e158f756)"><path fill="#000000" d="M 356.476562 158.445312 C 355.492188 159.4375 354.621094 160.519531 353.859375 161.691406 C 353.058594 162.832031 352.261719 164.027344 352.148438 165.453125 C 352.09375 165.832031 352.105469 166.207031 352.179688 166.582031 C 352.253906 166.957031 352.390625 167.304688 352.589844 167.632812 C 352.785156 167.960938 353.03125 168.246094 353.328125 168.488281 C 353.625 168.726562 353.953125 168.914062 354.3125 169.039062 C 355.964844 169.722656 357.730469 169.097656 359.210938 168.1875 C 362.632812 165.910156 365.765625 163.289062 368.609375 160.324219 C 371.289062 157.703125 374.136719 154.972656 374.59375 151.039062 C 374.761719 149.445312 374.476562 147.792969 372.941406 146.996094 C 372.121094 146.613281 371.261719 146.433594 370.355469 146.464844 C 369.453125 146.496094 368.605469 146.730469 367.8125 147.167969 C 366.902344 147.621094 367.699219 148.988281 368.609375 148.535156 C 369.523438 148.078125 371.289062 147.738281 372.371094 148.421875 C 373.453125 149.105469 373.109375 150.640625 372.941406 151.609375 C 372.425781 154.6875 369.75 157.019531 367.640625 159.128906 C 365.394531 161.382812 363.003906 163.472656 360.464844 165.394531 C 359.324219 166.25 358.015625 167.332031 356.589844 167.671875 C 355.167969 168.015625 353.515625 167.273438 353.6875 165.566406 C 353.859375 163.855469 354.597656 163.34375 355.28125 162.375 C 355.949219 161.371094 356.707031 160.4375 357.558594 159.585938 C 358.300781 158.902344 357.21875 157.761719 356.476562 158.445312 Z M 356.476562 158.445312 " fill-opacity="1" fill-rule="nonzero"/></g><path fill="#000000" d="M 338.761719 102.164062 C 339.027344 102.90625 339.371094 103.609375 339.789062 104.273438 C 340.007812 104.445312 340.253906 104.546875 340.53125 104.574219 C 340.808594 104.605469 341.074219 104.5625 341.324219 104.445312 C 344.34375 103.417969 350.839844 98.917969 350.839844 98.917969 L 350.382812 97.382812 Z M 338.761719 102.164062 " fill-opacity="1" fill-rule="nonzero"/><g fill="#000000" fill-opacity="1"><g transform="translate(109.247921, 319.624988)"><g><path d="M 2.203125 0.09375 C 1.890625 0.09375 1.625 -0.0078125 1.40625 -0.21875 C 1.195312 -0.4375 1.09375 -0.695312 1.09375 -1 C 1.09375 -1.300781 1.195312 -1.554688 1.40625 -1.765625 C 1.625 -1.984375 1.890625 -2.09375 2.203125 -2.09375 C 2.503906 -2.09375 2.757812 -1.984375 2.96875 -1.765625 C 3.1875 -1.554688 3.296875 -1.300781 3.296875 -1 C 3.296875 -0.695312 3.1875 -0.4375 2.96875 -0.21875 C 2.757812 -0.0078125 2.503906 0.09375 2.203125 0.09375 Z M 2.203125 0.09375 "/></g></g></g></svg>