<svg xmlns="http://www.w3.org/2000/svg" xmlns:xlink="http://www.w3.org/1999/xlink" width="1920" zoomAndPan="magnify" viewBox="0 0 1440 809.999993" height="1080" preserveAspectRatio="xMidYMid meet" version="1.0"><defs><g/><clipPath id="8d8904af2b"><path d="M 390 693 L 674 693 L 674 809.929688 L 390 809.929688 Z M 390 693 " clip-rule="nonzero"/></clipPath><clipPath id="af0aaf6014"><path d="M 880 764 L 907 764 L 907 809.929688 L 880 809.929688 Z M 880 764 " clip-rule="nonzero"/></clipPath><clipPath id="b87f2b08be"><path d="M 951 764 L 978 764 L 978 809.929688 L 951 809.929688 Z M 951 764 " clip-rule="nonzero"/></clipPath></defs><path fill="#2f6da3" d="M 1115.269531 1.832031 L 707.726562 1.832031 C 695.125 1.832031 684.90625 12.050781 684.90625 24.652344 L 684.90625 88.644531 L 1138.089844 88.644531 L 1138.089844 24.652344 C 1138.089844 12.050781 1127.871094 1.832031 1115.269531 1.832031 Z M 1115.269531 1.832031 " fill-opacity="1" fill-rule="nonzero"/><path fill="#0f2a46" d="M 683.003906 24.652344 C 683.003906 11 694.070312 -0.0703125 707.726562 -0.0703125 L 1115.269531 -0.0703125 C 1128.921875 -0.0703125 1139.992188 11 1139.992188 24.652344 L 1139.992188 90.546875 L 683.003906 90.546875 Z M 707.726562 3.734375 C 696.171875 3.734375 686.808594 13.101562 686.808594 24.652344 L 686.808594 86.746094 L 1136.1875 86.746094 L 1136.1875 24.652344 C 1136.1875 13.101562 1126.820312 3.734375 1115.269531 3.734375 Z M 707.726562 3.734375 " fill-opacity="1" fill-rule="evenodd"/><path fill="#0f2a46" d="M 683.003906 24.652344 C 683.003906 11 694.070312 -0.0703125 707.726562 -0.0703125 L 1115.269531 -0.0703125 C 1128.921875 -0.0703125 1139.992188 11 1139.992188 24.652344 L 1139.992188 504.910156 C 1139.992188 518.5625 1128.921875 529.632812 1115.269531 529.632812 L 707.726562 529.632812 C 694.070312 529.632812 683.003906 518.5625 683.003906 504.910156 Z M 707.726562 3.734375 C 696.171875 3.734375 686.808594 13.101562 686.808594 24.652344 L 686.808594 504.910156 C 686.808594 516.460938 696.171875 525.828125 707.726562 525.828125 L 1115.269531 525.828125 C 1126.820312 525.828125 1136.1875 516.460938 1136.1875 504.910156 L 1136.1875 24.652344 C 1136.1875 13.101562 1126.820312 3.734375 1115.269531 3.734375 Z M 707.726562 3.734375 " fill-opacity="1" fill-rule="evenodd"/><path fill="#2f6da3" d="M 719.714844 142.558594 C 719.714844 140.457031 721.414062 138.753906 723.515625 138.753906 L 752.042969 138.753906 C 754.144531 138.753906 755.84375 140.457031 755.84375 142.558594 L 755.84375 243.351562 C 755.84375 245.453125 754.144531 247.152344 752.042969 247.152344 L 723.515625 247.152344 C 721.414062 247.152344 719.714844 245.453125 719.714844 243.351562 Z M 719.714844 142.558594 " fill-opacity="1" fill-rule="nonzero"/><path fill="#0f2a46" d="M 717.8125 142.558594 C 717.8125 139.40625 720.363281 136.855469 723.515625 136.855469 L 752.042969 136.855469 C 755.191406 136.855469 757.746094 139.40625 757.746094 142.558594 L 757.746094 243.351562 C 757.746094 246.5 755.191406 249.054688 752.042969 249.054688 L 723.515625 249.054688 C 720.363281 249.054688 717.8125 246.5 717.8125 243.351562 Z M 723.515625 140.65625 C 722.464844 140.65625 721.613281 141.507812 721.613281 142.558594 L 721.613281 243.351562 C 721.613281 244.398438 722.464844 245.25 723.515625 245.25 L 752.042969 245.25 C 753.089844 245.25 753.945312 244.398438 753.945312 243.351562 L 753.945312 142.558594 C 753.945312 141.507812 753.089844 140.65625 752.042969 140.65625 Z M 723.515625 140.65625 " fill-opacity="1" fill-rule="evenodd"/><path fill="#ffc25e" d="M 822.40625 108.328125 L 793.878906 108.328125 C 791.777344 108.328125 790.078125 110.03125 790.078125 112.132812 L 790.078125 243.351562 C 790.078125 245.453125 791.777344 247.152344 793.878906 247.152344 L 802.851562 247.152344 C 804.335938 247.152344 805.679688 246.285156 806.34375 244.957031 C 809.859375 237.929688 816.535156 227.105469 823.238281 223.515625 C 824.859375 222.644531 826.207031 221.09375 826.207031 219.257812 L 826.207031 112.132812 C 826.207031 110.03125 824.507812 108.328125 822.40625 108.328125 Z M 822.40625 108.328125 " fill-opacity="1" fill-rule="nonzero"/><path fill="#0f2a46" d="M 788.175781 112.132812 C 788.175781 108.980469 790.730469 106.425781 793.878906 106.425781 L 822.40625 106.425781 C 825.554688 106.425781 828.109375 108.980469 828.109375 112.132812 L 828.109375 222.429688 L 824.308594 222.429688 L 824.308594 112.132812 C 824.308594 111.082031 823.457031 110.230469 822.40625 110.230469 L 793.878906 110.230469 C 792.828125 110.230469 791.976562 111.082031 791.976562 112.132812 L 791.976562 243.351562 C 791.976562 244.398438 792.828125 245.25 793.878906 245.25 L 805.289062 245.25 L 805.289062 249.054688 L 793.878906 249.054688 C 790.730469 249.054688 788.175781 246.5 788.175781 243.351562 Z M 788.175781 112.132812 " fill-opacity="1" fill-rule="evenodd"/><path fill="#0f2a46" d="M 873.753906 168.40625 C 873.753906 165.253906 876.308594 162.699219 879.460938 162.699219 L 907.722656 162.699219 C 910.871094 162.699219 913.425781 165.253906 913.425781 168.40625 L 913.425781 243.953125 C 913.425781 247.105469 910.871094 249.65625 907.722656 249.65625 L 879.460938 249.65625 C 876.308594 249.65625 873.753906 247.105469 873.753906 243.953125 Z M 879.460938 166.503906 C 878.410156 166.503906 877.558594 167.355469 877.558594 168.40625 L 877.558594 243.953125 C 877.558594 245.003906 878.410156 245.855469 879.460938 245.855469 L 907.722656 245.855469 C 908.773438 245.855469 909.625 245.003906 909.625 243.953125 L 909.625 168.40625 C 909.625 167.355469 908.773438 166.503906 907.722656 166.503906 Z M 879.460938 166.503906 " fill-opacity="1" fill-rule="evenodd"/><path fill="#0f2a46" d="M 1010.988281 165.378906 C 1010.988281 164.328125 1011.839844 163.476562 1012.886719 163.476562 L 1103.859375 163.476562 C 1104.910156 163.476562 1105.761719 164.328125 1105.761719 165.378906 C 1105.761719 166.429688 1104.910156 167.28125 1103.859375 167.28125 L 1012.886719 167.28125 C 1011.839844 167.28125 1010.988281 166.429688 1010.988281 165.378906 Z M 942.761719 201.035156 C 942.761719 199.988281 943.613281 199.136719 944.664062 199.136719 L 1103.859375 199.136719 C 1104.910156 199.136719 1105.761719 199.988281 1105.761719 201.035156 C 1105.761719 202.085938 1104.910156 202.9375 1103.859375 202.9375 L 944.664062 202.9375 C 943.613281 202.9375 942.761719 202.085938 942.761719 201.035156 Z M 917.492188 241.449219 C 917.492188 240.398438 918.34375 239.546875 919.394531 239.546875 L 1103.859375 239.546875 C 1104.910156 239.546875 1105.761719 240.398438 1105.761719 241.449219 C 1105.761719 242.496094 1104.910156 243.351562 1103.859375 243.351562 L 919.394531 243.351562 C 918.34375 243.351562 917.492188 242.496094 917.492188 241.449219 Z M 917.492188 241.449219 " fill-opacity="1" fill-rule="evenodd"/><path fill="#0f2a46" d="M 465.230469 261.84375 C 466.257812 262.058594 466.921875 263.0625 466.707031 264.09375 C 464.019531 277.023438 457.953125 300.210938 452.097656 311.9375 C 459.039062 317.574219 468.546875 324.535156 478.136719 330.75 C 488.324219 337.355469 498.445312 343.015625 505.636719 345.421875 C 519.679688 350.121094 529.75 347.03125 536.351562 340.679688 C 542.765625 334.511719 546.15625 325.019531 546.449219 315.722656 C 531.601562 309.886719 525.476562 295.746094 522.996094 286.636719 C 522.71875 285.625 523.316406 284.578125 524.332031 284.304688 C 525.34375 284.027344 526.390625 284.625 526.667969 285.636719 C 529.121094 294.652344 535.035156 307.746094 548.996094 312.613281 C 551.316406 313.421875 555.675781 316.410156 558.398438 316.859375 L 559.320312 317.007812 L 591.039062 376.46875 L 441.113281 376.46875 L 441.113281 321.464844 L 441.628906 320.917969 C 443.773438 318.636719 445.929688 315.417969 448.023438 311.535156 C 453.835938 300.738281 460.191406 276.757812 462.980469 263.316406 C 463.195312 262.289062 464.203125 261.628906 465.230469 261.84375 Z M 550.199219 317.007812 C 549.644531 326.699219 545.996094 336.679688 538.988281 343.421875 C 531.234375 350.882812 519.632812 354.113281 504.429688 349.027344 C 496.75 346.460938 486.289062 340.570312 476.070312 333.945312 C 466.628906 327.820312 457.257812 320.984375 450.253906 315.339844 C 448.558594 318.273438 446.773438 320.875 444.914062 322.957031 L 444.914062 372.667969 L 584.65625 372.667969 L 555.230469 318.277344 C 553.484375 317.945312 551.773438 317.492188 550.199219 317.007812 Z M 550.199219 317.007812 " fill-opacity="1" fill-rule="evenodd"/><path fill="#0f2a46" d="M 443.664062 321.269531 C 445.964844 318.824219 448.214844 315.445312 450.347656 311.484375 C 464.515625 323.171875 490.8125 341.300781 505.679688 346.273438 C 534.929688 356.058594 549.019531 333.636719 549.019531 313.457031 C 551.390625 314.285156 554.242188 315.144531 557.117188 315.613281 L 588.496094 373.617188 L 443.664062 373.617188 Z M 443.664062 321.269531 " fill-opacity="1" fill-rule="nonzero"/><path fill="#0f2a46" d="M 531.222656 301.792969 L 531.445312 302.304688 C 506.136719 310.316406 462.988281 288.605469 469.316406 266.171875 C 488.15625 286.847656 508.195312 284 526.714844 283.007812 C 527.113281 289.480469 528.636719 295.839844 531.222656 301.792969 Z M 531.222656 301.792969 " fill-opacity="1" fill-rule="nonzero"/><g clip-path="url(#8d8904af2b)"><path fill="#0f2a46" d="M 655.703125 693.664062 C 656.648438 693.214844 657.785156 693.625 658.230469 694.574219 C 660.433594 699.253906 663.078125 707.785156 665.519531 718.632812 C 665.527344 718.65625 665.53125 718.679688 665.535156 718.707031 C 666.988281 725.175781 668.367188 732.464844 669.539062 740.253906 C 672.679688 761.191406 674.328125 785.953125 671.71875 808.378906 L 671.527344 810.058594 L 393.058594 810.058594 L 392.636719 808.734375 C 391.777344 806.03125 391.289062 801.851562 391.074219 796.8125 C 390.855469 791.722656 390.90625 785.585938 391.191406 778.863281 C 391.761719 765.417969 393.265625 749.550781 395.453125 734.875 C 396.796875 725.839844 398.40625 717.230469 400.214844 709.910156 C 400.46875 708.890625 401.5 708.269531 402.519531 708.519531 C 403.539062 708.773438 404.160156 709.804688 403.90625 710.824219 C 402.265625 717.46875 400.78125 725.238281 399.511719 733.46875 C 437.851562 737.433594 478.628906 739.820312 517.175781 739.683594 C 518.226562 739.679688 519.078125 740.527344 519.082031 741.578125 C 519.085938 742.628906 518.238281 743.484375 517.1875 743.488281 C 478.425781 743.625 437.449219 741.222656 398.949219 737.234375 C 396.925781 751.273438 395.53125 766.265625 394.992188 779.023438 C 394.710938 785.679688 394.660156 791.699219 394.875 796.648438 C 395.050781 800.753906 395.402344 804.011719 395.910156 806.257812 L 522.417969 806.257812 L 544.828125 762.773438 C 546.503906 759.527344 551.347656 760.277344 551.960938 763.878906 L 559.164062 806.257812 L 668.128906 806.257812 C 670.417969 784.722656 668.808594 761.03125 665.777344 740.816406 C 664.753906 734.003906 663.574219 727.613281 662.335938 721.851562 C 637.753906 733.507812 600.921875 739.777344 559.128906 742.238281 C 558.082031 742.300781 557.179688 741.5 557.121094 740.453125 C 557.058594 739.402344 557.859375 738.503906 558.90625 738.441406 C 601.066406 735.957031 637.621094 729.601562 661.484375 718.042969 C 659.179688 708.070312 656.75 700.359375 654.789062 696.195312 C 654.34375 695.242188 654.75 694.113281 655.703125 693.664062 Z M 555.304688 806.257812 L 548.210938 764.515625 L 526.695312 806.257812 Z M 555.304688 806.257812 " fill-opacity="1" fill-rule="evenodd"/></g><path fill="#0f2a46" d="M 515.277344 709.269531 C 516.328125 709.269531 517.179688 710.121094 517.179688 711.171875 L 517.179688 724.957031 L 537.148438 724.957031 L 537.148438 711.171875 C 537.148438 710.121094 538 709.269531 539.050781 709.269531 C 540.101562 709.269531 540.953125 710.121094 540.953125 711.171875 L 540.953125 724.957031 L 557.117188 724.957031 L 557.117188 711.171875 C 557.117188 710.121094 557.96875 709.269531 559.019531 709.269531 C 560.066406 709.269531 560.921875 710.121094 560.921875 711.171875 L 560.921875 736.84375 C 560.921875 741.042969 557.515625 744.449219 553.3125 744.449219 L 520.984375 744.449219 C 516.785156 744.449219 513.378906 741.042969 513.378906 736.84375 L 513.378906 711.171875 C 513.378906 710.121094 514.230469 709.269531 515.277344 709.269531 Z M 557.117188 728.761719 L 540.953125 728.761719 L 540.953125 740.648438 L 553.3125 740.648438 C 555.414062 740.648438 557.117188 738.945312 557.117188 736.84375 Z M 537.148438 740.648438 L 537.148438 728.761719 L 517.179688 728.761719 L 517.179688 736.84375 C 517.179688 738.945312 518.882812 740.648438 520.984375 740.648438 Z M 537.148438 740.648438 " fill-opacity="1" fill-rule="evenodd"/><path fill="#0f2a46" d="M 546.519531 763.648438 L 523.578125 808.15625 L 557.558594 808.15625 L 550.085938 764.199219 C 549.78125 762.398438 547.355469 762.023438 546.519531 763.648438 Z M 546.519531 763.648438 " fill-opacity="1" fill-rule="nonzero"/><path fill="#2f6da3" d="M 443.589844 320.3125 C 340.394531 350.429688 300.027344 468.308594 353.46875 605.890625 C 361.617188 626.085938 375.207031 637.597656 392.390625 642.230469 C 392.101562 645.699219 391.722656 649.308594 391.34375 652.984375 C 388.507812 680.199219 385.324219 710.785156 413.625 710.785156 C 430.210938 710.785156 448.058594 711.113281 466.332031 711.445312 C 483.632812 711.761719 501.320312 712.082031 518.695312 712.140625 C 525.191406 712.164062 531.648438 712.152344 538.023438 712.085938 C 547.113281 711.996094 556.039062 711.796875 564.695312 711.457031 C 626.320312 709.039062 674.285156 699.324219 670.3125 667.578125 L 653.902344 543.113281 C 744.453125 514.136719 803.332031 386.925781 825.980469 322.992188 C 828.457031 316.003906 830.5 309.773438 832.101562 304.511719 C 832.625 302.800781 833.261719 301.140625 833.941406 299.5625 C 835.945312 294.9375 836.109375 290.320312 834.484375 286.304688 C 833.328125 283.445312 831.261719 280.890625 828.308594 278.847656 L 817.847656 271.628906 L 810.871094 267.191406 C 806.550781 264.617188 802.707031 263.457031 799.335938 263.453125 C 791.796875 263.441406 786.613281 269.199219 783.722656 277.742188 L 773.828125 290.921875 L 690.214844 402.296875 C 686.820312 406.816406 679.800781 406.230469 676.832031 401.421875 C 659.109375 372.71875 621.09375 331.828125 557.0625 314.847656 C 556.625 314.734375 556.230469 315.167969 556.382812 315.589844 C 560.523438 327.21875 556.535156 350.074219 534.515625 360.6875 C 530.457031 362.644531 525.941406 363.582031 521.4375 363.746094 C 494.082031 364.730469 480.304688 350.371094 468.101562 337.648438 C 460.910156 330.152344 454.265625 323.222656 445.707031 320.335938 C 445.027344 320.105469 444.277344 320.109375 443.589844 320.3125 Z M 605.992188 526.808594 C 632.167969 526.808594 649.195312 520.914062 655.269531 509.542969 C 656.386719 507.449219 656.371094 504.78125 654.730469 503.0625 C 652.980469 501.230469 650.808594 500.722656 648.394531 500.582031 C 647.796875 500.546875 647.636719 499.699219 648.195312 499.480469 L 655.652344 496.53125 C 660.1875 494.742188 658.796875 487.996094 653.921875 488.144531 L 645.359375 488.398438 C 644.75 488.417969 644.578125 487.574219 645.140625 487.351562 L 669.277344 477.75 C 673.417969 476.101562 675.152344 471.175781 672.949219 467.304688 C 671.375 464.542969 668.203125 463.09375 665.097656 463.785156 C 653.625 466.335938 641.585938 469.707031 632.472656 473.050781 C 630.582031 473.746094 628.554688 472.277344 628.695312 470.269531 L 629.40625 460.066406 C 629.582031 457.554688 627.300781 455.570312 624.890625 456.3125 C 601.25 463.570312 586.0625 485.84375 584.957031 488.488281 C 596.996094 494.628906 605.371094 511.074219 605.992188 526.808594 Z M 605.992188 526.808594 " fill-opacity="1" fill-rule="evenodd"/><path fill="#ffc25e" d="M 835.023438 399.289062 L 644.042969 399.289062 C 639.402344 399.289062 635.4375 402.640625 634.667969 407.21875 L 627.726562 448.417969 C 627.027344 452.558594 627.847656 457.945312 628.417969 462.105469 C 628.902344 465.640625 629.230469 469.785156 629.382812 472.507812 L 665 464.875 C 667.582031 464.320312 670.230469 465.472656 671.589844 467.738281 C 673.441406 470.820312 672.269531 474.820312 669.074219 476.476562 C 663.097656 479.574219 655.183594 483.921875 650.300781 487.71875 C 654.105469 486.769531 665.515625 491.523438 649.351562 501.03125 C 660.953125 503.710938 659.152344 522.308594 622.21875 526.148438 C 617.757812 526.613281 614.007812 529.871094 613.261719 534.292969 L 611.28125 546.042969 C 610.304688 551.84375 614.773438 557.132812 620.660156 557.132812 L 819.765625 557.132812 C 824.441406 557.132812 828.425781 553.726562 829.15625 549.105469 L 850.050781 416.878906 C 851.511719 407.644531 844.375 399.289062 835.023438 399.289062 Z M 835.023438 399.289062 " fill-opacity="1" fill-rule="nonzero"/><path fill="#0f2a46" d="M 632.792969 406.902344 C 633.71875 401.410156 638.472656 397.386719 644.042969 397.386719 L 835.023438 397.386719 C 845.542969 397.386719 853.574219 406.785156 851.929688 417.175781 L 831.035156 549.40625 C 830.160156 554.949219 825.378906 559.035156 819.765625 559.035156 L 620.660156 559.035156 C 613.597656 559.035156 608.234375 552.691406 609.40625 545.726562 L 612.664062 526.390625 L 616.414062 527.019531 L 613.15625 546.359375 C 612.375 551 615.953125 555.230469 620.660156 555.230469 L 819.765625 555.230469 C 823.507812 555.230469 826.695312 552.507812 827.277344 548.808594 L 848.175781 416.582031 C 849.453125 408.503906 843.207031 401.191406 835.023438 401.191406 L 644.042969 401.191406 C 640.328125 401.191406 637.160156 403.875 636.542969 407.535156 L 628.425781 455.707031 L 624.675781 455.074219 Z M 632.792969 406.902344 " fill-opacity="1" fill-rule="evenodd"/><path fill="#2f6da3" d="M 744.433594 470.605469 C 744.433594 480.582031 736.347656 488.671875 726.367188 488.671875 C 716.390625 488.671875 708.300781 480.582031 708.300781 470.605469 C 708.300781 460.625 716.390625 452.539062 726.367188 452.539062 C 736.347656 452.539062 744.433594 460.625 744.433594 470.605469 Z M 744.433594 470.605469 " fill-opacity="1" fill-rule="nonzero"/><path fill="#0f2a46" d="M 726.367188 454.441406 C 717.441406 454.441406 710.203125 461.675781 710.203125 470.605469 C 710.203125 479.53125 717.441406 486.769531 726.367188 486.769531 C 735.296875 486.769531 742.535156 479.53125 742.535156 470.605469 C 742.535156 461.675781 735.296875 454.441406 726.367188 454.441406 Z M 706.402344 470.605469 C 706.402344 459.578125 715.339844 450.636719 726.367188 450.636719 C 737.398438 450.636719 746.335938 459.578125 746.335938 470.605469 C 746.335938 481.632812 737.398438 490.574219 726.367188 490.574219 C 715.339844 490.574219 706.402344 481.632812 706.402344 470.605469 Z M 706.402344 470.605469 " fill-opacity="1" fill-rule="evenodd"/><path fill="#0f2a46" d="M 663.253906 416.289062 C 659.273438 416.378906 655.769531 418.945312 654.476562 422.710938 L 643.019531 456.109375 C 642.679688 457.101562 641.597656 457.632812 640.605469 457.289062 C 639.609375 456.949219 639.082031 455.867188 639.421875 454.875 L 650.878906 421.476562 C 652.6875 416.203125 657.59375 412.613281 663.167969 412.488281 L 731.808594 410.933594 C 732.859375 410.910156 733.726562 411.742188 733.75 412.792969 C 733.773438 413.84375 732.941406 414.714844 731.894531 414.738281 Z M 663.253906 416.289062 " fill-opacity="1" fill-rule="evenodd"/><path fill="#0f2a46" d="M 854.246094 193.40625 C 852.273438 192.765625 850.105469 193.449219 848.859375 195.109375 L 827.5 223.582031 L 827.488281 223.601562 L 827.476562 223.617188 C 825.394531 226.261719 823.230469 228.0625 821.121094 229.699219 C 822.585938 229.613281 823.980469 229.609375 825.304688 229.699219 C 827.886719 229.871094 829.957031 230.789062 831.269531 232.4375 C 832.574219 234.074219 832.886719 236.128906 832.570312 238.085938 C 832.113281 240.933594 830.308594 243.875 827.582031 246.070312 C 830.421875 247.550781 832.722656 249.46875 834.371094 252.382812 C 836.5625 256.257812 837.441406 261.636719 837.441406 269.453125 C 837.441406 270.503906 836.589844 271.355469 835.539062 271.355469 C 834.488281 271.355469 833.640625 270.503906 833.640625 269.453125 C 833.640625 261.785156 832.75 257.242188 831.058594 254.257812 C 829.535156 251.5625 827.230469 249.910156 823.625 248.429688 L 814.574219 252.695312 C 813.625 253.144531 812.492188 252.738281 812.042969 251.785156 C 811.597656 250.835938 812.003906 249.703125 812.953125 249.253906 L 822.75 244.640625 C 826.277344 242.976562 828.421875 239.917969 828.816406 237.480469 C 829.007812 236.292969 828.769531 235.402344 828.296875 234.804688 C 827.828125 234.21875 826.890625 233.617188 825.050781 233.492188 C 822.339844 233.3125 819.164062 233.558594 815.507812 234.257812 C 815.121094 234.621094 814.738281 235 814.351562 235.40625 C 810.328125 239.601562 806.03125 246.476562 801.777344 261.726562 C 804.910156 262.164062 808.269531 263.425781 811.84375 265.558594 L 811.867188 265.570312 L 818.898438 270.042969 L 829.386719 277.285156 C 831.960938 279.058594 833.953125 281.21875 835.316406 283.660156 C 842.324219 279.652344 848.476562 274.890625 853 270.164062 C 857.976562 264.96875 860.6875 260.128906 860.863281 256.570312 C 860.914062 255.519531 861.804688 254.710938 862.851562 254.761719 C 863.902344 254.8125 864.710938 255.707031 864.660156 256.753906 C 864.414062 261.753906 860.867188 267.453125 855.746094 272.796875 C 850.851562 277.90625 844.253906 282.976562 836.800781 287.191406 C 838.011719 291.335938 837.609375 295.878906 835.6875 300.316406 C 835.027344 301.847656 834.417969 303.4375 833.921875 305.066406 C 832.308594 310.359375 830.257812 316.613281 827.773438 323.625 C 820.496094 344.164062 809.5 371.203125 794.925781 399.429688 C 794.441406 400.363281 793.296875 400.730469 792.363281 400.25 C 791.429688 399.765625 791.0625 398.617188 791.546875 397.6875 C 806.03125 369.632812 816.960938 342.757812 824.1875 322.355469 C 826.65625 315.394531 828.6875 309.191406 830.28125 303.957031 C 830.828125 302.164062 831.492188 300.433594 832.195312 298.808594 C 834.027344 294.578125 834.128906 290.496094 832.71875 287.015625 C 831.714844 284.535156 829.90625 282.261719 827.226562 280.414062 L 816.796875 273.214844 L 809.898438 268.824219 C 809.890625 268.820312 809.882812 268.816406 809.875 268.808594 C 805.761719 266.363281 802.265625 265.359375 799.332031 265.355469 C 797.421875 265.351562 795.714844 265.773438 794.179688 266.546875 C 789.8125 268.746094 786.808594 272.683594 784.015625 277.417969 C 783.101562 278.976562 782.238281 280.5625 781.359375 282.175781 C 780.894531 283.035156 780.421875 283.902344 779.933594 284.78125 C 778.546875 287.273438 777.070312 289.777344 775.351562 292.066406 L 694.542969 399.699219 C 693.910156 400.539062 692.71875 400.710938 691.878906 400.078125 C 691.039062 399.449219 690.871094 398.257812 691.5 397.417969 L 772.308594 289.78125 C 773.867188 287.707031 775.246094 285.382812 776.609375 282.933594 C 777.058594 282.121094 777.511719 281.285156 777.972656 280.441406 C 778.875 278.785156 779.792969 277.097656 780.742188 275.488281 C 783.621094 270.601562 787.085938 265.863281 792.46875 263.152344 C 794.125 262.316406 795.929688 261.792969 797.863281 261.617188 C 802.285156 245.40625 806.902344 237.679688 811.605469 232.773438 C 812.171875 232.183594 812.734375 231.636719 813.296875 231.125 C 813.320312 231.101562 813.34375 231.078125 813.367188 231.058594 C 814.859375 229.699219 816.324219 228.578125 817.707031 227.527344 C 817.96875 227.324219 818.230469 227.125 818.488281 226.925781 C 820.632812 225.277344 822.59375 223.664062 824.472656 221.28125 C 824.476562 221.273438 824.484375 221.269531 824.488281 221.261719 L 845.816406 192.828125 C 848.039062 189.863281 851.902344 188.644531 855.425781 189.789062 C 860.660156 191.492188 862.996094 197.578125 860.25 202.347656 L 851.886719 216.867188 C 851.363281 217.777344 850.199219 218.089844 849.289062 217.566406 C 848.378906 217.042969 848.066406 215.878906 848.59375 214.96875 L 856.953125 200.449219 C 858.492188 197.773438 857.183594 194.363281 854.246094 193.40625 Z M 641.050781 359.417969 C 641.753906 358.636719 642.957031 358.574219 643.734375 359.277344 C 658.160156 372.25 669 385.75 676.621094 397.527344 C 677.191406 398.40625 676.9375 399.585938 676.054688 400.15625 C 675.171875 400.726562 673.996094 400.472656 673.425781 399.59375 C 665.976562 388.074219 655.347656 374.839844 641.191406 362.105469 C 640.410156 361.402344 640.347656 360.199219 641.050781 359.417969 Z M 624.332031 454.492188 C 628.148438 453.320312 631.5625 456.492188 631.300781 460.199219 L 630.59375 470.402344 C 630.554688 470.980469 631.167969 471.503906 631.820312 471.265625 C 641.03125 467.886719 653.15625 464.492188 664.683594 461.929688 C 668.621094 461.050781 672.625 462.894531 674.601562 466.363281 C 677.378906 471.242188 675.195312 477.441406 669.976562 479.519531 L 653.007812 486.269531 L 653.863281 486.242188 C 660.859375 486.035156 662.878906 495.722656 656.355469 498.300781 L 653.023438 499.617188 C 654.113281 500.078125 655.15625 500.753906 656.109375 501.75 C 658.46875 504.222656 658.335938 507.839844 656.945312 510.4375 C 653.613281 516.683594 647.359375 521.246094 638.796875 524.234375 C 630.65625 527.078125 620.285156 528.558594 607.933594 528.699219 C 607.933594 529.335938 607.917969 529.96875 607.890625 530.601562 C 607.699219 535.390625 605.195312 539.5625 601.898438 542.640625 C 599.738281 544.65625 597.5625 546.660156 595.375 548.652344 C 591.148438 552.5 586.867188 556.300781 582.546875 560.039062 C 550.429688 587.835938 515.121094 612.105469 481.734375 627.804688 C 449.398438 643.007812 418.550781 650.320312 394.089844 644.617188 C 393.835938 647.410156 393.535156 650.28125 393.234375 653.175781 L 393.175781 653.746094 C 392.773438 657.613281 392.371094 661.523438 392.054688 665.398438 C 391.421875 673.15625 391.15625 680.664062 391.933594 687.21875 C 392.710938 693.792969 394.515625 699.179688 397.832031 702.910156 C 401.085938 706.574219 406.015625 708.886719 413.625 708.886719 C 429.789062 708.886719 447.144531 709.195312 464.90625 709.519531 L 466.359375 709.542969 C 483.664062 709.859375 501.339844 710.183594 518.699219 710.242188 C 525.191406 710.265625 531.636719 710.25 538.003906 710.1875 C 547.078125 710.09375 555.988281 709.898438 564.621094 709.558594 C 595.414062 708.351562 622.566406 705.320312 641.476562 698.71875 C 650.933594 695.421875 658.144531 691.289062 662.742188 686.210938 C 667.273438 681.207031 669.347656 675.199219 668.425781 667.824219 C 668.425781 667.820312 668.425781 667.816406 668.425781 667.8125 L 653.769531 556.652344 C 653.632812 555.613281 654.363281 554.65625 655.40625 554.519531 C 656.445312 554.382812 657.402344 555.113281 657.539062 556.15625 L 672.199219 667.34375 C 673.261719 675.832031 670.832031 682.945312 665.5625 688.761719 C 660.359375 694.511719 652.472656 698.910156 642.730469 702.3125 C 623.246094 709.109375 595.605469 712.148438 564.769531 713.359375 C 556.089844 713.699219 547.144531 713.894531 538.039062 713.988281 C 531.65625 714.054688 525.191406 714.066406 518.6875 714.042969 C 501.300781 713.984375 483.601562 713.660156 466.304688 713.347656 L 464.835938 713.320312 C 447.066406 712.996094 429.75 712.691406 413.625 712.691406 C 405.171875 712.691406 399.113281 710.078125 394.988281 705.4375 C 390.933594 700.871094 388.976562 694.585938 388.15625 687.664062 C 387.332031 680.722656 387.628906 672.914062 388.261719 665.089844 C 388.582031 661.167969 388.988281 657.214844 389.390625 653.351562 L 389.449219 652.792969 C 389.777344 649.664062 390.09375 646.601562 390.359375 643.632812 C 373.289062 638.570312 359.820312 626.714844 351.703125 606.601562 L 351.695312 606.582031 C 333.851562 560.648438 326.394531 516.835938 328.230469 477.660156 C 328.28125 476.613281 329.171875 475.800781 330.222656 475.851562 C 331.269531 475.902344 332.082031 476.789062 332.03125 477.839844 C 330.222656 516.40625 337.558594 559.683594 355.234375 605.191406 C 363.175781 624.863281 376.316406 635.925781 392.886719 640.398438 C 416.351562 646.722656 447.046875 639.910156 480.117188 624.363281 C 513.109375 608.847656 548.128906 584.796875 580.058594 557.164062 C 584.355469 553.445312 588.609375 549.664062 592.816406 545.839844 C 594.992188 543.859375 597.15625 541.863281 599.304688 539.859375 C 602.089844 537.257812 603.949219 533.96875 604.09375 530.449219 C 604.140625 529.269531 604.140625 528.078125 604.09375 526.882812 C 603.792969 519.3125 601.625 511.546875 598.078125 504.949219 C 594.527344 498.339844 589.671875 493.027344 584.089844 490.183594 C 580.933594 488.574219 577.019531 489.15625 573.273438 490.917969 L 419.332031 563.316406 C 418.382812 563.761719 417.25 563.355469 416.800781 562.40625 C 416.355469 561.453125 416.765625 560.320312 417.714844 559.875 L 429.652344 554.261719 C 425.878906 538.203125 423.539062 518.332031 422.613281 500.648438 C 422.132812 491.515625 422.03125 482.941406 422.304688 475.742188 C 422.578125 468.589844 423.230469 462.652344 424.316406 458.882812 C 424.609375 457.875 425.664062 457.292969 426.671875 457.585938 C 427.683594 457.878906 428.265625 458.929688 427.972656 459.941406 C 427.019531 463.238281 426.378906 468.78125 426.105469 475.886719 C 425.835938 482.945312 425.9375 491.40625 426.410156 500.449219 C 427.316406 517.703125 429.574219 536.972656 433.171875 552.605469 L 571.652344 487.472656 C 575.363281 485.730469 579.898438 484.683594 584.121094 486.085938 C 584.761719 485.058594 585.679688 483.726562 586.820312 482.21875 C 588.820312 479.578125 591.621094 476.25 595.136719 472.777344 C 602.152344 465.847656 612.117188 458.246094 624.332031 454.492188 Z M 587.5625 487.765625 C 593.242188 491.191406 597.976562 496.714844 601.429688 503.152344 C 604.957031 509.714844 607.214844 517.332031 607.789062 524.894531 C 619.9375 524.765625 629.902344 523.3125 637.542969 520.644531 C 645.554688 517.847656 650.855469 513.773438 653.59375 508.644531 C 654.441406 507.058594 654.273438 505.339844 653.355469 504.375 C 652.097656 503.054688 650.507812 502.609375 648.285156 502.480469 C 646.964844 502.40625 646.167969 501.398438 645.992188 500.445312 C 645.8125 499.480469 646.21875 498.21875 647.496094 497.710938 L 654.957031 494.765625 C 657.5 493.757812 656.730469 489.960938 653.976562 490.042969 L 645.414062 490.300781 C 642.691406 490.378906 641.886719 486.597656 644.4375 485.585938 L 668.570312 475.984375 C 671.648438 474.761719 672.925781 471.113281 671.292969 468.246094 C 670.125 466.191406 667.78125 465.136719 665.507812 465.640625 C 654.097656 468.179688 642.140625 471.527344 633.128906 474.835938 C 629.992188 475.988281 626.558594 473.578125 626.800781 470.136719 L 627.507812 459.9375 C 627.601562 458.617188 626.453125 457.820312 625.449219 458.128906 C 614.023438 461.636719 604.574219 468.800781 597.808594 475.484375 C 594.4375 478.816406 591.753906 482.003906 589.855469 484.511719 C 588.84375 485.847656 588.082031 486.953125 587.5625 487.765625 Z M 587.5625 487.765625 " fill-opacity="1" fill-rule="evenodd"/><path fill="#0f2a46" d="M 840.992188 221.757812 C 838.585938 223.488281 838.09375 224.921875 838.242188 225.664062 C 838.390625 226.40625 839.394531 227.539062 842.277344 228.21875 C 844.984375 228.851562 848.6875 228.886719 852.714844 228.085938 C 856.742188 227.28125 860.148438 225.828125 862.398438 224.207031 C 864.808594 222.476562 865.296875 221.042969 865.148438 220.300781 C 865 219.554688 864 218.421875 861.113281 217.746094 C 858.410156 217.113281 854.707031 217.074219 850.679688 217.878906 C 846.652344 218.679688 843.246094 220.136719 840.992188 221.757812 Z M 838.769531 218.667969 C 841.558594 216.664062 845.5 215.03125 849.933594 214.148438 C 854.371094 213.265625 858.636719 213.257812 861.980469 214.042969 C 865.140625 214.785156 868.261719 216.453125 868.882812 219.554688 C 869.5 222.660156 867.257812 225.398438 864.621094 227.292969 C 861.832031 229.300781 857.890625 230.933594 853.457031 231.816406 C 849.023438 232.699219 844.757812 232.703125 841.410156 231.921875 C 838.25 231.179688 835.128906 229.511719 834.511719 226.40625 C 833.890625 223.300781 836.136719 220.566406 838.769531 218.667969 Z M 838.769531 218.667969 " fill-opacity="1" fill-rule="evenodd"/><path fill="#0f2a46" d="M 843.273438 235.894531 C 840.867188 237.628906 840.375 239.058594 840.523438 239.804688 C 840.671875 240.546875 841.675781 241.679688 844.558594 242.355469 C 847.265625 242.988281 850.96875 243.027344 854.996094 242.222656 C 859.023438 241.421875 862.429688 239.964844 864.683594 238.34375 C 867.089844 236.613281 867.582031 235.183594 867.433594 234.4375 C 867.285156 233.695312 866.28125 232.5625 863.394531 231.882812 C 860.691406 231.25 856.988281 231.214844 852.960938 232.015625 C 848.933594 232.820312 845.527344 234.273438 843.273438 235.894531 Z M 841.050781 232.808594 C 843.839844 230.800781 847.785156 229.171875 852.214844 228.285156 C 856.652344 227.402344 860.917969 227.398438 864.261719 228.183594 C 867.421875 228.921875 870.542969 230.589844 871.164062 233.695312 C 871.78125 236.800781 869.539062 239.535156 866.902344 241.433594 C 864.117188 243.4375 860.171875 245.070312 855.738281 245.957031 C 851.304688 246.835938 847.039062 246.84375 843.691406 246.058594 C 840.53125 245.316406 837.410156 243.648438 836.792969 240.546875 C 836.171875 237.441406 838.414062 234.703125 841.050781 232.808594 Z M 841.050781 232.808594 " fill-opacity="1" fill-rule="evenodd"/><path fill="#0f2a46" d="M 844.957031 251.964844 C 844.554688 252.597656 844.515625 253.03125 844.570312 253.3125 C 844.628906 253.597656 844.832031 253.980469 845.441406 254.410156 C 846.066406 254.847656 847.011719 255.253906 848.289062 255.539062 C 850.835938 256.109375 854.335938 256.128906 858.148438 255.371094 C 861.960938 254.609375 865.1875 253.25 867.320312 251.746094 C 868.390625 250.992188 869.109375 250.253906 869.515625 249.613281 C 869.914062 248.980469 869.953125 248.546875 869.898438 248.265625 C 869.839844 247.984375 869.640625 247.597656 869.027344 247.167969 C 868.40625 246.730469 867.457031 246.324219 866.183594 246.039062 C 863.636719 245.46875 860.136719 245.449219 856.324219 246.207031 C 852.507812 246.96875 849.28125 248.328125 847.148438 249.832031 C 846.082031 250.585938 845.363281 251.324219 844.957031 251.964844 Z M 844.957031 246.726562 C 847.617188 244.847656 851.367188 243.316406 855.578125 242.480469 C 859.789062 241.640625 863.839844 241.617188 867.015625 242.328125 C 868.601562 242.683594 870.058594 243.246094 871.214844 244.054688 C 872.378906 244.875 873.328125 246.023438 873.628906 247.523438 C 873.925781 249.019531 873.492188 250.441406 872.726562 251.648438 C 871.972656 252.839844 870.839844 253.914062 869.511719 254.851562 C 866.851562 256.730469 863.101562 258.261719 858.890625 259.101562 C 854.679688 259.9375 850.628906 259.964844 847.453125 259.25 C 845.867188 258.894531 844.410156 258.335938 843.253906 257.523438 C 842.089844 256.703125 841.140625 255.554688 840.84375 254.054688 C 840.542969 252.558594 840.980469 251.136719 841.742188 249.933594 C 842.5 248.738281 843.628906 247.664062 844.957031 246.726562 Z M 844.957031 246.726562 " fill-opacity="1" fill-rule="evenodd"/><path fill="#0f2a46" d="M 419.203125 722.480469 C 419.203125 725.308594 417.5625 727.605469 415.539062 727.605469 C 413.519531 727.605469 411.878906 725.308594 411.878906 722.480469 C 411.878906 719.648438 413.519531 717.351562 415.539062 717.351562 C 417.5625 717.351562 419.203125 719.648438 419.203125 722.480469 Z M 419.203125 722.480469 " fill-opacity="1" fill-rule="nonzero"/><path fill="#0f2a46" d="M 583.652344 720.007812 C 583.933594 722.546875 582.46875 724.792969 580.375 725.023438 C 578.285156 725.257812 576.363281 723.386719 576.082031 720.847656 C 575.800781 718.308594 577.269531 716.0625 579.359375 715.832031 C 581.449219 715.601562 583.371094 717.472656 583.652344 720.007812 Z M 583.652344 720.007812 " fill-opacity="1" fill-rule="nonzero"/><path fill="#0f2a46" d="M 444.101562 722.480469 C 444.101562 725.308594 442.460938 727.605469 440.4375 727.605469 C 438.414062 727.605469 436.777344 725.308594 436.777344 722.480469 C 436.777344 719.648438 438.414062 717.351562 440.4375 717.351562 C 442.460938 717.351562 444.101562 719.648438 444.101562 722.480469 Z M 444.101562 722.480469 " fill-opacity="1" fill-rule="nonzero"/><path fill="#0f2a46" d="M 607.449219 717.375 C 607.730469 719.914062 606.261719 722.15625 604.171875 722.390625 C 602.082031 722.621094 600.15625 720.75 599.875 718.210938 C 599.59375 715.675781 601.0625 713.429688 603.152344 713.195312 C 605.242188 712.964844 607.164062 714.835938 607.449219 717.375 Z M 607.449219 717.375 " fill-opacity="1" fill-rule="nonzero"/><path fill="#0f2a46" d="M 467.53125 722.480469 C 467.53125 725.308594 465.894531 727.605469 463.871094 727.605469 C 461.851562 727.605469 460.210938 725.308594 460.210938 722.480469 C 460.210938 719.648438 461.851562 717.351562 463.871094 717.351562 C 465.894531 717.351562 467.53125 719.648438 467.53125 722.480469 Z M 467.53125 722.480469 " fill-opacity="1" fill-rule="nonzero"/><path fill="#0f2a46" d="M 631.238281 714.738281 C 631.519531 717.277344 630.054688 719.523438 627.964844 719.753906 C 625.871094 719.984375 623.949219 718.117188 623.667969 715.578125 C 623.390625 713.039062 624.855469 710.792969 626.945312 710.558594 C 629.039062 710.332031 630.960938 712.199219 631.238281 714.738281 Z M 631.238281 714.738281 " fill-opacity="1" fill-rule="nonzero"/><path fill="#0f2a46" d="M 492.433594 722.480469 C 492.433594 725.308594 490.792969 727.605469 488.769531 727.605469 C 486.746094 727.605469 485.109375 725.308594 485.109375 722.480469 C 485.109375 719.648438 486.746094 717.351562 488.769531 717.351562 C 490.792969 717.351562 492.433594 719.648438 492.433594 722.480469 Z M 492.433594 722.480469 " fill-opacity="1" fill-rule="nonzero"/><path fill="#0f2a46" d="M 655.035156 712.101562 C 655.316406 714.640625 653.847656 716.886719 651.757812 717.117188 C 649.667969 717.347656 647.746094 715.480469 647.464844 712.941406 C 647.183594 710.402344 648.648438 708.15625 650.738281 707.925781 C 652.828125 707.695312 654.753906 709.5625 655.035156 712.101562 Z M 655.035156 712.101562 " fill-opacity="1" fill-rule="nonzero"/><path fill="#0f2a46" d="M 501.816406 62.863281 C 484.832031 64.414062 463.328125 76.285156 447.910156 103.605469 C 447.421875 104.472656 446.59375 105.125 445.660156 105.410156 C 425.402344 111.625 418.296875 122.339844 417.742188 132.03125 C 417.175781 141.964844 423.398438 151.550781 431.230469 155.644531 C 432.46875 156.292969 433.347656 157.582031 433.347656 159.089844 L 433.347656 180.675781 C 436.398438 178.929688 439.933594 178.042969 443.695312 178.402344 C 448.839844 178.898438 454.152344 181.710938 459.039062 187.367188 C 459.683594 188.113281 460.148438 188.339844 460.4375 188.351562 C 461.476562 188.398438 462.402344 187.894531 463.3125 186.355469 C 464.25 184.765625 464.945312 182.367188 465.429688 179.429688 C 466.394531 173.589844 466.398438 166.371094 466.398438 161.074219 C 466.398438 156.410156 467.207031 153.179688 468.828125 150.988281 C 470.507812 148.726562 472.808594 147.910156 474.953125 147.511719 C 475.894531 147.335938 476.875 147.234375 477.773438 147.136719 C 477.871094 147.128906 477.972656 147.117188 478.074219 147.105469 C 479.085938 146.996094 480.007812 146.890625 480.875 146.699219 C 482.554688 146.328125 483.898438 145.675781 484.925781 144.238281 C 486.042969 142.679688 488.21875 141.820312 490.207031 142.648438 C 494.242188 144.332031 500.964844 145.414062 507.519531 144.96875 C 514.15625 144.519531 519.980469 142.554688 522.859375 138.789062 C 523.652344 137.75 524.839844 137.167969 525.980469 136.988281 C 527.125 136.804688 528.453125 136.988281 529.539062 137.785156 C 533.085938 140.390625 538.863281 141.902344 545.722656 142.171875 C 552.398438 142.433594 559.847656 141.507812 566.714844 139.492188 L 568.273438 138.144531 C 570.519531 136.195312 573.347656 135.136719 576.152344 134.789062 C 588.230469 133.308594 594.300781 128.390625 596.523438 122.785156 C 598.785156 117.082031 597.355469 109.976562 592.949219 103.574219 C 584.175781 90.824219 564.320312 81.984375 543.511719 95.046875 C 543.054688 95.332031 541.785156 95.96875 540.496094 95.175781 C 539.859375 94.78125 539.195312 94.128906 538.625 93.542969 C 538.34375 93.253906 538.042969 92.9375 537.742188 92.617188 L 537.664062 92.53125 C 537.328125 92.179688 536.984375 91.816406 536.632812 91.453125 C 535.164062 89.957031 533.679688 88.625 532.261719 87.992188 C 530.691406 87.289062 529.019531 85.496094 529.257812 83.222656 C 529.976562 76.410156 527.328125 71.046875 522.5 67.5 C 517.601562 63.902344 510.328125 62.085938 501.816406 62.863281 Z M 565.75 143.707031 C 559.082031 145.441406 552.015625 146.222656 545.574219 145.972656 C 538.394531 145.6875 531.726562 144.109375 527.285156 140.851562 C 527.183594 140.773438 526.9375 140.6875 526.578125 140.742188 C 526.222656 140.800781 525.984375 140.96875 525.882812 141.101562 C 521.976562 146.210938 514.710938 148.292969 507.777344 148.765625 C 500.757812 149.238281 493.425781 148.113281 488.742188 146.160156 C 488.679688 146.132812 488.566406 146.117188 488.414062 146.164062 C 488.253906 146.214844 488.113281 146.320312 488.019531 146.449219 C 486.265625 148.902344 483.941406 149.914062 481.695312 150.410156 C 480.597656 150.652344 479.488281 150.78125 478.476562 150.890625 C 478.378906 150.898438 478.28125 150.910156 478.183594 150.917969 C 477.261719 151.019531 476.433594 151.105469 475.644531 151.25 C 473.941406 151.566406 472.742188 152.097656 471.882812 153.257812 C 470.972656 154.484375 470.203125 156.742188 470.203125 161.074219 L 470.203125 161.144531 C 470.203125 166.367188 470.203125 173.875 469.183594 180.050781 C 468.675781 183.136719 467.882812 186.082031 466.585938 188.285156 C 465.261719 190.542969 463.210938 192.28125 460.273438 192.152344 C 458.339844 192.066406 456.96875 190.785156 456.160156 189.851562 C 451.761719 184.761719 447.289062 182.570312 443.328125 182.1875 C 439.363281 181.808594 435.652344 183.210938 432.695312 185.792969 C 428.113281 189.796875 425.476562 196.527344 426.761719 203.265625 C 428.027344 209.902344 433.183594 216.886719 444.867188 221.222656 C 446.367188 221.777344 447.652344 222.929688 448.289062 224.488281 L 456.894531 245.527344 C 460.214844 253.648438 464.964844 261.058594 471.777344 266.191406 C 488.683594 278.929688 506.0625 283.78125 521.234375 282.992188 C 539.019531 282.066406 553.792969 273.40625 561.496094 260.503906 C 565.148438 254.378906 565.75 246.914062 565.75 239.246094 Z M 569.554688 142.066406 L 569.554688 239.246094 C 569.554688 246.972656 568.992188 255.363281 564.757812 262.453125 C 556.332031 276.578125 540.324219 285.808594 521.433594 286.789062 C 505.28125 287.632812 487.035156 282.453125 469.488281 269.230469 C 461.953125 263.550781 456.851562 255.476562 453.371094 246.972656 L 444.765625 225.925781 C 444.5625 225.429688 444.125 225.003906 443.542969 224.789062 C 430.890625 220.09375 424.59375 212.1875 423.023438 203.976562 C 421.539062 196.1875 424.386719 188.429688 429.542969 183.523438 L 429.542969 159.089844 C 429.542969 159.089844 429.542969 159.085938 429.539062 159.082031 C 429.539062 159.082031 429.539062 159.078125 429.535156 159.074219 C 429.523438 159.058594 429.503906 159.035156 429.464844 159.015625 C 420.421875 154.285156 413.285156 143.359375 413.945312 131.8125 C 414.617188 120.019531 423.324219 108.28125 444.546875 101.773438 C 444.542969 101.777344 444.546875 101.773438 444.554688 101.769531 C 444.558594 101.769531 444.5625 101.765625 444.566406 101.761719 C 444.570312 101.761719 444.574219 101.757812 444.578125 101.753906 C 444.585938 101.75 444.59375 101.742188 444.597656 101.738281 C 444.601562 101.734375 444.601562 101.734375 444.597656 101.738281 C 460.527344 73.507812 483.046875 60.757812 501.46875 59.078125 C 510.652344 58.238281 518.921875 60.152344 524.75 64.4375 C 530.648438 68.769531 533.902344 75.441406 533.039062 83.621094 C 533.039062 83.660156 533.042969 83.796875 533.191406 84.007812 C 533.34375 84.222656 533.574219 84.414062 533.816406 84.519531 C 535.957031 85.476562 537.882812 87.292969 539.351562 88.796875 C 539.730469 89.183594 540.089844 89.566406 540.421875 89.917969 L 540.503906 90 C 540.808594 90.324219 541.089844 90.621094 541.351562 90.890625 C 541.605469 91.152344 541.816406 91.355469 541.988281 91.515625 C 564.589844 77.667969 586.398438 87.34375 596.085938 101.417969 C 600.945312 108.480469 602.9375 116.929688 600.058594 124.1875 C 597.140625 131.539062 589.511719 136.980469 576.617188 138.566406 C 574.410156 138.835938 572.335938 139.652344 570.765625 141.015625 Z M 569.554688 142.066406 " fill-opacity="1" fill-rule="evenodd"/><path fill="#0f2a46" d="M 489.476562 144.402344 C 498.195312 148.042969 517.585938 148.820312 524.371094 139.945312 C 525.265625 138.773438 527.21875 138.445312 528.402344 139.332031 C 535.65625 144.761719 550.285156 145.945312 563.664062 142.886719 C 566.304688 142.285156 568.65625 140.832031 570.570312 138.917969 C 571.785156 137.699219 573.476562 136.984375 575.191406 136.8125 C 626.960938 131.5625 586.429688 65.855469 542.5 93.4375 C 542.191406 93.628906 541.796875 93.738281 541.535156 93.480469 C 540.222656 92.195312 538.125 86.589844 534.484375 85.394531 C 532.996094 84.90625 531.195312 83.511719 531.257812 81.945312 C 532.433594 53.246094 477.078125 48.039062 446.253906 102.671875 C 446.007812 103.105469 445.578125 103.445312 445.105469 103.59375 C 403.625 116.3125 413.476562 148.503906 430.347656 157.328125 C 431.007812 157.675781 431.445312 158.34375 431.445312 159.089844 L 431.445312 184.359375 C 438.039062 178.605469 448.3125 177.863281 457.597656 188.605469 C 458.324219 189.449219 459.246094 190.203125 460.355469 190.253906 C 468.300781 190.601562 468.300781 171.601562 468.300781 161.074219 C 468.300781 143.089844 480.902344 153.125 486.472656 145.34375 C 487.144531 144.40625 488.410156 143.960938 489.476562 144.402344 Z M 489.476562 144.402344 " fill-opacity="1" fill-rule="nonzero"/><path fill="#0f2a46" d="M 559.5 183.644531 C 556.644531 181.105469 552.476562 180.714844 549.199219 182.671875 L 547.210938 183.855469 C 546.308594 184.394531 545.140625 184.101562 544.601562 183.195312 C 544.066406 182.296875 544.359375 181.128906 545.261719 180.589844 L 547.25 179.402344 C 551.953125 176.597656 557.933594 177.164062 562.027344 180.800781 C 562.808594 181.5 562.878906 182.703125 562.183594 183.484375 C 561.484375 184.269531 560.28125 184.339844 559.5 183.644531 Z M 559.5 183.644531 " fill-opacity="1" fill-rule="evenodd"/><path fill="#0f2a46" d="M 505.542969 183.644531 C 502.691406 181.105469 498.519531 180.714844 495.242188 182.671875 L 493.253906 183.855469 C 492.355469 184.394531 491.1875 184.101562 490.648438 183.195312 C 490.109375 182.296875 490.40625 181.128906 491.304688 180.589844 L 493.292969 179.402344 C 498 176.597656 503.976562 177.164062 508.070312 180.800781 C 508.855469 181.5 508.925781 182.703125 508.230469 183.484375 C 507.53125 184.269531 506.328125 184.339844 505.542969 183.644531 Z M 505.542969 183.644531 " fill-opacity="1" fill-rule="evenodd"/><path fill="#0f2a46" d="M 505.144531 189.125 C 503.125 187.359375 500.113281 187.359375 498.09375 189.125 C 497.699219 189.472656 497.097656 189.433594 496.753906 189.035156 C 496.410156 188.640625 496.449219 188.039062 496.84375 187.695312 C 499.578125 185.300781 503.660156 185.300781 506.394531 187.695312 C 506.792969 188.039062 506.832031 188.640625 506.484375 189.035156 C 506.140625 189.433594 505.539062 189.472656 505.144531 189.125 Z M 505.144531 189.125 " fill-opacity="1" fill-rule="evenodd"/><path fill="#0f2a46" d="M 556.589844 189.347656 C 555.097656 187.75 552.65625 187.507812 550.878906 188.777344 L 549.902344 189.472656 C 549.472656 189.777344 548.878906 189.679688 548.574219 189.25 C 548.269531 188.824219 548.367188 188.230469 548.796875 187.925781 L 549.773438 187.226562 C 552.328125 185.402344 555.839844 185.753906 557.980469 188.050781 C 558.339844 188.433594 558.320312 189.035156 557.933594 189.394531 C 557.550781 189.753906 556.949219 189.730469 556.589844 189.347656 Z M 556.589844 189.347656 " fill-opacity="1" fill-rule="evenodd"/><path fill="#0f2a46" d="M 532.789062 214.253906 L 526.863281 186.734375 L 530.582031 185.933594 L 536.507812 213.453125 C 538.363281 222.066406 529.855469 229.261719 521.667969 226.003906 L 523.074219 222.472656 C 528.433594 224.605469 534.003906 219.890625 532.789062 214.253906 Z M 532.789062 214.253906 " fill-opacity="1" fill-rule="evenodd"/><path fill="#0f2a46" d="M 508.292969 226.796875 L 508.621094 227.675781 C 510.9375 233.902344 516.878906 238.03125 523.519531 238.03125 L 523.519531 241.835938 C 515.289062 241.835938 507.925781 236.714844 505.058594 229 L 504.730469 228.121094 Z M 508.292969 226.796875 " fill-opacity="1" fill-rule="evenodd"/><path fill="#2f6da3" d="M 499.710938 174.753906 C 490.640625 174.753906 483.285156 182.105469 483.285156 191.179688 C 483.285156 200.246094 490.640625 207.601562 499.710938 207.601562 C 508.777344 207.601562 516.132812 200.246094 516.132812 191.179688 C 516.132812 182.105469 508.777344 174.753906 499.710938 174.753906 Z M 479.316406 182.578125 C 482.671875 174.628906 490.539062 169.050781 499.710938 169.050781 C 510.082031 169.050781 518.785156 176.183594 521.183594 185.816406 C 524.921875 184.421875 528.984375 184.128906 532.886719 184.976562 C 535.566406 175.773438 544.066406 169.050781 554.136719 169.050781 C 566.355469 169.050781 576.261719 178.957031 576.261719 191.179688 C 576.261719 203.398438 566.355469 213.304688 554.136719 213.304688 C 541.914062 213.304688 532.007812 203.398438 532.007812 191.179688 C 532.007812 190.992188 532.007812 190.8125 532.011719 190.628906 C 528.601562 189.804688 525 190.191406 521.832031 191.738281 C 521.53125 203.699219 511.742188 213.304688 499.710938 213.304688 C 487.488281 213.304688 477.582031 203.398438 477.582031 191.179688 C 477.582031 190.140625 477.652344 189.117188 477.789062 188.117188 L 427.410156 180.53125 C 422.105469 179.730469 417.058594 183.574219 416.371094 189.253906 L 410.707031 188.566406 C 411.765625 179.851562 419.621094 173.585938 428.261719 174.886719 Z M 554.136719 174.753906 C 545.0625 174.753906 537.710938 182.105469 537.710938 191.179688 C 537.710938 200.246094 545.0625 207.601562 554.136719 207.601562 C 563.203125 207.601562 570.554688 200.246094 570.554688 191.179688 C 570.554688 182.105469 563.203125 174.753906 554.136719 174.753906 Z M 554.136719 174.753906 " fill-opacity="1" fill-rule="evenodd"/><path fill="#0f2a46" d="M 506.511719 196.28125 C 506.511719 199.097656 504.226562 201.382812 501.410156 201.382812 C 498.589844 201.382812 496.308594 199.097656 496.308594 196.28125 C 496.308594 193.460938 498.589844 191.179688 501.410156 191.179688 C 504.226562 191.179688 506.511719 193.460938 506.511719 196.28125 Z M 506.511719 196.28125 " fill-opacity="1" fill-rule="nonzero"/><path fill="#0f2a46" d="M 557.535156 196.28125 C 557.535156 199.097656 555.503906 201.382812 553 201.382812 C 550.496094 201.382812 548.464844 199.097656 548.464844 196.28125 C 548.464844 193.460938 550.496094 191.179688 553 191.179688 C 555.503906 191.179688 557.535156 193.460938 557.535156 196.28125 Z M 557.535156 196.28125 " fill-opacity="1" fill-rule="nonzero"/><path fill="#0f2a46" d="M 377.40625 453.488281 C 377.40625 457.164062 375.703125 460.144531 373.601562 460.144531 C 371.5 460.144531 369.796875 457.164062 369.796875 453.488281 C 369.796875 449.8125 371.5 446.832031 373.601562 446.832031 C 375.703125 446.832031 377.40625 449.8125 377.40625 453.488281 Z M 377.40625 453.488281 " fill-opacity="1" fill-rule="nonzero"/><path fill="#0f2a46" d="M 542.191406 562.378906 C 536.679688 567.101562 510.304688 586.523438 470.863281 592.292969 L 470.3125 588.53125 C 508.84375 582.894531 534.574219 563.898438 539.714844 559.492188 Z M 542.191406 562.378906 " fill-opacity="1" fill-rule="evenodd"/><path fill="#0f2a46" d="M 447.886719 349.84375 C 412.421875 352.058594 375.503906 384.082031 375.503906 437.324219 L 371.699219 437.324219 C 371.699219 382.167969 410.089844 348.394531 447.648438 346.046875 Z M 447.886719 349.84375 " fill-opacity="1" fill-rule="evenodd"/><path fill="#ffc25e" d="M 759.648438 42.71875 C 759.648438 54.796875 749.855469 64.589844 737.777344 64.589844 C 725.703125 64.589844 715.910156 54.796875 715.910156 42.71875 C 715.910156 30.640625 725.703125 20.851562 737.777344 20.851562 C 749.855469 20.851562 759.648438 30.640625 759.648438 42.71875 Z M 759.648438 42.71875 " fill-opacity="1" fill-rule="nonzero"/><path fill="#0f2a46" d="M 737.777344 22.75 C 726.75 22.75 717.8125 31.691406 717.8125 42.71875 C 717.8125 53.746094 726.75 62.6875 737.777344 62.6875 C 748.808594 62.6875 757.746094 53.746094 757.746094 42.71875 C 757.746094 31.691406 748.808594 22.75 737.777344 22.75 Z M 714.007812 42.71875 C 714.007812 29.589844 724.648438 18.949219 737.777344 18.949219 C 750.910156 18.949219 761.550781 29.589844 761.550781 42.71875 C 761.550781 55.847656 750.910156 66.492188 737.777344 66.492188 C 724.648438 66.492188 714.007812 55.847656 714.007812 42.71875 Z M 714.007812 42.71875 " fill-opacity="1" fill-rule="evenodd"/><path fill="#ffc25e" d="M 828.109375 42.71875 C 828.109375 54.796875 818.320312 64.589844 806.242188 64.589844 C 794.164062 64.589844 784.371094 54.796875 784.371094 42.71875 C 784.371094 30.640625 794.164062 20.851562 806.242188 20.851562 C 818.320312 20.851562 828.109375 30.640625 828.109375 42.71875 Z M 828.109375 42.71875 " fill-opacity="1" fill-rule="nonzero"/><path fill="#0f2a46" d="M 806.242188 22.75 C 795.210938 22.75 786.273438 31.691406 786.273438 42.71875 C 786.273438 53.746094 795.210938 62.6875 806.242188 62.6875 C 817.269531 62.6875 826.207031 53.746094 826.207031 42.71875 C 826.207031 31.691406 817.269531 22.75 806.242188 22.75 Z M 782.46875 42.71875 C 782.46875 29.589844 793.113281 18.949219 806.242188 18.949219 C 819.371094 18.949219 830.011719 29.589844 830.011719 42.71875 C 830.011719 55.847656 819.371094 66.492188 806.242188 66.492188 C 793.113281 66.492188 782.46875 55.847656 782.46875 42.71875 Z M 782.46875 42.71875 " fill-opacity="1" fill-rule="evenodd"/><path fill="#ffc25e" d="M 896.570312 42.71875 C 896.570312 54.796875 886.78125 64.589844 874.703125 64.589844 C 862.625 64.589844 852.832031 54.796875 852.832031 42.71875 C 852.832031 30.640625 862.625 20.851562 874.703125 20.851562 C 886.78125 20.851562 896.570312 30.640625 896.570312 42.71875 Z M 896.570312 42.71875 " fill-opacity="1" fill-rule="nonzero"/><path fill="#0f2a46" d="M 874.703125 22.75 C 863.675781 22.75 854.734375 31.691406 854.734375 42.71875 C 854.734375 53.746094 863.675781 62.6875 874.703125 62.6875 C 885.730469 62.6875 894.671875 53.746094 894.671875 42.71875 C 894.671875 31.691406 885.730469 22.75 874.703125 22.75 Z M 850.929688 42.71875 C 850.929688 29.589844 861.574219 18.949219 874.703125 18.949219 C 887.832031 18.949219 898.472656 29.589844 898.472656 42.71875 C 898.472656 55.847656 887.832031 66.492188 874.703125 66.492188 C 861.574219 66.492188 850.929688 55.847656 850.929688 42.71875 Z M 850.929688 42.71875 " fill-opacity="1" fill-rule="evenodd"/><path fill="#ffc25e" d="M 919.394531 30.359375 C 919.394531 25.105469 923.652344 20.851562 928.902344 20.851562 L 1111.464844 20.851562 C 1116.714844 20.851562 1120.972656 25.105469 1120.972656 30.359375 L 1120.972656 56.980469 C 1120.972656 62.234375 1116.714844 66.492188 1111.464844 66.492188 L 928.902344 66.492188 C 923.652344 66.492188 919.394531 62.234375 919.394531 56.980469 Z M 919.394531 30.359375 " fill-opacity="1" fill-rule="nonzero"/><path fill="#0f2a46" d="M 917.492188 30.359375 C 917.492188 24.054688 922.597656 18.949219 928.902344 18.949219 L 1111.464844 18.949219 C 1117.769531 18.949219 1122.875 24.054688 1122.875 30.359375 L 1122.875 56.980469 C 1122.875 63.285156 1117.769531 68.390625 1111.464844 68.390625 L 928.902344 68.390625 C 922.597656 68.390625 917.492188 63.285156 917.492188 56.980469 Z M 928.902344 22.75 C 924.699219 22.75 921.292969 26.15625 921.292969 30.359375 L 921.292969 56.980469 C 921.292969 61.183594 924.699219 64.589844 928.902344 64.589844 L 1111.464844 64.589844 C 1115.667969 64.589844 1119.070312 61.183594 1119.070312 56.980469 L 1119.070312 30.359375 C 1119.070312 26.15625 1115.667969 22.75 1111.464844 22.75 Z M 928.902344 22.75 " fill-opacity="1" fill-rule="evenodd"/><path fill="#ffc25e" d="M 1076.078125 398.917969 C 1076.078125 449.539062 1035.042969 490.574219 984.421875 490.574219 C 958.339844 490.574219 934.800781 479.675781 918.109375 462.1875 C 902.410156 445.734375 892.769531 423.453125 892.769531 398.917969 C 892.769531 370.660156 905.554688 345.390625 925.65625 328.578125 C 941.566406 315.273438 962.058594 307.261719 984.421875 307.261719 C 984.839844 307.261719 985.253906 307.265625 985.667969 307.273438 C 987.691406 307.296875 989.273438 308.976562 989.273438 311 L 989.273438 391.910156 L 1072.285156 391.910156 C 1074.277344 391.910156 1075.9375 393.441406 1076.011719 395.429688 C 1076.054688 396.585938 1076.078125 397.75 1076.078125 398.917969 Z M 1076.078125 398.917969 " fill-opacity="1" fill-rule="nonzero"/><path fill="#0f2a46" d="M 928.492188 328.71875 L 987.375 387.332031 L 987.375 311 C 987.375 309.96875 986.578125 309.183594 985.640625 309.171875 C 985.238281 309.167969 984.832031 309.164062 984.421875 309.164062 C 963.269531 309.164062 943.832031 316.480469 928.492188 328.71875 Z M 990.054688 393.8125 L 920.789062 462.210938 C 937.046875 478.558594 959.554688 488.671875 984.421875 488.671875 C 1033.992188 488.671875 1074.175781 448.488281 1074.175781 398.917969 C 1074.175781 397.773438 1074.15625 396.632812 1074.113281 395.5 C 1074.078125 394.582031 1073.300781 393.8125 1072.285156 393.8125 Z M 918.164062 459.460938 L 986.574219 391.902344 L 925.554688 331.164062 C 906.628906 347.621094 894.671875 371.871094 894.671875 398.917969 C 894.671875 422.25 903.570312 443.496094 918.164062 459.460938 Z M 991.175781 390.007812 L 1072.285156 390.007812 C 1075.253906 390.007812 1077.800781 392.304688 1077.914062 395.359375 C 1077.957031 396.539062 1077.980469 397.726562 1077.980469 398.917969 C 1077.980469 450.585938 1036.09375 492.472656 984.421875 492.472656 C 957.796875 492.472656 933.769531 481.347656 916.730469 463.5 C 900.707031 446.710938 890.867188 423.960938 890.867188 398.917969 C 890.867188 370.074219 903.921875 344.28125 924.4375 327.121094 C 940.675781 313.539062 961.597656 305.359375 984.421875 305.359375 C 984.847656 305.359375 985.269531 305.363281 985.691406 305.371094 C 988.804688 305.410156 991.175781 307.984375 991.175781 311 Z M 991.175781 390.007812 " fill-opacity="1" fill-rule="evenodd"/><path fill="#2f6da3" d="M 984.421875 307.261719 C 963.554688 307.261719 944.316406 314.234375 928.914062 325.980469 C 927.132812 327.335938 927.023438 329.941406 928.609375 331.519531 L 989.273438 391.910156 L 989.273438 311 C 989.273438 308.976562 987.691406 307.296875 985.667969 307.273438 C 985.253906 307.265625 984.839844 307.261719 984.421875 307.261719 Z M 984.421875 307.261719 " fill-opacity="1" fill-rule="nonzero"/><path fill="#0f2a46" d="M 984.421875 309.164062 C 963.988281 309.164062 945.152344 315.992188 930.066406 327.492188 C 929.25 328.113281 929.140625 329.363281 929.949219 330.171875 L 987.375 387.332031 L 987.375 311 C 987.375 309.96875 986.578125 309.183594 985.640625 309.171875 C 985.234375 309.167969 984.832031 309.164062 984.421875 309.164062 Z M 927.757812 324.46875 C 943.484375 312.480469 963.125 305.359375 984.421875 305.359375 C 984.84375 305.359375 985.269531 305.363281 985.691406 305.371094 C 988.804688 305.410156 991.175781 307.984375 991.175781 311 L 991.175781 396.484375 L 927.265625 332.867188 C 924.90625 330.515625 925.015625 326.558594 927.757812 324.46875 Z M 927.757812 324.46875 " fill-opacity="1" fill-rule="evenodd"/><path fill="#2f6da3" d="M 984.421875 490.574219 C 1035.042969 490.574219 1076.078125 449.539062 1076.078125 398.917969 C 1076.078125 397.75 1076.054688 396.585938 1076.015625 395.429688 C 1075.941406 393.441406 1074.277344 391.910156 1072.289062 391.910156 L 989.277344 391.910156 L 920.769531 459.558594 C 919.292969 461.019531 919.25 463.398438 920.746094 464.839844 C 937.234375 480.769531 959.683594 490.574219 984.421875 490.574219 Z M 984.421875 490.574219 " fill-opacity="1" fill-rule="nonzero"/><path fill="#0f2a46" d="M 988.496094 390.007812 L 1072.289062 390.007812 C 1075.253906 390.007812 1077.800781 392.304688 1077.914062 395.359375 C 1077.957031 396.539062 1077.980469 397.726562 1077.980469 398.917969 C 1077.980469 450.585938 1036.09375 492.472656 984.421875 492.472656 C 959.171875 492.472656 936.253906 482.46875 919.421875 466.207031 C 917.125 463.988281 917.230469 460.378906 919.433594 458.207031 Z M 990.054688 393.8125 L 922.105469 460.914062 C 921.351562 461.65625 921.378906 462.804688 922.066406 463.472656 C 938.214844 479.074219 960.195312 488.671875 984.421875 488.671875 C 1033.992188 488.671875 1074.175781 448.488281 1074.175781 398.917969 C 1074.175781 397.773438 1074.15625 396.632812 1074.113281 395.5 C 1074.078125 394.582031 1073.300781 393.8125 1072.289062 393.8125 Z M 990.054688 393.8125 " fill-opacity="1" fill-rule="evenodd"/><path fill="#ffc25e" d="M 1006.558594 379.507812 L 1098.933594 379.507812 C 1101.148438 379.507812 1102.898438 377.621094 1102.648438 375.421875 C 1096.957031 325.566406 1056.871094 286.179688 1006.753906 281.667969 C 1004.585938 281.472656 1002.753906 283.214844 1002.753906 285.390625 L 1002.753906 375.707031 C 1002.753906 377.804688 1004.457031 379.507812 1006.558594 379.507812 Z M 1006.558594 379.507812 " fill-opacity="1" fill-rule="nonzero"/><path fill="#0f2a46" d="M 1000.851562 285.390625 C 1000.851562 282.140625 1003.597656 279.476562 1006.925781 279.773438 C 1057.945312 284.367188 1098.746094 324.457031 1104.539062 375.207031 C 1104.921875 378.582031 1102.234375 381.410156 1098.933594 381.410156 L 1006.558594 381.410156 C 1003.40625 381.410156 1000.851562 378.855469 1000.851562 375.707031 Z M 1006.585938 283.5625 C 1005.574219 283.472656 1004.65625 284.285156 1004.65625 285.390625 L 1004.65625 375.707031 C 1004.65625 376.753906 1005.507812 377.605469 1006.558594 377.605469 L 1098.933594 377.605469 C 1100.058594 377.605469 1100.875 376.660156 1100.757812 375.636719 C 1095.167969 326.671875 1055.796875 287.992188 1006.585938 283.5625 Z M 1006.585938 283.5625 " fill-opacity="1" fill-rule="evenodd"/><path fill="#0f2a46" d="M 818.601562 586.375 C 818.601562 579.023438 824.5625 573.0625 831.914062 573.0625 L 1024.503906 573.0625 C 1031.855469 573.0625 1037.8125 579.023438 1037.8125 586.375 L 1037.8125 636.054688 L 1034.011719 636.054688 L 1034.011719 586.375 C 1034.011719 581.125 1029.753906 576.867188 1024.503906 576.867188 L 831.914062 576.867188 C 826.664062 576.867188 822.40625 581.125 822.40625 586.375 L 822.40625 738.792969 C 822.40625 744.042969 826.664062 748.300781 831.914062 748.300781 L 1024.503906 748.300781 C 1029.753906 748.300781 1034.011719 744.042969 1034.011719 738.792969 L 1034.011719 706.417969 L 1037.8125 706.417969 L 1037.8125 738.792969 C 1037.8125 746.144531 1031.855469 752.101562 1024.503906 752.101562 L 831.914062 752.101562 C 824.5625 752.101562 818.601562 746.144531 818.601562 738.792969 Z M 818.601562 586.375 " fill-opacity="1" fill-rule="evenodd"/><path fill="#0f2a46" d="M 1040.148438 699.128906 L 1048.304688 692.285156 L 1063.265625 710.113281 L 1055.109375 716.957031 Z M 1040.148438 699.128906 " fill-opacity="1" fill-rule="nonzero"/><path fill="#0f2a46" d="M 1037.46875 698.894531 L 1048.539062 689.605469 L 1065.945312 710.347656 L 1054.871094 719.636719 Z M 1042.828125 699.363281 L 1055.34375 714.277344 L 1060.585938 709.878906 L 1048.070312 694.964844 Z M 1042.828125 699.363281 " fill-opacity="1" fill-rule="evenodd"/><path fill="#ffc25e" d="M 1023.609375 711.742188 C 1046.355469 711.742188 1064.792969 693.304688 1064.792969 670.558594 C 1064.792969 647.8125 1046.355469 629.375 1023.609375 629.375 C 1000.863281 629.375 982.425781 647.8125 982.425781 670.558594 C 982.425781 693.304688 1000.863281 711.742188 1023.609375 711.742188 Z M 1023.566406 701.648438 C 1040.761719 701.648438 1054.699219 687.710938 1054.699219 670.519531 C 1054.699219 653.324219 1040.761719 639.386719 1023.566406 639.386719 C 1006.375 639.386719 992.4375 653.324219 992.4375 670.519531 C 992.4375 687.710938 1006.375 701.648438 1023.566406 701.648438 Z M 1023.566406 701.648438 " fill-opacity="1" fill-rule="evenodd"/><path fill="#0f2a46" d="M 1023.609375 631.277344 C 1001.914062 631.277344 984.328125 648.863281 984.328125 670.558594 C 984.328125 692.253906 1001.914062 709.839844 1023.609375 709.839844 C 1045.304688 709.839844 1062.890625 692.253906 1062.890625 670.558594 C 1062.890625 648.863281 1045.304688 631.277344 1023.609375 631.277344 Z M 980.523438 670.558594 C 980.523438 646.761719 999.8125 627.472656 1023.609375 627.472656 C 1047.40625 627.472656 1066.695312 646.761719 1066.695312 670.558594 C 1066.695312 694.355469 1047.40625 713.644531 1023.609375 713.644531 C 999.8125 713.644531 980.523438 694.355469 980.523438 670.558594 Z M 1023.566406 641.289062 C 1007.425781 641.289062 994.339844 654.375 994.339844 670.519531 C 994.339844 686.660156 1007.425781 699.746094 1023.566406 699.746094 C 1039.710938 699.746094 1052.796875 686.660156 1052.796875 670.519531 C 1052.796875 654.375 1039.710938 641.289062 1023.566406 641.289062 Z M 990.535156 670.519531 C 990.535156 652.273438 1005.324219 637.484375 1023.566406 637.484375 C 1041.8125 637.484375 1056.601562 652.273438 1056.601562 670.519531 C 1056.601562 688.761719 1041.8125 703.550781 1023.566406 703.550781 C 1005.324219 703.550781 990.535156 688.761719 990.535156 670.519531 Z M 990.535156 670.519531 " fill-opacity="1" fill-rule="evenodd"/><path fill="#ffc25e" d="M 1049.726562 720.269531 C 1048.375 718.660156 1048.585938 716.257812 1050.195312 714.910156 L 1063.65625 703.613281 C 1065.265625 702.261719 1067.664062 702.472656 1069.015625 704.082031 L 1093.804688 733.625 C 1095.15625 735.238281 1094.945312 737.636719 1093.339844 738.984375 L 1079.875 750.28125 C 1078.265625 751.632812 1075.867188 751.421875 1074.515625 749.8125 Z M 1049.726562 720.269531 " fill-opacity="1" fill-rule="nonzero"/><path fill="#0f2a46" d="M 1048.269531 721.492188 C 1046.246094 719.078125 1046.558594 715.476562 1048.972656 713.453125 L 1062.433594 702.15625 C 1064.847656 700.132812 1068.445312 700.445312 1070.472656 702.859375 L 1095.261719 732.40625 C 1097.289062 734.820312 1096.972656 738.417969 1094.5625 740.441406 L 1081.097656 751.738281 C 1078.683594 753.761719 1075.085938 753.449219 1073.058594 751.035156 Z M 1051.417969 716.367188 C 1050.613281 717.042969 1050.507812 718.242188 1051.183594 719.046875 L 1075.972656 748.589844 C 1076.648438 749.394531 1077.847656 749.5 1078.652344 748.824219 L 1092.117188 737.527344 C 1092.917969 736.851562 1093.023438 735.652344 1092.347656 734.847656 L 1067.558594 705.304688 C 1066.882812 704.5 1065.683594 704.394531 1064.878906 705.070312 Z M 1051.417969 716.367188 " fill-opacity="1" fill-rule="evenodd"/><path fill="#0f2a46" d="M 976.03125 612.527344 C 976.898438 613.121094 977.121094 614.304688 976.53125 615.171875 L 947.234375 658.042969 L 907.59375 640.15625 L 885.609375 654.480469 C 884.730469 655.054688 883.550781 654.804688 882.980469 653.921875 C 882.40625 653.042969 882.652344 651.867188 883.535156 651.292969 L 907.261719 635.832031 L 945.890625 653.265625 L 973.390625 613.023438 C 973.984375 612.15625 975.164062 611.9375 976.03125 612.527344 Z M 976.03125 612.527344 " fill-opacity="1" fill-rule="evenodd"/><path fill="#2f6da3" d="M 853.75 750.203125 L 1003.359375 750.203125 L 1003.359375 760.425781 C 1003.359375 763.578125 1000.804688 766.132812 997.652344 766.132812 L 859.453125 766.132812 C 856.304688 766.132812 853.75 763.578125 853.75 760.425781 Z M 853.75 750.203125 " fill-opacity="1" fill-rule="nonzero"/><path fill="#0f2a46" d="M 851.847656 748.300781 L 1005.261719 748.300781 L 1005.261719 760.425781 C 1005.261719 764.628906 1001.855469 768.035156 997.652344 768.035156 L 859.453125 768.035156 C 855.253906 768.035156 851.847656 764.628906 851.847656 760.425781 Z M 855.652344 752.101562 L 855.652344 760.425781 C 855.652344 762.527344 857.355469 764.230469 859.453125 764.230469 L 997.652344 764.230469 C 999.753906 764.230469 1001.457031 762.527344 1001.457031 760.425781 L 1001.457031 752.101562 Z M 855.652344 752.101562 " fill-opacity="1" fill-rule="evenodd"/><path fill="#2f6da3" d="M 909.855469 574.964844 L 947.257812 574.964844 L 947.257812 564.738281 C 947.257812 561.585938 944.699219 559.035156 941.550781 559.035156 L 915.558594 559.035156 C 912.40625 559.035156 909.855469 561.585938 909.855469 564.738281 Z M 909.855469 574.964844 " fill-opacity="1" fill-rule="nonzero"/><path fill="#0f2a46" d="M 907.953125 576.867188 L 949.15625 576.867188 L 949.15625 564.738281 C 949.15625 560.539062 945.753906 557.132812 941.550781 557.132812 L 915.558594 557.132812 C 911.359375 557.132812 907.953125 560.539062 907.953125 564.738281 Z M 911.753906 573.0625 L 911.753906 564.738281 C 911.753906 562.636719 913.457031 560.9375 915.558594 560.9375 L 941.550781 560.9375 C 943.652344 560.9375 945.355469 562.636719 945.355469 564.738281 L 945.355469 573.0625 Z M 911.753906 573.0625 " fill-opacity="1" fill-rule="evenodd"/><g clip-path="url(#af0aaf6014)"><path fill="#0f2a46" d="M 905.550781 764.453125 C 906.480469 764.949219 906.828125 766.101562 906.335938 767.027344 L 884.171875 808.585938 C 883.675781 809.511719 882.527344 809.863281 881.597656 809.367188 C 880.671875 808.875 880.320312 807.71875 880.816406 806.792969 L 902.980469 765.238281 C 903.472656 764.308594 904.625 763.957031 905.550781 764.453125 Z M 905.550781 764.453125 " fill-opacity="1" fill-rule="evenodd"/></g><g clip-path="url(#b87f2b08be)"><path fill="#0f2a46" d="M 952.246094 764.453125 C 951.320312 764.949219 950.96875 766.101562 951.464844 767.027344 L 973.628906 808.585938 C 974.121094 809.511719 975.273438 809.863281 976.199219 809.367188 C 977.128906 808.875 977.476562 807.71875 976.984375 806.792969 L 954.820312 765.238281 C 954.324219 764.308594 953.171875 763.957031 952.246094 764.453125 Z M 952.246094 764.453125 " fill-opacity="1" fill-rule="evenodd"/></g><path fill="#ffc25e" d="M 886.996094 656.695312 C 886.996094 662.433594 882.34375 667.085938 876.605469 667.085938 C 870.867188 667.085938 866.21875 662.433594 866.21875 656.695312 C 866.21875 650.957031 870.867188 646.304688 876.605469 646.304688 C 882.34375 646.304688 886.996094 650.957031 886.996094 656.695312 Z M 886.996094 656.695312 " fill-opacity="1" fill-rule="nonzero"/><path fill="#0f2a46" d="M 876.605469 648.207031 C 871.917969 648.207031 868.117188 652.007812 868.117188 656.695312 C 868.117188 661.382812 871.917969 665.183594 876.605469 665.183594 C 881.292969 665.183594 885.09375 661.382812 885.09375 656.695312 C 885.09375 652.007812 881.292969 648.207031 876.605469 648.207031 Z M 864.316406 656.695312 C 864.316406 649.90625 869.816406 644.402344 876.605469 644.402344 C 883.394531 644.402344 888.898438 649.90625 888.898438 656.695312 C 888.898438 663.484375 883.394531 668.988281 876.605469 668.988281 C 869.816406 668.988281 864.316406 663.484375 864.316406 656.695312 Z M 864.316406 656.695312 " fill-opacity="1" fill-rule="evenodd"/><path fill="#2f6da3" d="M 922.320312 637.300781 C 922.320312 643.039062 917.667969 647.691406 911.929688 647.691406 C 906.191406 647.691406 901.542969 643.039062 901.542969 637.300781 C 901.542969 631.5625 906.191406 626.910156 911.929688 626.910156 C 917.667969 626.910156 922.320312 631.5625 922.320312 637.300781 Z M 922.320312 637.300781 " fill-opacity="1" fill-rule="nonzero"/><path fill="#0f2a46" d="M 911.929688 628.8125 C 907.242188 628.8125 903.441406 632.613281 903.441406 637.300781 C 903.441406 641.988281 907.242188 645.789062 911.929688 645.789062 C 916.617188 645.789062 920.417969 641.988281 920.417969 637.300781 C 920.417969 632.613281 916.617188 628.8125 911.929688 628.8125 Z M 899.640625 637.300781 C 899.640625 630.511719 905.140625 625.011719 911.929688 625.011719 C 918.71875 625.011719 924.222656 630.511719 924.222656 637.300781 C 924.222656 644.089844 918.71875 649.59375 911.929688 649.59375 C 905.140625 649.59375 899.640625 644.089844 899.640625 637.300781 Z M 899.640625 637.300781 " fill-opacity="1" fill-rule="evenodd"/><path fill="#ffc25e" d="M 956.953125 656.695312 C 956.953125 662.433594 952.300781 667.085938 946.5625 667.085938 C 940.828125 667.085938 936.175781 662.433594 936.175781 656.695312 C 936.175781 650.957031 940.828125 646.304688 946.5625 646.304688 C 952.300781 646.304688 956.953125 650.957031 956.953125 656.695312 Z M 956.953125 656.695312 " fill-opacity="1" fill-rule="nonzero"/><path fill="#0f2a46" d="M 946.5625 648.207031 C 941.875 648.207031 938.078125 652.007812 938.078125 656.695312 C 938.078125 661.382812 941.875 665.183594 946.5625 665.183594 C 951.25 665.183594 955.050781 661.382812 955.050781 656.695312 C 955.050781 652.007812 951.25 648.207031 946.5625 648.207031 Z M 934.273438 656.695312 C 934.273438 649.90625 939.773438 644.402344 946.5625 644.402344 C 953.351562 644.402344 958.855469 649.90625 958.855469 656.695312 C 958.855469 663.484375 953.351562 668.988281 946.5625 668.988281 C 939.773438 668.988281 934.273438 663.484375 934.273438 656.695312 Z M 934.273438 656.695312 " fill-opacity="1" fill-rule="evenodd"/><path fill="#2f6da3" d="M 990.890625 607.519531 C 990.890625 613.253906 986.238281 617.90625 980.5 617.90625 C 974.761719 617.90625 970.109375 613.253906 970.109375 607.519531 C 970.109375 601.78125 974.761719 597.128906 980.5 597.128906 C 986.238281 597.128906 990.890625 601.78125 990.890625 607.519531 Z M 990.890625 607.519531 " fill-opacity="1" fill-rule="nonzero"/><path fill="#0f2a46" d="M 980.5 599.03125 C 975.8125 599.03125 972.011719 602.832031 972.011719 607.519531 C 972.011719 612.207031 975.8125 616.003906 980.5 616.003906 C 985.1875 616.003906 988.988281 612.207031 988.988281 607.519531 C 988.988281 602.832031 985.1875 599.03125 980.5 599.03125 Z M 968.210938 607.519531 C 968.210938 600.730469 973.714844 595.226562 980.5 595.226562 C 987.289062 595.226562 992.792969 600.730469 992.792969 607.519531 C 992.792969 614.308594 987.289062 619.808594 980.5 619.808594 C 973.714844 619.808594 968.210938 614.308594 968.210938 607.519531 Z M 968.210938 607.519531 " fill-opacity="1" fill-rule="evenodd"/><path fill="#0f2a46" d="M 855.019531 693.054688 C 855.019531 689.902344 857.574219 687.347656 860.726562 687.347656 L 875.976562 687.347656 C 879.125 687.347656 881.679688 689.902344 881.679688 693.054688 L 881.679688 724.925781 C 881.679688 728.078125 879.125 730.632812 875.976562 730.632812 L 860.726562 730.632812 C 857.574219 730.632812 855.019531 728.078125 855.019531 724.925781 Z M 860.726562 691.152344 C 859.675781 691.152344 858.824219 692 858.824219 693.054688 L 858.824219 724.925781 C 858.824219 725.976562 859.675781 726.828125 860.726562 726.828125 L 875.976562 726.828125 C 877.027344 726.828125 877.875 725.976562 877.875 724.925781 L 877.875 693.054688 C 877.875 692 877.027344 691.152344 875.976562 691.152344 Z M 860.726562 691.152344 " fill-opacity="1" fill-rule="evenodd"/><path fill="#ffc25e" d="M 906.4375 673.660156 C 906.4375 671.558594 908.136719 669.855469 910.238281 669.855469 L 925.488281 669.855469 C 927.589844 669.855469 929.292969 671.558594 929.292969 673.660156 L 929.292969 724.925781 C 929.292969 727.023438 927.589844 728.730469 925.488281 728.730469 L 910.238281 728.730469 C 908.136719 728.730469 906.4375 727.023438 906.4375 724.925781 Z M 906.4375 673.660156 " fill-opacity="1" fill-rule="nonzero"/><path fill="#0f2a46" d="M 904.535156 673.660156 C 904.535156 670.507812 907.089844 667.953125 910.238281 667.953125 L 925.488281 667.953125 C 928.640625 667.953125 931.195312 670.507812 931.195312 673.660156 L 931.195312 724.925781 C 931.195312 728.078125 928.640625 730.632812 925.488281 730.632812 L 910.238281 730.632812 C 907.089844 730.632812 904.535156 728.078125 904.535156 724.925781 Z M 910.238281 671.757812 C 909.191406 671.757812 908.339844 672.609375 908.339844 673.660156 L 908.339844 724.925781 C 908.339844 725.976562 909.191406 726.828125 910.238281 726.828125 L 925.488281 726.828125 C 926.539062 726.828125 927.390625 725.976562 927.390625 724.925781 L 927.390625 673.660156 C 927.390625 672.609375 926.539062 671.757812 925.488281 671.757812 Z M 910.238281 671.757812 " fill-opacity="1" fill-rule="evenodd"/><path fill="#2f6da3" d="M 952.6875 691.667969 C 952.6875 689.566406 954.386719 687.863281 956.488281 687.863281 L 971.738281 687.863281 C 973.839844 687.863281 975.542969 689.566406 975.542969 691.667969 L 975.542969 724.925781 C 975.542969 727.023438 973.839844 728.730469 971.738281 728.730469 L 956.488281 728.730469 C 954.386719 728.730469 952.6875 727.023438 952.6875 724.925781 Z M 952.6875 691.667969 " fill-opacity="1" fill-rule="nonzero"/><path fill="#0f2a46" d="M 950.785156 691.667969 C 950.785156 688.515625 953.339844 685.960938 956.488281 685.960938 L 971.738281 685.960938 C 974.890625 685.960938 977.445312 688.515625 977.445312 691.667969 L 977.445312 724.925781 C 977.445312 728.078125 974.890625 730.632812 971.738281 730.632812 L 956.488281 730.632812 C 953.339844 730.632812 950.785156 728.078125 950.785156 724.925781 Z M 956.488281 689.765625 C 955.441406 689.765625 954.585938 690.617188 954.585938 691.667969 L 954.585938 724.925781 C 954.585938 725.976562 955.441406 726.828125 956.488281 726.828125 L 971.738281 726.828125 C 972.789062 726.828125 973.640625 725.976562 973.640625 724.925781 L 973.640625 691.667969 C 973.640625 690.617188 972.789062 689.765625 971.738281 689.765625 Z M 956.488281 689.765625 " fill-opacity="1" fill-rule="evenodd"/><g fill="#000000" fill-opacity="1"><g transform="translate(489.774702, 724.599992)"><g><path d="M 1.765625 0.078125 C 1.515625 0.078125 1.300781 -0.00390625 1.125 -0.171875 C 0.957031 -0.347656 0.875 -0.554688 0.875 -0.796875 C 0.875 -1.046875 0.957031 -1.253906 1.125 -1.421875 C 1.300781 -1.597656 1.515625 -1.6875 1.765625 -1.6875 C 2.003906 -1.6875 2.207031 -1.597656 2.375 -1.421875 C 2.550781 -1.253906 2.640625 -1.046875 2.640625 -0.796875 C 2.640625 -0.554688 2.550781 -0.347656 2.375 -0.171875 C 2.207031 -0.00390625 2.003906 0.078125 1.765625 0.078125 Z M 1.765625 0.078125 "/></g></g></g></svg>