<svg xmlns="http://www.w3.org/2000/svg" xmlns:xlink="http://www.w3.org/1999/xlink" width="378" zoomAndPan="magnify" viewBox="0 0 283.5 283.500005" height="378" preserveAspectRatio="xMidYMid meet" version="1.0"><defs><filter x="0%" y="0%" width="100%" height="100%" id="99ae61137b"><feColorMatrix values="0 0 0 0 1 0 0 0 0 1 0 0 0 0 1 0 0 0 1 0" color-interpolation-filters="sRGB"/></filter><g/><clipPath id="ca57433847"><path d="M 0.257812 2 L 1 2 L 1 2.820312 L 0.257812 2.820312 Z M 0.257812 2 " clip-rule="nonzero"/></clipPath><clipPath id="1d21dc0908"><rect x="0" width="2" y="0" height="3"/></clipPath><clipPath id="f6ae064190"><path d="M 67 0.4375 L 223 0.4375 L 223 272 L 67 272 Z M 67 0.4375 " clip-rule="nonzero"/></clipPath><mask id="66a8c0737b"><g filter="url(#99ae61137b)"><rect x="-64.37" width="408.24" fill="#000000" y="-63.370001" height="408.240007" fill-opacity="0.034"/></g></mask><clipPath id="a085636e3d"><path d="M 0.238281 1 L 155.484375 1 L 155.484375 271 L 0.238281 271 Z M 0.238281 1 " clip-rule="nonzero"/></clipPath><clipPath id="50e75f25af"><rect x="0" width="156" y="0" height="272"/></clipPath><clipPath id="644971bd30"><path d="M 68 0.4375 L 217 0.4375 L 217 274 L 68 274 Z M 68 0.4375 " clip-rule="nonzero"/></clipPath><mask id="0f7268715f"><g filter="url(#99ae61137b)"><rect x="-64.37" width="408.24" fill="#000000" y="-63.370001" height="408.240007" fill-opacity="0.069"/></g></mask><clipPath id="7059a27aea"><path d="M 0.195312 0.4375 L 148.496094 0.4375 L 148.496094 273.554688 L 0.195312 273.554688 Z M 0.195312 0.4375 " clip-rule="nonzero"/></clipPath><clipPath id="ed5b01eefd"><rect x="0" width="149" y="0" height="274"/></clipPath><clipPath id="1eb09d4216"><path d="M 68 0.4375 L 211 0.4375 L 211 276 L 68 276 Z M 68 0.4375 " clip-rule="nonzero"/></clipPath><mask id="dfac0021eb"><g filter="url(#99ae61137b)"><rect x="-64.37" width="408.24" fill="#000000" y="-63.370001" height="408.240007" fill-opacity="0.103"/></g></mask><clipPath id="9e93de643d"><path d="M 0.675781 0.675781 L 142.265625 0.675781 L 142.265625 275.710938 L 0.675781 275.710938 Z M 0.675781 0.675781 " clip-rule="nonzero"/></clipPath><clipPath id="5aaf5bf9de"><rect x="0" width="143" y="0" height="276"/></clipPath><mask id="b95a560547"><g filter="url(#99ae61137b)"><rect x="-64.37" width="408.24" fill="#000000" y="-63.370001" height="408.240007" fill-opacity="0.138"/></g></mask><clipPath id="0bb2394e5f"><path d="M 0.195312 0.394531 L 138.671875 0.394531 L 138.671875 276.390625 L 0.195312 276.390625 Z M 0.195312 0.394531 " clip-rule="nonzero"/></clipPath><clipPath id="7c442c9c98"><rect x="0" width="139" y="0" height="277"/></clipPath><mask id="215d8e2cb2"><g filter="url(#99ae61137b)"><rect x="-64.37" width="408.24" fill="#000000" y="-63.370001" height="408.240007" fill-opacity="0.172"/></g></mask><clipPath id="6cb7de70fb"><path d="M 0.238281 0.59375 L 139.671875 0.59375 L 139.671875 276.585938 L 0.238281 276.585938 Z M 0.238281 0.59375 " clip-rule="nonzero"/></clipPath><clipPath id="07723d0983"><rect x="0" width="140" y="0" height="277"/></clipPath><clipPath id="53a75b2f64"><path d="M 65 4 L 210 4 L 210 279.546875 L 65 279.546875 Z M 65 4 " clip-rule="nonzero"/></clipPath><mask id="0845f363f6"><g filter="url(#99ae61137b)"><rect x="-64.37" width="408.24" fill="#000000" y="-63.370001" height="408.240007" fill-opacity="0.207"/></g></mask><clipPath id="0127475d45"><path d="M 0.5625 0.03125 L 144 0.03125 L 144 275.304688 L 0.5625 275.304688 Z M 0.5625 0.03125 " clip-rule="nonzero"/></clipPath><clipPath id="afc149f58b"><rect x="0" width="145" y="0" height="276"/></clipPath><clipPath id="72a0a38b60"><path d="M 63 5 L 214 5 L 214 279.546875 L 63 279.546875 Z M 63 5 " clip-rule="nonzero"/></clipPath><mask id="bb42570fa4"><g filter="url(#99ae61137b)"><rect x="-64.37" width="408.24" fill="#000000" y="-63.370001" height="408.240007" fill-opacity="0.241"/></g></mask><clipPath id="1a04af87d4"><path d="M 0.644531 1 L 150 1 L 150 274.546875 L 0.644531 274.546875 Z M 0.644531 1 " clip-rule="nonzero"/></clipPath><clipPath id="43a11f0f1d"><rect x="0" width="151" y="0" height="275"/></clipPath><clipPath id="2d24d3e800"><path d="M 61 8 L 218 8 L 218 279.546875 L 61 279.546875 Z M 61 8 " clip-rule="nonzero"/></clipPath><mask id="f57b2663e0"><g filter="url(#99ae61137b)"><rect x="-64.37" width="408.24" fill="#000000" y="-63.370001" height="408.240007" fill-opacity="0.276"/></g></mask><clipPath id="561c208edf"><path d="M 0.25 1 L 156.691406 1 L 156.691406 271.304688 L 0.25 271.304688 Z M 0.25 1 " clip-rule="nonzero"/></clipPath><clipPath id="a6e17a57db"><rect x="0" width="157" y="0" height="272"/></clipPath><mask id="119cff3907"><g filter="url(#99ae61137b)"><rect x="-64.37" width="408.24" fill="#000000" y="-63.370001" height="408.240007" fill-opacity="0.31"/></g></mask><clipPath id="43d4e81c90"><path d="M 0.851562 1 L 165 1 L 165 267.585938 L 0.851562 267.585938 Z M 0.851562 1 " clip-rule="nonzero"/></clipPath><clipPath id="bba070c263"><rect x="0" width="166" y="0" height="268"/></clipPath><mask id="b0d0ff695c"><g filter="url(#99ae61137b)"><rect x="-64.37" width="408.24" fill="#000000" y="-63.370001" height="408.240007" fill-opacity="0.345"/></g></mask><clipPath id="b3f1967e34"><path d="M 0.21875 0.292969 L 172.472656 0.292969 L 172.472656 262.628906 L 0.21875 262.628906 Z M 0.21875 0.292969 " clip-rule="nonzero"/></clipPath><clipPath id="a35ebc9679"><rect x="0" width="173" y="0" height="263"/></clipPath><mask id="af6b9e1159"><g filter="url(#99ae61137b)"><rect x="-64.37" width="408.24" fill="#000000" y="-63.370001" height="408.240007" fill-opacity="0.379"/></g></mask><clipPath id="66efe4bdc6"><path d="M 0.34375 0.125 L 181 0.125 L 181 257 L 0.34375 257 Z M 0.34375 0.125 " clip-rule="nonzero"/></clipPath><clipPath id="d188ae1523"><rect x="0" width="182" y="0" height="258"/></clipPath><mask id="76e16e68ae"><g filter="url(#99ae61137b)"><rect x="-64.37" width="408.24" fill="#000000" y="-63.370001" height="408.240007" fill-opacity="0.414"/></g></mask><clipPath id="5d78ec5cd5"><path d="M 1 0.199219 L 189.734375 0.199219 L 189.734375 251.515625 L 1 251.515625 Z M 1 0.199219 " clip-rule="nonzero"/></clipPath><clipPath id="07bbfb1730"><rect x="0" width="190" y="0" height="252"/></clipPath><mask id="517679fd07"><g filter="url(#99ae61137b)"><rect x="-64.37" width="408.24" fill="#000000" y="-63.370001" height="408.240007" fill-opacity="0.448"/></g></mask><clipPath id="1f07691e72"><path d="M 0.3125 0.75 L 197 0.75 L 197 245 L 0.3125 245 Z M 0.3125 0.75 " clip-rule="nonzero"/></clipPath><clipPath id="3d7e716d0a"><rect x="0" width="198" y="0" height="246"/></clipPath><mask id="a47e9810db"><g filter="url(#99ae61137b)"><rect x="-64.37" width="408.24" fill="#000000" y="-63.370001" height="408.240007" fill-opacity="0.483"/></g></mask><clipPath id="cd5b6c011e"><path d="M 0.675781 0.300781 L 205.515625 0.300781 L 205.515625 237.722656 L 0.675781 237.722656 Z M 0.675781 0.300781 " clip-rule="nonzero"/></clipPath><clipPath id="b3ddee512d"><rect x="0" width="206" y="0" height="238"/></clipPath><mask id="b6ac35f786"><g filter="url(#99ae61137b)"><rect x="-64.37" width="408.24" fill="#000000" y="-63.370001" height="408.240007" fill-opacity="0.517"/></g></mask><clipPath id="bd7aa3eaae"><path d="M 1 0.332031 L 214 0.332031 L 214 230 L 1 230 Z M 1 0.332031 " clip-rule="nonzero"/></clipPath><clipPath id="1f8c9ae144"><rect x="0" width="215" y="0" height="231"/></clipPath><mask id="64d9b87584"><g filter="url(#99ae61137b)"><rect x="-64.37" width="408.24" fill="#000000" y="-63.370001" height="408.240007" fill-opacity="0.552"/></g></mask><clipPath id="987a0a58d0"><path d="M 0.0078125 0.363281 L 221.617188 0.363281 L 221.617188 221.734375 L 0.0078125 221.734375 Z M 0.0078125 0.363281 " clip-rule="nonzero"/></clipPath><clipPath id="f5d30837a7"><rect x="0" width="222" y="0" height="222"/></clipPath><mask id="3cbdc1d7b2"><g filter="url(#99ae61137b)"><rect x="-64.37" width="408.24" fill="#000000" y="-63.370001" height="408.240007" fill-opacity="0.586"/></g></mask><clipPath id="c1fc3e6b8e"><path d="M 0.457031 0.394531 L 230.929688 0.394531 L 230.929688 212.898438 L 0.457031 212.898438 Z M 0.457031 0.394531 " clip-rule="nonzero"/></clipPath><clipPath id="d1a28a65ab"><rect x="0" width="231" y="0" height="213"/></clipPath><mask id="248a525f7f"><g filter="url(#99ae61137b)"><rect x="-64.37" width="408.24" fill="#000000" y="-63.370001" height="408.240007" fill-opacity="0.621"/></g></mask><clipPath id="cd0227da1a"><path d="M 0.144531 0.1875 L 238.765625 0.1875 L 238.765625 203.828125 L 0.144531 203.828125 Z M 0.144531 0.1875 " clip-rule="nonzero"/></clipPath><clipPath id="957c6d4e62"><rect x="0" width="239" y="0" height="204"/></clipPath><mask id="a2bc15d67a"><g filter="url(#99ae61137b)"><rect x="-64.37" width="408.24" fill="#000000" y="-63.370001" height="408.240007" fill-opacity="0.655"/></g></mask><clipPath id="c4cad8f232"><path d="M 1 1 L 247 1 L 247 195.273438 L 1 195.273438 Z M 1 1 " clip-rule="nonzero"/></clipPath><clipPath id="c7ba5a5f77"><rect x="0" width="248" y="0" height="196"/></clipPath><mask id="ecd443058c"><g filter="url(#99ae61137b)"><rect x="-64.37" width="408.24" fill="#000000" y="-63.370001" height="408.240007" fill-opacity="0.69"/></g></mask><clipPath id="b8d577deb7"><path d="M 1 0.289062 L 253.753906 0.289062 L 253.753906 185.484375 L 1 185.484375 Z M 1 0.289062 " clip-rule="nonzero"/></clipPath><clipPath id="6c51ae6cd9"><rect x="0" width="254" y="0" height="186"/></clipPath><mask id="7e22a5bca0"><g filter="url(#99ae61137b)"><rect x="-64.37" width="408.24" fill="#000000" y="-63.370001" height="408.240007" fill-opacity="0.724"/></g></mask><clipPath id="2859e7a690"><path d="M 1 0.125 L 259.671875 0.125 L 259.671875 176 L 1 176 Z M 1 0.125 " clip-rule="nonzero"/></clipPath><clipPath id="6169335824"><rect x="0" width="260" y="0" height="177"/></clipPath><mask id="c2ae443bea"><g filter="url(#99ae61137b)"><rect x="-64.37" width="408.24" fill="#000000" y="-63.370001" height="408.240007" fill-opacity="0.759"/></g></mask><clipPath id="27509a8591"><path d="M 0.574219 0.476562 L 264.585938 0.476562 L 264.585938 167.703125 L 0.574219 167.703125 Z M 0.574219 0.476562 " clip-rule="nonzero"/></clipPath><clipPath id="ced433965a"><rect x="0" width="265" y="0" height="168"/></clipPath><mask id="965c2531ba"><g filter="url(#99ae61137b)"><rect x="-64.37" width="408.24" fill="#000000" y="-63.370001" height="408.240007" fill-opacity="0.793"/></g></mask><clipPath id="ffa30eedeb"><path d="M 0.21875 1 L 268.785156 1 L 268.785156 160 L 0.21875 160 Z M 0.21875 1 " clip-rule="nonzero"/></clipPath><clipPath id="98ee866956"><rect x="0" width="269" y="0" height="161"/></clipPath><clipPath id="d6605c3275"><path d="M 7 72 L 279.265625 72 L 279.265625 225 L 7 225 Z M 7 72 " clip-rule="nonzero"/></clipPath><mask id="68da62c974"><g filter="url(#99ae61137b)"><rect x="-64.37" width="408.24" fill="#000000" y="-63.370001" height="408.240007" fill-opacity="0.828"/></g></mask><clipPath id="ac185665a3"><path d="M 0.582031 0.3125 L 272.265625 0.3125 L 272.265625 152 L 0.582031 152 Z M 0.582031 0.3125 " clip-rule="nonzero"/></clipPath><clipPath id="6dba7599fa"><rect x="0" width="273" y="0" height="153"/></clipPath><clipPath id="42a724fc74"><path d="M 5 73 L 279.265625 73 L 279.265625 218 L 5 218 Z M 5 73 " clip-rule="nonzero"/></clipPath><mask id="8e27519dc1"><g filter="url(#99ae61137b)"><rect x="-64.37" width="408.24" fill="#000000" y="-63.370001" height="408.240007" fill-opacity="0.862"/></g></mask><clipPath id="4faa01fdb8"><path d="M 0.1875 0.269531 L 274.265625 0.269531 L 274.265625 144.972656 L 0.1875 144.972656 Z M 0.1875 0.269531 " clip-rule="nonzero"/></clipPath><clipPath id="b46382320a"><rect x="0" width="275" y="0" height="145"/></clipPath><clipPath id="b2b4287ae4"><path d="M 3 73 L 279.265625 73 L 279.265625 213 L 3 213 Z M 3 73 " clip-rule="nonzero"/></clipPath><mask id="3423bc08e8"><g filter="url(#99ae61137b)"><rect x="-64.37" width="408.24" fill="#000000" y="-63.370001" height="408.240007" fill-opacity="0.897"/></g></mask><clipPath id="0ae873b4a9"><path d="M 0.511719 0.269531 L 276 0.269531 L 276 139.703125 L 0.511719 139.703125 Z M 0.511719 0.269531 " clip-rule="nonzero"/></clipPath><clipPath id="6ebafc87af"><rect x="0" width="277" y="0" height="140"/></clipPath><mask id="d6e392eb34"><g filter="url(#99ae61137b)"><rect x="-64.37" width="408.24" fill="#000000" y="-63.370001" height="408.240007" fill-opacity="0.931"/></g></mask><clipPath id="ede6473213"><path d="M 0.0742188 0.3125 L 276 0.3125 L 276 138.785156 L 0.0742188 138.785156 Z M 0.0742188 0.3125 " clip-rule="nonzero"/></clipPath><clipPath id="1069d33867"><rect x="0" width="277" y="0" height="139"/></clipPath><mask id="05ae9a17be"><g filter="url(#99ae61137b)"><rect x="-64.37" width="408.24" fill="#000000" y="-63.370001" height="408.240007" fill-opacity="0.966"/></g></mask><clipPath id="2f34f5862f"><path d="M 0.113281 1 L 275.628906 1 L 275.628906 142 L 0.113281 142 Z M 0.113281 1 " clip-rule="nonzero"/></clipPath><clipPath id="754d8d032c"><rect x="0" width="276" y="0" height="143"/></clipPath><clipPath id="88fa3f695a"><path d="M 0.636719 69 L 275 69 L 275 216 L 0.636719 216 Z M 0.636719 69 " clip-rule="nonzero"/></clipPath><clipPath id="05bf46cea7"><rect x="0" width="280" y="0" height="280"/></clipPath></defs><g transform="matrix(1, 0, 0, 1, 2, 1)"><g clip-path="url(#05bf46cea7)"><g transform="matrix(1, 0, 0, 1, 78, 121)"><g clip-path="url(#1d21dc0908)"><g clip-path="url(#ca57433847)"><g fill="#004aad" fill-opacity="1"><g transform="translate(0.479513, 2.254019)"><g><path d="M 0.21875 0.015625 C 0.1875 0.015625 0.160156 0.00390625 0.140625 -0.015625 C 0.117188 -0.0351562 0.109375 -0.0625 0.109375 -0.09375 C 0.109375 -0.125 0.117188 -0.148438 0.140625 -0.171875 C 0.160156 -0.191406 0.1875 -0.203125 0.21875 -0.203125 C 0.25 -0.203125 0.273438 -0.191406 0.296875 -0.171875 C 0.316406 -0.148438 0.328125 -0.125 0.328125 -0.09375 C 0.328125 -0.0625 0.316406 -0.0351562 0.296875 -0.015625 C 0.273438 0.00390625 0.25 0.015625 0.21875 0.015625 Z M 0.21875 0.015625 "/></g></g></g></g></g></g><g clip-path="url(#f6ae064190)"><g mask="url(#66a8c0737b)"><g transform="matrix(1, 0, 0, 1, 67, 0.00000000000000544)"><g clip-path="url(#50e75f25af)"><g clip-path="url(#a085636e3d)"><path fill="#004ef3" d="M 19.804688 30.992188 C 29.855469 13.113281 43.742188 1.550781 61.214844 1.183594 C 74.292969 0.90625 86.003906 9.382812 96.375 23.488281 C 106.75 37.597656 115.804688 57.371094 123.570312 79.757812 C 139.101562 124.53125 149.488281 179.796875 154.917969 221.226562 C 156.328125 231.980469 154.027344 243.128906 146.933594 251.359375 C 134.617188 265.648438 121.046875 272.628906 103.875 270.359375 C 86.722656 268.089844 66.003906 256.59375 39.371094 234.015625 C 24.1875 221.140625 13.609375 200.242188 7.363281 176.128906 C 1.121094 152.015625 -0.792969 124.671875 1.367188 98.886719 C 3.523438 73.105469 9.753906 48.875 19.804688 30.992188 Z M 7.652344 176.054688 C 13.886719 200.136719 24.441406 220.96875 39.5625 233.789062 C 66.1875 256.359375 86.851562 267.808594 103.914062 270.066406 C 120.957031 272.316406 134.433594 265.402344 146.710938 251.164062 C 153.734375 243.015625 156.023438 231.953125 154.625 221.265625 C 149.195312 179.84375 138.8125 124.601562 123.289062 79.855469 C 115.527344 57.480469 106.484375 37.742188 96.136719 23.664062 C 85.785156 9.585938 74.152344 1.207031 61.21875 1.480469 C 43.894531 1.847656 30.085938 13.304688 20.0625 31.140625 C 10.039062 48.972656 3.820312 73.15625 1.664062 98.914062 C -0.492188 124.664062 1.417969 151.976562 7.652344 176.054688 Z M 7.652344 176.054688 " fill-opacity="1" fill-rule="evenodd"/></g></g></g></g></g><g clip-path="url(#644971bd30)"><g mask="url(#0f7268715f)"><g transform="matrix(1, 0, 0, 1, 68, 0.00000000000000544)"><g clip-path="url(#ed5b01eefd)"><g clip-path="url(#7059a27aea)"><path fill="#004ef3" d="M 26.691406 27.710938 C 37.964844 10.574219 52.621094 0.0117188 70.078125 0.863281 C 83.144531 1.5 94.234375 10.773438 103.597656 25.570312 C 112.960938 40.367188 120.617188 60.722656 126.800781 83.597656 C 139.175781 129.34375 145.679688 185.199219 148.207031 226.90625 C 148.859375 237.730469 145.789062 248.695312 138.140625 256.410156 C 124.855469 269.804688 110.828125 275.824219 93.859375 272.359375 C 76.90625 268.902344 57.042969 255.988281 32.046875 231.605469 C 17.796875 217.703125 8.703125 196.117188 4.15625 171.628906 C -0.390625 147.136719 -0.390625 119.726562 3.5625 94.15625 C 7.511719 68.589844 15.417969 44.851562 26.691406 27.710938 Z M 4.449219 171.574219 C 8.988281 196.03125 18.066406 217.550781 32.253906 231.390625 C 57.242188 255.765625 77.054688 268.628906 93.917969 272.070312 C 110.761719 275.507812 124.691406 269.546875 137.929688 256.199219 C 145.507812 248.558594 148.5625 237.6875 147.910156 226.925781 C 145.382812 185.226562 138.878906 129.394531 126.515625 83.675781 C 120.332031 60.8125 112.6875 40.488281 103.347656 25.726562 C 94.003906 10.960938 82.984375 1.789062 70.0625 1.160156 C 52.753906 0.316406 38.179688 10.785156 26.9375 27.875 C 15.695312 44.96875 7.800781 68.660156 3.855469 94.199219 C -0.0898438 119.742188 -0.0898438 147.117188 4.449219 171.574219 Z M 4.449219 171.574219 " fill-opacity="1" fill-rule="evenodd"/></g></g></g></g></g><g clip-path="url(#1eb09d4216)"><g mask="url(#dfac0021eb)"><g transform="matrix(1, 0, 0, 1, 68, 0.00000000000000544)"><g clip-path="url(#5aaf5bf9de)"><g clip-path="url(#9e93de643d)"><path fill="#004ef3" d="M 34.785156 24.988281 C 47.226562 8.679688 62.585938 -0.832031 79.941406 1.230469 C 92.929688 2.777344 103.347656 12.800781 111.65625 28.214844 C 119.964844 43.632812 126.179688 64.472656 130.757812 87.722656 C 139.90625 134.21875 142.5 190.394531 142.109375 232.175781 C 142.007812 243.019531 138.179688 253.742188 130.011719 260.902344 C 115.824219 273.339844 101.414062 278.363281 84.726562 273.726562 C 68.054688 269.09375 49.140625 254.824219 25.90625 228.757812 C 12.660156 213.898438 5.097656 191.730469 2.269531 166.980469 C -0.558594 142.234375 1.355469 114.886719 7.078125 89.65625 C 12.804688 64.425781 22.34375 41.300781 34.785156 24.988281 Z M 2.566406 166.949219 C 5.386719 191.664062 12.941406 213.761719 26.128906 228.558594 C 49.355469 254.621094 68.222656 268.832031 84.804688 273.441406 C 101.371094 278.042969 115.679688 273.070312 129.816406 260.679688 C 137.90625 253.585938 141.710938 242.953125 141.8125 232.171875 C 142.199219 190.398438 139.609375 134.25 130.464844 87.777344 C 125.890625 64.542969 119.683594 43.734375 111.394531 28.355469 C 103.105469 12.972656 92.75 3.054688 79.90625 1.527344 C 62.699219 -0.519531 47.429688 8.902344 35.023438 25.171875 C 22.617188 41.433594 13.085938 64.519531 7.367188 89.722656 C 1.648438 114.925781 -0.257812 142.234375 2.566406 166.949219 Z M 2.566406 166.949219 " fill-opacity="1" fill-rule="evenodd"/></g></g></g></g></g><g mask="url(#b95a560547)"><g transform="matrix(1, 0, 0, 1, 68, 1)"><g clip-path="url(#7c442c9c98)"><g clip-path="url(#0bb2394e5f)"><path fill="#004ef3" d="M 43.050781 21.839844 C 56.601562 6.4375 72.585938 -1.980469 89.753906 1.289062 C 102.605469 3.738281 112.296875 14.464844 119.507812 30.417969 C 126.722656 46.378906 131.46875 67.601562 134.410156 91.113281 C 140.296875 138.136719 138.964844 194.351562 135.660156 236.007812 C 134.804688 246.816406 130.238281 257.246094 121.589844 263.820312 C 106.566406 275.238281 91.84375 279.242188 75.519531 273.453125 C 59.214844 267.667969 41.335938 252.117188 19.980469 224.492188 C 7.804688 208.742188 1.804688 186.101562 0.710938 161.21875 C -0.382812 136.332031 3.429688 109.1875 10.902344 84.414062 C 18.371094 59.648438 29.503906 37.242188 43.050781 21.839844 Z M 1.007812 161.203125 C 2.097656 186.054688 8.089844 208.628906 20.214844 224.308594 C 41.566406 251.925781 59.398438 267.417969 75.617188 273.171875 C 91.820312 278.921875 106.441406 274.957031 121.410156 263.582031 C 129.976562 257.070312 134.511719 246.730469 135.367188 235.984375 C 138.667969 194.339844 139.996094 138.144531 134.117188 91.148438 C 131.175781 67.648438 126.433594 46.460938 119.238281 30.542969 C 112.042969 14.617188 102.40625 4.003906 89.699219 1.582031 C 72.675781 -1.664062 56.789062 6.675781 43.273438 22.035156 C 29.761719 37.394531 18.648438 59.757812 11.1875 84.5 C 3.722656 109.242188 -0.0859375 136.355469 1.007812 161.203125 Z M 1.007812 161.203125 " fill-opacity="1" fill-rule="evenodd"/></g></g></g></g><g mask="url(#215d8e2cb2)"><g transform="matrix(1, 0, 0, 1, 67, 2)"><g clip-path="url(#07723d0983)"><g clip-path="url(#6cb7de70fb)"><path fill="#004ef3" d="M 52.449219 19.269531 C 67.039062 4.851562 83.570312 -2.433594 100.46875 2.027344 C 113.117188 5.367188 122.039062 16.742188 128.121094 33.160156 C 134.203125 49.585938 137.457031 71.085938 138.753906 94.746094 C 141.34375 142.066406 136.09375 198.054688 129.894531 239.375 C 128.285156 250.097656 123 260.183594 113.914062 266.140625 C 98.132812 276.480469 83.164062 279.449219 67.285156 272.535156 C 51.421875 265.628906 34.675781 248.867188 15.296875 219.820312 C 4.25 203.257812 -0.160156 180.253906 0.484375 155.355469 C 1.132812 130.453125 6.828125 103.640625 16.011719 79.453125 C 25.191406 55.265625 37.859375 33.6875 52.449219 19.269531 Z M 0.785156 155.363281 C 0.140625 180.230469 4.542969 203.164062 15.542969 219.652344 C 34.914062 248.691406 51.621094 265.390625 67.402344 272.261719 C 83.164062 279.128906 98.027344 276.195312 113.75 265.890625 C 122.75 259.992188 128 249.992188 129.597656 239.332031 C 135.796875 198.019531 141.042969 142.054688 138.457031 94.761719 C 137.164062 71.117188 133.910156 49.648438 127.839844 33.265625 C 121.773438 16.878906 112.902344 5.617188 100.394531 2.316406 C 83.640625 -2.109375 67.207031 5.101562 52.65625 19.480469 C 38.105469 33.859375 25.460938 55.394531 16.289062 79.558594 C 7.117188 103.71875 1.425781 130.496094 0.785156 155.363281 Z M 0.785156 155.363281 " fill-opacity="1" fill-rule="evenodd"/></g></g></g></g><g clip-path="url(#53a75b2f64)"><g mask="url(#0845f363f6)"><g transform="matrix(1, 0, 0, 1, 65, 4)"><g clip-path="url(#afc149f58b)"><g clip-path="url(#0127475d45)"><path fill="#004ef3" d="M 62.933594 16.289062 C 78.492188 2.921875 95.496094 -3.1875 112.042969 2.441406 C 124.425781 6.652344 132.53125 18.625 137.453125 35.425781 C 142.375 52.234375 144.121094 73.910156 143.761719 97.601562 C 143.046875 144.988281 133.902344 200.472656 124.835938 241.261719 C 122.480469 251.847656 116.507812 261.539062 107.027344 266.847656 C 90.5625 276.0625 75.425781 277.980469 60.066406 269.972656 C 44.722656 261.976562 29.1875 244.085938 11.882812 213.757812 C 2.015625 196.46875 -0.777344 173.210938 1.605469 148.417969 C 3.984375 123.621094 11.539062 97.273438 22.386719 73.785156 C 33.230469 50.296875 47.371094 29.65625 62.933594 16.289062 Z M 1.902344 148.445312 C -0.476562 173.207031 2.316406 196.394531 12.140625 213.609375 C 29.4375 243.929688 44.941406 261.753906 60.203125 269.710938 C 75.449219 277.65625 90.476562 275.769531 106.882812 266.585938 C 116.273438 261.332031 122.207031 251.722656 124.542969 241.199219 C 133.609375 200.417969 142.75 144.957031 143.464844 97.597656 C 143.824219 73.917969 142.078125 52.277344 137.167969 35.511719 C 132.253906 18.742188 124.191406 6.886719 111.945312 2.722656 C 95.539062 -2.859375 78.644531 3.183594 63.125 16.515625 C 47.609375 29.84375 33.492188 50.445312 22.65625 73.90625 C 11.824219 97.371094 4.277344 123.6875 1.902344 148.445312 Z M 1.902344 148.445312 " fill-opacity="1" fill-rule="evenodd"/></g></g></g></g></g><g clip-path="url(#72a0a38b60)"><g mask="url(#bb42570fa4)"><g transform="matrix(1, 0, 0, 1, 63, 5)"><g clip-path="url(#43a11f0f1d)"><g clip-path="url(#1a04af87d4)"><path fill="#004ef3" d="M 73.464844 14.902344 C 89.917969 2.65625 107.308594 -2.253906 123.421875 4.511719 C 135.480469 9.578125 142.730469 22.085938 146.46875 39.191406 C 150.207031 56.300781 150.4375 78.050781 148.425781 101.65625 C 144.40625 148.878906 131.414062 203.589844 119.523438 243.644531 C 116.4375 254.042969 109.800781 263.292969 99.976562 267.925781 C 82.910156 275.96875 67.671875 276.828125 52.910156 267.769531 C 38.164062 258.722656 23.910156 239.792969 8.765625 208.332031 C 0.128906 190.394531 -1.035156 167 3.070312 142.433594 C 7.175781 117.863281 16.546875 92.105469 29.007812 69.429688 C 41.464844 46.753906 57.011719 27.152344 73.464844 14.902344 Z M 3.363281 142.480469 C -0.734375 167.019531 0.433594 190.34375 9.03125 208.203125 C 24.175781 239.652344 38.394531 258.515625 53.066406 267.515625 C 67.71875 276.507812 82.84375 275.671875 99.847656 267.65625 C 109.582031 263.070312 116.171875 253.898438 119.238281 243.5625 C 131.125 203.515625 144.113281 148.824219 148.128906 101.632812 C 150.140625 78.035156 149.90625 56.324219 146.179688 39.257812 C 142.449219 22.183594 135.230469 9.796875 123.304688 4.789062 C 107.328125 -1.925781 90.054688 2.925781 73.644531 15.140625 C 57.234375 27.359375 41.710938 46.921875 29.265625 69.574219 C 16.824219 92.222656 7.460938 117.949219 3.363281 142.480469 Z M 3.363281 142.480469 " fill-opacity="1" fill-rule="evenodd"/></g></g></g></g></g><g clip-path="url(#2d24d3e800)"><g mask="url(#f57b2663e0)"><g transform="matrix(1, 0, 0, 1, 61, 8)"><g clip-path="url(#a6e17a57db)"><g clip-path="url(#561c208edf)"><path fill="#004ef3" d="M 84.003906 12.113281 C 101.273438 1.042969 118.960938 -2.640625 134.5625 5.234375 C 146.238281 11.128906 152.601562 24.113281 155.136719 41.4375 C 157.671875 58.765625 156.382812 80.476562 152.730469 103.886719 C 145.425781 150.710938 128.648438 204.382812 113.992188 243.511719 C 110.191406 253.667969 102.925781 262.433594 92.800781 266.371094 C 75.214844 273.203125 59.953125 272.996094 45.859375 262.929688 C 31.78125 252.875 18.882812 233 5.96875 200.558594 C -1.394531 182.0625 -0.921875 158.644531 4.882812 134.421875 C 10.691406 110.199219 21.839844 85.15625 35.851562 63.40625 C 49.859375 41.65625 66.734375 23.1875 84.003906 12.113281 Z M 5.171875 134.492188 C -0.628906 158.683594 -1.085938 182.03125 6.242188 200.449219 C 19.15625 232.878906 32.023438 252.6875 46.03125 262.691406 C 60.023438 272.679688 75.167969 272.902344 92.691406 266.09375 C 102.722656 262.195312 109.933594 253.503906 113.714844 243.410156 C 128.367188 204.289062 145.136719 150.636719 152.4375 103.839844 C 156.085938 80.441406 157.371094 58.765625 154.839844 41.480469 C 152.3125 24.191406 145.976562 11.328125 134.429688 5.5 C 118.957031 -2.3125 101.386719 1.324219 84.164062 12.363281 C 66.941406 23.40625 50.09375 41.839844 36.101562 63.566406 C 22.105469 85.292969 10.972656 110.304688 5.171875 134.492188 Z M 5.171875 134.492188 " fill-opacity="1" fill-rule="evenodd"/></g></g></g></g></g><g mask="url(#119cff3907)"><g transform="matrix(1, 0, 0, 1, 58, 11)"><g clip-path="url(#bba070c263)"><g clip-path="url(#43d4e81c90)"><path fill="#004ef3" d="M 95.507812 9.917969 C 113.507812 0.0820312 131.40625 -2.363281 146.421875 6.582031 C 157.660156 13.277344 163.097656 26.671875 164.417969 44.132812 C 165.738281 61.597656 162.941406 83.164062 157.664062 106.261719 C 147.113281 152.464844 126.632812 204.832031 109.28125 242.847656 C 104.78125 252.710938 96.921875 260.949219 86.546875 264.167969 C 68.523438 269.757812 53.316406 268.488281 39.957031 257.464844 C 26.613281 246.453125 15.136719 225.722656 4.515625 192.460938 C -1.539062 173.496094 0.566406 150.167969 8.046875 126.410156 C 15.53125 102.652344 28.398438 78.449219 43.894531 57.726562 C 59.386719 37.007812 77.507812 19.757812 95.507812 9.917969 Z M 8.332031 126.5 C 0.859375 150.226562 -1.230469 173.488281 4.800781 192.371094 C 15.417969 225.621094 26.875 246.28125 40.148438 257.234375 C 53.40625 268.179688 68.503906 269.457031 86.457031 263.886719 C 96.734375 260.695312 104.535156 252.53125 109.011719 242.722656 C 126.355469 204.71875 146.828125 152.371094 157.375 106.195312 C 162.648438 83.109375 165.441406 61.574219 164.121094 44.15625 C 162.804688 26.730469 157.382812 13.460938 146.269531 6.839844 C 131.382812 -2.03125 113.601562 0.367188 95.648438 10.179688 C 77.699219 19.992188 59.605469 37.207031 44.132812 57.90625 C 28.65625 78.601562 15.804688 102.777344 8.332031 126.5 Z M 8.332031 126.5 " fill-opacity="1" fill-rule="evenodd"/></g></g></g></g><g mask="url(#b0d0ff695c)"><g transform="matrix(1, 0, 0, 1, 56, 15)"><g clip-path="url(#a35ebc9679)"><g clip-path="url(#b3f1967e34)"><path fill="#004ef3" d="M 105.933594 7.316406 C 124.574219 -1.242188 142.601562 -2.433594 156.957031 7.539062 C 167.699219 15.003906 172.191406 28.742188 172.292969 46.253906 C 172.390625 63.765625 168.09375 85.085938 161.21875 107.761719 C 147.46875 153.113281 123.386719 203.925781 103.425781 240.636719 C 98.246094 250.164062 89.832031 257.832031 79.257812 260.320312 C 60.890625 264.640625 45.808594 262.3125 33.253906 250.382812 C 20.710938 238.46875 10.707031 216.988281 2.429688 183.066406 C -2.289062 163.726562 1.441406 140.597656 10.5625 117.421875 C 19.683594 94.242188 34.210938 70.996094 51.109375 51.40625 C 68.011719 31.816406 87.292969 15.875 105.933594 7.316406 Z M 10.839844 117.53125 C 1.726562 140.679688 -1.976562 163.738281 2.71875 182.992188 C 10.992188 216.90625 20.980469 238.3125 33.457031 250.167969 C 45.921875 262.007812 60.890625 264.335938 79.191406 260.03125 C 89.664062 257.566406 98.015625 249.964844 103.167969 240.496094 C 123.121094 203.792969 147.191406 153 160.933594 107.675781 C 167.804688 85.011719 172.09375 63.722656 171.992188 46.253906 C 171.894531 28.78125 167.410156 15.164062 156.789062 7.785156 C 142.554688 -2.105469 124.648438 -0.949219 106.058594 7.585938 C 87.46875 16.125 68.21875 32.03125 51.335938 51.601562 C 34.453125 71.167969 19.949219 94.386719 10.839844 117.53125 Z M 10.839844 117.53125 " fill-opacity="1" fill-rule="evenodd"/></g></g></g></g><g mask="url(#af6b9e1159)"><g transform="matrix(1, 0, 0, 1, 53, 19)"><g clip-path="url(#d188ae1523)"><g clip-path="url(#66efe4bdc6)"><path fill="#004ef3" d="M 117.242188 5.296875 C 136.433594 -1.941406 154.503906 -1.867188 168.125 9.078125 C 178.324219 17.273438 181.84375 31.296875 180.722656 48.769531 C 179.597656 66.246094 173.828125 87.214844 165.386719 109.355469 C 148.507812 153.636719 120.9375 202.648438 98.464844 237.875 C 92.632812 247.019531 83.707031 254.082031 72.980469 255.824219 C 54.359375 258.855469 39.476562 255.480469 27.78125 242.703125 C 16.101562 229.941406 7.621094 207.816406 1.730469 173.398438 C -1.625 153.777344 3.707031 130.96875 14.421875 108.484375 C 25.140625 85.996094 41.25 63.820312 59.476562 45.457031 C 77.703125 27.09375 98.050781 12.539062 117.242188 5.296875 Z M 14.691406 108.613281 C 3.988281 131.066406 -1.316406 153.8125 2.023438 173.347656 C 7.910156 207.753906 16.382812 229.808594 28 242.503906 C 39.609375 255.183594 54.378906 258.550781 72.933594 255.53125 C 83.554688 253.804688 92.417969 246.804688 98.214844 237.714844 C 120.679688 202.496094 148.238281 153.503906 165.109375 109.25 C 173.542969 87.117188 179.304688 66.183594 180.425781 48.75 C 181.546875 31.3125 178.023438 17.414062 167.941406 9.3125 C 154.433594 -1.542969 136.488281 -1.644531 117.347656 5.578125 C 98.207031 12.796875 77.894531 27.324219 59.6875 45.667969 C 41.484375 64.007812 25.390625 86.160156 14.691406 108.613281 Z M 14.691406 108.613281 " fill-opacity="1" fill-rule="evenodd"/></g></g></g></g><g mask="url(#76e16e68ae)"><g transform="matrix(1, 0, 0, 1, 50, 23)"><g clip-path="url(#07bbfb1730)"><g clip-path="url(#5d78ec5cd5)"><path fill="#004ef3" d="M 128.390625 3.855469 C 148.042969 -2.027344 166.0625 -0.695312 178.886719 11.175781 C 188.488281 20.0625 191.023438 34.292969 188.683594 51.648438 C 186.34375 69.003906 179.125 89.515625 169.160156 111.015625 C 149.230469 154.011719 118.3125 200.980469 93.4375 234.554688 C 86.984375 243.269531 77.582031 249.691406 66.765625 250.683594 C 47.976562 252.40625 33.363281 248 22.589844 234.441406 C 11.828125 220.894531 4.910156 198.234375 1.4375 163.488281 C -0.542969 143.679688 6.367188 121.296875 18.625 99.617188 C 30.886719 77.929688 48.503906 56.933594 67.964844 39.886719 C 87.425781 22.839844 108.742188 9.738281 128.390625 3.855469 Z M 18.882812 99.761719 C 6.640625 121.417969 -0.238281 143.734375 1.734375 163.457031 C 5.203125 198.191406 12.117188 220.78125 22.824219 234.253906 C 33.519531 247.714844 48.015625 252.105469 66.738281 250.386719 C 77.453125 249.40625 86.78125 243.039062 93.199219 234.378906 C 118.066406 200.8125 148.972656 153.859375 168.890625 110.890625 C 178.851562 89.402344 186.058594 68.921875 188.390625 51.605469 C 190.726562 34.289062 188.179688 20.179688 178.6875 11.394531 C 165.96875 -0.378906 148.078125 -1.726562 128.476562 4.140625 C 108.878906 10.003906 87.601562 23.082031 68.164062 40.109375 C 48.722656 57.136719 31.125 78.109375 18.882812 99.761719 Z M 18.882812 99.761719 " fill-opacity="1" fill-rule="evenodd"/></g></g></g></g><g mask="url(#517679fd07)"><g transform="matrix(1, 0, 0, 1, 48, 27)"><g clip-path="url(#3d7e716d0a)"><g clip-path="url(#1f07691e72)"><path fill="#004ef3" d="M 138.34375 2.972656 C 158.359375 -1.523438 176.238281 1.0625 188.207031 13.800781 C 197.164062 23.332031 198.699219 37.707031 195.15625 54.855469 C 191.613281 72.003906 182.976562 91.964844 171.539062 112.714844 C 148.660156 154.21875 114.539062 198.914062 87.382812 230.671875 C 80.335938 238.914062 70.511719 244.667969 59.648438 244.902344 C 40.785156 245.308594 26.515625 239.894531 16.714844 225.617188 C 6.921875 211.351562 1.605469 188.261719 0.5625 153.359375 C -0.03125 133.460938 8.421875 111.617188 22.164062 90.84375 C 35.90625 70.066406 54.949219 50.347656 75.550781 34.699219 C 96.15625 19.054688 118.332031 7.46875 138.34375 2.972656 Z M 22.410156 91.007812 C 8.6875 111.753906 0.269531 133.539062 0.859375 153.351562 C 1.902344 188.242188 7.21875 211.257812 16.960938 225.449219 C 26.691406 239.621094 40.847656 245.011719 59.640625 244.605469 C 70.398438 244.371094 80.152344 238.671875 87.15625 230.480469 C 114.304688 198.730469 148.414062 154.050781 171.277344 112.570312 C 182.710938 91.832031 191.328125 71.902344 194.863281 54.792969 C 198.402344 37.683594 196.847656 23.429688 187.988281 14.003906 C 176.125 1.371094 158.371094 -1.222656 138.410156 3.261719 C 118.449219 7.746094 96.3125 19.308594 75.730469 34.9375 C 55.152344 50.566406 36.132812 70.261719 22.410156 91.007812 Z M 22.410156 91.007812 " fill-opacity="1" fill-rule="evenodd"/></g></g></g></g><g mask="url(#a47e9810db)"><g transform="matrix(1, 0, 0, 1, 45, 32)"><g clip-path="url(#b3ddee512d)"><g clip-path="url(#cd5b6c011e)"><path fill="#004ef3" d="M 149.058594 1.636719 C 169.335938 -1.453125 186.996094 2.375 198.042969 15.914062 C 206.316406 26.050781 206.84375 40.5 202.113281 57.355469 C 197.382812 74.21875 187.375 93.527344 174.515625 113.429688 C 148.796875 153.234375 111.640625 195.441406 82.339844 225.226562 C 74.734375 232.957031 64.53125 238.011719 53.679688 237.488281 C 34.832031 236.578125 20.976562 230.183594 12.195312 215.253906 C 3.421875 200.34375 -0.273438 176.9375 1.121094 142.046875 C 1.917969 122.15625 11.875 100.957031 27.03125 81.191406 C 42.191406 61.421875 62.5625 43.082031 84.207031 28.910156 C 105.851562 14.738281 128.78125 4.726562 149.058594 1.636719 Z M 27.269531 81.371094 C 12.128906 101.109375 2.210938 122.253906 1.417969 142.058594 C 0.0234375 176.9375 3.722656 200.269531 12.453125 215.105469 C 21.167969 229.921875 34.917969 236.285156 53.691406 237.191406 C 64.441406 237.710938 74.566406 232.703125 82.125 225.019531 C 111.421875 195.242188 148.5625 153.050781 174.265625 113.269531 C 187.121094 93.375 197.105469 74.097656 201.828125 57.277344 C 206.550781 40.453125 205.992188 26.125 197.816406 16.105469 C 186.859375 2.675781 169.328125 -1.148438 149.105469 1.933594 C 128.878906 5.011719 105.992188 15 84.371094 29.15625 C 62.75 43.3125 42.40625 61.632812 27.269531 81.371094 Z M 27.269531 81.371094 " fill-opacity="1" fill-rule="evenodd"/></g></g></g></g><g mask="url(#b6ac35f786)"><g transform="matrix(1, 0, 0, 1, 41, 37)"><g clip-path="url(#1f8c9ae144)"><g clip-path="url(#bd7aa3eaae)"><path fill="#004ef3" d="M 160.5 0.832031 C 180.945312 -0.835938 198.292969 4.214844 208.371094 18.492188 C 215.914062 29.179688 215.433594 43.628906 209.539062 60.117188 C 203.640625 76.605469 192.3125 95.171875 178.097656 114.128906 C 149.664062 152.042969 109.65625 191.554688 78.34375 219.222656 C 70.21875 226.40625 59.6875 230.734375 48.898438 229.453125 C 30.164062 227.234375 16.789062 219.886719 9.066406 204.382812 C 1.355469 188.894531 -0.699219 165.289062 3.128906 130.582031 C 5.308594 110.792969 16.722656 90.339844 33.222656 71.679688 C 49.722656 53.019531 71.320312 36.140625 93.902344 23.511719 C 116.484375 10.886719 140.054688 2.5 160.5 0.832031 Z M 33.445312 71.875 C 16.964844 90.511719 5.597656 110.910156 3.425781 130.613281 C -0.402344 165.308594 1.664062 188.84375 9.335938 204.25 C 16.996094 219.640625 30.265625 226.945312 48.933594 229.160156 C 59.621094 230.425781 70.070312 226.140625 78.148438 219 C 109.449219 191.339844 149.445312 151.839844 177.859375 113.949219 C 192.066406 95.003906 203.375 76.464844 209.257812 60.015625 C 215.140625 43.5625 215.585938 29.234375 208.125 18.664062 C 198.132812 4.503906 180.914062 -0.535156 160.523438 1.128906 C 140.132812 2.792969 116.605469 11.15625 94.046875 23.773438 C 71.492188 36.386719 49.917969 53.242188 33.445312 71.875 Z M 33.445312 71.875 " fill-opacity="1" fill-rule="evenodd"/></g></g></g></g><g mask="url(#64d9b87584)"><g transform="matrix(1, 0, 0, 1, 38, 42)"><g clip-path="url(#f5d30837a7)"><g clip-path="url(#987a0a58d0)"><path fill="#004ef3" d="M 170.628906 0.535156 C 191.140625 0.296875 208.09375 6.542969 217.152344 21.492188 C 223.929688 32.679688 222.445312 47.058594 215.414062 63.09375 C 208.378906 79.132812 195.785156 96.863281 180.28125 114.78125 C 149.273438 150.621094 106.605469 187.246094 73.441406 212.664062 C 64.832031 219.261719 54.027344 222.84375 43.351562 220.816406 C 24.816406 217.292969 11.988281 209.03125 5.367188 193.027344 C -1.246094 177.039062 -1.648438 153.347656 4.589844 118.992188 C 8.148438 99.402344 20.957031 79.792969 38.71875 62.332031 C 56.480469 44.867188 79.203125 29.539062 102.613281 18.515625 C 126.019531 7.492188 150.117188 0.773438 170.628906 0.535156 Z M 38.925781 62.542969 C 21.1875 79.984375 8.425781 99.542969 4.882812 119.042969 C -1.351562 153.390625 -0.933594 177.007812 5.640625 192.914062 C 12.210938 208.800781 24.941406 217.011719 43.410156 220.523438 C 53.980469 222.535156 64.703125 218.984375 73.257812 212.429688 C 106.414062 187.015625 149.066406 150.40625 180.054688 114.585938 C 195.550781 96.679688 208.125 78.976562 215.140625 62.976562 C 222.15625 46.972656 223.601562 32.710938 216.898438 21.644531 C 207.917969 6.824219 191.089844 0.59375 170.632812 0.832031 C 150.175781 1.070312 126.121094 7.773438 102.738281 18.785156 C 79.359375 29.792969 56.664062 45.105469 38.925781 62.542969 Z M 38.925781 62.542969 " fill-opacity="1" fill-rule="evenodd"/></g></g></g></g><g mask="url(#3cbdc1d7b2)"><g transform="matrix(1, 0, 0, 1, 33, 47)"><g clip-path="url(#d1a28a65ab)"><g clip-path="url(#c1fc3e6b8e)"><path fill="#004ef3" d="M 182.414062 0.726562 C 202.890625 1.917969 219.367188 9.332031 227.359375 24.875 C 233.34375 36.507812 230.855469 50.75 222.722656 66.257812 C 214.589844 81.765625 200.789062 98.574219 184.074219 115.367188 C 150.640625 148.953125 105.519531 182.515625 70.664062 205.558594 C 61.617188 211.539062 50.585938 214.359375 40.082031 211.589844 C 21.835938 206.78125 9.613281 197.648438 4.125 181.21875 C -1.355469 164.808594 -0.101562 141.148438 8.515625 107.308594 C 13.429688 88.019531 27.578125 69.351562 46.511719 53.167969 C 65.449219 36.984375 89.1875 23.277344 113.308594 13.917969 C 137.425781 4.554688 161.933594 -0.46875 182.414062 0.726562 Z M 46.707031 53.394531 C 27.796875 69.554688 13.699219 88.175781 8.804688 107.382812 C 0.1875 141.210938 -1.042969 164.800781 4.410156 181.125 C 9.855469 197.429688 21.980469 206.511719 40.15625 211.304688 C 50.5625 214.046875 61.507812 211.253906 70.5 205.308594 C 105.347656 182.273438 150.449219 148.726562 183.863281 115.15625 C 200.570312 98.371094 214.347656 81.589844 222.460938 66.117188 C 230.578125 50.644531 233.011719 36.515625 227.09375 25.011719 C 219.171875 9.601562 202.820312 2.210938 182.394531 1.023438 C 161.972656 -0.167969 137.507812 4.839844 113.414062 14.195312 C 89.324219 23.546875 65.617188 37.234375 46.707031 53.394531 Z M 46.707031 53.394531 " fill-opacity="1" fill-rule="evenodd"/></g></g></g></g><g mask="url(#248a525f7f)"><g transform="matrix(1, 0, 0, 1, 29, 52)"><g clip-path="url(#957c6d4e62)"><g clip-path="url(#cd0227da1a)"><path fill="#004ef3" d="M 192.820312 1.375 C 213.164062 3.996094 229.082031 12.539062 235.972656 28.601562 C 241.128906 40.625 237.65625 54.65625 228.460938 69.558594 C 219.265625 84.464844 204.324219 100.265625 186.476562 115.851562 C 150.78125 147.027344 103.433594 177.359375 67.054688 197.914062 C 57.613281 203.246094 46.410156 205.292969 36.125 201.796875 C 18.261719 195.730469 6.703125 185.761719 2.375 168.992188 C -1.945312 152.238281 0.953125 128.722656 11.910156 95.570312 C 18.160156 76.667969 33.574219 59.03125 53.59375 44.210938 C 73.613281 29.386719 98.25 17.371094 122.960938 9.714844 C 147.675781 2.058594 172.472656 -1.246094 192.820312 1.375 Z M 53.769531 44.449219 C 33.777344 59.25 18.414062 76.84375 12.195312 95.664062 C 1.238281 128.804688 -1.636719 152.253906 2.664062 168.917969 C 6.960938 185.566406 18.421875 195.46875 36.21875 201.515625 C 46.410156 204.980469 57.519531 202.957031 66.90625 197.652344 C 103.277344 177.105469 150.609375 146.785156 186.28125 115.628906 C 204.117188 100.050781 219.035156 84.269531 228.207031 69.402344 C 237.382812 54.53125 240.796875 40.609375 235.699219 28.71875 C 228.867188 12.792969 213.070312 4.28125 192.78125 1.667969 C 172.492188 -0.941406 147.738281 2.347656 123.050781 9.996094 C 98.363281 17.644531 73.757812 29.648438 53.769531 44.449219 Z M 53.769531 44.449219 " fill-opacity="1" fill-rule="evenodd"/></g></g></g></g><g mask="url(#a2bc15d67a)"><g transform="matrix(1, 0, 0, 1, 24, 56)"><g clip-path="url(#c7ba5a5f77)"><g clip-path="url(#c4cad8f232)"><path fill="#004ef3" d="M 203.816406 3.457031 C 223.929688 7.488281 239.210938 17.125 244.964844 33.628906 C 249.269531 45.980469 244.824219 59.738281 234.613281 73.960938 C 224.398438 88.1875 208.394531 102.910156 189.503906 117.214844 C 151.722656 145.824219 102.371094 172.777344 64.644531 190.746094 C 54.855469 195.40625 43.539062 196.667969 33.519531 192.464844 C 16.125 185.164062 5.289062 174.414062 2.144531 157.382812 C -1 140.371094 3.53125 117.113281 16.777344 84.804688 C 24.328125 66.382812 40.9375 49.867188 61.9375 36.476562 C 82.945312 23.085938 108.359375 12.816406 133.546875 6.902344 C 158.734375 0.988281 183.703125 -0.574219 203.816406 3.457031 Z M 62.097656 36.726562 C 41.121094 50.101562 24.570312 66.578125 17.050781 84.914062 C 3.8125 117.214844 -0.691406 140.402344 2.4375 157.328125 C 5.558594 174.234375 16.300781 184.914062 33.636719 192.1875 C 43.558594 196.351562 54.785156 195.113281 64.519531 190.476562 C 102.234375 172.511719 151.5625 145.570312 189.324219 116.976562 C 208.203125 102.683594 224.183594 87.980469 234.371094 73.789062 C 244.5625 59.59375 248.941406 45.941406 244.683594 33.726562 C 238.980469 17.363281 223.816406 7.769531 203.757812 3.75 C 183.699219 -0.273438 158.773438 1.285156 133.613281 7.191406 C 108.457031 13.101562 83.074219 23.359375 62.097656 36.726562 Z M 62.097656 36.726562 " fill-opacity="1" fill-rule="evenodd"/></g></g></g></g><g mask="url(#ecd443058c)"><g transform="matrix(1, 0, 0, 1, 20, 61)"><g clip-path="url(#6c51ae6cd9)"><g clip-path="url(#b8d577deb7)"><path fill="#004ef3" d="M 213.371094 4.945312 C 233.152344 10.371094 247.730469 21.046875 252.316406 37.914062 C 255.746094 50.535156 250.355469 63.949219 239.175781 77.425781 C 227.996094 90.90625 211 104.476562 191.160156 117.425781 C 151.472656 143.328125 100.363281 166.773438 61.476562 182.066406 C 51.386719 186.035156 40.007812 186.503906 30.308594 181.609375 C 13.460938 173.113281 3.40625 161.636719 1.453125 144.425781 C -0.492188 127.234375 5.648438 104.351562 21.117188 73.042969 C 29.933594 55.195312 47.652344 39.878906 69.539062 27.988281 C 91.425781 16.09375 117.496094 7.625 143.035156 3.480469 C 168.570312 -0.664062 193.589844 -0.480469 213.371094 4.945312 Z M 69.679688 28.25 C 47.820312 40.125 30.160156 55.40625 21.382812 73.175781 C 5.921875 104.472656 -0.1875 127.289062 1.75 144.394531 C 3.6875 161.476562 13.65625 172.878906 30.441406 181.34375 C 40.050781 186.191406 51.335938 185.734375 61.367188 181.789062 C 100.246094 166.5 151.335938 143.066406 190.996094 117.175781 C 210.828125 104.234375 227.792969 90.679688 238.949219 77.234375 C 250.105469 63.785156 255.421875 50.472656 252.027344 37.992188 C 247.480469 21.269531 233.023438 10.640625 213.292969 5.230469 C 193.566406 -0.179688 168.59375 -0.367188 143.082031 3.773438 C 117.570312 7.910156 91.535156 16.375 69.679688 28.25 Z M 69.679688 28.25 " fill-opacity="1" fill-rule="evenodd"/></g></g></g></g><g mask="url(#7e22a5bca0)"><g transform="matrix(1, 0, 0, 1, 16, 65)"><g clip-path="url(#6169335824)"><g clip-path="url(#2859e7a690)"><path fill="#004ef3" d="M 222.464844 7.804688 C 241.820312 14.59375 255.613281 26.261719 259.011719 43.40625 C 261.554688 56.238281 255.242188 69.242188 243.148438 81.90625 C 231.054688 94.574219 213.15625 106.925781 192.457031 118.460938 C 151.0625 141.53125 98.441406 161.355469 58.582031 173.898438 C 48.238281 177.152344 36.859375 176.824219 27.523438 171.269531 C 11.308594 161.617188 2.078125 149.464844 1.332031 132.160156 C 0.585938 114.875 8.3125 92.476562 25.925781 62.324219 C 35.964844 45.136719 54.710938 31.089844 77.371094 20.753906 C 100.035156 10.417969 126.632812 3.789062 152.398438 1.433594 C 178.164062 -0.917969 203.105469 1.011719 222.464844 7.804688 Z M 77.496094 21.027344 C 54.863281 31.347656 36.179688 45.359375 26.179688 62.476562 C 8.574219 92.617188 0.886719 114.953125 1.628906 132.148438 C 2.371094 149.324219 11.519531 161.398438 27.675781 171.011719 C 36.921875 176.515625 48.210938 176.851562 58.492188 173.613281 C 98.34375 161.074219 150.941406 141.257812 192.3125 118.199219 C 213 106.671875 230.871094 94.335938 242.933594 81.703125 C 255.003906 69.0625 261.234375 56.152344 258.71875 43.464844 C 255.351562 26.464844 241.667969 14.855469 222.363281 8.082031 C 203.0625 1.308594 178.164062 -0.617188 152.425781 1.730469 C 126.691406 4.082031 100.125 10.703125 77.496094 21.027344 Z M 77.496094 21.027344 " fill-opacity="1" fill-rule="evenodd"/></g></g></g></g><g mask="url(#c2ae443bea)"><g transform="matrix(1, 0, 0, 1, 13, 68)"><g clip-path="url(#ced433965a)"><g clip-path="url(#27509a8591)"><path fill="#004ef3" d="M 230.0625 12 C 248.898438 20.125 261.84375 32.726562 264.039062 50.066406 C 265.683594 63.042969 258.476562 75.578125 245.53125 87.367188 C 232.582031 99.15625 213.863281 110.230469 192.414062 120.292969 C 149.507812 140.421875 95.632812 156.527344 54.996094 166.257812 C 44.449219 168.785156 33.121094 167.664062 24.195312 161.46875 C 8.695312 150.710938 0.332031 137.945312 0.796875 120.628906 C 1.257812 103.335938 10.527344 81.527344 30.199219 52.679688 C 41.414062 36.234375 61.09375 23.527344 84.421875 14.800781 C 107.753906 6.070312 134.746094 1.308594 160.613281 0.761719 C 186.480469 0.210938 211.230469 3.875 230.0625 12 Z M 84.527344 15.078125 C 61.230469 23.796875 41.613281 36.472656 30.445312 52.847656 C 10.78125 81.6875 1.554688 103.433594 1.09375 120.636719 C 0.632812 137.824219 8.921875 150.503906 24.363281 161.222656 C 33.203125 167.359375 44.441406 168.480469 54.925781 165.96875 C 95.554688 156.238281 149.40625 140.140625 192.285156 120.027344 C 213.726562 109.96875 232.414062 98.910156 245.332031 87.144531 C 258.25 75.382812 265.367188 62.9375 263.746094 50.105469 C 261.570312 32.910156 248.730469 20.375 229.945312 12.273438 C 211.164062 4.167969 186.460938 0.507812 160.621094 1.058594 C 134.78125 1.605469 107.820312 6.359375 84.527344 15.078125 Z M 84.527344 15.078125 " fill-opacity="1" fill-rule="evenodd"/></g></g></g></g><g mask="url(#965c2531ba)"><g transform="matrix(1, 0, 0, 1, 10, 70)"><g clip-path="url(#98ee866956)"><g clip-path="url(#ffa30eedeb)"><path fill="#004ef3" d="M 237.152344 17.5 C 255.371094 26.917969 267.410156 40.394531 268.386719 57.84375 C 269.121094 70.90625 261.058594 82.902344 247.324219 93.761719 C 233.582031 104.621094 214.136719 114.363281 192.039062 122.90625 C 147.832031 139.992188 92.964844 152.296875 51.75 159.171875 C 41.050781 160.953125 29.828125 159.046875 21.355469 152.242188 C 6.644531 140.429688 -0.804688 127.113281 0.863281 109.871094 C 2.53125 92.652344 13.296875 71.546875 34.9375 44.140625 C 47.273438 28.515625 67.789062 17.214844 91.667969 10.132812 C 115.550781 3.050781 142.8125 0.1875 168.652344 1.441406 C 194.496094 2.699219 218.929688 8.078125 237.152344 17.5 Z M 91.753906 10.417969 C 67.90625 17.492188 47.453125 28.765625 35.171875 44.324219 C 13.539062 71.71875 2.820312 92.769531 1.160156 109.902344 C -0.496094 127.011719 6.886719 140.242188 21.542969 152.011719 C 29.933594 158.75 41.066406 160.652344 51.699219 158.878906 C 92.90625 152.003906 147.753906 139.703125 191.929688 122.628906 C 214.019531 114.089844 233.433594 104.359375 247.136719 93.527344 C 260.847656 82.691406 268.816406 70.777344 268.089844 57.859375 C 267.121094 40.558594 255.1875 27.160156 237.015625 17.765625 C 218.839844 8.371094 194.453125 2.996094 168.640625 1.738281 C 142.828125 0.484375 115.601562 3.347656 91.753906 10.417969 Z M 91.753906 10.417969 " fill-opacity="1" fill-rule="evenodd"/></g></g></g></g><g clip-path="url(#d6605c3275)"><g mask="url(#68da62c974)"><g transform="matrix(1, 0, 0, 1, 7, 72)"><g clip-path="url(#6dba7599fa)"><g clip-path="url(#ac185665a3)"><path fill="#004ef3" d="M 243.703125 23.265625 C 261.226562 33.933594 272.292969 48.214844 272.050781 65.691406 C 271.871094 78.769531 262.992188 90.179688 248.53125 100.050781 C 234.066406 109.925781 213.992188 118.289062 191.347656 125.265625 C 146.058594 139.226562 90.464844 147.675781 48.871094 151.660156 C 38.078125 152.691406 27.011719 150.003906 19.035156 142.628906 C 5.1875 129.820312 -1.316406 116.011719 1.550781 98.933594 C 4.414062 81.871094 16.628906 61.566406 40.125 35.734375 C 53.519531 21.007812 74.777344 11.167969 99.089844 5.769531 C 123.410156 0.371094 150.804688 -0.585938 176.496094 2.46875 C 202.183594 5.527344 226.183594 12.597656 243.703125 23.265625 Z M 99.15625 6.058594 C 74.871094 11.449219 53.683594 21.273438 40.34375 35.933594 C 16.855469 61.757812 4.695312 82.007812 1.84375 98.980469 C -1.003906 115.9375 5.4375 129.648438 19.238281 142.410156 C 27.140625 149.71875 38.113281 152.390625 48.84375 151.363281 C 90.429688 147.382812 146 138.9375 191.261719 124.984375 C 213.890625 118.007812 233.9375 109.65625 248.363281 99.804688 C 262.796875 89.953125 271.578125 78.621094 271.753906 65.6875 C 271.992188 48.359375 261.023438 34.160156 243.550781 23.519531 C 226.078125 12.882812 202.125 5.820312 176.460938 2.765625 C 150.796875 -0.289062 123.4375 0.667969 99.15625 6.058594 Z M 99.15625 6.058594 " fill-opacity="1" fill-rule="evenodd"/></g></g></g></g></g><g clip-path="url(#42a724fc74)"><g mask="url(#8e27519dc1)"><g transform="matrix(1, 0, 0, 1, 5, 73)"><g clip-path="url(#b46382320a)"><g clip-path="url(#4faa01fdb8)"><path fill="#004ef3" d="M 248.707031 30.261719 C 265.441406 42.125 275.484375 57.144531 274.027344 74.5625 C 272.933594 87.597656 263.28125 98.355469 248.167969 107.195312 C 233.050781 116.039062 212.4375 122.980469 189.363281 128.363281 C 143.210938 139.128906 87.164062 143.679688 45.394531 144.75 C 34.554688 145.027344 23.703125 141.578125 16.261719 133.660156 C 3.335938 119.917969 -2.1875 105.691406 1.867188 88.851562 C 5.914062 72.03125 19.511719 52.628906 44.753906 28.5 C 59.144531 14.742188 81.035156 6.410156 105.667969 2.71875 C 130.304688 -0.96875 157.699219 -0.0117188 183.113281 4.828125 C 208.527344 9.667969 231.972656 18.398438 248.707031 30.261719 Z M 105.710938 3.015625 C 81.109375 6.699219 59.289062 15.019531 44.960938 28.714844 C 19.726562 52.835938 6.183594 72.1875 2.15625 88.921875 C -1.867188 105.636719 3.601562 119.761719 16.476562 133.457031 C 23.847656 141.296875 34.609375 144.730469 45.386719 144.453125 C 87.148438 143.382812 143.171875 138.835938 189.296875 128.074219 C 212.359375 122.691406 232.9375 115.761719 248.015625 106.941406 C 263.101562 98.117188 272.652344 87.425781 273.730469 74.535156 C 275.175781 57.265625 265.226562 42.335938 248.535156 30.503906 C 231.847656 18.671875 208.445312 9.957031 183.058594 5.121094 C 157.671875 0.285156 130.308594 -0.667969 105.710938 3.015625 Z M 105.710938 3.015625 " fill-opacity="1" fill-rule="evenodd"/></g></g></g></g></g><g clip-path="url(#b2b4287ae4)"><g mask="url(#3423bc08e8)"><g transform="matrix(1, 0, 0, 1, 3, 73)"><g clip-path="url(#6ebafc87af)"><g clip-path="url(#0ae873b4a9)"><path fill="#004ef3" d="M 253.144531 38.449219 C 269.011719 51.449219 277.984375 67.132812 275.3125 84.40625 C 273.316406 97.332031 262.933594 107.394531 247.238281 115.15625 C 231.542969 122.925781 210.5 128.410156 187.105469 132.171875 C 140.3125 139.691406 84.085938 140.320312 42.339844 138.476562 C 31.507812 137.996094 20.925781 133.796875 14.054688 125.382812 C 2.121094 110.769531 -2.398438 96.191406 2.816406 79.675781 C 8.03125 63.179688 22.949219 44.769531 49.8125 22.460938 C 65.125 9.746094 87.546875 2.957031 112.375 0.996094 C 137.207031 -0.964844 164.46875 1.898438 189.484375 8.5 C 214.5 15.101562 237.28125 25.445312 253.144531 38.449219 Z M 112.398438 1.292969 C 87.601562 3.25 65.25 10.027344 50.003906 22.691406 C 23.148438 44.992188 8.285156 63.351562 3.101562 79.765625 C -2.078125 96.160156 2.394531 110.632812 14.285156 125.191406 C 21.089844 133.527344 31.585938 137.703125 42.355469 138.179688 C 84.089844 140.023438 140.292969 139.394531 187.058594 131.875 C 210.4375 128.117188 231.449219 122.636719 247.109375 114.890625 C 262.769531 107.144531 273.042969 97.144531 275.019531 84.359375 C 277.667969 67.234375 268.78125 51.644531 252.957031 38.679688 C 237.136719 25.710938 214.398438 15.382812 189.410156 8.789062 C 164.421875 2.195312 137.195312 -0.667969 112.398438 1.292969 Z M 112.398438 1.292969 " fill-opacity="1" fill-rule="evenodd"/></g></g></g></g></g><g mask="url(#d6e392eb34)"><g transform="matrix(1, 0, 0, 1, 2, 72)"><g clip-path="url(#1069d33867)"><g clip-path="url(#ede6473213)"><path fill="#004ef3" d="M 256.007812 47.785156 C 270.925781 61.863281 278.785156 78.132812 274.914062 95.175781 C 272.019531 107.933594 260.960938 117.246094 244.765625 123.894531 C 228.566406 130.546875 207.1875 134.550781 183.589844 136.671875 C 136.386719 140.910156 80.253906 137.617188 38.738281 132.863281 C 27.964844 131.628906 17.703125 126.703125 11.433594 117.828125 C 0.546875 102.417969 -2.941406 87.5625 3.414062 71.449219 C 9.761719 55.355469 25.929688 38.035156 54.285156 17.652344 C 70.449219 6.035156 93.285156 0.828125 118.191406 0.605469 C 143.101562 0.378906 170.097656 5.136719 194.589844 13.46875 C 219.082031 21.800781 241.089844 33.707031 256.007812 47.785156 Z M 118.195312 0.902344 C 93.320312 1.125 70.550781 6.328125 54.457031 17.894531 C 26.113281 38.269531 10.007812 55.550781 3.691406 71.558594 C -2.621094 87.550781 0.832031 102.300781 11.675781 117.65625 C 17.882812 126.445312 28.0625 131.34375 38.773438 132.566406 C 80.277344 137.320312 136.390625 140.613281 183.5625 136.375 C 207.148438 134.257812 228.492188 130.257812 244.652344 123.621094 C 260.816406 116.984375 271.761719 107.726562 274.625 95.109375 C 278.460938 78.210938 270.683594 62.039062 255.804688 48 C 240.925781 33.960938 218.964844 22.074219 194.496094 13.75 C 170.027344 5.429688 143.066406 0.675781 118.195312 0.902344 Z M 118.195312 0.902344 " fill-opacity="1" fill-rule="evenodd"/></g></g></g></g><g mask="url(#05ae9a17be)"><g transform="matrix(1, 0, 0, 1, 1, 70)"><g clip-path="url(#754d8d032c)"><g clip-path="url(#2f34f5862f)"><path fill="#004ef3" d="M 258.285156 58.230469 C 272.183594 73.3125 278.886719 90.09375 273.839844 106.824219 C 270.0625 119.347656 258.378906 127.867188 241.757812 133.371094 C 225.132812 138.878906 203.53125 141.378906 179.839844 141.847656 C 132.457031 142.785156 76.6875 135.582031 35.609375 127.945312 C 24.945312 125.964844 15.050781 120.332031 9.417969 111.042969 C -0.367188 94.910156 -2.8125 79.847656 4.652344 64.21875 C 12.109375 48.605469 29.445312 32.453125 59.152344 14.101562 C 76.089844 3.636719 99.234375 0.0351562 124.09375 1.550781 C 148.957031 3.0625 175.554688 9.695312 199.410156 19.714844 C 223.261719 29.734375 244.382812 43.144531 258.285156 58.230469 Z M 124.078125 1.847656 C 99.246094 0.335938 76.171875 3.9375 59.308594 14.355469 C 29.613281 32.699219 12.339844 48.816406 4.921875 64.34375 C -2.488281 79.859375 -0.0742188 94.8125 9.671875 110.886719 C 15.253906 120.089844 25.0625 125.683594 35.664062 127.652344 C 76.734375 135.289062 132.480469 142.488281 179.835938 141.550781 C 203.511719 141.082031 225.082031 138.582031 241.664062 133.089844 C 258.253906 127.597656 269.816406 119.125 273.554688 106.738281 C 278.558594 90.148438 271.929688 73.476562 258.066406 58.429688 C 244.203125 43.386719 223.121094 29.996094 199.292969 19.988281 C 175.46875 9.980469 148.902344 3.359375 124.078125 1.847656 Z M 124.078125 1.847656 " fill-opacity="1" fill-rule="evenodd"/></g></g></g></g><g clip-path="url(#88fa3f695a)"><path fill="#004ef3" d="M 259.964844 136.742188 C 272.78125 152.761719 278.296875 169.964844 272.09375 186.304688 C 267.453125 198.535156 255.207031 206.21875 238.242188 210.550781 C 221.273438 214.882812 199.546875 215.871094 175.882812 214.6875 C 128.550781 212.316406 73.417969 201.242188 32.972656 190.757812 C 22.472656 188.035156 12.996094 181.726562 8.023438 172.066406 C -0.609375 155.292969 -2 140.09375 6.535156 125.023438 C 15.066406 109.972656 33.484375 95.070312 64.398438 78.832031 C 82.023438 69.574219 105.363281 67.597656 130.058594 70.84375 C 154.757812 74.085938 180.828125 82.554688 203.921875 94.214844 C 227.019531 105.875 247.152344 120.726562 259.964844 136.742188 Z M 130.019531 71.136719 C 105.355469 67.898438 82.085938 69.878906 64.539062 79.09375 C 33.632812 95.324219 15.277344 110.195312 6.796875 125.171875 C -1.679688 140.128906 -0.316406 155.21875 8.289062 171.929688 C 13.210938 181.5 22.609375 187.765625 33.046875 190.46875 C 73.484375 200.953125 128.59375 212.019531 175.894531 214.390625 C 199.550781 215.574219 221.242188 214.582031 238.167969 210.261719 C 255.097656 205.9375 267.226562 198.292969 271.816406 186.199219 C 277.964844 170 272.515625 152.902344 259.734375 136.929688 C 246.953125 120.957031 226.859375 106.128906 203.789062 94.480469 C 180.71875 82.835938 154.679688 74.375 130.019531 71.136719 Z M 130.019531 71.136719 " fill-opacity="1" fill-rule="evenodd"/></g></g></g></svg>