<svg xmlns="http://www.w3.org/2000/svg" xmlns:xlink="http://www.w3.org/1999/xlink" width="378" zoomAndPan="magnify" viewBox="0 0 283.5 283.500005" height="378" preserveAspectRatio="xMidYMid meet" version="1.0"><defs><filter x="0%" y="0%" width="100%" height="100%" id="aa241d5874"><feColorMatrix values="0 0 0 0 1 0 0 0 0 1 0 0 0 0 1 0 0 0 1 0" color-interpolation-filters="sRGB"/></filter><g/><mask id="afab29e79f"><g filter="url(#aa241d5874)"><rect x="-66.37" width="408.24" fill="#000000" y="-62.370001" height="408.240007" fill-opacity="0.042"/></g></mask><clipPath id="5f681fc682"><path d="M 1 0.550781 L 210.328125 0.550781 L 210.328125 208.265625 L 1 208.265625 Z M 1 0.550781 " clip-rule="nonzero"/></clipPath><clipPath id="1f514aa65b"><rect x="0" width="211" y="0" height="209"/></clipPath><mask id="68e2376be1"><g filter="url(#aa241d5874)"><rect x="-66.37" width="408.24" fill="#000000" y="-62.370001" height="408.240007" fill-opacity="0.083"/></g></mask><clipPath id="d0e6c085e3"><path d="M 0.238281 0.0507812 L 234 0.0507812 L 234 182.847656 L 0.238281 182.847656 Z M 0.238281 0.0507812 " clip-rule="nonzero"/></clipPath><clipPath id="9e4e956c5f"><rect x="0" width="235" y="0" height="183"/></clipPath><mask id="619130c26b"><g filter="url(#aa241d5874)"><rect x="-66.37" width="408.24" fill="#000000" y="-62.370001" height="408.240007" fill-opacity="0.125"/></g></mask><clipPath id="3fdf2d51e5"><path d="M 0.417969 0.113281 L 253.410156 0.113281 L 253.410156 164 L 0.417969 164 Z M 0.417969 0.113281 " clip-rule="nonzero"/></clipPath><clipPath id="cae69ba9a8"><rect x="0" width="254" y="0" height="165"/></clipPath><mask id="fc3a4bcb57"><g filter="url(#aa241d5874)"><rect x="-66.37" width="408.24" fill="#000000" y="-62.370001" height="408.240007" fill-opacity="0.167"/></g></mask><clipPath id="60953e528e"><path d="M 0.1875 0.21875 L 266 0.21875 L 266 149 L 0.1875 149 Z M 0.1875 0.21875 " clip-rule="nonzero"/></clipPath><clipPath id="0d11f1d8c6"><rect x="0" width="267" y="0" height="150"/></clipPath><clipPath id="52cb64a90e"><path d="M 0.792969 66 L 273 66 L 273 203 L 0.792969 203 Z M 0.792969 66 " clip-rule="nonzero"/></clipPath><mask id="5f83d45631"><g filter="url(#aa241d5874)"><rect x="-66.37" width="408.24" fill="#000000" y="-62.370001" height="408.240007" fill-opacity="0.208"/></g></mask><clipPath id="73f9375243"><path d="M 0.792969 1 L 272.472656 1 L 272.472656 136.683594 L 0.792969 136.683594 Z M 0.792969 1 " clip-rule="nonzero"/></clipPath><clipPath id="19b900f10c"><rect x="0" width="273" y="0" height="137"/></clipPath><mask id="1da7d3eeb0"><g filter="url(#aa241d5874)"><rect x="-66.37" width="408.24" fill="#000000" y="-62.370001" height="408.240007" fill-opacity="0.25"/></g></mask><clipPath id="7cddca9363"><path d="M 1 1 L 271.953125 1 L 271.953125 126 L 1 126 Z M 1 1 " clip-rule="nonzero"/></clipPath><clipPath id="2f47829b6d"><rect x="0" width="272" y="0" height="127"/></clipPath><mask id="b97dc3b7d8"><g filter="url(#aa241d5874)"><rect x="-66.37" width="408.24" fill="#000000" y="-62.370001" height="408.240007" fill-opacity="0.292"/></g></mask><clipPath id="f091d778e6"><path d="M 1 0.0195312 L 264.796875 0.0195312 L 264.796875 121.964844 L 1 121.964844 Z M 1 0.0195312 " clip-rule="nonzero"/></clipPath><clipPath id="983211f393"><rect x="0" width="265" y="0" height="122"/></clipPath><mask id="8f247bd261"><g filter="url(#aa241d5874)"><rect x="-66.37" width="408.24" fill="#000000" y="-62.370001" height="408.240007" fill-opacity="0.333"/></g></mask><clipPath id="182daf0bc4"><path d="M 1 1 L 251.523438 1 L 251.523438 150.222656 L 1 150.222656 Z M 1 1 " clip-rule="nonzero"/></clipPath><clipPath id="4f1078c0ea"><rect x="0" width="252" y="0" height="151"/></clipPath><mask id="6a0b8b730e"><g filter="url(#aa241d5874)"><rect x="-66.37" width="408.24" fill="#000000" y="-62.370001" height="408.240007" fill-opacity="0.375"/></g></mask><clipPath id="663ec6ba61"><path d="M 0.425781 1 L 231.617188 1 L 231.617188 181.597656 L 0.425781 181.597656 Z M 0.425781 1 " clip-rule="nonzero"/></clipPath><clipPath id="c8d241967b"><rect x="0" width="232" y="0" height="182"/></clipPath><mask id="3e58aa7cb2"><g filter="url(#aa241d5874)"><rect x="-66.37" width="408.24" fill="#000000" y="-62.370001" height="408.240007" fill-opacity="0.417"/></g></mask><clipPath id="d96eb281a7"><path d="M 0.601562 1 L 208.554688 1 L 208.554688 210.492188 L 0.601562 210.492188 Z M 0.601562 1 " clip-rule="nonzero"/></clipPath><clipPath id="039fe67ea8"><rect x="0" width="209" y="0" height="211"/></clipPath><mask id="16b2033642"><g filter="url(#aa241d5874)"><rect x="-66.37" width="408.24" fill="#000000" y="-62.370001" height="408.240007" fill-opacity="0.458"/></g></mask><clipPath id="d35eac9539"><path d="M 0.0195312 0.167969 L 183 0.167969 L 183 234 L 0.0195312 234 Z M 0.0195312 0.167969 " clip-rule="nonzero"/></clipPath><clipPath id="67b9ee0c1d"><rect x="0" width="184" y="0" height="235"/></clipPath><mask id="28ac7b88ba"><g filter="url(#aa241d5874)"><rect x="-66.37" width="408.24" fill="#000000" y="-62.370001" height="408.240007" fill-opacity="0.5"/></g></mask><clipPath id="682e39b725"><path d="M 1 0.34375 L 164.996094 0.34375 L 164.996094 253.335938 L 1 253.335938 Z M 1 0.34375 " clip-rule="nonzero"/></clipPath><clipPath id="b0fc2bf79d"><rect x="0" width="165" y="0" height="254"/></clipPath><mask id="5f87fb4f8a"><g filter="url(#aa241d5874)"><rect x="-66.37" width="408.24" fill="#000000" y="-62.370001" height="408.240007" fill-opacity="0.542"/></g></mask><clipPath id="9807cd54aa"><path d="M 1 0.113281 L 149.652344 0.113281 L 149.652344 266 L 1 266 Z M 1 0.113281 " clip-rule="nonzero"/></clipPath><clipPath id="d0c68b5157"><rect x="0" width="150" y="0" height="267"/></clipPath><clipPath id="cce143b41c"><path d="M 72 0.71875 L 209 0.71875 L 209 273 L 72 273 Z M 72 0.71875 " clip-rule="nonzero"/></clipPath><mask id="a01de2dfc1"><g filter="url(#aa241d5874)"><rect x="-66.37" width="408.24" fill="#000000" y="-62.370001" height="408.240007" fill-opacity="0.583"/></g></mask><clipPath id="2b19ca75c2"><path d="M 0.425781 0.71875 L 136 0.71875 L 136 272.398438 L 0.425781 272.398438 Z M 0.425781 0.71875 " clip-rule="nonzero"/></clipPath><clipPath id="d08ebe0070"><rect x="0" width="137" y="0" height="273"/></clipPath><clipPath id="796672333e"><path d="M 74 1 L 201 1 L 201 273.117188 L 74 273.117188 Z M 74 1 " clip-rule="nonzero"/></clipPath><mask id="ebad2589bb"><g filter="url(#aa241d5874)"><rect x="-66.37" width="408.24" fill="#000000" y="-62.370001" height="408.240007" fill-opacity="0.625"/></g></mask><clipPath id="8c0f553fff"><rect x="0" width="127" y="0" height="273"/></clipPath><mask id="98b1af6b5c"><g filter="url(#aa241d5874)"><rect x="-66.37" width="408.24" fill="#000000" y="-62.370001" height="408.240007" fill-opacity="0.667"/></g></mask><clipPath id="f706b44f18"><path d="M 1 0.707031 L 122.847656 0.707031 L 122.847656 264.722656 L 1 264.722656 Z M 1 0.707031 " clip-rule="nonzero"/></clipPath><clipPath id="ed47281b20"><rect x="0" width="123" y="0" height="265"/></clipPath><mask id="a74e8a9674"><g filter="url(#aa241d5874)"><rect x="-66.37" width="408.24" fill="#000000" y="-62.370001" height="408.240007" fill-opacity="0.708"/></g></mask><clipPath id="9ec6593446"><path d="M 0.644531 1 L 150 1 L 150 251.453125 L 0.644531 251.453125 Z M 0.644531 1 " clip-rule="nonzero"/></clipPath><clipPath id="460701ad53"><rect x="0" width="151" y="0" height="252"/></clipPath><mask id="1cfe4c458a"><g filter="url(#aa241d5874)"><rect x="-66.37" width="408.24" fill="#000000" y="-62.370001" height="408.240007" fill-opacity="0.75"/></g></mask><clipPath id="e86e3231bb"><path d="M 0.269531 0.355469 L 180.910156 0.355469 L 180.910156 231.546875 L 0.269531 231.546875 Z M 0.269531 0.355469 " clip-rule="nonzero"/></clipPath><clipPath id="24af0b2cc9"><rect x="0" width="181" y="0" height="232"/></clipPath><mask id="8080c6dcf1"><g filter="url(#aa241d5874)"><rect x="-66.37" width="408.24" fill="#000000" y="-62.370001" height="408.240007" fill-opacity="0.792"/></g></mask><clipPath id="d0b23b83f3"><path d="M 0.613281 0.53125 L 210 0.53125 L 210 208.484375 L 0.613281 208.484375 Z M 0.613281 0.53125 " clip-rule="nonzero"/></clipPath><clipPath id="882617954e"><rect x="0" width="211" y="0" height="209"/></clipPath><mask id="09b4b539d4"><g filter="url(#aa241d5874)"><rect x="-66.37" width="408.24" fill="#000000" y="-62.370001" height="408.240007" fill-opacity="0.833"/></g></mask><clipPath id="86a30a804e"><path d="M 1 0.1875 L 234.703125 0.1875 L 234.703125 182.984375 L 1 182.984375 Z M 1 0.1875 " clip-rule="nonzero"/></clipPath><clipPath id="7af2c806ab"><rect x="0" width="235" y="0" height="183"/></clipPath><mask id="c702195066"><g filter="url(#aa241d5874)"><rect x="-66.37" width="408.24" fill="#000000" y="-62.370001" height="408.240007" fill-opacity="0.875"/></g></mask><clipPath id="2cd7fbcded"><path d="M 0.53125 1 L 253.523438 1 L 253.523438 164.921875 L 0.53125 164.921875 Z M 0.53125 1 " clip-rule="nonzero"/></clipPath><clipPath id="cea5bef21c"><rect x="0" width="254" y="0" height="165"/></clipPath><mask id="81d7d792d4"><g filter="url(#aa241d5874)"><rect x="-66.37" width="408.24" fill="#000000" y="-62.370001" height="408.240007" fill-opacity="0.917"/></g></mask><clipPath id="43f0afbd2e"><path d="M 0.0625 1 L 265.992188 1 L 265.992188 149.578125 L 0.0625 149.578125 Z M 0.0625 1 " clip-rule="nonzero"/></clipPath><clipPath id="0f3e8fd8f7"><rect x="0" width="266" y="0" height="150"/></clipPath><clipPath id="b5e025b65d"><path d="M 2 72 L 274.148438 72 L 274.148438 208 L 2 208 Z M 2 72 " clip-rule="nonzero"/></clipPath><mask id="ac3aa46fe6"><g filter="url(#aa241d5874)"><rect x="-66.37" width="408.24" fill="#000000" y="-62.370001" height="408.240007" fill-opacity="0.958"/></g></mask><clipPath id="d0bf28c0e7"><path d="M 0.46875 0.351562 L 272.148438 0.351562 L 272.148438 135.953125 L 0.46875 135.953125 Z M 0.46875 0.351562 " clip-rule="nonzero"/></clipPath><clipPath id="3866f9cdbc"><rect x="0" width="273" y="0" height="136"/></clipPath><clipPath id="57e45485d9"><path d="M 0.257812 2 L 1 2 L 1 2.820312 L 0.257812 2.820312 Z M 0.257812 2 " clip-rule="nonzero"/></clipPath><clipPath id="0d95df23fe"><rect x="0" width="2" y="0" height="3"/></clipPath><clipPath id="9a452c5070"><rect x="0" width="275" y="0" height="274"/></clipPath></defs><g transform="matrix(1, 0, 0, 1, 4, 0.000000000000005218)"><g clip-path="url(#9a452c5070)"><g mask="url(#afab29e79f)"><g transform="matrix(1, 0, 0, 1, 31, 27)"><g clip-path="url(#1f514aa65b)"><g clip-path="url(#5f681fc682)"><path fill="#2f6da3" d="M 131.734375 174.078125 C 110.78125 191.308594 83.414062 202 39.164062 207.226562 C 28.097656 208.535156 19.804688 208.28125 13.832031 206.683594 C 7.855469 205.082031 4.191406 202.136719 2.425781 198.054688 C 0.660156 193.984375 0.796875 188.808594 2.34375 182.785156 C 3.894531 176.757812 6.863281 169.855469 10.789062 162.3125 C 17.722656 149 27.660156 133.660156 38.082031 117.566406 C 39.46875 115.433594 40.859375 113.28125 42.253906 111.121094 C 54.164062 92.683594 66.277344 73.492188 74.953125 55.359375 C 93.777344 16.042969 133.585938 3.03125 167.679688 0.875 C 194.042969 -0.796875 215.09375 19.78125 209.234375 45.574219 C 205.695312 61.167969 198.625 80.1875 185.792969 101.796875 C 167.207031 133.101562 152.679688 156.851562 131.734375 174.078125 Z M 131.550781 173.855469 C 152.453125 156.667969 166.953125 132.960938 185.546875 101.652344 C 198.363281 80.066406 205.421875 61.074219 208.953125 45.511719 C 214.761719 19.941406 193.90625 -0.5 167.699219 1.160156 C 133.644531 3.316406 93.96875 16.304688 75.214844 55.484375 C 66.527344 73.632812 54.40625 92.84375 42.496094 111.277344 C 41.101562 113.4375 39.707031 115.589844 38.324219 117.726562 C 27.898438 133.820312 17.972656 149.144531 11.042969 162.445312 C 7.121094 169.980469 4.164062 176.859375 2.625 182.855469 C 1.082031 188.855469 0.960938 193.953125 2.6875 197.941406 C 4.414062 201.921875 7.988281 204.820312 13.90625 206.40625 C 19.828125 207.988281 28.082031 208.246094 39.132812 206.941406 C 83.347656 201.71875 110.65625 191.039062 131.550781 173.855469 Z M 131.550781 173.855469 " fill-opacity="1" fill-rule="evenodd"/></g></g></g></g><g mask="url(#68e2376be1)"><g transform="matrix(1, 0, 0, 1, 19, 39)"><g clip-path="url(#9e4e956c5f)"><g clip-path="url(#d0e6c085e3)"><path fill="#2f6da3" d="M 132.304688 165.492188 C 108.675781 178.820312 79.871094 184.597656 35.386719 182.0625 C 24.261719 181.425781 16.136719 179.738281 10.53125 177.125 C 4.921875 174.515625 1.828125 170.976562 0.796875 166.648438 C -0.234375 162.332031 0.796875 157.261719 3.371094 151.597656 C 5.941406 145.929688 10.0625 139.648438 15.242188 132.90625 C 24.382812 120.996094 36.828125 107.617188 49.890625 93.578125 C 51.625 91.714844 53.367188 89.839844 55.117188 87.953125 C 70.046875 71.863281 85.308594 55.066406 97.003906 38.71875 C 122.367188 3.265625 163.828125 -2.632812 197.78125 1.160156 C 224.035156 4.09375 241.191406 28.011719 230.941406 52.398438 C 224.75 67.140625 214.484375 84.644531 198.09375 103.695312 C 174.355469 131.296875 155.925781 152.164062 132.304688 165.492188 Z M 132.164062 165.238281 C 155.730469 151.941406 174.128906 131.117188 197.878906 103.507812 C 214.25 84.476562 224.496094 67 230.679688 52.289062 C 240.835938 28.113281 223.847656 4.363281 197.75 1.445312 C 163.839844 -2.34375 122.511719 3.554688 97.238281 38.886719 C 85.53125 55.25 70.257812 72.0625 55.328125 88.148438 C 53.578125 90.035156 51.835938 91.910156 50.101562 93.773438 C 37.039062 107.8125 24.601562 121.183594 15.46875 133.078125 C 10.296875 139.816406 6.191406 146.078125 3.632812 151.714844 C 1.070312 157.355469 0.0664062 162.355469 1.078125 166.582031 C 2.082031 170.800781 5.101562 174.28125 10.652344 176.867188 C 16.210938 179.453125 24.292969 181.140625 35.402344 181.773438 C 79.855469 184.308594 108.601562 178.535156 132.164062 165.238281 Z M 132.164062 165.238281 " fill-opacity="1" fill-rule="evenodd"/></g></g></g></g><g mask="url(#619130c26b)"><g transform="matrix(1, 0, 0, 1, 9, 49)"><g clip-path="url(#cae69ba9a8)"><g clip-path="url(#3fdf2d51e5)"><path fill="#2f6da3" d="M 130.457031 156.867188 C 104.875 165.894531 75.5 166.582031 32.132812 156.359375 C 21.289062 153.800781 13.578125 150.726562 8.511719 147.179688 C 3.445312 143.636719 1.011719 139.613281 0.746094 135.175781 C 0.480469 130.742188 2.378906 125.929688 5.894531 120.796875 C 9.410156 115.664062 14.558594 110.191406 20.828125 104.449219 C 31.898438 94.308594 46.480469 83.292969 61.78125 71.738281 C 63.8125 70.203125 65.855469 68.660156 67.90625 67.105469 C 85.402344 53.855469 103.351562 39.960938 117.707031 25.890625 C 148.839844 -4.617188 190.695312 -3.230469 223.476562 6.40625 C 248.816406 13.851562 261.5625 40.386719 247.234375 62.625 C 238.574219 76.066406 225.425781 91.519531 205.976562 107.4375 C 177.804688 130.496094 156.03125 147.84375 130.457031 156.867188 Z M 130.359375 156.597656 C 155.878906 147.59375 177.613281 130.277344 205.796875 107.214844 C 225.222656 91.3125 238.351562 75.882812 246.992188 62.46875 C 261.195312 40.421875 248.589844 14.085938 223.394531 6.679688 C 190.65625 -2.941406 148.929688 -4.304688 117.90625 26.097656 C 103.535156 40.179688 85.574219 54.085938 68.082031 67.335938 C 66.03125 68.886719 63.984375 70.433594 61.953125 71.964844 C 46.652344 83.523438 32.082031 94.53125 21.023438 104.660156 C 14.761719 110.398438 9.628906 115.851562 6.128906 120.960938 C 2.628906 126.070312 0.773438 130.820312 1.03125 135.15625 C 1.292969 139.484375 3.660156 143.433594 8.679688 146.945312 C 13.699219 150.460938 21.367188 153.523438 32.199219 156.078125 C 75.535156 166.292969 104.847656 165.597656 130.359375 156.597656 Z M 130.359375 156.597656 " fill-opacity="1" fill-rule="evenodd"/></g></g></g></g><g mask="url(#fc3a4bcb57)"><g transform="matrix(1, 0, 0, 1, 3, 58)"><g clip-path="url(#0d11f1d8c6)"><g clip-path="url(#60953e528e)"><path fill="#2f6da3" d="M 124.550781 147.167969 C 97.789062 151.613281 68.742188 147.191406 27.808594 129.589844 C 17.570312 125.191406 10.515625 120.820312 6.140625 116.453125 C 1.765625 112.078125 0.0664062 107.695312 0.578125 103.277344 C 1.085938 98.871094 3.789062 94.457031 8.140625 90.011719 C 12.496094 85.566406 18.519531 81.074219 25.691406 76.507812 C 38.351562 68.441406 54.625 60.128906 71.699219 51.402344 C 73.96875 50.246094 76.25 49.078125 78.539062 47.90625 C 98.070312 37.894531 118.15625 27.328125 134.734375 15.964844 C 170.695312 -8.675781 211.675781 -0.0351562 242.285156 15.140625 C 265.945312 26.878906 273.890625 55.222656 255.917969 74.632812 C 245.054688 86.367188 229.425781 99.300781 207.507812 111.601562 C 175.757812 129.417969 151.304688 142.722656 124.550781 147.167969 Z M 124.503906 146.882812 C 151.199219 142.449219 175.609375 129.171875 207.367188 111.351562 C 229.261719 99.066406 244.867188 86.148438 255.707031 74.4375 C 273.523438 55.195312 265.683594 27.066406 242.15625 15.398438 C 211.585938 0.238281 170.730469 -8.351562 134.898438 16.203125 C 118.300781 27.578125 98.199219 38.152344 78.667969 48.164062 C 76.378906 49.335938 74.097656 50.5 71.832031 51.660156 C 54.753906 60.386719 38.496094 68.695312 25.84375 76.75 C 18.679688 81.3125 12.679688 85.792969 8.347656 90.214844 C 4.011719 94.640625 1.359375 98.996094 0.863281 103.3125 C 0.363281 107.621094 2.011719 111.921875 6.34375 116.25 C 10.679688 120.582031 17.699219 124.933594 27.921875 129.328125 C 68.828125 146.914062 97.8125 151.316406 124.503906 146.882812 Z M 124.503906 146.882812 " fill-opacity="1" fill-rule="evenodd"/></g></g></g></g><g clip-path="url(#52cb64a90e)"><g mask="url(#5f83d45631)"><g transform="matrix(1, 0, 0, 1, 0.000000000000000444, 66)"><g clip-path="url(#19b900f10c)"><g clip-path="url(#73f9375243)"><path fill="#2f6da3" d="M 115.945312 136.410156 C 88.816406 136.140625 60.980469 126.742188 23.726562 102.300781 C 14.410156 96.191406 8.21875 90.664062 4.667969 85.601562 C 1.117188 80.53125 0.207031 75.921875 1.476562 71.660156 C 2.742188 67.40625 6.171875 63.53125 11.230469 59.910156 C 16.292969 56.289062 23 52.910156 30.859375 49.65625 C 44.726562 43.914062 62.199219 38.550781 80.527344 32.921875 C 82.960938 32.175781 85.410156 31.425781 87.867188 30.667969 C 108.839844 24.199219 130.457031 17.28125 148.757812 8.96875 C 188.449219 -9.050781 227.308594 6.570312 254.816406 26.835938 C 276.082031 42.5 278.980469 71.792969 257.914062 87.789062 C 245.179688 97.457031 227.539062 107.484375 203.820312 115.789062 C 169.457031 127.820312 143.0625 136.679688 115.945312 136.410156 Z M 115.949219 136.121094 C 143.007812 136.390625 169.355469 127.550781 203.722656 115.519531 C 227.417969 107.222656 245.03125 97.210938 257.742188 87.558594 C 278.625 71.703125 275.789062 42.640625 254.644531 27.066406 C 227.171875 6.828125 188.429688 -8.726562 148.878906 9.230469 C 130.558594 17.550781 108.925781 24.472656 87.953125 30.941406 C 85.496094 31.699219 83.046875 32.453125 80.613281 33.199219 C 62.28125 38.828125 44.824219 44.183594 30.96875 49.921875 C 23.121094 53.171875 16.433594 56.539062 11.398438 60.144531 C 6.359375 63.75 2.992188 67.578125 1.753906 71.742188 C 0.515625 75.898438 1.390625 80.417969 4.902344 85.433594 C 8.421875 90.453125 14.578125 95.957031 23.882812 102.0625 C 61.113281 126.484375 88.894531 135.851562 115.949219 136.121094 Z M 115.949219 136.121094 " fill-opacity="1" fill-rule="evenodd"/></g></g></g></g></g><g mask="url(#1da7d3eeb0)"><g transform="matrix(1, 0, 0, 1, 1, 74)"><g clip-path="url(#2f47829b6d)"><g clip-path="url(#7cddca9363)"><path fill="#2f6da3" d="M 103.996094 123.679688 C 77.328125 118.703125 51.546875 104.613281 19.101562 74.074219 C 10.984375 66.4375 5.847656 59.917969 3.234375 54.316406 C 0.617188 48.710938 0.519531 44.011719 2.511719 40.035156 C 4.496094 36.066406 8.546875 32.84375 14.15625 30.15625 C 19.769531 27.46875 26.964844 25.308594 35.265625 23.46875 C 49.921875 20.222656 68.058594 17.972656 87.085938 15.613281 C 89.613281 15.300781 92.15625 14.988281 94.707031 14.667969 C 116.484375 11.9375 138.976562 8.878906 158.441406 3.875 C 200.660156 -6.980469 236.214844 15.152344 259.785156 39.882812 C 278.007812 59.003906 275.777344 88.355469 252.25 100.449219 C 238.03125 107.761719 218.917969 114.570312 194.113281 118.628906 C 158.1875 124.511719 130.65625 128.652344 103.996094 123.679688 Z M 104.046875 123.394531 C 130.652344 128.359375 158.132812 124.230469 194.070312 118.347656 C 218.84375 114.289062 237.925781 107.488281 252.121094 100.195312 C 275.441406 88.203125 277.695312 59.089844 259.578125 40.082031 C 236.035156 15.382812 200.582031 -6.664062 158.511719 4.152344 C 139.027344 9.164062 116.519531 12.226562 94.742188 14.953125 C 92.191406 15.273438 89.648438 15.585938 87.121094 15.902344 C 68.089844 18.257812 49.972656 20.503906 35.328125 23.75 C 27.035156 25.585938 19.863281 27.742188 14.28125 30.417969 C 8.695312 33.09375 4.710938 36.277344 2.765625 40.164062 C 0.828125 44.042969 0.902344 48.648438 3.492188 54.195312 C 6.085938 59.75 11.195312 66.238281 19.296875 73.867188 C 51.71875 104.382812 77.453125 118.433594 104.046875 123.394531 Z M 104.046875 123.394531 " fill-opacity="1" fill-rule="evenodd"/></g></g></g></g><g mask="url(#b97dc3b7d8)"><g transform="matrix(1, 0, 0, 1, 6, 80)"><g clip-path="url(#983211f393)"><g clip-path="url(#f091d778e6)"><path fill="#2f6da3" d="M 89.035156 111.117188 C 63.636719 101.585938 40.691406 83.234375 14.042969 47.527344 C 7.378906 38.597656 3.449219 31.285156 1.847656 25.3125 C 0.242188 19.339844 0.964844 14.695312 3.613281 11.121094 C 6.257812 7.558594 10.808594 5.089844 16.800781 3.417969 C 22.792969 1.746094 30.253906 0.867188 38.75 0.496094 C 53.75 -0.15625 71.996094 0.777344 91.148438 1.761719 C 93.691406 1.890625 96.25 2.019531 98.816406 2.148438 C 120.738281 3.246094 143.417969 4.136719 163.457031 2.585938 C 206.917969 -0.773438 238.089844 27.199219 257.007812 55.648438 C 271.632812 77.640625 264.339844 106.160156 239.070312 113.984375 C 223.796875 118.714844 203.792969 122.105469 178.660156 121.796875 C 142.257812 121.347656 114.425781 120.644531 89.035156 111.117188 Z M 89.136719 110.847656 C 114.472656 120.355469 142.25 121.0625 178.664062 121.507812 C 203.765625 121.816406 223.742188 118.433594 238.984375 113.710938 C 264.035156 105.953125 271.308594 77.675781 256.769531 55.808594 C 237.875 27.394531 206.789062 -0.472656 163.480469 2.875 C 143.417969 4.425781 120.722656 3.53125 98.800781 2.4375 C 96.234375 2.308594 93.675781 2.175781 91.132812 2.046875 C 71.980469 1.066406 53.746094 0.128906 38.761719 0.78125 C 30.277344 1.152344 22.839844 2.03125 16.875 3.695312 C 10.910156 5.359375 6.433594 7.804688 3.84375 11.292969 C 1.261719 14.777344 0.535156 19.324219 2.125 25.238281 C 3.714844 31.160156 7.617188 38.4375 14.273438 47.355469 C 40.902344 83.035156 63.804688 101.34375 89.136719 110.847656 Z M 89.136719 110.847656 " fill-opacity="1" fill-rule="evenodd"/></g></g></g></g><g mask="url(#8f247bd261)"><g transform="matrix(1, 0, 0, 1, 14, 63)"><g clip-path="url(#4f1078c0ea)"><g clip-path="url(#182daf0bc4)"><path fill="#2f6da3" d="M 72.363281 119.925781 C 49.003906 106.128906 29.597656 84.074219 9.554688 44.277344 C 4.539062 34.328125 1.941406 26.445312 1.398438 20.285156 C 0.859375 14.125 2.375 9.675781 5.605469 6.617188 C 8.828125 3.566406 13.734375 1.925781 19.929688 1.320312 C 26.121094 0.714844 33.621094 1.144531 42.050781 2.253906 C 56.9375 4.214844 74.746094 8.304688 93.433594 12.597656 C 95.914062 13.167969 98.414062 13.742188 100.921875 14.3125 C 122.316406 19.199219 144.496094 24.015625 164.5 25.96875 C 207.886719 30.207031 233.726562 63.164062 247.417969 94.46875 C 258 118.667969 245.867188 145.488281 219.621094 148.804688 C 203.757812 150.8125 183.46875 150.671875 158.773438 146.007812 C 123 139.246094 95.714844 133.71875 72.363281 119.925781 Z M 72.507812 119.679688 C 95.808594 133.441406 123.046875 138.960938 158.828125 145.722656 C 183.496094 150.386719 203.753906 150.523438 219.585938 148.519531 C 245.601562 145.230469 257.675781 118.644531 247.152344 94.582031 C 233.480469 63.320312 207.707031 30.476562 164.472656 26.253906 C 144.449219 24.300781 122.25 19.476562 100.855469 14.59375 C 98.347656 14.019531 95.851562 13.449219 93.371094 12.878906 C 74.679688 8.585938 56.882812 4.5 42.015625 2.539062 C 33.59375 1.429688 26.117188 1.003906 19.957031 1.605469 C 13.792969 2.207031 8.960938 3.839844 5.804688 6.828125 C 2.652344 9.808594 1.148438 14.160156 1.6875 20.261719 C 2.222656 26.367188 4.804688 34.210938 9.808594 44.148438 C 29.839844 83.914062 49.214844 105.921875 72.507812 119.679688 Z M 72.507812 119.679688 " fill-opacity="1" fill-rule="evenodd"/></g></g></g></g><g mask="url(#6a0b8b730e)"><g transform="matrix(1, 0, 0, 1, 26, 46)"><g clip-path="url(#c8d241967b)"><g clip-path="url(#663ec6ba61)"><path fill="#2f6da3" d="M 53.246094 127.355469 C 32.640625 109.710938 17.355469 84.621094 4.527344 41.949219 C 1.316406 31.277344 0.128906 23.066406 0.664062 16.90625 C 1.199219 10.742188 3.46875 6.625 7.179688 4.175781 C 10.882812 1.730469 16 0.964844 22.203125 1.445312 C 28.410156 1.921875 35.71875 3.648438 43.828125 6.207031 C 58.148438 10.722656 74.976562 17.84375 92.636719 25.316406 C 94.980469 26.308594 97.339844 27.304688 99.707031 28.304688 C 119.933594 36.832031 140.9375 45.425781 160.300781 50.824219 C 202.289062 62.53125 222.015625 99.476562 230.0625 132.679688 C 236.28125 158.351562 219.675781 182.65625 193.253906 181.367188 C 177.28125 180.585938 157.324219 176.929688 133.816406 168.042969 C 99.761719 155.171875 73.847656 144.992188 53.246094 127.355469 Z M 53.433594 127.136719 C 73.992188 144.734375 99.851562 154.902344 133.917969 167.773438 C 157.402344 176.648438 177.328125 180.300781 193.269531 181.078125 C 219.460938 182.355469 235.96875 158.269531 229.78125 132.75 C 221.746094 99.585938 202.066406 62.765625 160.222656 51.101562 C 140.839844 45.699219 119.820312 37.09375 99.597656 28.570312 C 97.226562 27.570312 94.867188 26.570312 92.523438 25.582031 C 74.863281 18.105469 58.046875 10.992188 43.742188 6.480469 C 35.640625 3.925781 28.355469 2.207031 22.179688 1.730469 C 16.003906 1.253906 10.964844 2.023438 7.335938 4.414062 C 3.71875 6.804688 1.480469 10.828125 0.949219 16.929688 C 0.417969 23.035156 1.597656 31.210938 4.800781 41.867188 C 17.625 84.507812 32.882812 109.542969 53.433594 127.136719 Z M 53.433594 127.136719 " fill-opacity="1" fill-rule="evenodd"/></g></g></g></g><g mask="url(#3e58aa7cb2)"><g transform="matrix(1, 0, 0, 1, 39, 31)"><g clip-path="url(#039fe67ea8)"><g clip-path="url(#d96eb281a7)"><path fill="#2f6da3" d="M 34.902344 131.691406 C 17.667969 110.738281 6.976562 83.375 1.75 39.125 C 0.445312 28.058594 0.699219 19.761719 2.296875 13.789062 C 3.894531 7.8125 6.839844 4.152344 10.921875 2.382812 C 14.996094 0.621094 20.167969 0.753906 26.191406 2.304688 C 32.222656 3.851562 39.121094 6.820312 46.664062 10.75 C 59.980469 17.683594 75.316406 27.617188 91.410156 38.042969 C 93.546875 39.425781 95.695312 40.820312 97.855469 42.214844 C 116.292969 54.125 135.488281 66.234375 153.617188 74.914062 C 192.9375 93.734375 205.945312 133.542969 208.105469 167.640625 C 209.773438 194 189.195312 215.050781 163.402344 209.195312 C 147.808594 205.652344 128.789062 198.585938 107.179688 185.753906 C 75.878906 167.164062 52.125 152.640625 34.902344 131.691406 Z M 35.121094 131.507812 C 52.3125 152.410156 76.015625 166.914062 107.328125 185.507812 C 128.914062 198.324219 147.902344 205.378906 163.464844 208.914062 C 189.039062 214.71875 209.476562 193.867188 207.816406 167.660156 C 205.660156 133.605469 192.671875 93.929688 153.492188 75.171875 C 135.34375 66.484375 116.136719 54.363281 97.699219 42.457031 C 95.539062 41.0625 93.390625 39.667969 91.253906 38.285156 C 75.15625 27.859375 59.832031 17.929688 46.53125 11.003906 C 38.996094 7.082031 32.117188 4.125 26.121094 2.582031 C 20.121094 1.039062 15.023438 0.921875 11.035156 2.648438 C 7.058594 4.371094 4.15625 7.949219 2.574219 13.863281 C 0.988281 19.785156 0.730469 28.039062 2.035156 39.089844 C 7.257812 83.308594 17.9375 110.613281 35.121094 131.507812 Z M 35.121094 131.507812 " fill-opacity="1" fill-rule="evenodd"/></g></g></g></g><g mask="url(#16b2033642)"><g transform="matrix(1, 0, 0, 1, 53, 19)"><g clip-path="url(#67b9ee0c1d)"><g clip-path="url(#d35eac9539)"><path fill="#2f6da3" d="M 17.488281 132.261719 C 4.15625 108.636719 -1.621094 79.832031 0.914062 35.347656 C 1.550781 24.222656 3.242188 16.09375 5.851562 10.492188 C 8.460938 4.882812 12 1.789062 16.328125 0.757812 C 20.644531 -0.273438 25.714844 0.757812 31.378906 3.328125 C 37.046875 5.902344 43.328125 10.023438 50.074219 15.199219 C 61.980469 24.339844 75.359375 36.789062 89.398438 49.847656 C 91.261719 51.582031 93.136719 53.328125 95.023438 55.078125 C 111.113281 70.007812 127.910156 85.269531 144.257812 96.964844 C 179.710938 122.324219 185.613281 163.789062 181.816406 197.742188 C 178.882812 223.992188 154.964844 241.148438 130.578125 230.902344 C 115.835938 224.707031 98.335938 214.445312 79.28125 198.054688 C 51.679688 174.3125 30.8125 155.882812 17.488281 132.261719 Z M 17.738281 132.121094 C 31.035156 155.691406 51.863281 174.089844 79.46875 197.835938 C 98.5 214.207031 115.976562 224.457031 130.6875 230.636719 C 154.863281 240.796875 178.613281 223.808594 181.53125 197.710938 C 185.320312 163.800781 179.421875 122.46875 144.09375 97.195312 C 127.726562 85.488281 110.914062 70.21875 94.828125 55.289062 C 92.941406 53.539062 91.066406 51.792969 89.203125 50.058594 C 75.164062 36.996094 61.796875 24.558594 49.898438 15.429688 C 43.160156 10.257812 36.898438 6.148438 31.261719 3.589844 C 25.621094 1.03125 20.621094 0.0273438 16.394531 1.035156 C 12.175781 2.042969 8.695312 5.0625 6.113281 10.613281 C 3.523438 16.167969 1.835938 24.253906 1.203125 35.363281 C -1.332031 79.816406 4.441406 108.558594 17.738281 132.121094 Z M 17.738281 132.121094 " fill-opacity="1" fill-rule="evenodd"/></g></g></g></g><g mask="url(#28ac7b88ba)"><g transform="matrix(1, 0, 0, 1, 61, 9)"><g clip-path="url(#b0fc2bf79d)"><g clip-path="url(#682e39b725)"><path fill="#2f6da3" d="M 8.109375 130.414062 C -0.914062 104.832031 -1.605469 75.460938 8.621094 32.09375 C 11.175781 21.246094 14.253906 13.539062 17.796875 8.472656 C 21.34375 3.402344 25.363281 0.96875 29.804688 0.707031 C 34.234375 0.441406 39.046875 2.335938 44.179688 5.851562 C 49.316406 9.371094 54.785156 14.519531 60.527344 20.789062 C 70.667969 31.859375 81.683594 46.441406 93.242188 61.742188 C 94.773438 63.773438 96.320312 65.816406 97.871094 67.867188 C 111.125 85.363281 125.015625 103.308594 139.085938 117.664062 C 169.597656 148.800781 168.207031 190.65625 158.574219 223.433594 C 151.125 248.777344 124.589844 261.519531 102.355469 247.195312 C 88.910156 238.535156 73.457031 225.386719 57.539062 205.9375 C 34.484375 177.765625 17.132812 155.992188 8.109375 130.414062 Z M 8.378906 130.320312 C 17.382812 155.839844 34.699219 177.574219 57.761719 205.753906 C 73.664062 225.183594 89.09375 238.308594 102.511719 246.953125 C 124.554688 261.15625 150.890625 248.550781 158.296875 223.355469 C 167.917969 190.617188 169.285156 148.890625 138.878906 117.867188 C 124.796875 103.496094 110.894531 85.535156 97.644531 68.039062 C 96.089844 65.988281 94.546875 63.945312 93.011719 61.914062 C 81.453125 46.613281 70.449219 32.042969 60.316406 20.984375 C 54.578125 14.71875 49.125 9.589844 44.019531 6.089844 C 38.90625 2.589844 34.15625 0.734375 29.820312 0.992188 C 25.492188 1.25 21.542969 3.617188 18.03125 8.636719 C 14.519531 13.660156 11.453125 21.328125 8.898438 32.160156 C -1.316406 75.496094 -0.621094 104.808594 8.378906 130.320312 Z M 8.378906 130.320312 " fill-opacity="1" fill-rule="evenodd"/></g></g></g></g><g mask="url(#5f87fb4f8a)"><g transform="matrix(1, 0, 0, 1, 67, 3)"><g clip-path="url(#d0c68b5157)"><g clip-path="url(#9807cd54aa)"><path fill="#2f6da3" d="M 2.808594 124.507812 C -1.636719 97.746094 2.789062 68.703125 20.386719 27.765625 C 24.785156 17.53125 29.15625 10.472656 33.523438 6.097656 C 37.898438 1.722656 42.28125 0.0273438 46.699219 0.535156 C 51.109375 1.042969 55.519531 3.746094 59.964844 8.101562 C 64.410156 12.457031 68.902344 18.476562 73.46875 25.648438 C 81.535156 38.3125 89.847656 54.585938 98.574219 71.660156 C 99.730469 73.925781 100.898438 76.207031 102.070312 78.496094 C 112.082031 98.027344 122.648438 118.113281 134.011719 134.695312 C 158.652344 170.652344 150.015625 211.632812 134.835938 242.242188 C 123.101562 265.90625 94.753906 273.847656 75.34375 255.878906 C 63.609375 245.015625 50.675781 229.382812 38.375 207.464844 C 20.5625 175.71875 7.253906 151.261719 2.808594 124.507812 Z M 3.09375 124.460938 C 7.527344 151.15625 20.808594 175.566406 38.628906 207.324219 C 50.910156 229.21875 63.828125 244.824219 75.539062 255.667969 C 94.78125 273.480469 122.910156 265.640625 134.578125 242.113281 C 149.738281 211.546875 158.328125 170.691406 133.773438 134.859375 C 122.402344 118.257812 111.824219 98.15625 101.816406 78.628906 C 100.640625 76.339844 99.476562 74.058594 98.316406 71.789062 C 89.589844 54.714844 81.285156 38.453125 73.226562 25.804688 C 68.664062 18.640625 64.1875 12.640625 59.761719 8.304688 C 55.339844 3.972656 50.984375 1.320312 46.664062 0.820312 C 42.359375 0.324219 38.058594 1.96875 33.726562 6.304688 C 29.394531 10.640625 25.046875 17.65625 20.648438 27.878906 C 3.0625 68.785156 -1.339844 97.773438 3.09375 124.460938 Z M 3.09375 124.460938 " fill-opacity="1" fill-rule="evenodd"/></g></g></g></g><g clip-path="url(#cce143b41c)"><g mask="url(#a01de2dfc1)"><g transform="matrix(1, 0, 0, 1, 72, 0.000000000000005218)"><g clip-path="url(#d08ebe0070)"><g clip-path="url(#2b19ca75c2)"><path fill="#2f6da3" d="M 0.570312 115.902344 C 0.835938 88.777344 10.234375 60.941406 34.675781 23.683594 C 40.789062 14.367188 46.316406 8.175781 51.378906 4.628906 C 56.445312 1.078125 61.054688 0.167969 65.316406 1.4375 C 69.570312 2.703125 73.445312 6.128906 77.066406 11.191406 C 80.691406 16.25 84.066406 22.960938 87.320312 30.816406 C 93.0625 44.6875 98.425781 62.15625 104.054688 80.488281 C 104.800781 82.921875 105.550781 85.371094 106.308594 87.828125 C 112.777344 108.800781 119.695312 130.417969 128.007812 148.71875 C 146.027344 188.410156 130.40625 227.269531 110.144531 254.777344 C 94.476562 276.042969 65.183594 278.941406 49.1875 257.875 C 39.519531 245.136719 29.492188 227.5 21.1875 203.777344 C 9.15625 169.417969 0.300781 143.023438 0.570312 115.902344 Z M 0.855469 115.90625 C 0.585938 142.96875 9.425781 169.3125 21.460938 203.683594 C 29.757812 227.378906 39.765625 244.988281 49.417969 257.699219 C 65.273438 278.585938 94.335938 275.75 109.910156 254.605469 C 130.148438 227.132812 145.703125 188.390625 127.746094 148.839844 C 119.425781 130.515625 112.503906 108.882812 106.035156 87.914062 C 105.277344 85.453125 104.527344 83.003906 103.777344 80.570312 C 98.152344 62.238281 92.792969 44.785156 87.054688 30.925781 C 83.804688 23.078125 80.4375 16.394531 76.832031 11.359375 C 73.230469 6.320312 69.398438 2.953125 65.234375 1.710938 C 61.078125 0.472656 56.558594 1.347656 51.542969 4.863281 C 46.523438 8.382812 41.019531 14.539062 34.917969 23.84375 C 10.496094 61.070312 1.125 88.855469 0.855469 115.90625 Z M 0.855469 115.90625 " fill-opacity="1" fill-rule="evenodd"/></g></g></g></g></g><g clip-path="url(#796672333e)"><g mask="url(#ebad2589bb)"><g transform="matrix(1, 0, 0, 1, 74, 1)"><g clip-path="url(#8c0f553fff)"><path fill="#2f6da3" d="M 3.300781 103.953125 C 8.273438 77.285156 22.363281 51.507812 52.902344 19.058594 C 60.539062 10.945312 67.058594 5.808594 72.660156 3.191406 C 78.265625 0.574219 82.964844 0.480469 86.941406 2.46875 C 90.910156 4.453125 94.132812 8.503906 96.820312 14.117188 C 99.507812 19.730469 101.667969 26.921875 103.507812 35.226562 C 106.757812 49.882812 109.003906 68.015625 111.363281 87.046875 C 111.675781 89.574219 111.992188 92.113281 112.3125 94.667969 C 115.039062 116.445312 118.097656 138.933594 123.105469 158.402344 C 133.960938 200.617188 111.828125 236.171875 87.09375 259.742188 C 67.972656 277.96875 38.621094 275.734375 26.527344 252.210938 C 19.21875 237.988281 12.40625 218.875 8.347656 194.074219 C 2.464844 158.148438 -1.675781 130.617188 3.300781 103.953125 Z M 3.582031 104.007812 C -1.382812 130.609375 2.746094 158.089844 8.628906 194.027344 C 12.6875 218.804688 19.488281 237.886719 26.785156 252.078125 C 38.773438 275.398438 67.886719 277.652344 86.898438 259.535156 C 111.597656 235.996094 133.644531 200.542969 122.824219 158.472656 C 117.816406 138.984375 114.753906 116.480469 112.023438 94.703125 C 111.707031 92.152344 111.390625 89.609375 111.078125 87.082031 C 108.71875 68.050781 106.472656 49.929688 103.226562 35.289062 C 101.390625 26.996094 99.234375 19.824219 96.5625 14.238281 C 93.886719 8.652344 90.699219 4.671875 86.8125 2.726562 C 82.933594 0.785156 78.332031 0.863281 72.78125 3.453125 C 67.226562 6.046875 60.738281 11.152344 53.113281 19.257812 C 22.597656 51.679688 8.542969 77.414062 3.582031 104.007812 Z M 3.582031 104.007812 " fill-opacity="1" fill-rule="evenodd"/></g></g></g></g><g mask="url(#98b1af6b5c)"><g transform="matrix(1, 0, 0, 1, 72, 6)"><g clip-path="url(#ed47281b20)"><g clip-path="url(#f706b44f18)"><path fill="#2f6da3" d="M 11.859375 88.992188 C 21.390625 63.59375 39.742188 40.652344 75.453125 14 C 84.382812 7.335938 91.691406 3.410156 97.664062 1.804688 C 103.640625 0.203125 108.285156 0.921875 111.855469 3.574219 C 115.417969 6.21875 117.886719 10.765625 119.558594 16.757812 C 121.234375 22.753906 122.113281 30.214844 122.480469 38.707031 C 123.136719 53.707031 122.199219 71.957031 121.21875 91.105469 C 121.085938 93.648438 120.957031 96.207031 120.828125 98.777344 C 119.734375 120.695312 118.839844 143.375 120.390625 163.414062 C 123.75 206.878906 95.78125 238.046875 67.332031 256.964844 C 45.335938 271.59375 16.816406 264.296875 8.992188 239.03125 C 4.261719 223.753906 0.875 203.75 1.183594 178.621094 C 1.628906 142.21875 2.332031 114.386719 11.859375 88.992188 Z M 12.128906 89.09375 C 2.621094 114.429688 1.914062 142.210938 1.46875 178.625 C 1.160156 203.726562 4.546875 223.699219 9.265625 238.945312 C 17.023438 263.996094 45.304688 271.269531 67.171875 256.726562 C 95.582031 237.832031 123.453125 206.746094 120.101562 163.4375 C 118.550781 143.378906 119.445312 120.679688 120.539062 98.761719 C 120.667969 96.191406 120.800781 93.632812 120.929688 91.09375 C 121.914062 71.941406 122.847656 53.703125 122.195312 38.722656 C 121.824219 30.234375 120.949219 22.800781 119.285156 16.835938 C 117.617188 10.871094 115.171875 6.394531 111.683594 3.804688 C 108.203125 1.21875 103.652344 0.496094 97.738281 2.082031 C 91.820312 3.671875 84.542969 7.574219 75.625 14.230469 C 39.941406 40.863281 21.632812 63.765625 12.128906 89.09375 Z M 12.128906 89.09375 " fill-opacity="1" fill-rule="evenodd"/></g></g></g></g><g mask="url(#a74e8a9674)"><g transform="matrix(1, 0, 0, 1, 61, 14)"><g clip-path="url(#460701ad53)"><g clip-path="url(#9ec6593446)"><path fill="#2f6da3" d="M 31.050781 72.324219 C 44.847656 48.964844 66.90625 29.558594 106.699219 9.511719 C 116.648438 4.5 124.53125 1.902344 130.691406 1.359375 C 136.855469 0.816406 141.304688 2.335938 144.359375 5.566406 C 147.410156 8.789062 149.050781 13.695312 149.65625 19.886719 C 150.265625 26.082031 149.835938 33.582031 148.722656 42.011719 C 146.761719 56.894531 142.671875 74.707031 138.378906 93.394531 C 137.808594 95.875 137.238281 98.371094 136.664062 100.878906 C 131.78125 122.277344 126.960938 144.457031 125.007812 164.460938 C 120.769531 207.84375 87.8125 233.6875 56.511719 247.375 C 32.308594 257.960938 5.492188 245.824219 2.171875 219.582031 C 0.167969 203.71875 0.304688 183.429688 4.972656 158.734375 C 11.730469 122.960938 17.257812 95.675781 31.050781 72.324219 Z M 31.296875 72.46875 C 17.535156 95.769531 12.015625 123.003906 5.253906 158.789062 C 0.59375 183.457031 0.457031 203.714844 2.457031 219.546875 C 5.746094 245.5625 32.335938 257.636719 56.394531 247.113281 C 87.65625 233.441406 120.5 207.664062 124.722656 164.433594 C 126.679688 144.40625 131.5 122.210938 136.382812 100.816406 C 136.957031 98.308594 137.53125 95.8125 138.101562 93.328125 C 142.390625 74.640625 146.480469 56.84375 148.4375 41.972656 C 149.546875 33.554688 149.976562 26.078125 149.371094 19.914062 C 148.769531 13.75 147.136719 8.917969 144.152344 5.761719 C 141.171875 2.613281 136.816406 1.109375 130.714844 1.644531 C 124.609375 2.183594 116.765625 4.761719 106.828125 9.769531 C 67.0625 29.800781 45.058594 49.175781 31.296875 72.46875 Z M 31.296875 72.46875 " fill-opacity="1" fill-rule="evenodd"/></g></g></g></g><g mask="url(#1cfe4c458a)"><g transform="matrix(1, 0, 0, 1, 47, 26)"><g clip-path="url(#24af0b2cc9)"><g clip-path="url(#e86e3231bb)"><path fill="#2f6da3" d="M 54.625 53.207031 C 72.265625 32.597656 97.359375 17.316406 140.027344 4.484375 C 150.699219 1.277344 158.914062 0.0859375 165.070312 0.625 C 171.234375 1.160156 175.351562 3.425781 177.800781 7.140625 C 180.246094 10.84375 181.011719 15.960938 180.535156 22.164062 C 180.054688 28.367188 178.328125 35.679688 175.773438 43.789062 C 171.253906 58.105469 164.132812 74.9375 156.664062 92.59375 C 155.671875 94.9375 154.671875 97.296875 153.671875 99.667969 C 145.148438 119.890625 136.550781 140.898438 131.152344 160.261719 C 119.445312 202.25 82.5 221.972656 49.296875 230.019531 C 23.625 236.242188 -0.675781 219.632812 0.613281 193.214844 C 1.390625 177.242188 5.050781 157.285156 13.933594 133.777344 C 26.804688 99.71875 36.984375 73.808594 54.625 53.207031 Z M 54.839844 53.394531 C 37.242188 73.949219 27.078125 99.8125 14.203125 133.878906 C 5.328125 157.359375 1.675781 177.289062 0.898438 193.226562 C -0.378906 219.417969 23.707031 235.925781 49.230469 229.742188 C 82.390625 221.707031 119.210938 202.023438 130.875 160.183594 C 136.28125 140.800781 144.882812 119.78125 153.40625 99.558594 C 154.40625 97.1875 155.40625 94.828125 156.398438 92.484375 C 163.871094 74.820312 170.984375 58.007812 175.496094 43.703125 C 178.054688 35.601562 179.769531 28.316406 180.246094 22.140625 C 180.722656 15.964844 179.957031 10.925781 177.5625 7.296875 C 175.175781 3.675781 171.148438 1.441406 165.046875 0.910156 C 158.941406 0.378906 150.765625 1.558594 140.109375 4.761719 C 97.472656 17.582031 72.4375 32.84375 54.839844 53.394531 Z M 54.839844 53.394531 " fill-opacity="1" fill-rule="evenodd"/></g></g></g></g><g mask="url(#8080c6dcf1)"><g transform="matrix(1, 0, 0, 1, 33, 39)"><g clip-path="url(#882617954e)"><g clip-path="url(#d0b23b83f3)"><path fill="#2f6da3" d="M 79.285156 34.859375 C 100.238281 17.628906 127.601562 6.9375 171.851562 1.710938 C 182.917969 0.402344 191.214844 0.65625 197.1875 2.253906 C 203.164062 3.851562 206.824219 6.800781 208.59375 10.882812 C 210.355469 14.953125 210.222656 20.125 208.671875 26.152344 C 207.125 32.179688 204.15625 39.082031 200.230469 46.621094 C 193.296875 59.9375 183.359375 75.273438 172.933594 91.367188 C 171.550781 93.503906 170.15625 95.65625 168.761719 97.816406 C 156.855469 116.253906 144.742188 135.445312 136.0625 153.578125 C 117.242188 192.894531 77.433594 205.90625 43.335938 208.0625 C 16.976562 209.730469 -4.074219 189.15625 1.78125 163.359375 C 5.324219 147.765625 12.390625 128.75 25.222656 107.140625 C 43.8125 75.835938 58.339844 52.085938 79.285156 34.859375 Z M 79.46875 35.082031 C 58.566406 52.269531 44.066406 75.976562 25.472656 107.285156 C 12.652344 128.871094 5.597656 147.863281 2.0625 163.425781 C -3.742188 188.996094 17.109375 209.4375 43.320312 207.777344 C 77.371094 205.621094 117.050781 192.632812 135.804688 153.453125 C 144.492188 135.304688 156.613281 116.09375 168.519531 97.660156 C 169.917969 95.5 171.308594 93.347656 172.695312 91.210938 C 183.121094 75.117188 193.046875 59.792969 199.972656 46.488281 C 203.898438 38.957031 206.855469 32.078125 208.394531 26.082031 C 209.9375 20.082031 210.054688 14.984375 208.328125 10.996094 C 206.605469 7.015625 203.03125 4.113281 197.113281 2.53125 C 191.191406 0.949219 182.9375 0.691406 171.886719 1.996094 C 127.667969 7.21875 100.363281 17.898438 79.46875 35.082031 Z M 79.46875 35.082031 " fill-opacity="1" fill-rule="evenodd"/></g></g></g></g><g mask="url(#09b4b539d4)"><g transform="matrix(1, 0, 0, 1, 21, 53)"><g clip-path="url(#7af2c806ab)"><g clip-path="url(#86a30a804e)"><path fill="#2f6da3" d="M 102.714844 17.445312 C 126.339844 4.117188 155.148438 -1.664062 199.632812 0.875 C 210.757812 1.507812 218.882812 3.199219 224.488281 5.808594 C 230.09375 8.421875 233.1875 11.960938 234.222656 16.285156 C 235.25 20.601562 234.21875 25.675781 231.648438 31.339844 C 229.078125 37.007812 224.953125 43.285156 219.777344 50.03125 C 210.636719 61.941406 198.1875 75.320312 185.128906 89.359375 C 183.394531 91.222656 181.648438 93.097656 179.898438 94.984375 C 164.96875 111.070312 149.710938 127.871094 138.015625 144.21875 C 112.652344 179.671875 71.1875 185.570312 37.234375 181.777344 C 10.984375 178.84375 -6.171875 154.921875 4.074219 130.539062 C 10.269531 115.796875 20.535156 98.292969 36.921875 79.242188 C 60.664062 51.640625 79.09375 30.773438 102.714844 17.445312 Z M 102.855469 17.695312 C 79.285156 30.996094 60.890625 51.820312 37.140625 79.429688 C 20.769531 98.460938 10.523438 115.9375 4.339844 130.648438 C -5.820312 154.824219 11.167969 178.574219 37.265625 181.492188 C 71.175781 185.28125 112.507812 179.378906 137.78125 144.050781 C 149.488281 127.6875 164.761719 110.875 179.6875 94.789062 C 181.4375 92.902344 183.183594 91.027344 184.917969 89.164062 C 197.980469 75.121094 210.417969 61.753906 219.550781 49.855469 C 224.722656 43.117188 228.828125 36.859375 231.386719 31.21875 C 233.945312 25.578125 234.949219 20.578125 233.941406 16.351562 C 232.933594 12.136719 229.917969 8.65625 224.363281 6.070312 C 218.808594 3.484375 210.726562 1.796875 199.617188 1.160156 C 155.164062 -1.375 126.417969 4.402344 102.855469 17.695312 Z M 102.855469 17.695312 " fill-opacity="1" fill-rule="evenodd"/></g></g></g></g><g mask="url(#c702195066)"><g transform="matrix(1, 0, 0, 1, 12, 61)"><g clip-path="url(#cea5bef21c)"><g clip-path="url(#2cd7fbcded)"><path fill="#2f6da3" d="M 123.5625 8.070312 C 149.144531 -0.957031 178.515625 -1.644531 221.886719 8.578125 C 232.730469 11.136719 240.4375 14.210938 245.503906 17.753906 C 250.574219 21.300781 253.007812 25.324219 253.273438 29.761719 C 253.539062 34.191406 251.640625 39.007812 248.125 44.140625 C 244.609375 49.273438 239.457031 54.742188 233.1875 60.488281 C 222.117188 70.628906 207.539062 81.644531 192.238281 93.199219 C 190.207031 94.734375 188.160156 96.277344 186.109375 97.832031 C 168.613281 111.082031 150.667969 124.976562 136.3125 139.046875 C 105.179688 169.554688 63.320312 168.164062 30.542969 158.53125 C 5.199219 151.085938 -7.542969 124.550781 6.785156 102.3125 C 15.445312 88.871094 28.589844 73.417969 48.039062 57.5 C 76.214844 34.441406 97.984375 17.089844 123.5625 8.070312 Z M 123.65625 8.339844 C 98.136719 17.34375 76.402344 34.65625 48.222656 57.722656 C 28.792969 73.621094 15.667969 89.054688 7.023438 102.46875 C -7.175781 124.511719 5.429688 150.851562 30.625 158.257812 C 63.359375 167.878906 105.085938 169.242188 136.109375 138.839844 C 150.480469 124.757812 168.441406 110.851562 185.9375 97.601562 C 187.988281 96.046875 190.03125 94.503906 192.0625 92.96875 C 207.367188 81.410156 221.933594 70.40625 232.996094 60.277344 C 239.257812 54.539062 244.390625 49.085938 247.886719 43.976562 C 251.386719 38.867188 253.246094 34.117188 252.984375 29.78125 C 252.726562 25.449219 250.359375 21.5 245.339844 17.992188 C 240.316406 14.476562 232.648438 11.410156 221.820312 8.859375 C 178.480469 -1.359375 149.171875 -0.660156 123.65625 8.339844 Z M 123.65625 8.339844 " fill-opacity="1" fill-rule="evenodd"/></g></g></g></g><g mask="url(#81d7d792d4)"><g transform="matrix(1, 0, 0, 1, 6, 67)"><g clip-path="url(#0f3e8fd8f7)"><g clip-path="url(#43f0afbd2e)"><path fill="#2f6da3" d="M 141.46875 2.769531 C 168.230469 -1.675781 197.277344 2.746094 238.210938 20.347656 C 248.445312 24.746094 255.503906 29.113281 259.878906 33.484375 C 264.253906 37.859375 265.953125 42.242188 265.441406 46.660156 C 264.933594 51.066406 262.230469 55.480469 257.875 59.921875 C 253.519531 64.371094 247.5 68.859375 240.328125 73.429688 C 227.664062 81.492188 211.390625 89.808594 194.316406 98.53125 C 192.050781 99.691406 189.769531 100.855469 187.480469 102.03125 C 167.949219 112.042969 147.863281 122.609375 131.28125 133.972656 C 95.324219 158.609375 54.34375 149.972656 23.734375 134.792969 C 0.0703125 123.058594 -7.871094 94.714844 10.097656 75.304688 C 20.960938 63.570312 36.59375 50.632812 58.511719 38.335938 C 90.261719 20.519531 114.714844 7.214844 141.46875 2.769531 Z M 141.515625 3.054688 C 114.820312 7.488281 90.410156 20.765625 58.652344 38.585938 C 36.757812 50.871094 21.152344 63.789062 10.308594 75.5 C -7.503906 94.742188 0.335938 122.871094 23.863281 134.539062 C 54.429688 149.695312 95.285156 158.289062 131.121094 133.734375 C 147.71875 122.359375 167.820312 111.785156 187.347656 101.773438 C 189.636719 100.601562 191.917969 99.433594 194.1875 98.277344 C 211.265625 89.550781 227.523438 81.242188 240.171875 73.1875 C 247.335938 68.625 253.335938 64.144531 257.671875 59.722656 C 262.003906 55.296875 264.660156 50.941406 265.15625 46.625 C 265.652344 42.316406 264.007812 38.015625 259.675781 33.6875 C 255.339844 29.355469 248.320312 25.003906 238.097656 20.609375 C 197.191406 3.023438 168.203125 -1.378906 141.515625 3.054688 Z M 141.515625 3.054688 " fill-opacity="1" fill-rule="evenodd"/></g></g></g></g><g clip-path="url(#b5e025b65d)"><g mask="url(#ac3aa46fe6)"><g transform="matrix(1, 0, 0, 1, 2, 72)"><g clip-path="url(#3866f9cdbc)"><g clip-path="url(#d0bf28c0e7)"><path fill="#2f6da3" d="M 157.074219 0.527344 C 184.199219 0.796875 212.035156 10.195312 249.292969 34.636719 C 258.609375 40.746094 264.800781 46.273438 268.347656 51.335938 C 271.902344 56.402344 272.8125 61.015625 271.542969 65.277344 C 270.273438 69.53125 266.847656 73.40625 261.789062 77.027344 C 256.726562 80.648438 250.015625 84.027344 242.160156 87.28125 C 228.289062 93.023438 210.820312 98.386719 192.488281 104.011719 C 190.054688 104.761719 187.605469 105.511719 185.148438 106.269531 C 164.175781 112.738281 142.558594 119.65625 124.257812 127.964844 C 84.566406 145.988281 45.710938 130.367188 18.203125 110.101562 C -3.066406 94.4375 -5.964844 65.144531 15.105469 49.148438 C 27.839844 39.480469 45.480469 29.453125 69.199219 21.148438 C 103.558594 9.117188 129.953125 0.257812 157.074219 0.527344 Z M 157.070312 0.816406 C 130.011719 0.546875 103.664062 9.382812 69.292969 21.417969 C 45.601562 29.714844 27.988281 39.726562 15.277344 49.378906 C -5.605469 65.234375 -2.769531 94.296875 18.371094 109.871094 C 45.84375 130.109375 84.585938 145.664062 124.140625 127.703125 C 142.460938 119.386719 164.09375 112.460938 185.066406 105.996094 C 187.523438 105.238281 189.972656 104.484375 192.40625 103.738281 C 210.738281 98.109375 228.191406 92.753906 242.050781 87.015625 C 249.898438 83.765625 256.585938 80.398438 261.621094 76.792969 C 266.65625 73.1875 270.027344 69.359375 271.265625 65.195312 C 272.503906 61.039062 271.628906 56.519531 268.113281 51.503906 C 264.597656 46.484375 258.4375 40.980469 249.136719 34.875 C 211.90625 10.453125 184.125 1.082031 157.070312 0.816406 Z M 157.070312 0.816406 " fill-opacity="1" fill-rule="evenodd"/></g></g></g></g></g><path fill="#2f6da3" d="M 170.023438 77.257812 C 196.691406 82.234375 222.472656 96.324219 254.917969 126.863281 C 263.03125 134.5 268.171875 141.015625 270.785156 146.617188 C 273.402344 152.226562 273.5 156.925781 271.507812 160.902344 C 269.523438 164.871094 265.472656 168.09375 259.863281 170.777344 C 254.25 173.464844 247.054688 175.628906 238.753906 177.46875 C 224.09375 180.714844 205.960938 182.964844 186.929688 185.320312 C 184.40625 185.632812 181.863281 185.949219 179.308594 186.269531 C 157.53125 188.996094 135.042969 192.058594 115.578125 197.0625 C 73.359375 207.917969 37.804688 185.785156 14.234375 161.054688 C -3.988281 141.933594 -1.757812 112.582031 21.765625 100.488281 C 35.988281 93.175781 55.101562 86.367188 79.902344 82.304688 C 115.832031 76.425781 143.363281 72.285156 170.023438 77.257812 Z M 169.96875 77.542969 C 143.367188 72.578125 115.886719 76.707031 79.949219 82.589844 C 55.175781 86.644531 36.089844 93.445312 21.898438 100.742188 C -1.421875 112.734375 -3.675781 141.84375 14.441406 160.855469 C 37.980469 185.554688 73.4375 207.601562 115.503906 196.785156 C 134.992188 191.773438 157.5 188.710938 179.273438 185.984375 C 181.828125 185.664062 184.371094 185.347656 186.894531 185.035156 C 205.925781 182.675781 224.046875 180.429688 238.691406 177.1875 C 246.984375 175.351562 254.152344 173.195312 259.738281 170.519531 C 265.324219 167.84375 269.308594 164.660156 271.25 160.773438 C 273.191406 156.894531 273.117188 152.289062 270.523438 146.742188 C 267.933594 141.1875 262.824219 134.699219 254.722656 127.070312 C 222.296875 96.554688 196.566406 82.503906 169.96875 77.542969 Z M 169.96875 77.542969 " fill-opacity="1" fill-rule="evenodd"/><g transform="matrix(1, 0, 0, 1, 76, 122)"><g clip-path="url(#0d95df23fe)"><g clip-path="url(#57e45485d9)"><g fill="#004aad" fill-opacity="1"><g transform="translate(0.479513, 2.254019)"><g><path d="M 0.21875 0.015625 C 0.1875 0.015625 0.160156 0.00390625 0.140625 -0.015625 C 0.117188 -0.0351562 0.109375 -0.0625 0.109375 -0.09375 C 0.109375 -0.125 0.117188 -0.148438 0.140625 -0.171875 C 0.160156 -0.191406 0.1875 -0.203125 0.21875 -0.203125 C 0.25 -0.203125 0.273438 -0.191406 0.296875 -0.171875 C 0.316406 -0.148438 0.328125 -0.125 0.328125 -0.09375 C 0.328125 -0.0625 0.316406 -0.0351562 0.296875 -0.015625 C 0.273438 0.00390625 0.25 0.015625 0.21875 0.015625 Z M 0.21875 0.015625 "/></g></g></g></g></g></g></g></g></svg>